<svg id="svg" version="1.1" width="400" height="309.09090909090907" viewBox="0 0 400 309.09090909090907" xmlns="http://www.w3.org/2000/svg" xmlns:xlink="http://www.w3.org/1999/xlink" ><g id="svgg"><path id="path0" d="M41.616 108.283 C 40.935 108.964,41.521 109.091,45.333 109.091 L 49.212 109.091 49.212 112.479 L 49.212 115.866 45.394 115.933 L 41.576 116.000 41.509 120.182 L 41.443 124.364 45.328 124.364 L 49.212 124.364 49.212 127.751 L 49.212 131.139 45.394 131.206 L 41.576 131.273 41.509 135.455 L 41.443 139.636 45.328 139.636 L 49.212 139.636 49.212 143.024 L 49.212 146.412 45.394 146.479 L 41.576 146.545 41.576 150.788 L 41.576 155.030 45.394 155.097 L 49.212 155.164 49.212 158.424 L 49.212 161.685 45.394 161.751 L 41.576 161.818 41.576 166.061 L 41.576 170.303 45.394 170.370 L 49.212 170.437 49.212 173.697 L 49.212 176.957 45.394 177.024 L 41.576 177.091 41.576 181.333 L 41.576 185.576 45.394 185.643 L 49.212 185.709 49.212 188.970 L 49.212 192.230 45.394 192.297 L 41.576 192.364 41.576 196.606 L 41.576 200.848 199.864 200.909 C 322.991 200.957,358.193 200.905,358.333 200.678 C 358.706 200.075,358.149 200.000,353.319 200.000 L 348.364 200.000 348.364 196.606 L 348.364 193.212 353.293 193.212 C 356.004 193.212,358.287 193.147,358.367 193.067 C 358.796 192.639,358.170 192.242,357.065 192.242 L 355.879 192.242 355.879 188.970 L 355.879 185.697 357.065 185.697 C 358.170 185.697,358.796 185.301,358.367 184.872 C 358.287 184.792,356.004 184.727,353.293 184.727 L 348.364 184.727 348.364 181.333 L 348.364 177.939 353.293 177.939 C 356.004 177.939,358.287 177.874,358.367 177.794 C 358.796 177.366,358.170 176.970,357.065 176.970 L 355.879 176.970 355.879 173.710 L 355.879 170.450 357.152 170.376 C 358.089 170.322,358.424 170.207,358.424 169.939 C 358.424 169.630,357.675 169.566,353.394 169.510 L 348.364 169.445 348.364 166.056 L 348.364 162.667 353.293 162.667 C 356.004 162.667,358.287 162.601,358.367 162.522 C 358.796 162.093,358.170 161.697,357.065 161.697 L 355.879 161.697 355.879 158.437 L 355.879 155.177 357.152 155.104 C 358.089 155.050,358.424 154.934,358.424 154.667 C 358.424 154.357,357.675 154.293,353.394 154.238 L 348.364 154.172 348.364 150.788 L 348.364 147.404 353.394 147.338 C 357.675 147.282,358.424 147.219,358.424 146.909 C 358.424 146.641,358.089 146.526,357.152 146.472 L 355.879 146.399 355.879 143.018 L 355.879 139.636 357.051 139.636 C 358.333 139.636,358.579 139.520,358.382 139.007 C 358.276 138.730,357.325 138.667,353.307 138.667 L 348.364 138.667 348.364 135.399 L 348.364 132.131 353.394 132.066 C 357.675 132.010,358.424 131.946,358.424 131.636 C 358.424 131.369,358.089 131.253,357.152 131.199 L 355.879 131.126 355.879 127.745 L 355.879 124.364 357.051 124.364 C 358.333 124.364,358.579 124.248,358.382 123.734 C 358.276 123.458,357.325 123.394,353.307 123.394 L 348.364 123.394 348.364 120.126 L 348.364 116.858 353.394 116.793 C 357.675 116.737,358.424 116.673,358.424 116.364 C 358.424 116.096,358.089 115.981,357.152 115.927 L 355.879 115.853 355.879 112.472 L 355.879 109.091 357.051 109.091 C 358.333 109.091,358.579 108.975,358.382 108.461 C 358.243 108.099,41.978 107.921,41.616 108.283 M64.485 112.485 L 64.485 115.879 57.333 115.879 L 50.182 115.879 50.182 112.485 L 50.182 109.091 57.333 109.091 L 64.485 109.091 64.485 112.485 M79.758 112.485 L 79.758 115.879 72.606 115.879 L 65.455 115.879 65.455 112.485 L 65.455 109.091 72.606 109.091 L 79.758 109.091 79.758 112.485 M95.030 112.485 L 95.030 115.879 87.879 115.879 L 80.727 115.879 80.727 112.485 L 80.727 109.091 87.879 109.091 L 95.030 109.091 95.030 112.485 M110.303 112.485 L 110.303 115.879 103.152 115.879 L 96.000 115.879 96.000 112.485 L 96.000 109.091 103.152 109.091 L 110.303 109.091 110.303 112.485 M125.576 112.485 L 125.576 115.879 118.424 115.879 L 111.273 115.879 111.273 112.485 L 111.273 109.091 118.424 109.091 L 125.576 109.091 125.576 112.485 M140.848 112.485 L 140.848 115.879 133.697 115.879 L 126.545 115.879 126.545 112.485 L 126.545 109.091 133.697 109.091 L 140.848 109.091 140.848 112.485 M156.364 112.485 L 156.364 115.879 149.091 115.879 L 141.818 115.879 141.818 112.485 L 141.818 109.091 149.091 109.091 L 156.364 109.091 156.364 112.485 M171.636 112.485 L 171.636 115.879 164.485 115.879 L 157.333 115.879 157.333 112.485 L 157.333 109.091 164.485 109.091 L 171.636 109.091 171.636 112.485 M186.909 112.485 L 186.909 115.879 179.758 115.879 L 172.606 115.879 172.606 112.485 L 172.606 109.091 179.758 109.091 L 186.909 109.091 186.909 112.485 M202.182 112.485 L 202.182 115.879 195.030 115.879 L 187.879 115.879 187.879 112.485 L 187.879 109.091 195.030 109.091 L 202.182 109.091 202.182 112.485 M217.455 112.485 L 217.455 115.879 210.303 115.879 L 203.152 115.879 203.152 112.485 L 203.152 109.091 210.303 109.091 L 217.455 109.091 217.455 112.485 M232.727 112.485 L 232.727 115.879 225.576 115.879 L 218.424 115.879 218.424 112.485 L 218.424 109.091 225.576 109.091 L 232.727 109.091 232.727 112.485 M248.000 112.485 L 248.000 115.879 240.848 115.879 L 233.697 115.879 233.697 112.485 L 233.697 109.091 240.848 109.091 L 248.000 109.091 248.000 112.485 M263.273 112.485 L 263.273 115.879 256.121 115.879 L 248.970 115.879 248.970 112.485 L 248.970 109.091 256.121 109.091 L 263.273 109.091 263.273 112.485 M278.545 112.485 L 278.545 115.879 271.394 115.879 L 264.242 115.879 264.242 112.485 L 264.242 109.091 271.394 109.091 L 278.545 109.091 278.545 112.485 M293.818 112.485 L 293.818 115.879 286.667 115.879 L 279.515 115.879 279.515 112.485 L 279.515 109.091 286.667 109.091 L 293.818 109.091 293.818 112.485 M309.091 112.485 L 309.091 115.879 301.939 115.879 L 294.788 115.879 294.788 112.485 L 294.788 109.091 301.939 109.091 L 309.091 109.091 309.091 112.485 M324.364 112.485 L 324.364 115.879 317.212 115.879 L 310.061 115.879 310.061 112.485 L 310.061 109.091 317.212 109.091 L 324.364 109.091 324.364 112.485 M339.636 112.485 L 339.636 115.879 332.485 115.879 L 325.333 115.879 325.333 112.485 L 325.333 109.091 332.485 109.091 L 339.636 109.091 339.636 112.485 M354.909 112.485 L 354.909 115.879 347.758 115.879 L 340.606 115.879 340.606 112.485 L 340.606 109.091 347.758 109.091 L 354.909 109.091 354.909 112.485 M56.970 120.121 L 56.970 123.394 49.697 123.394 L 42.424 123.394 42.424 120.121 L 42.424 116.848 49.697 116.848 L 56.970 116.848 56.970 120.121 M72.242 120.121 L 72.242 123.394 65.091 123.394 L 57.939 123.394 57.939 120.121 L 57.939 116.848 65.091 116.848 L 72.242 116.848 72.242 120.121 M87.515 120.121 L 87.515 123.394 80.364 123.394 L 73.212 123.394 73.212 120.121 L 73.212 116.848 80.364 116.848 L 87.515 116.848 87.515 120.121 M102.788 120.121 L 102.788 123.394 95.636 123.394 L 88.485 123.394 88.485 120.121 L 88.485 116.848 95.636 116.848 L 102.788 116.848 102.788 120.121 M118.061 120.121 L 118.061 123.394 110.909 123.394 L 103.758 123.394 103.758 120.121 L 103.758 116.848 110.909 116.848 L 118.061 116.848 118.061 120.121 M133.333 120.121 L 133.333 123.394 126.182 123.394 L 119.030 123.394 119.030 120.121 L 119.030 116.848 126.182 116.848 L 133.333 116.848 133.333 120.121 M148.606 120.121 L 148.606 123.394 141.455 123.394 L 134.303 123.394 134.303 120.121 L 134.303 116.848 141.455 116.848 L 148.606 116.848 148.606 120.121 M163.879 120.121 L 163.879 123.394 156.727 123.394 L 149.576 123.394 149.576 120.121 L 149.576 116.848 156.727 116.848 L 163.879 116.848 163.879 120.121 M179.152 120.121 L 179.152 123.394 172.000 123.394 L 164.848 123.394 164.848 120.121 L 164.848 116.848 172.000 116.848 L 179.152 116.848 179.152 120.121 M194.424 120.121 L 194.424 123.394 187.273 123.394 L 180.121 123.394 180.121 120.121 L 180.121 116.848 187.273 116.848 L 194.424 116.848 194.424 120.121 M209.697 120.121 L 209.697 123.394 202.545 123.394 L 195.394 123.394 195.394 120.121 L 195.394 116.848 202.545 116.848 L 209.697 116.848 209.697 120.121 M224.970 120.121 L 224.970 123.394 217.818 123.394 L 210.667 123.394 210.667 120.121 L 210.667 116.848 217.818 116.848 L 224.970 116.848 224.970 120.121 M240.242 120.121 L 240.242 123.394 233.091 123.394 L 225.939 123.394 225.939 120.121 L 225.939 116.848 233.091 116.848 L 240.242 116.848 240.242 120.121 M255.515 120.121 L 255.515 123.394 248.364 123.394 L 241.212 123.394 241.212 120.121 L 241.212 116.848 248.364 116.848 L 255.515 116.848 255.515 120.121 M271.030 120.121 L 271.030 123.394 263.758 123.394 L 256.485 123.394 256.485 120.121 L 256.485 116.848 263.758 116.848 L 271.030 116.848 271.030 120.121 M286.303 120.121 L 286.303 123.394 279.152 123.394 L 272.000 123.394 272.000 120.121 L 272.000 116.848 279.152 116.848 L 286.303 116.848 286.303 120.121 M301.576 120.121 L 301.576 123.394 294.424 123.394 L 287.273 123.394 287.273 120.121 L 287.273 116.848 294.424 116.848 L 301.576 116.848 301.576 120.121 M316.848 120.121 L 316.848 123.394 309.697 123.394 L 302.545 123.394 302.545 120.121 L 302.545 116.848 309.697 116.848 L 316.848 116.848 316.848 120.121 M332.121 120.121 L 332.121 123.394 324.970 123.394 L 317.818 123.394 317.818 120.121 L 317.818 116.848 324.970 116.848 L 332.121 116.848 332.121 120.121 M347.394 120.121 L 347.394 123.394 340.242 123.394 L 333.091 123.394 333.091 120.121 L 333.091 116.848 340.242 116.848 L 347.394 116.848 347.394 120.121 M64.485 127.758 L 64.485 131.152 57.333 131.152 L 50.182 131.152 50.182 127.758 L 50.182 124.364 57.333 124.364 L 64.485 124.364 64.485 127.758 M79.758 127.758 L 79.758 131.152 72.606 131.152 L 65.455 131.152 65.455 127.758 L 65.455 124.364 72.606 124.364 L 79.758 124.364 79.758 127.758 M95.030 127.758 L 95.030 131.152 87.879 131.152 L 80.727 131.152 80.727 127.758 L 80.727 124.364 87.879 124.364 L 95.030 124.364 95.030 127.758 M110.303 125.207 L 110.303 126.051 105.273 126.116 L 100.242 126.182 100.173 128.667 L 100.104 131.152 98.052 131.152 L 96.000 131.152 96.000 127.758 L 96.000 124.364 103.152 124.364 L 110.303 124.364 110.303 125.207 M125.576 125.212 L 125.576 126.061 118.424 126.061 L 111.273 126.061 111.273 125.212 L 111.273 124.364 118.424 124.364 L 125.576 124.364 125.576 125.212 M140.848 127.758 L 140.848 131.152 138.788 131.152 L 136.727 131.152 136.727 128.606 L 136.727 126.061 131.636 126.061 L 126.545 126.061 126.545 125.212 L 126.545 124.364 133.697 124.364 L 140.848 124.364 140.848 127.758 M156.364 127.758 L 156.364 131.152 149.091 131.152 L 141.818 131.152 141.818 127.758 L 141.818 124.364 149.091 124.364 L 156.364 124.364 156.364 127.758 M171.636 127.758 L 171.636 131.152 164.485 131.152 L 157.333 131.152 157.333 127.758 L 157.333 124.364 164.485 124.364 L 171.636 124.364 171.636 127.758 M186.909 127.758 L 186.909 131.152 179.758 131.152 L 172.606 131.152 172.606 127.758 L 172.606 124.364 179.758 124.364 L 186.909 124.364 186.909 127.758 M202.182 127.758 L 202.182 131.152 195.030 131.152 L 187.879 131.152 187.879 127.758 L 187.879 124.364 195.030 124.364 L 202.182 124.364 202.182 127.758 M217.455 127.758 L 217.455 131.152 210.303 131.152 L 203.152 131.152 203.152 127.758 L 203.152 124.364 210.303 124.364 L 217.455 124.364 217.455 127.758 M232.727 127.758 L 232.727 131.152 225.576 131.152 L 218.424 131.152 218.424 127.758 L 218.424 124.364 225.576 124.364 L 232.727 124.364 232.727 127.758 M248.000 127.758 L 248.000 131.152 240.848 131.152 L 233.697 131.152 233.697 127.758 L 233.697 124.364 240.848 124.364 L 248.000 124.364 248.000 127.758 M263.273 127.758 L 263.273 131.152 256.121 131.152 L 248.970 131.152 248.970 127.758 L 248.970 124.364 256.121 124.364 L 263.273 124.364 263.273 127.758 M278.545 125.212 L 278.545 126.061 273.455 126.061 L 268.364 126.061 268.364 128.606 L 268.364 131.152 266.303 131.152 L 264.242 131.152 264.242 127.758 L 264.242 124.364 271.394 124.364 L 278.545 124.364 278.545 125.212 M293.818 125.212 L 293.818 126.061 286.667 126.061 L 279.515 126.061 279.515 125.212 L 279.515 124.364 286.667 124.364 L 293.818 124.364 293.818 125.212 M309.091 127.758 L 309.091 131.152 307.030 131.152 L 304.970 131.152 304.970 128.606 L 304.970 126.061 299.879 126.061 L 294.788 126.061 294.788 125.212 L 294.788 124.364 301.939 124.364 L 309.091 124.364 309.091 127.758 M324.364 127.758 L 324.364 131.152 317.212 131.152 L 310.061 131.152 310.061 127.758 L 310.061 124.364 317.212 124.364 L 324.364 124.364 324.364 127.758 M339.636 127.758 L 339.636 131.152 332.485 131.152 L 325.333 131.152 325.333 127.758 L 325.333 124.364 332.485 124.364 L 339.636 124.364 339.636 127.758 M354.909 127.758 L 354.909 131.152 347.758 131.152 L 340.606 131.152 340.606 127.758 L 340.606 124.364 347.758 124.364 L 354.909 124.364 354.909 127.758 M135.758 163.515 L 135.758 200.000 135.031 200.000 L 134.305 200.000 134.243 164.303 L 134.182 128.606 118.545 128.606 L 102.909 128.606 102.848 164.303 L 102.786 200.000 101.939 200.000 L 101.091 200.000 101.091 163.515 L 101.091 127.030 118.424 127.030 L 135.758 127.030 135.758 163.515 M304.000 163.515 L 304.000 200.000 303.273 200.000 L 302.545 200.000 302.545 164.626 C 302.545 145.170,302.479 129.079,302.398 128.868 C 302.266 128.524,300.652 128.485,286.641 128.485 L 271.030 128.485 271.030 164.242 L 271.030 200.000 270.182 200.000 L 269.333 200.000 269.333 163.515 L 269.333 127.030 286.667 127.030 L 304.000 127.030 304.000 163.515 M133.333 164.727 L 133.333 200.000 118.545 200.000 L 103.758 200.000 103.758 164.727 L 103.758 129.455 118.545 129.455 L 133.333 129.455 133.333 164.727 M301.576 164.727 L 301.576 200.000 286.788 200.000 L 272.000 200.000 272.000 164.727 L 272.000 129.455 286.788 129.455 L 301.576 129.455 301.576 164.727 M56.970 135.394 L 56.970 138.667 49.697 138.667 L 42.424 138.667 42.424 135.394 L 42.424 132.121 49.697 132.121 L 56.970 132.121 56.970 135.394 M72.242 135.394 L 72.242 138.667 65.091 138.667 L 57.939 138.667 57.939 135.394 L 57.939 132.121 65.091 132.121 L 72.242 132.121 72.242 135.394 M87.515 135.394 L 87.515 138.667 80.364 138.667 L 73.212 138.667 73.212 135.394 L 73.212 132.121 80.364 132.121 L 87.515 132.121 87.515 135.394 M100.121 135.394 L 100.121 138.667 94.303 138.667 L 88.485 138.667 88.485 135.394 L 88.485 132.121 94.303 132.121 L 100.121 132.121 100.121 135.394 M148.606 135.394 L 148.606 138.667 142.667 138.667 L 136.727 138.667 136.727 135.394 L 136.727 132.121 142.667 132.121 L 148.606 132.121 148.606 135.394 M163.879 135.394 L 163.879 138.667 156.727 138.667 L 149.576 138.667 149.576 135.394 L 149.576 132.121 156.727 132.121 L 163.879 132.121 163.879 135.394 M179.152 135.394 L 179.152 138.667 172.000 138.667 L 164.848 138.667 164.848 135.394 L 164.848 132.121 172.000 132.121 L 179.152 132.121 179.152 135.394 M194.424 135.394 L 194.424 138.667 187.273 138.667 L 180.121 138.667 180.121 135.394 L 180.121 132.121 187.273 132.121 L 194.424 132.121 194.424 135.394 M209.697 135.394 L 209.697 138.667 202.545 138.667 L 195.394 138.667 195.394 135.394 L 195.394 132.121 202.545 132.121 L 209.697 132.121 209.697 135.394 M224.970 135.394 L 224.970 138.667 217.818 138.667 L 210.667 138.667 210.667 135.394 L 210.667 132.121 217.818 132.121 L 224.970 132.121 224.970 135.394 M240.242 135.394 L 240.242 138.667 233.091 138.667 L 225.939 138.667 225.939 135.394 L 225.939 132.121 233.091 132.121 L 240.242 132.121 240.242 135.394 M255.515 135.394 L 255.515 138.667 248.364 138.667 L 241.212 138.667 241.212 135.394 L 241.212 132.121 248.364 132.121 L 255.515 132.121 255.515 135.394 M268.364 135.394 L 268.364 138.667 262.424 138.667 L 256.485 138.667 256.485 135.394 L 256.485 132.121 262.424 132.121 L 268.364 132.121 268.364 135.394 M316.848 135.394 L 316.848 138.667 310.909 138.667 L 304.970 138.667 304.970 135.394 L 304.970 132.121 310.909 132.121 L 316.848 132.121 316.848 135.394 M332.121 135.394 L 332.121 138.667 324.970 138.667 L 317.818 138.667 317.818 135.394 L 317.818 132.121 324.970 132.121 L 332.121 132.121 332.121 135.394 M347.394 135.394 L 347.394 138.667 340.242 138.667 L 333.091 138.667 333.091 135.394 L 333.091 132.121 340.242 132.121 L 347.394 132.121 347.394 135.394 M64.485 143.030 L 64.485 146.424 57.333 146.424 L 50.182 146.424 50.182 143.030 L 50.182 139.636 57.333 139.636 L 64.485 139.636 64.485 143.030 M79.758 143.030 L 79.758 146.424 72.606 146.424 L 65.455 146.424 65.455 143.030 L 65.455 139.636 72.606 139.636 L 79.758 139.636 79.758 143.030 M95.030 143.030 L 95.030 146.424 87.879 146.424 L 80.727 146.424 80.727 143.030 L 80.727 139.636 87.879 139.636 L 95.030 139.636 95.030 143.030 M100.121 143.030 L 100.121 146.424 98.061 146.424 L 96.000 146.424 96.000 143.030 L 96.000 139.636 98.061 139.636 L 100.121 139.636 100.121 143.030 M140.848 143.030 L 140.848 146.424 138.788 146.424 L 136.727 146.424 136.727 143.030 L 136.727 139.636 138.788 139.636 L 140.848 139.636 140.848 143.030 M156.364 143.030 L 156.364 146.424 149.091 146.424 L 141.818 146.424 141.818 143.030 L 141.818 139.636 149.091 139.636 L 156.364 139.636 156.364 143.030 M171.636 143.030 L 171.636 146.424 164.485 146.424 L 157.333 146.424 157.333 143.030 L 157.333 139.636 164.485 139.636 L 171.636 139.636 171.636 143.030 M186.909 143.030 L 186.909 146.424 179.758 146.424 L 172.606 146.424 172.606 143.030 L 172.606 139.636 179.758 139.636 L 186.909 139.636 186.909 143.030 M202.182 143.030 L 202.182 146.424 195.030 146.424 L 187.879 146.424 187.879 143.030 L 187.879 139.636 195.030 139.636 L 202.182 139.636 202.182 143.030 M217.455 143.030 L 217.455 146.424 210.303 146.424 L 203.152 146.424 203.152 143.030 L 203.152 139.636 210.303 139.636 L 217.455 139.636 217.455 143.030 M232.727 143.030 L 232.727 146.424 225.576 146.424 L 218.424 146.424 218.424 143.030 L 218.424 139.636 225.576 139.636 L 232.727 139.636 232.727 143.030 M248.000 143.030 L 248.000 146.424 240.848 146.424 L 233.697 146.424 233.697 143.030 L 233.697 139.636 240.848 139.636 L 248.000 139.636 248.000 143.030 M263.273 143.030 L 263.273 146.424 256.121 146.424 L 248.970 146.424 248.970 143.030 L 248.970 139.636 256.121 139.636 L 263.273 139.636 263.273 143.030 M268.364 143.030 L 268.364 146.424 266.303 146.424 L 264.242 146.424 264.242 143.030 L 264.242 139.636 266.303 139.636 L 268.364 139.636 268.364 143.030 M309.091 143.030 L 309.091 146.424 307.030 146.424 L 304.970 146.424 304.970 143.030 L 304.970 139.636 307.030 139.636 L 309.091 139.636 309.091 143.030 M324.364 143.030 L 324.364 146.424 317.212 146.424 L 310.061 146.424 310.061 143.030 L 310.061 139.636 317.212 139.636 L 324.364 139.636 324.364 143.030 M339.636 143.030 L 339.636 146.424 332.485 146.424 L 325.333 146.424 325.333 143.030 L 325.333 139.636 332.485 139.636 L 339.636 139.636 339.636 143.030 M354.909 143.030 L 354.909 146.424 347.758 146.424 L 340.606 146.424 340.606 143.030 L 340.606 139.636 347.758 139.636 L 354.909 139.636 354.909 143.030 M56.970 150.788 L 56.970 154.182 49.697 154.182 L 42.424 154.182 42.424 150.788 L 42.424 147.394 49.697 147.394 L 56.970 147.394 56.970 150.788 M72.242 150.788 L 72.242 154.182 65.091 154.182 L 57.939 154.182 57.939 150.788 L 57.939 147.394 65.091 147.394 L 72.242 147.394 72.242 150.788 M87.515 150.788 L 87.515 154.182 80.364 154.182 L 73.212 154.182 73.212 150.788 L 73.212 147.394 80.364 147.394 L 87.515 147.394 87.515 150.788 M100.121 150.788 L 100.121 154.182 94.303 154.182 L 88.485 154.182 88.485 150.788 L 88.485 147.394 94.303 147.394 L 100.121 147.394 100.121 150.788 M148.606 150.788 L 148.606 154.182 142.667 154.182 L 136.727 154.182 136.727 150.788 L 136.727 147.394 142.667 147.394 L 148.606 147.394 148.606 150.788 M163.879 150.788 L 163.879 154.182 156.727 154.182 L 149.576 154.182 149.576 150.788 L 149.576 147.394 156.727 147.394 L 163.879 147.394 163.879 150.788 M179.152 150.788 L 179.152 154.182 172.000 154.182 L 164.848 154.182 164.848 150.788 L 164.848 147.394 172.000 147.394 L 179.152 147.394 179.152 150.788 M194.424 150.788 L 194.424 154.182 187.273 154.182 L 180.121 154.182 180.121 150.788 L 180.121 147.394 187.273 147.394 L 194.424 147.394 194.424 150.788 M209.697 150.788 L 209.697 154.182 202.545 154.182 L 195.394 154.182 195.394 150.788 L 195.394 147.394 202.545 147.394 L 209.697 147.394 209.697 150.788 M224.970 150.788 L 224.970 154.182 217.818 154.182 L 210.667 154.182 210.667 150.788 L 210.667 147.394 217.818 147.394 L 224.970 147.394 224.970 150.788 M240.242 150.788 L 240.242 154.182 233.091 154.182 L 225.939 154.182 225.939 150.788 L 225.939 147.394 233.091 147.394 L 240.242 147.394 240.242 150.788 M255.515 150.788 L 255.515 154.182 248.364 154.182 L 241.212 154.182 241.212 150.788 L 241.212 147.394 248.364 147.394 L 255.515 147.394 255.515 150.788 M268.364 150.788 L 268.364 154.182 262.424 154.182 L 256.485 154.182 256.485 150.788 L 256.485 147.394 262.424 147.394 L 268.364 147.394 268.364 150.788 M316.848 150.788 L 316.848 154.182 310.909 154.182 L 304.970 154.182 304.970 150.788 L 304.970 147.394 310.909 147.394 L 316.848 147.394 316.848 150.788 M332.121 150.788 L 332.121 154.182 324.970 154.182 L 317.818 154.182 317.818 150.788 L 317.818 147.394 324.970 147.394 L 332.121 147.394 332.121 150.788 M347.394 150.788 L 347.394 154.182 340.242 154.182 L 333.091 154.182 333.091 150.788 L 333.091 147.394 340.242 147.394 L 347.394 147.394 347.394 150.788 M64.485 158.424 L 64.485 161.697 57.333 161.697 L 50.182 161.697 50.182 158.424 L 50.182 155.152 57.333 155.152 L 64.485 155.152 64.485 158.424 M79.758 158.424 L 79.758 161.697 72.606 161.697 L 65.455 161.697 65.455 158.424 L 65.455 155.152 72.606 155.152 L 79.758 155.152 79.758 158.424 M95.030 158.424 L 95.030 161.697 87.879 161.697 L 80.727 161.697 80.727 158.424 L 80.727 155.152 87.879 155.152 L 95.030 155.152 95.030 158.424 M100.121 158.424 L 100.121 161.697 98.061 161.697 L 96.000 161.697 96.000 158.424 L 96.000 155.152 98.061 155.152 L 100.121 155.152 100.121 158.424 M140.848 158.424 L 140.848 161.697 138.788 161.697 L 136.727 161.697 136.727 158.424 L 136.727 155.152 138.788 155.152 L 140.848 155.152 140.848 158.424 M156.364 158.424 L 156.364 161.697 149.091 161.697 L 141.818 161.697 141.818 158.424 L 141.818 155.152 149.091 155.152 L 156.364 155.152 156.364 158.424 M171.636 158.424 L 171.636 161.697 164.485 161.697 L 157.333 161.697 157.333 158.424 L 157.333 155.152 164.485 155.152 L 171.636 155.152 171.636 158.424 M186.909 157.922 L 186.909 160.692 185.549 160.862 C 184.801 160.956,183.537 160.973,182.740 160.901 C 181.526 160.791,181.216 160.844,180.827 161.233 C 180.409 161.651,179.982 161.697,176.485 161.697 L 172.606 161.697 172.606 158.424 L 172.606 155.152 179.758 155.152 L 186.909 155.152 186.909 157.922 M202.163 157.636 C 202.148 159.597,202.092 159.981,201.900 159.455 C 201.578 158.572,201.610 158.567,196.868 160.242 C 192.883 161.651,192.674 161.697,190.315 161.697 L 187.879 161.697 187.879 158.424 L 187.879 155.152 195.030 155.152 L 202.182 155.152 202.163 157.636 M217.455 158.424 L 217.455 161.697 210.303 161.697 L 203.152 161.697 203.152 158.424 L 203.152 155.152 210.303 155.152 L 217.455 155.152 217.455 158.424 M232.727 158.424 L 232.727 161.697 225.576 161.697 L 218.424 161.697 218.424 158.424 L 218.424 155.152 225.576 155.152 L 232.727 155.152 232.727 158.424 M248.000 158.424 L 248.000 161.697 240.848 161.697 L 233.697 161.697 233.697 158.424 L 233.697 155.152 240.848 155.152 L 248.000 155.152 248.000 158.424 M263.273 158.424 L 263.273 161.697 256.121 161.697 L 248.970 161.697 248.970 158.424 L 248.970 155.152 256.121 155.152 L 263.273 155.152 263.273 158.424 M268.364 158.424 L 268.364 161.697 266.303 161.697 L 264.242 161.697 264.242 158.424 L 264.242 155.152 266.303 155.152 L 268.364 155.152 268.364 158.424 M309.091 158.424 L 309.091 161.697 307.030 161.697 L 304.970 161.697 304.970 158.424 L 304.970 155.152 307.030 155.152 L 309.091 155.152 309.091 158.424 M324.364 158.424 L 324.364 161.697 317.212 161.697 L 310.061 161.697 310.061 158.424 L 310.061 155.152 317.212 155.152 L 324.364 155.152 324.364 158.424 M339.636 158.424 L 339.636 161.697 332.485 161.697 L 325.333 161.697 325.333 158.424 L 325.333 155.152 332.485 155.152 L 339.636 155.152 339.636 158.424 M354.909 158.424 L 354.909 161.697 347.758 161.697 L 340.606 161.697 340.606 158.424 L 340.606 155.152 347.758 155.152 L 354.909 155.152 354.909 158.424 M202.206 163.386 C 202.860 165.181,203.394 166.720,203.394 166.805 C 203.394 166.964,194.327 170.220,193.736 170.274 C 193.420 170.302,190.900 163.686,191.137 163.449 C 191.366 163.220,200.381 160.042,200.691 160.080 C 200.878 160.104,201.529 161.524,202.206 163.386 M186.488 162.156 C 186.558 162.424,186.914 162.682,187.345 162.777 C 187.750 162.866,188.290 163.123,188.545 163.348 C 189.011 163.760,197.922 187.856,197.693 188.085 C 197.500 188.278,197.556 188.422,193.065 176.121 C 188.071 162.445,188.633 163.382,185.086 162.816 C 181.328 162.217,181.124 162.080,183.758 161.925 C 185.024 161.851,186.130 161.769,186.214 161.743 C 186.299 161.718,186.422 161.904,186.488 162.156 M129.136 162.096 C 128.708 162.525,128.955 170.463,129.394 170.378 C 129.778 170.304,129.818 169.909,129.818 166.199 C 129.818 162.340,129.686 161.546,129.136 162.096 M275.394 166.182 C 275.394 170.126,275.427 170.453,275.818 170.378 C 276.202 170.304,276.242 169.908,276.242 166.182 C 276.242 162.456,276.202 162.060,275.818 161.986 C 275.427 161.910,275.394 162.238,275.394 166.182 M56.970 166.061 L 56.970 169.455 49.697 169.455 L 42.424 169.455 42.424 166.061 L 42.424 162.667 49.697 162.667 L 56.970 162.667 56.970 166.061 M72.242 166.061 L 72.242 169.455 65.091 169.455 L 57.939 169.455 57.939 166.061 L 57.939 162.667 65.091 162.667 L 72.242 162.667 72.242 166.061 M87.515 166.061 L 87.515 169.455 80.364 169.455 L 73.212 169.455 73.212 166.061 L 73.212 162.667 80.364 162.667 L 87.515 162.667 87.515 166.061 M100.121 166.061 L 100.121 169.455 94.303 169.455 L 88.485 169.455 88.485 166.061 L 88.485 162.667 94.303 162.667 L 100.121 162.667 100.121 166.061 M148.606 166.061 L 148.606 169.455 142.667 169.455 L 136.727 169.455 136.727 166.061 L 136.727 162.667 142.667 162.667 L 148.606 162.667 148.606 166.061 M163.879 166.061 L 163.879 169.455 156.727 169.455 L 149.576 169.455 149.576 166.061 L 149.576 162.667 156.727 162.667 L 163.879 162.667 163.879 166.061 M179.152 166.061 L 179.152 169.455 172.000 169.455 L 164.848 169.455 164.848 166.061 L 164.848 162.667 172.000 162.667 L 179.152 162.667 179.152 166.061 M181.160 162.999 C 181.455 163.182,182.892 163.521,184.353 163.753 C 187.792 164.299,187.507 164.111,188.363 166.386 C 188.772 167.474,189.210 168.609,189.336 168.909 L 189.565 169.455 184.843 169.455 L 180.121 169.455 180.121 166.061 C 180.121 162.526,180.169 162.385,181.160 162.999 M209.697 164.652 C 209.697 166.324,209.648 166.571,209.387 166.214 C 209.096 165.816,208.955 165.836,207.068 166.532 C 205.962 166.939,204.979 167.273,204.883 167.273 C 204.729 167.273,203.152 163.215,203.152 162.819 C 203.152 162.735,204.624 162.667,206.424 162.667 L 209.697 162.667 209.697 164.652 M224.970 166.061 L 224.970 169.455 217.818 169.455 L 210.667 169.455 210.667 166.061 L 210.667 162.667 217.818 162.667 L 224.970 162.667 224.970 166.061 M240.242 166.061 L 240.242 169.455 233.091 169.455 L 225.939 169.455 225.939 166.061 L 225.939 162.667 233.091 162.667 L 240.242 162.667 240.242 166.061 M255.515 166.061 L 255.515 169.455 248.364 169.455 L 241.212 169.455 241.212 166.061 L 241.212 162.667 248.364 162.667 L 255.515 162.667 255.515 166.061 M268.364 166.061 L 268.364 169.455 262.424 169.455 L 256.485 169.455 256.485 166.061 L 256.485 162.667 262.424 162.667 L 268.364 162.667 268.364 166.061 M316.848 166.061 L 316.848 169.455 310.909 169.455 L 304.970 169.455 304.970 166.061 L 304.970 162.667 310.909 162.667 L 316.848 162.667 316.848 166.061 M332.121 166.061 L 332.121 169.455 324.970 169.455 L 317.818 169.455 317.818 166.061 L 317.818 162.667 324.970 162.667 L 332.121 162.667 332.121 166.061 M347.394 166.061 L 347.394 169.455 340.242 169.455 L 333.091 169.455 333.091 166.061 L 333.091 162.667 340.242 162.667 L 347.394 162.667 347.394 166.061 M210.043 170.765 C 210.664 172.486,211.086 173.975,210.980 174.074 C 210.874 174.172,207.616 175.389,203.740 176.777 L 196.693 179.301 195.431 175.798 C 194.737 173.872,194.199 172.273,194.236 172.246 C 194.857 171.786,208.643 167.146,208.760 167.358 C 208.845 167.511,209.422 169.044,210.043 170.765 M64.485 173.697 L 64.485 176.970 57.333 176.970 L 50.182 176.970 50.182 173.697 L 50.182 170.424 57.333 170.424 L 64.485 170.424 64.485 173.697 M79.758 173.697 L 79.758 176.970 72.606 176.970 L 65.455 176.970 65.455 173.697 L 65.455 170.424 72.606 170.424 L 79.758 170.424 79.758 173.697 M95.030 173.697 L 95.030 176.970 87.879 176.970 L 80.727 176.970 80.727 173.697 L 80.727 170.424 87.879 170.424 L 95.030 170.424 95.030 173.697 M100.121 173.697 L 100.121 176.970 98.061 176.970 L 96.000 176.970 96.000 173.697 L 96.000 170.424 98.061 170.424 L 100.121 170.424 100.121 173.697 M140.848 173.697 L 140.848 176.970 138.788 176.970 L 136.727 176.970 136.727 173.697 L 136.727 170.424 138.788 170.424 L 140.848 170.424 140.848 173.697 M156.364 173.697 L 156.364 176.970 149.091 176.970 L 141.818 176.970 141.818 173.697 L 141.818 170.424 149.091 170.424 L 156.364 170.424 156.364 173.697 M171.636 173.697 L 171.636 176.970 164.485 176.970 L 157.333 176.970 157.333 173.697 L 157.333 170.424 164.485 170.424 L 171.636 170.424 171.636 173.697 M186.909 173.697 L 186.909 176.970 179.758 176.970 L 172.606 176.970 172.606 173.697 L 172.606 170.424 179.758 170.424 L 186.909 170.424 186.909 173.697 M191.070 173.697 C 191.714 175.430,192.241 176.876,192.242 176.909 C 192.242 176.942,191.261 176.970,190.061 176.970 L 187.879 176.970 187.879 173.683 L 187.879 170.396 188.889 170.471 L 189.899 170.545 191.070 173.697 M217.455 173.717 C 217.455 177.422,217.270 177.697,216.333 175.392 C 215.553 173.476,215.555 173.477,213.960 174.074 C 213.197 174.359,212.545 174.555,212.510 174.509 C 212.390 174.346,211.149 170.786,211.150 170.606 C 211.151 170.506,212.570 170.424,214.303 170.424 L 217.455 170.424 217.455 173.717 M232.727 173.697 L 232.727 176.970 225.576 176.970 L 218.424 176.970 218.424 173.697 L 218.424 170.424 225.576 170.424 L 232.727 170.424 232.727 173.697 M248.000 173.697 L 248.000 176.970 240.848 176.970 L 233.697 176.970 233.697 173.697 L 233.697 170.424 240.848 170.424 L 248.000 170.424 248.000 173.697 M263.273 173.697 L 263.273 176.970 256.121 176.970 L 248.970 176.970 248.970 173.697 L 248.970 170.424 256.121 170.424 L 263.273 170.424 263.273 173.697 M268.364 173.697 L 268.364 176.970 266.303 176.970 L 264.242 176.970 264.242 173.697 L 264.242 170.424 266.303 170.424 L 268.364 170.424 268.364 173.697 M309.091 173.697 L 309.091 176.970 307.030 176.970 L 304.970 176.970 304.970 173.697 L 304.970 170.424 307.030 170.424 L 309.091 170.424 309.091 173.697 M324.364 173.697 L 324.364 176.970 317.212 176.970 L 310.061 176.970 310.061 173.697 L 310.061 170.424 317.212 170.424 L 324.364 170.424 324.364 173.697 M339.636 173.697 L 339.636 176.970 332.485 176.970 L 325.333 176.970 325.333 173.697 L 325.333 170.424 332.485 170.424 L 339.636 170.424 339.636 173.697 M354.909 173.697 L 354.909 176.970 347.758 176.970 L 340.606 176.970 340.606 173.697 L 340.606 170.424 347.758 170.424 L 354.909 170.424 354.909 173.697 M217.050 180.242 C 218.053 182.909,218.909 185.235,218.952 185.411 C 219.006 185.630,216.935 186.479,212.364 188.113 L 205.697 190.495 204.848 189.683 C 203.876 188.754,202.248 187.973,200.799 187.741 L 199.800 187.581 198.688 184.625 C 198.076 182.999,197.576 181.558,197.576 181.424 C 197.576 181.028,214.881 174.785,215.067 175.114 C 215.154 175.268,216.046 177.576,217.050 180.242 M56.970 181.333 L 56.970 184.727 49.697 184.727 L 42.424 184.727 42.424 181.333 L 42.424 177.939 49.697 177.939 L 56.970 177.939 56.970 181.333 M72.242 181.333 L 72.242 184.727 65.091 184.727 L 57.939 184.727 57.939 181.333 L 57.939 177.939 65.091 177.939 L 72.242 177.939 72.242 181.333 M87.515 181.333 L 87.515 184.727 80.364 184.727 L 73.212 184.727 73.212 181.333 L 73.212 177.939 80.364 177.939 L 87.515 177.939 87.515 181.333 M100.121 181.333 L 100.121 184.727 94.303 184.727 L 88.485 184.727 88.485 181.333 L 88.485 177.939 94.303 177.939 L 100.121 177.939 100.121 181.333 M148.606 181.333 L 148.606 184.727 142.667 184.727 L 136.727 184.727 136.727 181.333 L 136.727 177.939 142.667 177.939 L 148.606 177.939 148.606 181.333 M163.879 181.333 L 163.879 184.727 156.727 184.727 L 149.576 184.727 149.576 181.333 L 149.576 177.939 156.727 177.939 L 163.879 177.939 163.879 181.333 M179.152 181.333 L 179.152 184.727 172.000 184.727 L 164.848 184.727 164.848 181.333 L 164.848 177.939 172.000 177.939 L 179.152 177.939 179.152 181.333 M193.530 180.424 C 194.028 181.791,194.432 183.318,194.429 183.818 L 194.424 184.727 187.273 184.727 L 180.121 184.727 180.121 181.333 L 180.121 177.939 186.374 177.939 L 192.626 177.939 193.530 180.424 M224.970 181.342 L 224.970 184.744 222.390 184.675 L 219.810 184.606 218.632 181.487 C 217.984 179.772,217.455 178.272,217.455 178.154 C 217.455 178.036,219.145 177.939,221.212 177.939 L 224.970 177.939 224.970 181.342 M240.242 181.333 L 240.242 184.727 233.091 184.727 L 225.939 184.727 225.939 181.333 L 225.939 177.939 233.091 177.939 L 240.242 177.939 240.242 181.333 M255.515 181.333 L 255.515 184.727 248.364 184.727 L 241.212 184.727 241.212 181.333 L 241.212 177.939 248.364 177.939 L 255.515 177.939 255.515 181.333 M268.364 181.333 L 268.364 184.727 262.424 184.727 L 256.485 184.727 256.485 181.333 L 256.485 177.939 262.424 177.939 L 268.364 177.939 268.364 181.333 M316.848 181.333 L 316.848 184.727 310.909 184.727 L 304.970 184.727 304.970 181.333 L 304.970 177.939 310.909 177.939 L 316.848 177.939 316.848 181.333 M332.121 181.333 L 332.121 184.727 324.970 184.727 L 317.818 184.727 317.818 181.333 L 317.818 177.939 324.970 177.939 L 332.121 177.939 332.121 181.333 M347.394 181.333 L 347.394 184.727 340.242 184.727 L 333.091 184.727 333.091 181.333 L 333.091 177.939 340.242 177.939 L 347.394 177.939 347.394 181.333 M64.485 188.970 L 64.485 192.242 57.333 192.242 L 50.182 192.242 50.182 188.970 L 50.182 185.697 57.333 185.697 L 64.485 185.697 64.485 188.970 M79.758 188.970 L 79.758 192.242 72.606 192.242 L 65.455 192.242 65.455 188.970 L 65.455 185.697 72.606 185.697 L 79.758 185.697 79.758 188.970 M95.030 188.970 L 95.030 192.242 87.879 192.242 L 80.727 192.242 80.727 188.970 L 80.727 185.697 87.879 185.697 L 95.030 185.697 95.030 188.970 M100.121 188.970 L 100.121 192.242 98.061 192.242 L 96.000 192.242 96.000 188.970 L 96.000 185.697 98.061 185.697 L 100.121 185.697 100.121 188.970 M140.848 188.970 L 140.848 192.242 138.788 192.242 L 136.727 192.242 136.727 188.970 L 136.727 185.697 138.788 185.697 L 140.848 185.697 140.848 188.970 M156.364 188.970 L 156.364 192.242 149.091 192.242 L 141.818 192.242 141.818 188.970 L 141.818 185.697 149.091 185.697 L 156.364 185.697 156.364 188.970 M171.636 188.970 L 171.636 192.242 164.485 192.242 L 157.333 192.242 157.333 188.970 L 157.333 185.697 164.485 185.697 L 171.636 185.697 171.636 188.970 M186.909 188.970 L 186.909 192.242 179.758 192.242 L 172.606 192.242 172.606 188.970 L 172.606 185.697 179.758 185.697 L 186.909 185.697 186.909 188.970 M196.046 187.264 C 196.784 189.169,196.768 189.297,195.645 190.386 C 195.117 190.898,194.619 191.526,194.538 191.780 C 194.404 192.205,194.126 192.242,191.135 192.242 L 187.879 192.242 187.879 188.964 L 187.879 185.685 191.683 185.751 L 195.487 185.818 196.046 187.264 M232.727 188.970 L 232.727 192.242 225.564 192.242 L 218.400 192.242 218.473 190.881 L 218.545 189.520 220.059 188.973 C 222.803 187.981,223.321 186.220,220.970 185.876 C 220.570 185.817,223.052 185.753,226.485 185.733 L 232.727 185.697 232.727 188.970 M248.000 188.970 L 248.000 192.242 240.848 192.242 L 233.697 192.242 233.697 188.970 L 233.697 185.697 240.848 185.697 L 248.000 185.697 248.000 188.970 M263.273 188.970 L 263.273 192.242 256.121 192.242 L 248.970 192.242 248.970 188.970 L 248.970 185.697 256.121 185.697 L 263.273 185.697 263.273 188.970 M268.364 188.970 L 268.364 192.242 266.303 192.242 L 264.242 192.242 264.242 188.970 L 264.242 185.697 266.303 185.697 L 268.364 185.697 268.364 188.970 M309.091 188.970 L 309.091 192.242 307.030 192.242 L 304.970 192.242 304.970 188.970 L 304.970 185.697 307.030 185.697 L 309.091 185.697 309.091 188.970 M324.364 188.970 L 324.364 192.242 317.212 192.242 L 310.061 192.242 310.061 188.970 L 310.061 185.697 317.212 185.697 L 324.364 185.697 324.364 188.970 M339.636 188.970 L 339.636 192.242 332.485 192.242 L 325.333 192.242 325.333 188.970 L 325.333 185.697 332.485 185.697 L 339.636 185.697 339.636 188.970 M354.909 188.970 L 354.909 192.242 347.758 192.242 L 340.606 192.242 340.606 188.970 L 340.606 185.697 347.758 185.697 L 354.909 185.697 354.909 188.970 M221.333 187.130 C 221.333 187.377,220.538 187.687,212.364 190.632 C 207.305 192.454,206.149 192.800,206.588 192.361 C 207.048 191.902,221.333 186.834,221.333 187.130 M202.643 190.380 C 207.756 193.763,203.746 201.734,198.113 199.381 C 195.824 198.425,193.753 194.197,195.152 193.333 C 195.285 193.251,195.394 192.976,195.394 192.721 C 195.394 190.315,200.199 188.762,202.643 190.380 M217.455 191.152 L 217.455 192.242 214.242 192.229 L 211.030 192.216 213.939 191.154 C 217.593 189.820,217.455 189.820,217.455 191.152 M198.909 191.978 C 196.694 192.946,196.575 196.203,198.717 197.220 C 201.074 198.338,203.583 196.021,202.589 193.644 C 202.008 192.251,200.178 191.423,198.909 191.978 M201.313 193.466 C 202.011 194.137,201.919 195.349,201.118 196.038 C 200.243 196.791,199.626 196.754,198.769 195.897 C 196.983 194.111,199.490 191.716,201.313 193.466 M56.970 196.606 L 56.970 200.000 49.697 200.000 L 42.424 200.000 42.424 196.606 L 42.424 193.212 49.697 193.212 L 56.970 193.212 56.970 196.606 M72.242 196.606 L 72.242 200.000 65.091 200.000 L 57.939 200.000 57.939 196.606 L 57.939 193.212 65.091 193.212 L 72.242 193.212 72.242 196.606 M87.515 196.606 L 87.515 200.000 80.364 200.000 L 73.212 200.000 73.212 196.606 L 73.212 193.212 80.364 193.212 L 87.515 193.212 87.515 196.606 M100.121 196.606 L 100.121 200.000 94.303 200.000 L 88.485 200.000 88.485 196.606 L 88.485 193.212 94.303 193.212 L 100.121 193.212 100.121 196.606 M148.606 196.606 L 148.606 200.000 142.667 200.000 L 136.727 200.000 136.727 196.606 L 136.727 193.212 142.667 193.212 L 148.606 193.212 148.606 196.606 M163.879 196.606 L 163.879 200.000 156.727 200.000 L 149.576 200.000 149.576 196.606 L 149.576 193.212 156.727 193.212 L 163.879 193.212 163.879 196.606 M179.152 196.606 L 179.152 200.000 172.000 200.000 L 164.848 200.000 164.848 196.606 L 164.848 193.212 172.000 193.212 L 179.152 193.212 179.152 196.606 M194.045 195.091 C 194.132 196.124,194.263 197.652,194.335 198.485 L 194.466 200.000 187.293 200.000 L 180.121 200.000 180.121 196.606 L 180.121 193.212 187.004 193.212 L 193.886 193.212 194.045 195.091 M209.697 196.606 L 209.697 200.000 206.523 200.000 L 203.349 200.000 204.417 198.813 C 205.564 197.536,206.061 196.294,206.061 194.699 C 206.061 193.823,206.129 193.697,206.606 193.693 C 206.906 193.691,207.315 193.584,207.515 193.455 C 207.715 193.325,208.288 193.218,208.788 193.216 L 209.697 193.212 209.697 196.606 M224.970 196.606 L 224.970 200.000 217.818 200.000 L 210.667 200.000 210.667 196.606 L 210.667 193.212 217.818 193.212 L 224.970 193.212 224.970 196.606 M240.242 196.606 L 240.242 200.000 233.091 200.000 L 225.939 200.000 225.939 196.606 L 225.939 193.212 233.091 193.212 L 240.242 193.212 240.242 196.606 M255.515 196.606 L 255.515 200.000 248.364 200.000 L 241.212 200.000 241.212 196.606 L 241.212 193.212 248.364 193.212 L 255.515 193.212 255.515 196.606 M268.364 196.606 L 268.364 200.000 262.424 200.000 L 256.485 200.000 256.485 196.606 L 256.485 193.212 262.424 193.212 L 268.364 193.212 268.364 196.606 M316.848 196.606 L 316.848 200.000 310.909 200.000 L 304.970 200.000 304.970 196.606 L 304.970 193.212 310.909 193.212 L 316.848 193.212 316.848 196.606 M332.121 196.606 L 332.121 200.000 324.970 200.000 L 317.818 200.000 317.818 196.606 L 317.818 193.212 324.970 193.212 L 332.121 193.212 332.121 196.606 M347.394 196.606 L 347.394 200.000 340.242 200.000 L 333.091 200.000 333.091 196.606 L 333.091 193.212 340.242 193.212 L 347.394 193.212 347.394 196.606 M196.606 199.907 C 196.606 199.958,196.333 200.000,196.000 200.000 C 195.553 200.000,195.394 199.871,195.394 199.510 C 195.394 199.042,195.422 199.038,196.000 199.416 C 196.333 199.635,196.606 199.855,196.606 199.907 " stroke="none" fill="#040404" fill-rule="evenodd"></path><path id="path1" d="" stroke="none" fill="#080404" fill-rule="evenodd"></path></g></svg>