<svg id="svg" version="1.1" width="400" height="400" viewBox="0 0 400 400" xmlns="http://www.w3.org/2000/svg" xmlns:xlink="http://www.w3.org/1999/xlink" ><g id="svgg"><path id="path0" d="M189.600 6.055 C 188.390 6.509,186.140 7.293,184.600 7.797 C 183.060 8.302,180.780 9.175,179.532 9.738 C 178.285 10.301,176.155 11.049,174.800 11.400 C 173.445 11.751,171.315 12.500,170.068 13.063 C 168.820 13.627,165.820 14.767,163.400 15.597 C 154.045 18.806,147.751 21.087,146.600 21.687 C 145.940 22.030,144.050 22.709,142.400 23.194 C 140.750 23.680,138.156 24.619,136.636 25.281 C 135.116 25.943,132.337 26.930,130.460 27.474 C 128.584 28.018,126.193 28.897,125.148 29.426 C 124.103 29.956,121.860 30.770,120.165 31.235 C 118.469 31.700,115.713 32.661,114.041 33.371 C 112.368 34.080,109.841 34.981,108.423 35.372 C 107.006 35.764,104.486 36.679,102.823 37.406 C 101.161 38.134,98.990 38.941,98.000 39.201 C 95.368 39.893,93.478 41.070,91.824 43.049 C 89.880 45.374,89.370 45.284,85.819 41.992 C 81.433 37.925,78.997 36.499,74.562 35.401 C 69.807 34.223,68.636 33.534,66.400 30.595 C 60.472 22.805,59.452 22.637,30.200 24.616 C 24.581 24.997,19.283 25.137,16.589 24.977 C 11.435 24.671,10.259 25.007,7.462 27.585 C 0.332 34.157,5.528 42.989,17.814 45.184 C 20.446 45.654,23.950 46.379,25.600 46.796 C 27.250 47.213,30.220 47.754,32.200 47.999 C 41.510 49.149,44.990 49.697,48.684 50.591 C 50.879 51.122,54.886 51.846,57.589 52.199 C 68.374 53.606,70.587 55.702,75.123 68.800 C 77.025 74.293,79.491 81.165,82.586 89.600 C 83.838 93.010,85.462 97.510,86.196 99.600 C 86.930 101.690,88.700 106.640,90.129 110.600 C 91.557 114.560,95.516 125.540,98.926 135.000 C 102.336 144.460,106.238 155.260,107.597 159.000 C 108.957 162.740,111.846 170.750,114.017 176.800 C 116.188 182.850,118.975 190.590,120.211 194.000 C 121.446 197.410,124.137 204.880,126.191 210.600 C 128.244 216.320,130.945 223.790,132.193 227.200 C 133.441 230.610,135.158 235.380,136.007 237.800 C 138.980 246.269,147.687 270.259,151.473 280.415 C 152.338 282.734,153.620 285.466,154.322 286.487 C 156.510 289.666,156.191 290.272,149.800 295.094 C 120.125 317.483,120.125 363.108,149.800 385.006 C 162.587 394.442,181.551 398.826,194.200 395.270 C 204.380 392.408,209.128 390.292,215.800 385.643 C 231.362 374.801,240.281 356.151,239.352 336.400 C 239.029 329.527,239.144 329.328,243.800 328.750 C 245.553 328.532,247.801 327.987,248.794 327.538 C 249.787 327.089,252.850 325.942,255.600 324.989 C 258.350 324.037,263.163 322.339,266.296 321.216 C 269.429 320.094,274.469 318.293,277.496 317.215 C 280.523 316.137,285.520 314.329,288.600 313.197 C 291.680 312.065,296.360 310.362,299.000 309.412 C 301.640 308.463,306.590 306.672,310.000 305.432 C 313.410 304.192,318.990 302.181,322.400 300.965 C 325.810 299.748,330.850 297.940,333.600 296.947 C 336.350 295.954,340.580 294.445,343.000 293.593 C 345.420 292.741,350.190 291.027,353.600 289.783 C 357.010 288.540,362.410 286.575,365.600 285.418 C 381.519 279.642,381.639 279.587,383.864 277.059 C 390.947 269.012,386.725 258.668,376.803 259.759 C 368.177 260.709,368.680 260.911,368.272 256.323 C 368.111 254.511,367.650 252.884,366.846 251.291 C 366.192 249.996,365.360 247.791,364.998 246.391 C 364.635 244.991,363.822 242.708,363.192 241.317 C 362.561 239.926,361.566 237.216,360.980 235.294 C 360.394 233.372,359.635 231.260,359.292 230.600 C 358.692 229.444,357.266 225.530,353.243 213.989 C 352.206 211.013,351.217 208.352,351.046 208.075 C 350.875 207.798,349.953 205.373,348.996 202.686 C 348.040 199.999,346.325 195.280,345.187 192.200 C 344.048 189.120,342.348 184.440,341.409 181.800 C 340.470 179.160,338.671 174.210,337.413 170.800 C 336.154 167.390,334.439 162.683,333.602 160.339 C 327.124 142.206,327.119 142.203,312.624 147.757 C 295.664 154.256,294.581 154.333,295.276 149.000 C 295.706 145.702,296.069 146.990,289.419 128.200 C 286.849 120.940,283.423 111.220,281.805 106.600 C 273.716 83.501,271.295 76.995,270.007 74.896 C 268.170 71.902,264.700 71.205,260.800 73.047 C 259.590 73.619,256.890 74.676,254.800 75.397 C 247.627 77.869,239.799 80.702,238.200 81.404 C 236.075 82.337,226.904 85.200,226.040 85.200 C 224.911 85.200,224.400 84.337,224.394 82.420 C 224.385 79.943,223.663 77.289,221.015 70.000 C 219.776 66.590,217.970 61.550,217.003 58.800 C 216.036 56.050,214.314 51.190,213.176 48.000 C 208.796 35.711,207.070 30.827,205.405 26.000 C 198.415 5.741,196.585 3.432,189.600 6.055 M192.100 14.061 C 193.197 14.636,193.906 15.972,195.380 20.239 C 196.132 22.417,198.036 27.800,199.610 32.200 C 201.184 36.600,203.071 41.910,203.802 44.000 C 204.533 46.090,206.028 50.320,207.124 53.400 C 217.349 82.126,217.269 80.406,208.518 83.483 C 200.190 86.412,193.560 88.795,187.600 91.004 C 184.190 92.268,179.240 94.075,176.600 95.021 C 173.960 95.966,169.280 97.641,166.200 98.744 C 163.120 99.846,157.810 101.765,154.400 103.008 C 150.990 104.251,146.220 105.961,143.800 106.807 C 135.475 109.717,130.350 111.603,128.599 112.400 C 124.992 114.044,121.775 113.041,120.683 109.934 C 120.348 108.980,119.585 106.850,118.989 105.200 C 118.392 103.550,117.367 100.580,116.711 98.600 C 116.056 96.620,114.927 93.560,114.203 91.800 C 113.479 90.040,112.505 87.194,112.038 85.476 C 111.571 83.758,110.752 81.489,110.217 80.433 C 109.682 79.377,108.774 76.843,108.200 74.800 C 107.626 72.757,106.718 70.223,106.183 69.167 C 105.648 68.111,104.832 65.842,104.370 64.124 C 103.908 62.406,102.832 59.468,101.980 57.596 C 98.944 50.927,98.986 46.346,102.096 45.046 C 106.852 43.056,110.263 41.773,113.400 40.794 C 115.380 40.175,118.021 39.197,119.268 38.620 C 120.516 38.043,123.115 37.113,125.044 36.554 C 126.973 35.994,129.383 35.115,130.400 34.600 C 131.417 34.085,133.777 33.220,135.645 32.679 C 137.513 32.137,139.951 31.233,141.064 30.669 C 142.176 30.105,144.757 29.174,146.800 28.600 C 148.843 28.026,151.354 27.130,152.381 26.610 C 153.408 26.089,155.768 25.220,157.624 24.678 C 159.481 24.136,162.051 23.225,163.335 22.653 C 164.619 22.081,166.959 21.233,168.535 20.768 C 170.111 20.303,172.646 19.380,174.168 18.717 C 175.691 18.054,178.184 17.166,179.709 16.743 C 181.234 16.320,183.228 15.591,184.141 15.121 C 187.680 13.301,190.047 12.986,192.100 14.061 M55.993 31.101 C 56.815 31.513,58.336 33.067,59.697 34.885 C 62.531 38.670,64.441 39.866,69.164 40.814 C 78.412 42.669,81.346 45.903,86.206 59.600 C 87.509 63.272,90.587 71.837,94.183 81.800 C 96.035 86.930,104.894 111.712,107.839 120.000 C 108.816 122.750,110.053 126.170,110.589 127.600 C 111.124 129.030,112.748 133.530,114.197 137.600 C 115.646 141.670,117.452 146.624,118.212 148.610 C 118.971 150.595,120.212 154.015,120.970 156.210 C 121.727 158.404,123.451 163.260,124.800 167.000 C 126.149 170.740,127.858 175.510,128.598 177.600 C 129.337 179.690,130.968 184.190,132.220 187.600 C 133.473 191.010,135.358 196.320,136.408 199.400 C 137.459 202.480,139.251 207.520,140.390 210.600 C 141.529 213.680,143.333 218.630,144.398 221.600 C 145.462 224.570,147.352 229.790,148.596 233.200 C 149.840 236.610,151.553 241.380,152.402 243.800 C 153.252 246.220,155.050 251.260,156.400 255.000 C 157.749 258.740,159.448 263.510,160.176 265.600 C 160.904 267.690,161.972 270.457,162.550 271.750 C 164.335 275.745,163.733 278.800,161.160 278.800 C 159.047 278.800,158.099 277.414,155.823 271.000 C 154.652 267.700,152.839 262.660,151.795 259.800 C 150.751 256.940,149.117 252.440,148.165 249.800 C 147.212 247.160,145.424 242.210,144.191 238.800 C 142.957 235.390,141.046 230.080,139.942 227.000 C 135.753 215.302,133.993 210.426,132.000 205.000 C 128.844 196.407,123.208 180.686,120.306 172.386 C 119.342 169.629,118.395 167.115,118.200 166.800 C 117.830 166.201,115.499 159.686,112.619 151.200 C 111.685 148.450,110.555 145.480,110.107 144.600 C 109.659 143.720,108.899 141.594,108.418 139.875 C 107.938 138.157,107.006 135.551,106.349 134.086 C 105.691 132.620,104.824 130.232,104.421 128.779 C 104.018 127.325,103.146 124.891,102.483 123.368 C 101.820 121.846,100.880 119.250,100.394 117.600 C 99.909 115.950,99.002 113.473,98.379 112.095 C 97.756 110.718,96.874 108.234,96.419 106.576 C 95.964 104.917,95.066 102.520,94.424 101.248 C 93.782 99.977,92.961 97.780,92.599 96.368 C 92.238 94.956,91.248 92.169,90.401 90.175 C 89.554 88.180,88.564 85.403,88.201 84.003 C 87.838 82.603,87.123 80.633,86.613 79.626 C 86.103 78.618,85.193 76.176,84.593 74.197 C 83.992 72.219,83.075 69.756,82.556 68.724 C 82.036 67.692,81.230 65.442,80.766 63.724 C 78.963 57.059,74.051 50.245,69.455 48.031 C 67.106 46.899,55.542 44.562,46.544 43.401 C 42.333 42.857,36.483 41.882,33.544 41.233 C 30.605 40.584,27.120 39.941,25.800 39.803 C 17.540 38.943,15.513 38.363,13.848 36.384 C 11.050 33.059,12.171 32.624,25.200 31.981 C 30.370 31.726,37.390 31.291,40.800 31.015 C 50.298 30.245,54.334 30.268,55.993 31.101 M264.380 82.300 C 265.858 83.791,266.621 85.484,269.025 92.600 C 270.439 96.787,273.146 104.440,279.991 123.600 C 281.052 126.570,282.577 130.890,283.379 133.200 C 284.181 135.510,285.388 138.739,286.061 140.375 C 287.833 144.681,287.339 147.080,284.361 148.620 C 283.345 149.146,278.012 151.092,251.000 160.799 C 243.740 163.408,234.290 166.835,230.000 168.414 C 225.710 169.994,220.760 171.793,219.000 172.413 C 217.240 173.032,213.010 174.563,209.600 175.814 C 198.567 179.861,191.502 182.443,186.600 184.219 C 172.766 189.233,169.009 190.584,164.842 192.045 C 162.335 192.924,159.545 194.021,158.642 194.483 C 153.446 197.143,151.309 195.286,147.770 185.040 C 146.623 181.718,144.756 176.390,143.622 173.200 C 142.487 170.010,140.739 165.060,139.736 162.200 C 138.734 159.340,137.054 154.570,136.003 151.600 C 134.952 148.630,133.508 144.490,132.794 142.400 C 132.081 140.310,131.053 137.550,130.511 136.266 C 128.094 130.547,128.395 129.614,133.472 127.066 C 135.412 126.092,138.440 124.893,140.200 124.401 C 141.960 123.909,144.390 123.009,145.600 122.401 C 146.810 121.794,149.181 120.920,150.868 120.458 C 152.556 119.997,155.076 119.099,156.468 118.463 C 157.861 117.826,160.619 116.812,162.597 116.210 C 164.576 115.608,167.034 114.689,168.061 114.169 C 169.087 113.649,171.308 112.853,172.996 112.401 C 174.684 111.949,177.112 111.050,178.392 110.404 C 179.672 109.758,181.952 108.925,183.460 108.554 C 184.967 108.183,187.730 107.200,189.600 106.370 C 191.470 105.540,194.157 104.564,195.571 104.201 C 196.986 103.838,199.000 103.107,200.048 102.575 C 201.097 102.044,203.539 101.152,205.477 100.592 C 207.415 100.032,210.117 99.053,211.483 98.416 C 212.849 97.779,215.335 96.882,217.007 96.424 C 218.679 95.965,220.911 95.152,221.967 94.617 C 223.023 94.082,225.556 93.175,227.596 92.601 C 229.637 92.027,232.332 91.040,233.585 90.408 C 234.838 89.775,237.020 88.959,238.432 88.596 C 239.844 88.232,242.361 87.338,244.023 86.609 C 245.686 85.881,248.206 84.968,249.623 84.581 C 251.041 84.195,253.460 83.302,255.000 82.598 C 258.840 80.843,258.759 80.867,260.947 80.832 C 262.685 80.803,263.053 80.961,264.380 82.300 M120.414 121.807 C 121.890 122.571,122.258 123.940,121.422 125.557 C 120.092 128.129,117.200 126.582,117.200 123.300 C 117.200 121.267,118.343 120.736,120.414 121.807 M322.758 153.900 C 324.154 155.211,326.466 160.281,327.858 165.085 C 328.411 166.992,329.277 169.372,329.782 170.376 C 330.287 171.379,331.192 173.819,331.793 175.797 C 332.393 177.776,333.293 180.206,333.793 181.197 C 334.292 182.189,335.192 184.619,335.793 186.597 C 336.393 188.576,337.313 191.040,337.837 192.073 C 338.361 193.107,339.174 195.358,339.643 197.076 C 340.113 198.794,341.013 201.226,341.644 202.480 C 342.275 203.735,343.163 206.115,343.618 207.771 C 344.072 209.427,345.037 212.090,345.763 213.691 C 346.489 215.291,347.400 217.770,347.788 219.200 C 348.176 220.630,349.011 222.826,349.643 224.080 C 350.275 225.335,351.175 227.765,351.644 229.480 C 352.113 231.196,353.002 233.604,353.620 234.832 C 354.238 236.060,355.040 238.220,355.402 239.632 C 355.765 241.044,356.766 243.772,357.628 245.694 C 361.568 254.483,360.201 257.433,351.000 260.000 C 349.240 260.492,346.971 261.312,345.957 261.825 C 344.943 262.337,342.443 263.226,340.400 263.800 C 338.357 264.374,335.822 265.282,334.766 265.817 C 333.710 266.352,331.261 267.248,329.323 267.808 C 327.385 268.368,324.653 269.360,323.252 270.014 C 321.850 270.668,319.600 271.487,318.252 271.834 C 316.903 272.182,314.448 273.058,312.795 273.783 C 311.143 274.507,308.387 275.484,306.672 275.955 C 304.956 276.426,302.674 277.256,301.600 277.800 C 300.526 278.344,298.291 279.162,296.633 279.616 C 294.975 280.071,292.310 281.044,290.709 281.778 C 289.109 282.512,286.394 283.495,284.676 283.962 C 282.958 284.429,280.674 285.256,279.599 285.800 C 278.525 286.345,276.101 287.238,274.213 287.785 C 272.325 288.332,269.569 289.309,268.090 289.957 C 266.610 290.604,264.234 291.434,262.809 291.801 C 261.384 292.169,258.864 293.077,257.209 293.820 C 255.554 294.562,253.044 295.460,251.632 295.814 C 250.220 296.168,248.029 296.980,246.763 297.618 C 238.871 301.602,234.641 301.346,230.000 296.602 C 223.342 289.796,209.049 280.000,205.777 280.000 C 205.490 280.000,203.039 279.270,200.330 278.377 C 196.141 276.997,194.494 276.674,189.320 276.224 C 180.017 275.414,180.555 275.979,175.394 261.600 C 173.302 255.770,170.968 249.290,170.207 247.200 C 169.446 245.110,167.638 240.070,166.189 236.000 C 164.740 231.930,162.640 226.170,161.522 223.200 C 157.724 213.107,158.364 211.961,170.125 207.796 C 172.806 206.846,177.790 205.047,181.200 203.797 C 184.610 202.547,189.110 200.928,191.200 200.199 C 193.290 199.470,196.170 198.384,197.600 197.787 C 199.030 197.190,201.640 196.200,203.400 195.586 C 205.160 194.973,209.120 193.541,212.200 192.404 C 215.280 191.267,219.979 189.555,222.643 188.598 C 225.306 187.641,228.186 186.557,229.043 186.187 C 229.899 185.818,232.760 184.737,235.400 183.786 C 238.040 182.835,242.720 181.127,245.800 179.990 C 248.880 178.853,253.560 177.156,256.200 176.218 C 258.840 175.279,261.846 174.137,262.879 173.679 C 263.913 173.221,266.012 172.473,267.544 172.017 C 269.076 171.560,271.381 170.720,272.665 170.150 C 273.949 169.580,276.980 168.430,279.400 167.596 C 281.820 166.761,286.320 165.136,289.400 163.984 C 292.480 162.833,296.980 161.223,299.400 160.407 C 301.820 159.591,304.520 158.555,305.400 158.105 C 306.280 157.655,308.594 156.800,310.543 156.206 C 312.492 155.612,315.192 154.602,316.543 153.963 C 319.678 152.480,321.230 152.464,322.758 153.900 M151.289 204.018 C 153.853 204.730,153.967 206.044,151.676 208.500 C 149.859 210.448,147.431 209.333,146.943 206.327 C 146.552 203.914,148.049 203.118,151.289 204.018 M378.700 267.882 C 380.676 270.534,377.194 274.213,371.010 276.007 C 369.685 276.392,367.160 277.336,365.400 278.106 C 363.640 278.876,361.210 279.734,360.000 280.013 C 358.790 280.292,356.499 281.111,354.908 281.834 C 353.318 282.556,350.652 283.521,348.985 283.979 C 347.317 284.436,345.089 285.248,344.033 285.783 C 342.977 286.318,340.443 287.226,338.400 287.800 C 336.357 288.374,333.823 289.282,332.767 289.817 C 331.711 290.352,329.491 291.162,327.833 291.616 C 326.175 292.071,323.510 293.048,321.909 293.786 C 320.309 294.525,317.840 295.429,316.423 295.795 C 315.006 296.162,312.666 297.008,311.223 297.675 C 309.780 298.342,307.151 299.296,305.379 299.796 C 303.608 300.295,301.409 301.085,300.493 301.553 C 299.577 302.020,297.156 302.877,295.113 303.457 C 293.071 304.037,290.555 304.935,289.523 305.451 C 288.491 305.968,286.079 306.844,284.165 307.399 C 282.250 307.954,279.314 309.016,277.642 309.759 C 275.969 310.503,273.610 311.333,272.400 311.605 C 271.190 311.877,268.850 312.717,267.200 313.471 C 265.550 314.225,262.599 315.293,260.643 315.843 C 258.687 316.394,256.257 317.264,255.243 317.777 C 249.413 320.730,244.400 320.648,244.400 317.600 C 244.400 315.039,245.135 314.653,260.400 309.202 C 262.710 308.378,265.320 307.386,266.200 306.999 C 267.080 306.612,269.510 305.714,271.600 305.004 C 273.690 304.293,278.190 302.677,281.600 301.412 C 291.807 297.626,297.860 295.397,304.400 293.016 C 317.486 288.252,320.348 287.204,325.000 285.473 C 327.640 284.490,331.780 282.964,334.200 282.082 C 336.620 281.199,344.270 278.375,351.200 275.807 C 362.395 271.658,371.879 268.193,374.800 267.185 C 376.155 266.717,378.090 267.063,378.700 267.882 M194.984 292.174 C 225.205 300.001,240.616 334.605,226.350 362.600 C 207.320 399.941,154.766 397.856,138.736 359.124 C 133.912 347.468,133.878 332.865,138.647 321.508 C 144.915 306.582,156.505 296.140,171.000 292.360 C 180.575 289.863,185.903 289.822,194.984 292.174 M177.248 315.792 C 172.719 316.820,166.653 320.969,163.408 325.257 C 153.812 337.938,158.194 355.170,172.903 362.594 L 176.807 364.564 181.703 364.720 C 189.936 364.983,195.780 362.704,201.414 357.033 C 218.660 339.672,201.446 310.296,177.248 315.792 M186.999 322.220 C 203.751 327.908,205.663 348.879,190.122 356.478 C 175.884 363.439,160.724 347.365,167.691 332.694 C 171.536 324.598,180.184 319.907,186.999 322.220 " stroke="none" fill="#494949" fill-rule="evenodd"></path><path id="path1" d="M0.000 200.000 L 0.000 400.000 200.000 400.000 L 400.000 400.000 400.000 200.000 L 400.000 0.000 200.000 0.000 L 0.000 0.000 0.000 200.000 M196.026 6.106 C 198.689 7.900,200.445 11.625,205.405 26.000 C 207.070 30.827,208.796 35.711,213.176 48.000 C 214.314 51.190,216.036 56.050,217.003 58.800 C 217.970 61.550,219.776 66.590,221.015 70.000 C 223.663 77.289,224.385 79.943,224.394 82.420 C 224.400 84.337,224.911 85.200,226.040 85.200 C 226.904 85.200,236.075 82.337,238.200 81.404 C 239.799 80.702,247.627 77.869,254.800 75.397 C 256.890 74.676,259.590 73.619,260.800 73.047 C 264.700 71.205,268.170 71.902,270.007 74.896 C 271.295 76.995,273.716 83.501,281.805 106.600 C 283.423 111.220,286.849 120.940,289.419 128.200 C 296.069 146.990,295.706 145.702,295.276 149.000 C 294.581 154.333,295.664 154.256,312.624 147.757 C 327.119 142.203,327.124 142.206,333.602 160.339 C 334.439 162.683,336.154 167.390,337.413 170.800 C 338.671 174.210,340.470 179.160,341.409 181.800 C 342.348 184.440,344.048 189.120,345.187 192.200 C 346.325 195.280,348.040 199.999,348.996 202.686 C 349.953 205.373,350.875 207.798,351.046 208.075 C 351.217 208.352,352.206 211.013,353.243 213.989 C 357.266 225.530,358.692 229.444,359.292 230.600 C 359.635 231.260,360.394 233.372,360.980 235.294 C 361.566 237.216,362.561 239.926,363.192 241.317 C 363.822 242.708,364.635 244.991,364.998 246.391 C 365.360 247.791,366.192 249.996,366.846 251.291 C 367.650 252.884,368.111 254.511,368.272 256.323 C 368.680 260.911,368.177 260.709,376.803 259.759 C 386.725 258.668,390.947 269.012,383.864 277.059 C 381.639 279.587,381.519 279.642,365.600 285.418 C 362.410 286.575,357.010 288.540,353.600 289.783 C 350.190 291.027,345.420 292.741,343.000 293.593 C 340.580 294.445,336.350 295.954,333.600 296.947 C 330.850 297.940,325.810 299.748,322.400 300.965 C 318.990 302.181,313.410 304.192,310.000 305.432 C 306.590 306.672,301.640 308.463,299.000 309.412 C 296.360 310.362,291.680 312.065,288.600 313.197 C 285.520 314.329,280.523 316.137,277.496 317.215 C 274.469 318.293,269.429 320.094,266.296 321.216 C 263.163 322.339,258.350 324.037,255.600 324.989 C 252.850 325.942,249.787 327.089,248.794 327.538 C 247.801 327.987,245.553 328.532,243.800 328.750 C 239.144 329.328,239.029 329.527,239.352 336.400 C 240.281 356.151,231.362 374.801,215.800 385.643 C 209.128 390.292,204.380 392.408,194.200 395.270 C 181.551 398.826,162.587 394.442,149.800 385.006 C 120.125 363.108,120.125 317.483,149.800 295.094 C 156.191 290.272,156.510 289.666,154.322 286.487 C 153.620 285.466,152.338 282.734,151.473 280.415 C 147.687 270.259,138.980 246.269,136.007 237.800 C 135.158 235.380,133.441 230.610,132.193 227.200 C 130.945 223.790,128.244 216.320,126.191 210.600 C 124.137 204.880,121.446 197.410,120.211 194.000 C 118.975 190.590,116.188 182.850,114.017 176.800 C 111.846 170.750,108.957 162.740,107.597 159.000 C 106.238 155.260,102.336 144.460,98.926 135.000 C 95.516 125.540,91.557 114.560,90.129 110.600 C 88.700 106.640,86.930 101.690,86.196 99.600 C 85.462 97.510,83.838 93.010,82.586 89.600 C 79.491 81.165,77.025 74.293,75.123 68.800 C 70.587 55.702,68.374 53.606,57.589 52.199 C 54.886 51.846,50.879 51.122,48.684 50.591 C 44.990 49.697,41.510 49.149,32.200 47.999 C 30.220 47.754,27.250 47.213,25.600 46.796 C 23.950 46.379,20.446 45.654,17.814 45.184 C 5.528 42.989,0.332 34.157,7.462 27.585 C 10.259 25.007,11.435 24.671,16.589 24.977 C 19.283 25.137,24.581 24.997,30.200 24.616 C 59.452 22.637,60.472 22.805,66.400 30.595 C 68.636 33.534,69.807 34.223,74.562 35.401 C 78.997 36.499,81.433 37.925,85.819 41.992 C 89.370 45.284,89.880 45.374,91.824 43.049 C 93.478 41.070,95.368 39.893,98.000 39.201 C 98.990 38.941,101.161 38.134,102.823 37.406 C 104.486 36.679,107.006 35.764,108.423 35.372 C 109.841 34.981,112.368 34.080,114.041 33.371 C 115.713 32.661,118.469 31.700,120.165 31.235 C 121.860 30.770,124.103 29.956,125.148 29.426 C 126.193 28.897,128.584 28.018,130.460 27.474 C 132.337 26.930,135.116 25.943,136.636 25.281 C 138.156 24.619,140.750 23.680,142.400 23.194 C 144.050 22.709,145.940 22.030,146.600 21.687 C 147.751 21.087,154.045 18.806,163.400 15.597 C 165.820 14.767,168.820 13.627,170.068 13.063 C 171.315 12.500,173.445 11.751,174.800 11.400 C 176.155 11.049,178.285 10.301,179.532 9.738 C 180.780 9.175,183.060 8.302,184.600 7.797 C 186.140 7.293,188.390 6.509,189.600 6.055 C 192.500 4.966,194.357 4.981,196.026 6.106 M187.400 13.757 C 186.520 14.038,185.053 14.652,184.141 15.121 C 183.228 15.591,181.234 16.320,179.709 16.743 C 178.184 17.166,175.691 18.054,174.168 18.717 C 172.646 19.380,170.111 20.303,168.535 20.768 C 166.959 21.233,164.619 22.081,163.335 22.653 C 162.051 23.225,159.481 24.136,157.624 24.678 C 155.768 25.220,153.408 26.089,152.381 26.610 C 151.354 27.130,148.843 28.026,146.800 28.600 C 144.757 29.174,142.176 30.105,141.064 30.669 C 139.951 31.233,137.513 32.137,135.645 32.679 C 133.777 33.220,131.417 34.085,130.400 34.600 C 129.383 35.115,126.973 35.994,125.044 36.554 C 123.115 37.113,120.516 38.043,119.268 38.620 C 118.021 39.197,115.380 40.175,113.400 40.794 C 110.263 41.773,106.852 43.056,102.096 45.046 C 98.986 46.346,98.944 50.927,101.980 57.596 C 102.832 59.468,103.908 62.406,104.370 64.124 C 104.832 65.842,105.648 68.111,106.183 69.167 C 106.718 70.223,107.626 72.757,108.200 74.800 C 108.774 76.843,109.682 79.377,110.217 80.433 C 110.752 81.489,111.571 83.758,112.038 85.476 C 112.505 87.194,113.479 90.040,114.203 91.800 C 114.927 93.560,116.056 96.620,116.711 98.600 C 117.367 100.580,118.392 103.550,118.989 105.200 C 119.585 106.850,120.348 108.980,120.683 109.934 C 121.775 113.041,124.992 114.044,128.599 112.400 C 130.350 111.603,135.475 109.717,143.800 106.807 C 146.220 105.961,150.990 104.251,154.400 103.008 C 157.810 101.765,163.120 99.846,166.200 98.744 C 169.280 97.641,173.960 95.966,176.600 95.021 C 179.240 94.075,184.190 92.268,187.600 91.004 C 193.560 88.795,200.190 86.412,208.518 83.483 C 216.353 80.728,216.536 79.850,211.954 66.973 C 210.394 62.588,208.220 56.480,207.124 53.400 C 206.028 50.320,204.533 46.090,203.802 44.000 C 203.071 41.910,201.184 36.600,199.610 32.200 C 198.036 27.800,196.132 22.417,195.380 20.239 C 193.149 13.779,191.505 12.444,187.400 13.757 M40.800 31.015 C 37.390 31.291,30.370 31.726,25.200 31.981 C 12.171 32.624,11.050 33.059,13.848 36.384 C 15.513 38.363,17.540 38.943,25.800 39.803 C 27.120 39.941,30.605 40.584,33.544 41.233 C 36.483 41.882,42.333 42.857,46.544 43.401 C 55.542 44.562,67.106 46.899,69.455 48.031 C 74.051 50.245,78.963 57.059,80.766 63.724 C 81.230 65.442,82.036 67.692,82.556 68.724 C 83.075 69.756,83.992 72.219,84.593 74.197 C 85.193 76.176,86.103 78.618,86.613 79.626 C 87.123 80.633,87.838 82.603,88.201 84.003 C 88.564 85.403,89.554 88.180,90.401 90.175 C 91.248 92.169,92.238 94.956,92.599 96.368 C 92.961 97.780,93.782 99.977,94.424 101.248 C 95.066 102.520,95.964 104.917,96.419 106.576 C 96.874 108.234,97.756 110.718,98.379 112.095 C 99.002 113.473,99.909 115.950,100.394 117.600 C 100.880 119.250,101.820 121.846,102.483 123.368 C 103.146 124.891,104.018 127.325,104.421 128.779 C 104.824 130.232,105.691 132.620,106.349 134.086 C 107.006 135.551,107.938 138.157,108.418 139.875 C 108.899 141.594,109.659 143.720,110.107 144.600 C 110.555 145.480,111.685 148.450,112.619 151.200 C 115.499 159.686,117.830 166.201,118.200 166.800 C 118.395 167.115,119.342 169.629,120.306 172.386 C 123.208 180.686,128.844 196.407,132.000 205.000 C 133.993 210.426,135.753 215.302,139.942 227.000 C 141.046 230.080,142.957 235.390,144.191 238.800 C 145.424 242.210,147.212 247.160,148.165 249.800 C 149.117 252.440,150.751 256.940,151.795 259.800 C 152.839 262.660,154.652 267.700,155.823 271.000 C 158.099 277.414,159.047 278.800,161.160 278.800 C 163.733 278.800,164.335 275.745,162.550 271.750 C 161.972 270.457,160.904 267.690,160.176 265.600 C 159.448 263.510,157.749 258.740,156.400 255.000 C 155.050 251.260,153.252 246.220,152.402 243.800 C 151.553 241.380,149.840 236.610,148.596 233.200 C 147.352 229.790,145.462 224.570,144.398 221.600 C 143.333 218.630,141.529 213.680,140.390 210.600 C 139.251 207.520,137.459 202.480,136.408 199.400 C 135.358 196.320,133.473 191.010,132.220 187.600 C 130.968 184.190,129.337 179.690,128.598 177.600 C 127.858 175.510,126.149 170.740,124.800 167.000 C 123.451 163.260,121.727 158.404,120.970 156.210 C 120.212 154.015,118.971 150.595,118.212 148.610 C 117.452 146.624,115.646 141.670,114.197 137.600 C 112.748 133.530,111.124 129.030,110.589 127.600 C 110.053 126.170,108.816 122.750,107.839 120.000 C 104.894 111.712,96.035 86.930,94.183 81.800 C 90.587 71.837,87.509 63.272,86.206 59.600 C 81.346 45.903,78.412 42.669,69.164 40.814 C 64.441 39.866,62.531 38.670,59.697 34.885 C 56.057 30.024,55.198 29.848,40.800 31.015 M258.400 81.091 C 258.070 81.216,256.540 81.894,255.000 82.598 C 253.460 83.302,251.041 84.195,249.623 84.581 C 248.206 84.968,245.686 85.881,244.023 86.609 C 242.361 87.338,239.844 88.232,238.432 88.596 C 237.020 88.959,234.838 89.775,233.585 90.408 C 232.332 91.040,229.637 92.027,227.596 92.601 C 225.556 93.175,223.023 94.082,221.967 94.617 C 220.911 95.152,218.679 95.965,217.007 96.424 C 215.335 96.882,212.849 97.779,211.483 98.416 C 210.117 99.053,207.415 100.032,205.477 100.592 C 203.539 101.152,201.097 102.044,200.048 102.575 C 199.000 103.107,196.986 103.838,195.571 104.201 C 194.157 104.564,191.470 105.540,189.600 106.370 C 187.730 107.200,184.967 108.183,183.460 108.554 C 181.952 108.925,179.672 109.758,178.392 110.404 C 177.112 111.050,174.684 111.949,172.996 112.401 C 171.308 112.853,169.087 113.649,168.061 114.169 C 167.034 114.689,164.576 115.608,162.597 116.210 C 160.619 116.812,157.861 117.826,156.468 118.463 C 155.076 119.099,152.556 119.997,150.868 120.458 C 149.181 120.920,146.810 121.794,145.600 122.401 C 144.390 123.009,141.960 123.909,140.200 124.401 C 138.440 124.893,135.412 126.092,133.472 127.066 C 128.395 129.614,128.094 130.547,130.511 136.266 C 131.053 137.550,132.081 140.310,132.794 142.400 C 133.508 144.490,134.952 148.630,136.003 151.600 C 137.054 154.570,138.734 159.340,139.736 162.200 C 140.739 165.060,142.487 170.010,143.622 173.200 C 144.756 176.390,146.623 181.718,147.770 185.040 C 151.309 195.286,153.446 197.143,158.642 194.483 C 159.545 194.021,162.335 192.924,164.842 192.045 C 169.009 190.584,172.766 189.233,186.600 184.219 C 191.502 182.443,198.567 179.861,209.600 175.814 C 213.010 174.563,217.240 173.032,219.000 172.413 C 220.760 171.793,225.710 169.994,230.000 168.414 C 234.290 166.835,243.740 163.408,251.000 160.799 C 278.012 151.092,283.345 149.146,284.361 148.620 C 287.339 147.080,287.833 144.681,286.061 140.375 C 285.388 138.739,284.181 135.510,283.379 133.200 C 282.577 130.890,281.052 126.570,279.991 123.600 C 273.146 104.440,270.439 96.787,269.025 92.600 C 265.641 82.581,264.401 80.776,260.947 80.832 C 259.876 80.849,258.730 80.966,258.400 81.091 M117.680 121.680 C 117.017 122.343,117.079 124.206,117.810 125.620 C 119.099 128.111,122.534 126.182,121.827 123.364 C 121.434 121.799,118.679 120.681,117.680 121.680 M316.543 153.963 C 315.192 154.602,312.492 155.612,310.543 156.206 C 308.594 156.800,306.280 157.655,305.400 158.105 C 304.520 158.555,301.820 159.591,299.400 160.407 C 296.980 161.223,292.480 162.833,289.400 163.984 C 286.320 165.136,281.820 166.761,279.400 167.596 C 276.980 168.430,273.949 169.580,272.665 170.150 C 271.381 170.720,269.076 171.560,267.544 172.017 C 266.012 172.473,263.913 173.221,262.879 173.679 C 261.846 174.137,258.840 175.279,256.200 176.218 C 253.560 177.156,248.880 178.853,245.800 179.990 C 242.720 181.127,238.040 182.835,235.400 183.786 C 232.760 184.737,229.899 185.818,229.043 186.187 C 228.186 186.557,225.306 187.641,222.643 188.598 C 219.979 189.555,215.280 191.267,212.200 192.404 C 209.120 193.541,205.160 194.973,203.400 195.586 C 201.640 196.200,199.030 197.190,197.600 197.787 C 196.170 198.384,193.290 199.470,191.200 200.199 C 189.110 200.928,184.610 202.547,181.200 203.797 C 177.790 205.047,172.806 206.846,170.125 207.796 C 158.364 211.961,157.724 213.107,161.522 223.200 C 162.640 226.170,164.740 231.930,166.189 236.000 C 167.638 240.070,169.446 245.110,170.207 247.200 C 170.968 249.290,173.302 255.770,175.394 261.600 C 180.555 275.979,180.017 275.414,189.320 276.224 C 194.494 276.674,196.141 276.997,200.330 278.377 C 203.039 279.270,205.490 280.000,205.777 280.000 C 209.049 280.000,223.342 289.796,230.000 296.602 C 234.641 301.346,238.871 301.602,246.763 297.618 C 248.029 296.980,250.220 296.168,251.632 295.814 C 253.044 295.460,255.554 294.562,257.209 293.820 C 258.864 293.077,261.384 292.169,262.809 291.801 C 264.234 291.434,266.610 290.604,268.090 289.957 C 269.569 289.309,272.325 288.332,274.213 287.785 C 276.101 287.238,278.525 286.345,279.599 285.800 C 280.674 285.256,282.958 284.429,284.676 283.962 C 286.394 283.495,289.109 282.512,290.709 281.778 C 292.310 281.044,294.975 280.071,296.633 279.616 C 298.291 279.162,300.526 278.344,301.600 277.800 C 302.674 277.256,304.956 276.426,306.672 275.955 C 308.387 275.484,311.143 274.507,312.795 273.783 C 314.448 273.058,316.903 272.182,318.252 271.834 C 319.600 271.487,321.850 270.668,323.252 270.014 C 324.653 269.360,327.385 268.368,329.323 267.808 C 331.261 267.248,333.710 266.352,334.766 265.817 C 335.822 265.282,338.357 264.374,340.400 263.800 C 342.443 263.226,344.943 262.337,345.957 261.825 C 346.971 261.312,349.240 260.492,351.000 260.000 C 360.201 257.433,361.568 254.483,357.628 245.694 C 356.766 243.772,355.765 241.044,355.402 239.632 C 355.040 238.220,354.238 236.060,353.620 234.832 C 353.002 233.604,352.113 231.196,351.644 229.480 C 351.175 227.765,350.275 225.335,349.643 224.080 C 349.011 222.826,348.176 220.630,347.788 219.200 C 347.400 217.770,346.489 215.291,345.763 213.691 C 345.037 212.090,344.072 209.427,343.618 207.771 C 343.163 206.115,342.275 203.735,341.644 202.480 C 341.013 201.226,340.113 198.794,339.643 197.076 C 339.174 195.358,338.361 193.107,337.837 192.073 C 337.313 191.040,336.393 188.576,335.793 186.597 C 335.192 184.619,334.292 182.189,333.793 181.197 C 333.293 180.206,332.393 177.776,331.793 175.797 C 331.192 173.819,330.287 171.379,329.782 170.376 C 329.277 169.372,328.411 166.992,327.858 165.085 C 324.604 153.860,322.056 151.355,316.543 153.963 M147.388 204.270 C 145.989 205.668,147.765 209.600,149.795 209.600 C 151.376 209.600,153.832 206.315,153.155 205.105 C 152.395 203.747,148.478 203.179,147.388 204.270 M374.800 267.185 C 371.879 268.193,362.395 271.658,351.200 275.807 C 344.270 278.375,336.620 281.199,334.200 282.082 C 331.780 282.964,327.640 284.490,325.000 285.473 C 320.348 287.204,317.486 288.252,304.400 293.016 C 297.860 295.397,291.807 297.626,281.600 301.412 C 278.190 302.677,273.690 304.293,271.600 305.004 C 269.510 305.714,267.080 306.612,266.200 306.999 C 265.320 307.386,262.710 308.378,260.400 309.202 C 245.135 314.653,244.400 315.039,244.400 317.600 C 244.400 320.648,249.413 320.730,255.243 317.777 C 256.257 317.264,258.687 316.394,260.643 315.843 C 262.599 315.293,265.550 314.225,267.200 313.471 C 268.850 312.717,271.190 311.877,272.400 311.605 C 273.610 311.333,275.969 310.503,277.642 309.759 C 279.314 309.016,282.250 307.954,284.165 307.399 C 286.079 306.844,288.491 305.968,289.523 305.451 C 290.555 304.935,293.071 304.037,295.113 303.457 C 297.156 302.877,299.577 302.020,300.493 301.553 C 301.409 301.085,303.608 300.295,305.379 299.796 C 307.151 299.296,309.780 298.342,311.223 297.675 C 312.666 297.008,315.006 296.162,316.423 295.795 C 317.840 295.429,320.309 294.525,321.909 293.786 C 323.510 293.048,326.175 292.071,327.833 291.616 C 329.491 291.162,331.711 290.352,332.767 289.817 C 333.823 289.282,336.357 288.374,338.400 287.800 C 340.443 287.226,342.977 286.318,344.033 285.783 C 345.089 285.248,347.317 284.436,348.985 283.979 C 350.652 283.521,353.318 282.556,354.908 281.834 C 356.499 281.111,358.790 280.292,360.000 280.013 C 361.210 279.734,363.640 278.876,365.400 278.106 C 367.160 277.336,369.685 276.392,371.010 276.007 C 377.194 274.213,380.676 270.534,378.700 267.882 C 378.090 267.063,376.155 266.717,374.800 267.185 M177.600 290.774 C 158.705 294.279,145.808 304.454,138.647 321.508 C 133.878 332.865,133.912 347.468,138.736 359.124 C 154.766 397.856,207.320 399.941,226.350 362.600 C 240.616 334.605,225.205 300.001,194.984 292.174 C 189.033 290.632,181.594 290.033,177.600 290.774 M191.000 316.204 C 194.116 317.288,198.885 320.569,201.731 323.586 C 217.091 339.868,204.634 365.452,181.703 364.720 L 176.807 364.564 172.903 362.594 C 161.815 356.998,156.552 346.438,159.015 334.730 C 161.930 320.871,177.874 311.636,191.000 316.204 M179.342 322.172 C 165.662 326.451,161.542 344.304,172.045 353.793 C 182.978 363.670,200.800 355.246,200.800 340.200 C 200.800 329.119,188.953 319.166,179.342 322.172 " stroke="none" fill="#fbfbfb" fill-rule="evenodd"></path></g></svg>