<svg id="svg" version="1.1" width="400" height="309.09090909090907" viewBox="0 0 400 309.09090909090907" xmlns="http://www.w3.org/2000/svg" xmlns:xlink="http://www.w3.org/1999/xlink" ><g id="svgg"><path id="path0" d="M41.633 108.266 C 40.791 109.108,38.976 109.091,130.081 109.091 L 218.412 109.091 218.479 113.030 L 218.545 116.970 226.485 117.034 L 234.424 117.098 234.424 120.469 L 234.424 123.840 233.695 124.000 C 229.701 124.878,226.029 131.200,225.868 137.477 L 225.818 139.427 226.689 140.227 C 230.401 143.638,243.634 143.157,245.503 139.542 C 246.253 138.093,245.285 132.469,243.774 129.487 C 242.450 126.874,240.155 124.720,238.012 124.078 L 237.091 123.802 237.091 120.446 L 237.091 117.091 254.667 117.091 L 272.242 117.091 272.242 120.485 C 272.242 123.351,272.185 123.879,271.876 123.879 C 268.201 123.879,263.968 130.570,263.594 136.970 C 263.363 140.919,266.230 142.545,273.423 142.545 C 280.853 142.545,283.557 140.989,283.316 136.853 C 282.970 130.920,279.937 125.551,276.176 124.215 L 274.909 123.765 274.909 120.428 L 274.909 117.091 282.909 117.091 L 290.909 117.091 290.909 113.092 L 290.909 109.093 324.663 109.031 C 356.590 108.973,358.422 108.947,358.499 108.545 C 358.581 108.120,42.058 107.841,41.633 108.266 M289.939 112.606 L 289.939 116.121 254.667 116.121 L 219.394 116.121 219.394 112.606 L 219.394 109.091 254.667 109.091 L 289.939 109.091 289.939 112.606 M236.121 120.364 C 236.121 123.111,236.063 123.636,235.758 123.636 C 235.452 123.636,235.394 123.111,235.394 120.364 C 235.394 117.616,235.452 117.091,235.758 117.091 C 236.063 117.091,236.121 117.616,236.121 120.364 M273.939 120.364 C 273.939 123.111,273.881 123.636,273.576 123.636 C 273.270 123.636,273.212 123.111,273.212 120.364 C 273.212 117.616,273.270 117.091,273.576 117.091 C 273.881 117.091,273.939 117.616,273.939 120.364 M238.500 125.383 C 240.875 126.503,243.198 129.846,244.128 133.481 C 244.801 136.112,244.782 136.656,244.036 136.167 C 240.912 134.120,231.719 134.041,227.825 136.027 C 226.697 136.603,226.677 136.499,227.387 133.725 C 229.157 126.805,233.926 123.226,238.500 125.383 M276.242 125.450 C 279.077 126.823,281.599 131.001,282.272 135.441 L 282.426 136.459 281.115 135.858 C 276.736 133.854,269.265 134.115,264.669 136.433 C 264.570 136.483,264.554 136.160,264.634 135.716 C 266.139 127.338,271.093 122.957,276.242 125.450 M241.519 136.229 C 244.352 137.128,245.350 138.338,244.182 139.457 C 241.134 142.376,229.508 142.213,227.151 139.218 C 225.040 136.533,235.573 134.342,241.519 136.229 M279.051 136.210 C 285.078 138.144,282.328 141.210,274.303 141.506 C 268.452 141.721,263.646 139.961,264.701 137.989 C 265.850 135.841,274.544 134.763,279.051 136.210 M88.404 153.374 C 88.315 153.463,88.242 163.935,88.242 176.646 L 88.242 199.758 64.996 199.758 C 41.285 199.758,40.824 199.774,41.633 200.582 C 42.058 201.007,358.581 200.728,358.499 200.303 C 358.422 199.902,356.515 199.875,323.097 199.817 L 287.776 199.756 287.532 198.848 C 287.104 197.249,286.061 192.740,286.061 192.487 C 286.061 192.332,287.528 192.242,290.042 192.242 C 296.287 192.242,296.043 192.703,295.949 181.121 L 295.879 172.568 294.973 171.739 L 294.068 170.909 290.412 170.909 C 288.401 170.909,286.552 171.018,286.302 171.152 C 285.867 171.385,285.845 171.206,285.773 166.890 L 285.697 162.386 284.791 161.557 L 283.886 160.727 270.004 160.728 C 256.592 160.729,256.095 160.745,255.333 161.209 C 254.548 161.688,254.543 161.688,253.758 161.209 C 252.683 160.554,226.211 160.449,224.962 161.095 C 223.676 161.760,223.515 162.433,223.515 167.165 C 223.515 171.159,223.487 171.432,223.091 171.240 C 222.243 170.829,215.608 170.849,214.803 171.265 C 213.362 172.010,213.333 172.214,213.333 181.576 C 213.333 192.808,212.913 192.056,219.293 192.242 L 223.434 192.364 222.468 196.061 L 221.501 199.758 195.823 199.758 L 170.145 199.758 170.927 198.975 C 171.987 197.915,172.594 196.489,172.605 195.030 L 172.614 193.818 180.493 191.045 C 184.827 189.519,188.534 188.092,188.732 187.874 C 189.548 186.972,188.716 185.495,187.556 185.786 C 186.990 185.928,186.902 185.744,184.707 179.754 C 182.193 172.894,182.461 173.241,180.306 174.060 C 178.773 174.643,178.910 174.637,178.905 174.121 C 178.903 173.888,178.263 171.952,177.483 169.818 C 175.844 165.338,176.029 165.481,173.225 166.535 C 172.166 166.933,171.293 167.235,171.286 167.205 C 171.064 166.313,168.528 159.110,168.346 158.854 C 168.110 158.522,158.479 161.690,156.824 162.644 C 156.546 162.805,156.324 162.737,156.039 162.404 C 155.820 162.148,155.423 161.939,155.156 161.939 C 154.889 161.939,154.373 161.606,154.011 161.199 C 153.536 160.666,153.205 160.495,152.831 160.589 C 152.545 160.661,151.286 160.735,150.034 160.754 C 147.605 160.792,147.152 160.958,147.152 161.810 C 147.152 162.807,147.937 163.180,151.187 163.725 L 154.275 164.242 158.101 174.667 C 160.205 180.400,162.254 186.028,162.654 187.172 L 163.381 189.254 162.232 190.447 C 159.886 192.880,159.891 196.535,162.243 198.970 L 163.004 199.758 142.593 199.758 L 122.182 199.758 122.182 176.485 L 122.182 153.212 105.374 153.212 C 96.129 153.212,88.493 153.285,88.404 153.374 M121.212 172.727 L 121.212 191.273 105.212 191.273 L 89.212 191.273 89.212 172.727 L 89.212 154.182 105.212 154.182 L 121.212 154.182 121.212 172.727 M90.101 155.071 C 90.012 155.160,89.939 163.178,89.939 172.889 L 89.939 190.545 105.212 190.545 L 120.485 190.545 120.485 172.727 L 120.485 154.909 105.374 154.909 C 97.063 154.909,90.190 154.982,90.101 155.071 M119.515 161.091 L 119.515 166.303 105.212 166.303 L 90.909 166.303 90.909 161.091 L 90.909 155.879 105.212 155.879 L 119.515 155.879 119.515 161.091 M97.015 159.439 C 96.511 159.640,96.226 160.652,96.482 161.327 C 96.990 162.661,99.152 162.183,99.152 160.735 C 99.152 159.689,98.054 159.023,97.015 159.439 M111.812 159.650 C 110.746 160.396,111.418 162.182,112.764 162.182 C 113.867 162.182,114.436 160.041,113.470 159.524 C 112.826 159.179,112.442 159.208,111.812 159.650 M168.881 163.212 C 169.669 165.457,170.002 166.720,169.834 166.820 C 169.321 167.123,160.238 170.258,160.153 170.160 C 159.981 169.962,157.643 163.513,157.713 163.430 C 157.787 163.345,167.279 159.812,167.531 159.777 C 167.607 159.766,168.214 161.312,168.881 163.212 M98.061 160.970 C 97.943 161.159,97.804 161.174,97.642 161.012 C 97.509 160.879,97.479 160.641,97.576 160.485 C 97.693 160.295,97.833 160.281,97.994 160.443 C 98.127 160.576,98.157 160.813,98.061 160.970 M112.848 160.970 C 112.731 161.159,112.592 161.174,112.430 161.012 C 112.297 160.879,112.267 160.641,112.364 160.485 C 112.481 160.295,112.620 160.281,112.782 160.443 C 112.915 160.576,112.945 160.813,112.848 160.970 M153.157 162.074 C 153.273 162.282,153.795 162.598,154.317 162.778 C 154.839 162.957,155.353 163.251,155.459 163.431 C 155.914 164.203,164.369 187.737,164.278 187.977 C 164.155 188.302,164.693 189.703,159.631 175.879 C 154.484 161.823,155.396 163.354,151.845 162.805 C 148.667 162.313,148.199 162.162,149.093 161.913 C 150.329 161.569,152.932 161.673,153.157 162.074 M253.466 162.292 L 254.061 162.887 254.061 171.350 L 254.061 179.813 253.421 180.452 L 252.782 181.091 239.342 181.091 L 225.902 181.091 225.193 180.382 L 224.485 179.674 224.485 171.431 L 224.485 163.189 225.112 162.443 L 225.740 161.697 239.305 161.697 L 252.871 161.697 253.466 162.292 M284.047 162.282 L 284.727 162.867 284.727 171.394 L 284.727 179.921 284.047 180.506 L 283.367 181.091 269.907 181.091 L 256.448 181.091 255.739 180.382 L 255.030 179.674 255.030 171.431 L 255.030 163.189 255.658 162.443 L 256.286 161.697 269.826 161.697 L 283.367 161.697 284.047 162.282 M176.545 170.250 C 177.179 172.018,177.697 173.582,177.697 173.726 C 177.697 173.934,164.940 178.690,163.659 178.959 C 163.327 179.028,160.892 172.786,161.049 172.267 C 161.118 172.038,174.404 167.083,175.030 167.053 C 175.282 167.040,175.748 168.023,176.545 170.250 M119.515 173.091 L 119.515 178.182 105.212 178.182 L 90.909 178.182 90.909 173.091 L 90.909 168.000 105.212 168.000 L 119.515 168.000 119.515 173.091 M96.727 171.758 C 95.974 172.666,96.569 174.061,97.709 174.061 C 98.539 174.061,99.152 173.495,99.152 172.727 C 99.152 171.571,97.447 170.890,96.727 171.758 M111.524 171.863 C 110.928 172.977,111.506 174.061,112.696 174.061 C 113.560 174.061,113.939 173.654,113.939 172.727 C 113.939 171.411,112.115 170.758,111.524 171.863 M222.920 172.474 L 223.515 173.069 223.515 182.171 L 223.515 191.273 219.618 191.273 L 215.720 191.273 215.012 190.564 L 214.303 189.855 214.303 181.613 L 214.303 173.371 214.931 172.625 L 215.558 171.879 218.942 171.879 C 222.211 171.879,222.345 171.899,222.920 172.474 M294.229 172.464 L 294.909 173.049 294.909 181.576 L 294.909 190.103 294.229 190.688 C 293.571 191.253,293.420 191.273,289.683 191.273 L 285.818 191.273 285.818 182.078 L 285.818 172.884 286.457 172.381 C 287.495 171.565,293.255 171.626,294.229 172.464 M97.976 172.727 C 97.976 172.854,97.858 172.997,97.715 173.044 C 97.572 173.092,97.455 172.949,97.455 172.727 C 97.455 172.505,97.572 172.362,97.715 172.410 C 97.858 172.458,97.976 172.601,97.976 172.727 M112.970 172.727 C 112.970 172.927,112.867 173.091,112.742 173.091 C 112.436 173.091,112.217 172.712,112.411 172.519 C 112.684 172.246,112.970 172.352,112.970 172.727 M183.578 179.697 C 184.575 182.397,185.458 184.824,185.540 185.091 C 185.675 185.532,185.080 185.798,178.982 188.025 L 172.276 190.474 171.467 189.665 C 170.440 188.638,169.569 188.191,167.820 187.794 L 166.424 187.477 165.285 184.466 C 164.659 182.810,164.173 181.356,164.206 181.236 C 164.264 181.029,180.904 174.835,181.489 174.803 C 181.641 174.795,182.581 176.997,183.578 179.697 M119.515 184.848 L 119.515 189.576 105.212 189.576 L 90.909 189.576 90.909 184.848 L 90.909 180.121 105.212 180.121 L 119.515 180.121 119.515 184.848 M284.047 182.645 L 284.727 183.230 284.804 187.251 L 284.881 191.273 254.683 191.273 L 224.485 191.273 224.485 187.413 C 224.485 183.613,224.495 183.541,225.112 182.806 L 225.740 182.061 254.553 182.061 L 283.367 182.061 284.047 182.645 M96.727 183.152 C 95.974 184.059,96.569 185.455,97.709 185.455 C 98.539 185.455,99.152 184.889,99.152 184.121 C 99.152 182.965,97.447 182.284,96.727 183.152 M111.524 183.257 C 110.928 184.371,111.506 185.455,112.696 185.455 C 113.560 185.455,113.939 185.048,113.939 184.121 C 113.939 182.805,112.115 182.152,111.524 183.257 M97.976 184.121 C 97.976 184.248,97.858 184.391,97.715 184.438 C 97.572 184.486,97.455 184.343,97.455 184.121 C 97.455 183.899,97.572 183.756,97.715 183.804 C 97.858 183.852,97.976 183.995,97.976 184.121 M112.970 184.141 C 112.970 184.570,112.448 184.495,112.298 184.045 C 112.245 183.887,112.375 183.758,112.586 183.758 C 112.797 183.758,112.970 183.930,112.970 184.141 M187.986 187.141 C 187.654 187.473,173.312 192.544,173.153 192.386 C 172.990 192.222,172.613 192.372,180.606 189.422 C 186.911 187.096,188.533 186.594,187.986 187.141 M168.432 189.952 C 171.995 191.440,172.745 195.943,169.853 198.482 C 166.882 201.091,162.090 199.302,161.553 195.383 C 161.028 191.551,164.914 188.483,168.432 189.952 M165.576 191.929 C 164.256 192.411,163.430 194.155,163.878 195.511 C 164.902 198.615,169.455 197.828,169.455 194.546 C 169.455 192.748,167.304 191.297,165.576 191.929 M90.596 192.909 C 90.523 193.276,90.276 194.830,90.047 196.364 C 89.435 200.450,89.228 200.374,89.219 196.061 L 89.212 192.242 89.970 192.242 C 90.666 192.242,90.717 192.296,90.596 192.909 M118.862 192.788 C 119.136 193.971,119.825 199.528,119.712 199.641 C 119.646 199.707,113.057 199.733,105.069 199.699 L 90.545 199.636 91.122 195.939 L 91.698 192.242 105.217 192.242 L 118.735 192.242 118.862 192.788 M121.212 196.048 C 121.212 200.544,120.955 200.604,120.380 196.242 C 120.152 194.509,119.911 192.900,119.845 192.667 C 119.749 192.329,119.876 192.242,120.469 192.242 L 121.212 192.242 121.212 196.048 M227.394 192.367 C 227.394 193.230,223.669 199.758,223.177 199.758 L 222.599 199.758 223.312 196.909 C 223.705 195.342,224.134 193.652,224.265 193.152 L 224.504 192.242 225.949 192.242 C 226.744 192.242,227.394 192.298,227.394 192.367 M282.544 195.876 C 283.545 197.874,284.364 199.565,284.364 199.633 C 284.364 199.702,271.000 199.758,254.668 199.758 L 224.972 199.758 226.846 196.000 L 228.720 192.242 254.722 192.242 L 280.724 192.242 282.544 195.876 M285.068 193.152 C 285.200 193.652,285.628 195.342,286.021 196.909 L 286.735 199.758 286.157 199.758 C 285.664 199.758,281.939 193.230,281.939 192.367 C 281.939 192.298,282.590 192.242,283.385 192.242 L 284.830 192.242 285.068 193.152 M167.776 193.436 C 168.987 194.646,168.251 196.444,166.546 196.444 C 164.580 196.444,164.189 193.588,166.061 192.899 C 166.768 192.639,167.075 192.735,167.776 193.436 " stroke="none" fill="#040404" fill-rule="evenodd"></path><path id="path1" d="" stroke="none" fill="#080404" fill-rule="evenodd"></path></g></svg>