<svg id="svg" version="1.1" width="400" height="309.09090909090907" viewBox="0 0 400 309.09090909090907" xmlns="http://www.w3.org/2000/svg" xmlns:xlink="http://www.w3.org/1999/xlink" ><g id="svgg"><path id="path0" d="M41.618 108.461 C 41.547 108.648,41.553 108.866,41.633 108.946 C 42.058 109.371,358.581 109.092,358.499 108.667 C 358.386 108.080,41.844 107.874,41.618 108.461 M81.859 118.464 C 81.770 118.553,81.697 136.935,81.697 159.313 L 81.697 200.000 61.711 200.000 C 42.421 200.000,41.272 200.039,41.667 200.678 C 42.002 201.222,358.395 200.968,358.499 200.424 C 358.576 200.024,357.676 200.000,342.322 200.000 L 326.062 200.000 326.001 159.212 L 325.939 118.424 279.636 118.424 L 233.333 118.424 233.272 159.212 L 233.211 200.000 218.173 200.000 L 203.135 200.000 204.006 199.235 C 205.172 198.211,205.845 196.819,206.000 195.108 C 206.086 194.155,206.233 193.697,206.452 193.697 C 207.048 193.697,221.448 188.534,221.879 188.166 C 222.881 187.309,222.167 185.798,220.851 185.991 C 220.410 186.055,220.121 185.990,220.121 185.826 C 220.121 185.514,215.830 173.810,215.650 173.630 C 215.584 173.564,214.869 173.758,214.061 174.061 C 212.286 174.724,212.700 175.235,210.933 170.200 C 210.118 167.877,209.404 165.929,209.347 165.872 C 209.289 165.814,208.251 166.122,207.040 166.555 C 205.829 166.988,204.787 167.292,204.724 167.229 C 204.661 167.166,203.967 165.269,203.181 163.012 C 202.322 160.544,201.616 158.881,201.409 158.840 C 201.113 158.780,190.422 162.415,189.847 162.770 C 189.733 162.840,189.445 162.682,189.207 162.419 C 188.968 162.155,188.571 161.939,188.324 161.939 C 188.078 161.939,187.660 161.691,187.396 161.388 C 186.745 160.639,181.223 160.615,180.679 161.359 C 179.856 162.484,180.714 163.078,183.958 163.632 C 187.388 164.217,187.497 164.253,187.840 164.913 C 188.223 165.651,196.606 188.902,196.606 189.226 C 196.606 189.368,196.305 189.707,195.937 189.979 C 193.210 191.996,193.154 197.063,195.835 199.273 L 196.717 200.000 185.510 200.000 L 174.304 200.000 174.243 159.212 L 174.182 118.424 128.102 118.363 C 102.758 118.329,81.948 118.375,81.859 118.464 M173.333 121.333 L 173.333 123.394 128.000 123.394 L 82.667 123.394 82.667 121.333 L 82.667 119.273 128.000 119.273 L 173.333 119.273 173.333 121.333 M325.091 120.485 L 325.091 121.697 279.636 121.697 L 234.182 121.697 234.182 120.485 L 234.182 119.273 279.636 119.273 L 325.091 119.273 325.091 120.485 M325.091 124.727 L 325.091 126.788 279.636 126.788 L 234.182 126.788 234.182 124.727 L 234.182 122.667 279.636 122.667 L 325.091 122.667 325.091 124.727 M173.333 126.424 L 173.333 128.485 128.000 128.485 L 82.667 128.485 82.667 126.424 L 82.667 124.364 128.000 124.364 L 173.333 124.364 173.333 126.424 M325.091 129.818 L 325.091 131.879 279.636 131.879 L 234.182 131.879 234.182 129.818 L 234.182 127.758 279.636 127.758 L 325.091 127.758 325.091 129.818 M173.333 131.515 L 173.333 133.576 128.000 133.576 L 82.667 133.576 82.667 131.515 L 82.667 129.455 128.000 129.455 L 173.333 129.455 173.333 131.515 M325.091 134.909 L 325.091 136.970 279.636 136.970 L 234.182 136.970 234.182 134.909 L 234.182 132.848 279.636 132.848 L 325.091 132.848 325.091 134.909 M173.333 136.606 L 173.333 138.667 128.000 138.667 L 82.667 138.667 82.667 136.606 L 82.667 134.545 128.000 134.545 L 173.333 134.545 173.333 136.606 M325.091 140.000 L 325.091 142.061 279.636 142.061 L 234.182 142.061 234.182 140.000 L 234.182 137.939 279.636 137.939 L 325.091 137.939 325.091 140.000 M173.333 141.697 L 173.333 143.758 128.000 143.758 L 82.667 143.758 82.667 141.697 L 82.667 139.636 128.000 139.636 L 173.333 139.636 173.333 141.697 M325.091 145.091 L 325.091 147.152 279.636 147.152 L 234.182 147.152 234.182 145.091 L 234.182 143.030 279.636 143.030 L 325.091 143.030 325.091 145.091 M173.333 146.788 L 173.333 148.848 128.000 148.848 L 82.667 148.848 82.667 146.788 L 82.667 144.727 128.000 144.727 L 173.333 144.727 173.333 146.788 M325.091 150.182 L 325.091 152.242 279.636 152.242 L 234.182 152.242 234.182 150.182 L 234.182 148.121 279.636 148.121 L 325.091 148.121 325.091 150.182 M173.333 152.000 L 173.333 154.182 128.000 154.182 L 82.667 154.182 82.667 152.000 L 82.667 149.818 128.000 149.818 L 173.333 149.818 173.333 152.000 M325.091 155.394 L 325.091 157.576 279.636 157.576 L 234.182 157.576 234.182 155.394 L 234.182 153.212 279.636 153.212 L 325.091 153.212 325.091 155.394 M173.333 157.212 L 173.333 159.273 128.000 159.273 L 82.667 159.273 82.667 157.212 L 82.667 155.152 128.000 155.152 L 173.333 155.152 173.333 157.212 M325.091 160.606 L 325.091 162.667 279.636 162.667 L 234.182 162.667 234.182 160.606 L 234.182 158.545 279.636 158.545 L 325.091 158.545 325.091 160.606 M202.233 163.489 C 202.878 165.341,203.376 166.883,203.340 166.915 C 203.149 167.083,193.605 170.413,193.529 170.338 C 193.281 170.089,191.032 163.554,191.153 163.433 C 191.401 163.184,200.349 160.054,200.711 160.089 C 200.931 160.110,201.493 161.365,202.233 163.489 M173.333 160.606 C 173.333 160.928,168.135 160.970,128.000 160.970 C 87.865 160.970,82.667 160.928,82.667 160.606 C 82.667 160.284,87.865 160.242,128.000 160.242 C 168.135 160.242,173.333 160.284,173.333 160.606 M186.490 162.166 C 186.571 162.473,186.912 162.691,187.480 162.797 C 187.956 162.887,188.465 163.103,188.611 163.278 C 188.935 163.670,197.800 187.960,197.669 188.101 C 197.482 188.303,197.285 187.789,193.074 176.111 C 188.124 162.387,188.709 163.362,185.091 162.804 C 181.334 162.224,181.117 162.080,183.758 161.925 C 185.024 161.851,186.130 161.769,186.214 161.743 C 186.299 161.718,186.423 161.908,186.490 162.166 M173.333 180.970 L 173.333 200.000 139.697 200.000 L 106.061 200.000 106.129 193.212 L 106.197 186.424 105.280 186.425 L 104.364 186.425 104.434 181.697 L 104.505 176.970 103.222 176.970 L 101.939 176.970 101.939 172.303 L 101.939 167.636 95.758 167.636 L 89.576 167.636 89.576 172.303 L 89.576 176.970 88.293 176.970 L 87.010 176.970 87.081 181.686 L 87.152 186.403 86.303 186.474 L 85.455 186.545 85.455 193.273 L 85.455 200.000 84.061 200.000 L 82.667 200.000 82.667 180.970 L 82.667 161.939 128.000 161.939 L 173.333 161.939 173.333 180.970 M325.091 165.697 L 325.091 167.758 279.636 167.758 L 234.182 167.758 234.182 165.697 L 234.182 163.636 279.636 163.636 L 325.091 163.636 325.091 165.697 M209.987 170.608 C 210.624 172.431,211.064 173.993,210.966 174.080 C 210.653 174.358,197.020 179.168,196.776 179.087 C 196.582 179.022,194.111 172.303,194.256 172.233 C 195.001 171.877,208.641 167.122,208.718 167.193 C 208.779 167.248,209.350 168.785,209.987 170.608 M101.091 172.242 L 101.091 176.000 95.758 176.000 L 90.424 176.000 90.424 172.242 L 90.424 168.485 95.758 168.485 L 101.091 168.485 101.091 172.242 M325.091 170.788 L 325.091 172.848 279.636 172.848 L 234.182 172.848 234.182 170.788 L 234.182 168.727 279.636 168.727 L 325.091 168.727 325.091 170.788 M325.091 175.879 L 325.091 177.939 279.636 177.939 L 234.182 177.939 234.182 175.879 L 234.182 173.818 279.636 173.818 L 325.091 173.818 325.091 175.879 M217.092 180.318 C 218.171 183.276,218.884 185.571,218.761 185.687 C 218.642 185.799,215.655 186.923,212.121 188.185 L 205.697 190.480 204.809 189.684 C 203.614 188.613,203.058 188.331,201.246 187.881 L 199.704 187.498 198.528 184.366 C 197.881 182.644,197.375 181.221,197.403 181.205 C 198.075 180.823,214.955 174.886,215.058 174.995 C 215.140 175.081,216.055 177.476,217.092 180.318 M103.515 181.697 L 103.515 185.455 95.758 185.455 L 88.000 185.455 88.000 181.697 L 88.000 177.939 95.758 177.939 L 103.515 177.939 103.515 181.697 M325.091 180.970 L 325.091 183.030 279.636 183.030 L 234.182 183.030 234.182 180.970 L 234.182 178.909 279.636 178.909 L 325.091 178.909 325.091 180.970 M325.091 186.061 L 325.091 188.121 279.636 188.121 L 234.182 188.121 234.182 186.061 L 234.182 184.000 279.636 184.000 L 325.091 184.000 325.091 186.061 M221.278 187.196 C 221.185 187.477,206.764 192.748,206.566 192.574 C 206.351 192.384,206.946 192.143,213.969 189.577 C 222.242 186.554,221.401 186.828,221.278 187.196 M105.212 193.212 L 105.212 199.030 95.758 199.030 L 86.303 199.030 86.303 193.212 L 86.303 187.394 95.758 187.394 L 105.212 187.394 105.212 193.212 M325.091 191.152 L 325.091 193.212 279.636 193.212 L 234.182 193.212 234.182 191.152 L 234.182 189.091 279.636 189.091 L 325.091 189.091 325.091 191.152 M202.669 190.397 C 204.828 191.826,205.593 194.610,204.443 196.847 C 202.484 200.655,197.351 200.725,195.409 196.970 C 193.070 192.451,198.435 187.595,202.669 190.397 M198.593 192.163 C 196.410 193.239,196.676 196.656,198.997 197.352 C 200.984 197.947,202.667 196.749,202.667 194.739 C 202.667 192.410,200.663 191.143,198.593 192.163 M200.736 193.095 C 202.018 193.758,201.971 195.688,200.657 196.318 C 198.739 197.237,197.173 194.729,198.806 193.355 C 199.677 192.622,199.791 192.607,200.736 193.095 M325.091 196.242 L 325.091 198.303 279.636 198.303 L 234.182 198.303 234.182 196.242 L 234.182 194.182 279.636 194.182 L 325.091 194.182 325.091 196.242 M325.091 199.636 C 325.091 199.958,319.879 200.000,279.636 200.000 C 239.394 200.000,234.182 199.958,234.182 199.636 C 234.182 199.314,239.394 199.273,279.636 199.273 C 319.879 199.273,325.091 199.314,325.091 199.636 " stroke="none" fill="#040404" fill-rule="evenodd"></path><path id="path1" d="" stroke="none" fill="#080404" fill-rule="evenodd"></path></g></svg>