<svg id="svg" version="1.1" width="400" height="309.09090909090907" viewBox="0 0 400 309.09090909090907" xmlns="http://www.w3.org/2000/svg" xmlns:xlink="http://www.w3.org/1999/xlink" ><g id="svgg"><path id="path0" d="M116.300 108.266 C 115.459 109.107,113.812 109.091,200.026 109.091 C 283.475 109.091,283.636 109.090,283.636 108.606 C 283.636 108.127,116.777 107.788,116.300 108.266 M193.426 160.573 C 188.034 162.545,187.934 162.571,187.399 162.138 C 187.100 161.895,186.595 161.697,186.276 161.697 C 185.958 161.697,185.697 161.560,185.697 161.392 C 185.697 160.525,179.998 160.220,178.970 161.032 C 177.663 162.064,178.989 163.017,182.424 163.516 C 184.024 163.748,185.461 164.061,185.617 164.212 C 185.845 164.430,194.217 186.881,194.765 188.741 C 194.874 189.110,194.725 189.378,194.194 189.771 C 191.553 191.724,191.308 196.297,193.712 198.774 L 194.666 199.758 155.541 199.758 C 115.396 199.758,115.473 199.756,116.300 200.582 C 116.777 201.060,283.636 200.721,283.636 200.242 C 283.636 199.764,283.475 199.758,271.455 199.758 L 259.273 199.758 259.341 192.970 L 259.409 186.182 258.492 186.182 L 257.576 186.182 257.646 181.455 L 257.717 176.727 256.495 176.727 L 255.273 176.727 255.273 172.419 L 255.273 168.111 257.333 166.061 C 259.236 164.168,259.848 163.152,259.086 163.152 C 258.916 163.152,257.855 164.079,256.727 165.212 L 254.677 167.273 249.001 167.273 L 243.324 167.273 241.304 165.333 C 240.193 164.267,239.118 163.394,238.915 163.394 C 238.068 163.394,238.668 164.373,240.596 166.137 L 242.646 168.013 242.717 172.360 L 242.788 176.707 241.576 176.778 L 240.364 176.848 240.364 181.515 L 240.364 186.182 239.568 186.182 L 238.773 186.182 238.841 192.970 L 238.909 199.758 220.173 199.758 L 201.438 199.758 202.269 199.027 C 203.433 198.006,204.121 196.425,204.121 194.776 C 204.121 194.034,204.213 193.483,204.326 193.552 C 204.911 193.914,220.231 187.999,220.470 187.318 C 220.810 186.353,220.399 185.818,219.320 185.818 L 218.456 185.818 216.319 179.905 C 213.689 172.627,214.004 173.102,212.252 173.773 C 210.622 174.396,210.424 174.417,210.424 173.960 C 210.424 173.575,207.640 165.862,207.423 165.645 C 207.346 165.568,206.324 165.849,205.152 166.268 C 202.756 167.125,202.667 167.142,202.667 166.745 C 202.667 165.553,199.890 158.546,199.422 158.557 C 199.140 158.563,196.442 159.470,193.426 160.573 M201.371 166.072 C 201.493 166.675,201.379 166.732,196.619 168.468 C 193.936 169.446,191.710 170.205,191.671 170.154 C 191.417 169.821,189.179 163.260,189.302 163.208 C 189.386 163.173,191.636 162.345,194.303 161.368 L 199.152 159.592 200.199 162.523 C 200.774 164.135,201.302 165.732,201.371 166.072 M184.658 161.943 C 184.745 162.277,185.119 162.516,185.836 162.696 C 187.068 163.007,186.307 161.258,191.993 176.842 C 194.133 182.705,195.841 187.614,195.789 187.751 C 195.670 188.064,195.985 188.880,190.927 175.152 C 188.569 168.752,186.546 163.421,186.431 163.306 C 186.317 163.190,184.932 162.888,183.354 162.633 C 179.464 162.005,179.130 161.847,181.333 161.680 C 184.653 161.428,184.520 161.417,184.658 161.943 M208.130 170.358 L 209.382 173.777 202.137 176.376 C 198.153 177.805,194.860 178.932,194.819 178.881 C 194.290 178.212,192.510 172.207,192.789 172.029 C 193.325 171.687,206.401 166.843,206.651 166.893 C 206.776 166.919,207.442 168.478,208.130 170.358 M254.303 172.000 L 254.303 175.758 252.788 175.758 L 251.273 175.759 251.354 174.042 C 251.432 172.389,251.452 172.341,251.884 172.732 C 252.341 173.146,252.848 173.045,252.848 172.541 C 252.848 172.187,251.137 170.423,250.799 170.429 C 250.496 170.434,248.970 172.225,248.970 172.575 C 248.970 173.049,249.490 173.134,249.934 172.732 C 250.366 172.341,250.386 172.389,250.464 174.042 L 250.545 175.759 247.091 175.758 L 243.636 175.758 243.636 172.000 L 243.636 168.242 248.970 168.242 L 254.303 168.242 254.303 172.000 M215.259 180.021 C 216.355 183.033,217.215 185.523,217.171 185.556 C 217.127 185.589,214.098 186.673,210.441 187.966 L 203.791 190.316 202.926 189.488 C 201.794 188.404,200.656 187.848,199.196 187.664 L 198.010 187.515 196.801 184.285 C 196.136 182.509,195.634 181.012,195.687 180.960 C 195.790 180.856,212.873 174.585,213.118 174.560 C 213.200 174.552,214.164 177.009,215.259 180.021 M256.727 181.455 L 256.727 185.212 255.212 185.213 L 253.697 185.213 253.779 183.488 C 253.838 182.221,253.932 181.835,254.130 182.033 C 254.491 182.394,255.273 182.378,255.273 182.010 C 255.273 181.655,253.575 179.879,253.235 179.879 C 252.813 179.879,251.394 181.410,251.394 181.866 C 251.394 182.356,252.109 182.461,252.537 182.033 C 252.735 181.835,252.828 182.221,252.888 183.488 L 252.970 185.213 247.091 185.213 L 241.212 185.212 241.212 181.455 L 241.212 177.697 248.970 177.697 L 256.727 177.697 256.727 181.455 M219.433 186.970 C 219.031 187.375,205.029 192.460,204.756 192.300 C 204.598 192.207,218.974 186.775,219.624 186.682 C 219.684 186.674,219.598 186.803,219.433 186.970 M258.424 192.970 L 258.424 198.788 256.788 198.788 L 255.152 198.789 255.232 196.951 C 255.308 195.219,255.337 195.134,255.736 195.496 C 257.006 196.645,257.308 195.639,256.072 194.374 C 254.956 193.231,254.860 193.233,253.697 194.424 C 252.668 195.478,252.756 196.356,253.824 195.689 C 254.282 195.403,254.303 195.457,254.303 196.947 C 254.303 197.967,254.408 198.547,254.606 198.627 C 254.773 198.695,251.500 198.758,247.333 198.769 L 239.758 198.788 239.758 192.970 L 239.758 187.152 249.091 187.152 L 258.424 187.152 258.424 192.970 M199.534 189.610 C 203.367 190.759,204.425 196.082,201.295 198.470 C 196.985 201.757,191.195 197.110,193.597 192.292 C 194.748 189.981,197.150 188.896,199.534 189.610 M196.283 192.253 C 195.236 193.078,194.939 195.108,195.716 196.132 C 197.547 198.546,201.290 197.063,200.890 194.082 C 200.614 192.025,197.929 190.959,196.283 192.253 M199.405 193.322 C 200.091 194.009,200.140 194.421,199.645 195.377 C 198.787 197.036,196.364 196.409,196.364 194.528 C 196.364 192.847,198.201 192.119,199.405 193.322 " stroke="none" fill="#040404" fill-rule="evenodd"></path><path id="path1" d="" stroke="none" fill="#080404" fill-rule="evenodd"></path></g></svg>