<svg id="svg" version="1.1" width="800" height="600" xmlns="http://www.w3.org/2000/svg" xmlns:xlink="http://www.w3.org/1999/xlink" ><g id="svgg"><path id="path0" d="M202.475 23.150 C 193.574 25.672,188.188 36.419,191.682 44.686 C 192.132 45.751,192.500 46.698,192.500 46.791 C 192.500 46.883,182.994 47.025,171.375 47.105 C 145.933 47.280,144.014 47.831,139.580 56.230 L 138.250 58.750 138.119 142.591 C 137.989 225.981,137.994 226.447,139.011 229.164 C 140.447 233.003,143.379 236.131,147.390 238.107 L 150.728 239.750 205.177 239.888 C 265.571 240.041,263.191 240.158,268.297 236.779 C 271.149 234.891,273.594 231.548,274.884 227.773 C 275.664 225.486,275.758 221.639,275.884 186.587 L 276.024 147.925 285.039 132.251 L 294.054 116.577 295.524 117.414 C 297.500 118.538,297.678 118.037,291.750 128.070 C 286.176 137.505,285.896 138.161,287.559 137.910 C 288.748 137.730,300.231 118.824,299.813 117.734 C 299.543 117.030,284.384 108.499,283.410 108.503 C 283.047 108.504,281.288 111.086,279.500 114.239 L 276.250 119.973 275.976 90.612 C 275.768 68.344,275.543 60.767,275.045 59.250 C 273.458 54.412,270.241 50.691,265.728 48.470 L 263.250 47.250 242.209 47.105 L 221.169 46.960 222.138 44.105 C 226.286 31.879,214.815 19.654,202.475 23.150 M212.739 26.048 C 222.741 30.749,223.680 44.600,214.405 50.610 C 212.860 51.611,212.064 52.445,212.233 52.886 C 212.380 53.269,212.500 55.345,212.500 57.500 L 212.500 61.417 221.125 61.584 C 230.851 61.771,232.316 62.214,234.073 65.500 L 235.009 67.250 206.925 67.379 C 191.479 67.450,178.724 67.391,178.581 67.248 C 178.437 67.104,178.988 66.033,179.806 64.868 C 181.881 61.909,183.268 61.561,193.125 61.528 L 201.500 61.500 201.500 56.762 C 201.500 52.132,201.468 52.003,200.125 51.171 C 184.842 41.706,196.530 18.428,212.739 26.048 M204.370 31.715 C 196.385 34.562,198.370 46.214,206.840 46.214 C 216.032 46.214,217.081 32.735,208.000 31.319 C 207.037 31.168,205.404 31.347,204.370 31.715 M210.871 35.265 C 213.387 38.142,212.497 41.897,208.878 43.665 C 204.256 45.923,199.761 40.813,202.207 36.082 C 203.867 32.873,208.405 32.445,210.871 35.265 M196.308 51.000 C 197.501 52.100,198.708 53.000,198.989 53.000 C 199.285 53.000,199.500 54.369,199.500 56.250 L 199.500 59.500 192.125 59.503 C 184.040 59.506,181.772 59.915,179.568 61.769 L 178.106 63.000 166.053 63.000 L 154.000 63.000 154.000 143.502 L 154.000 224.005 206.875 223.877 L 259.750 223.750 260.000 199.500 L 260.250 175.250 266.455 164.500 C 269.868 158.588,272.970 153.300,273.347 152.750 C 274.606 150.917,274.043 223.897,272.771 227.441 C 271.495 230.998,267.799 235.016,264.385 236.559 L 261.750 237.750 206.750 237.750 L 151.750 237.750 149.000 236.455 C 145.093 234.615,143.279 232.902,141.529 229.400 L 140.000 226.340 140.000 143.759 C 140.000 51.499,139.712 58.673,143.598 54.257 C 145.521 52.073,148.250 50.307,151.000 49.468 C 151.688 49.258,161.675 49.067,173.194 49.043 L 194.138 49.000 196.308 51.000 M264.575 50.325 C 273.532 54.465,273.980 56.566,273.991 94.511 L 274.000 123.773 267.125 135.666 L 260.250 147.559 260.000 105.405 L 259.750 63.250 247.523 63.116 C 236.421 62.994,235.201 62.896,234.273 62.053 C 232.029 60.017,230.910 59.780,222.625 59.587 L 214.500 59.397 214.500 56.239 C 214.500 53.203,214.564 53.042,216.158 52.057 C 217.070 51.493,218.238 50.566,218.753 49.996 C 220.229 48.366,260.969 48.658,264.575 50.325 M176.623 67.254 L 176.369 69.508 206.810 69.379 C 240.108 69.238,237.578 69.492,236.755 66.375 L 236.392 65.000 247.196 65.000 L 258.000 65.000 258.000 108.216 L 258.000 151.431 251.500 162.693 L 245.000 173.955 245.000 180.243 C 245.000 184.903,245.166 186.595,245.642 186.778 C 246.508 187.110,256.330 181.662,257.261 180.333 C 257.918 179.394,258.000 181.645,258.000 200.639 L 258.000 222.000 207.000 222.000 L 156.000 222.000 156.000 143.500 L 156.000 65.000 166.439 65.000 L 176.877 65.000 176.623 67.254 M291.371 115.214 C 291.855 115.653,287.985 122.753,273.883 147.297 L 255.774 178.816 251.762 176.428 C 249.555 175.115,247.788 173.863,247.834 173.645 C 247.917 173.252,281.915 114.280,283.309 112.112 L 284.040 110.974 287.395 112.812 C 289.240 113.823,291.030 114.904,291.371 115.214 M250.883 178.444 L 254.016 180.352 250.884 182.051 C 249.162 182.985,247.583 183.825,247.376 183.917 C 247.169 184.008,247.000 182.377,247.000 180.292 C 247.000 175.893,246.829 175.974,250.883 178.444 " stroke="none" fill="#000000" fill-rule="evenodd"></path></g></svg>