<?xml version="1.0" standalone="no"?>
<!DOCTYPE svg PUBLIC "-//W3C//DTD SVG 20010904//EN"
 "http://www.w3.org/TR/2001/REC-SVG-20010904/DTD/svg10.dtd">
<svg version="1.0" xmlns="http://www.w3.org/2000/svg"
 width="300.000000pt" height="300.000000pt" viewBox="0 0 300.000000 300.000000"
 preserveAspectRatio="xMidYMid meet">
<metadata>
Created by potrace 1.10, written by Peter Selinger 2001-2011
</metadata>
<g transform="translate(0.000000,300.000000) scale(0.100000,-0.100000)"
fill="#000000" stroke="none">
<path d="M1339 2989 c-336 -31 -664 -193 -912 -448 -307 -316 -452 -720 -418
-1168 33 -423 251 -817 600 -1078 90 -68 257 -159 366 -200 265 -100 616 -120
887 -51 563 143 988 587 1110 1159 31 147 31 447 0 594 -127 596 -588 1055
-1177 1172 -120 24 -324 33 -456 20z m451 -34 c319 -71 571 -212 792 -443 186
-196 313 -441 374 -722 15 -67 19 -128 19 -290 0 -178 -3 -219 -23 -310 -62
-276 -187 -511 -381 -712 -208 -217 -452 -357 -740 -425 -131 -30 -387 -42
-524 -24 -570 76 -1049 479 -1220 1027 -52 166 -62 236 -62 444 0 168 3 210
23 299 67 297 197 536 407 746 235 236 523 378 870 429 70 10 392 -3 465 -19z"/>
<path d="M1170 1629 l0 -470 -21 6 c-18 6 -20 4 -14 -17 4 -12 20 -35 36 -50
24 -23 38 -28 83 -28 50 0 54 -2 59 -27 18 -82 96 -145 180 -146 91 -1 165 53
188 138 l10 35 258 0 258 0 12 -41 c17 -56 77 -113 134 -128 96 -24 200 34
227 127 l13 42 57 0 c59 0 81 14 109 67 16 31 16 31 -34 25 l-45 -5 0 138 0
137 -29 27 c-26 24 -33 46 -64 185 -25 115 -40 164 -55 179 -16 16 -58 28
-164 49 -79 15 -166 32 -194 38 l-50 11 4 89 4 90 -481 0 -481 0 0 -471z m940
-4 l0 -465 -219 0 -219 0 -21 33 c-63 102 -241 102 -306 0 -19 -31 -22 -32
-92 -33 l-73 0 0 465 0 465 465 0 465 0 0 -465z m218 238 c199 -39 204 -42
218 -113 6 -30 5 -33 -12 -26 -10 4 -76 10 -146 13 l-128 6 0 -116 0 -117 170
0 c141 0 170 -2 170 -14 0 -8 14 -24 30 -36 l30 -21 0 -140 0 -139 -42 0 c-38
0 -46 4 -65 35 -50 77 -171 99 -254 47 -24 -16 -50 -41 -58 -55 -13 -24 -20
-27 -65 -27 l-51 0 0 370 c0 240 4 370 10 370 6 0 92 -16 193 -37z m182 -151
l45 -7 16 -65 c8 -36 18 -76 22 -90 l6 -25 -159 0 -160 0 0 98 0 97 93 -1 c50
0 112 -4 137 -7z m-945 -471 c122 -56 142 -200 42 -288 -110 -96 -276 -17
-279 132 0 25 4 51 11 58 6 8 9 16 6 19 -3 3 11 21 30 41 55 56 121 70 190 38z
m886 8 c106 -36 151 -157 94 -255 -28 -48 -91 -84 -145 -84 -54 0 -117 36
-145 84 -54 93 -19 201 80 247 47 22 70 23 116 8z m-1135 -115 c-3 -9 -6 -22
-6 -30 0 -10 -14 -14 -51 -14 -56 0 -83 11 -99 40 -10 19 -7 20 76 20 74 0 85
-2 80 -16z m900 -6 c-3 -13 -6 -26 -6 -30 0 -10 -520 -10 -520 0 0 4 -3 17 -6
30 l-6 22 272 0 272 0 -6 -22z m524 2 c-16 -29 -43 -40 -99 -40 -37 0 -51 4
-51 14 0 8 -3 21 -6 30 -5 14 6 16 80 16 83 0 86 -1 76 -20z"/>
<path d="M1465 1158 c-52 -28 -62 -92 -20 -133 28 -29 54 -31 94 -10 52 27 57
90 10 129 -33 28 -53 31 -84 14z m80 -28 c57 -63 -35 -150 -95 -90 -26 26 -25
51 1 84 25 32 68 35 94 6z"/>
<path d="M2365 1158 c-75 -41 -50 -158 35 -158 82 0 112 118 39 155 -33 18
-47 18 -74 3z m88 -39 c50 -68 -50 -139 -102 -73 -26 33 -26 45 0 78 28 35 73
33 102 -5z"/>
<path d="M421 1600 l-105 -39 -28 20 c-35 25 -121 22 -126 -4 -2 -11 7 -18 35
-22 90 -15 81 -2 169 -241 66 -176 79 -221 68 -227 -26 -15 -46 -68 -40 -103
14 -69 107 -108 165 -68 24 17 55 79 47 93 -3 4 59 29 137 57 119 41 142 52
142 69 0 13 -6 20 -17 19 -10 -1 -18 3 -18 9 0 21 -72 207 -80 207 -5 0 -21
-5 -37 -11 -15 -5 -25 -7 -21 -4 5 5 -35 136 -47 153 -1 1 -20 -4 -42 -12
l-39 -14 -28 79 c-16 44 -29 78 -30 78 0 -1 -48 -18 -105 -39z m119 -41 c12
-34 18 -64 13 -68 -11 -11 -163 -64 -167 -60 -4 5 -46 118 -46 124 0 3 6 5 13
5 9 0 157 53 163 59 1 1 11 -26 24 -60z m-261 6 c22 -11 35 -32 56 -90 19 -53
31 -72 37 -63 5 8 6 2 2 -17 -4 -24 -3 -27 6 -15 10 13 11 12 6 -4 -9 -26 54
-202 66 -184 5 8 6 2 2 -17 -4 -23 -3 -26 5 -15 12 17 13 4 2 -23 -5 -13 -30
44 -86 194 -44 117 -87 216 -95 220 -8 4 -35 12 -60 17 l-45 10 38 1 c21 0 51
-6 66 -14z m398 -137 c12 -35 21 -63 20 -64 -1 0 -59 -21 -129 -46 l-126 -45
-22 59 c-12 33 -19 63 -15 66 5 6 231 90 245 91 3 1 15 -27 27 -61z m93 -82
c0 -2 15 -44 34 -94 l33 -90 -112 -41 c-127 -46 -128 -47 -145 -26 -7 8 -30
20 -51 26 -34 11 -40 18 -55 62 -12 35 -19 45 -25 36 -6 -9 -9 -10 -9 -2 0 17
11 23 165 80 130 48 165 59 165 49z m-320 -90 c0 -3 -4 -8 -10 -11 -5 -3 -10
-1 -10 4 0 6 5 11 10 11 6 0 10 -2 10 -4z m34 -132 c3 -8 2 -12 -4 -9 -6 3
-10 10 -10 16 0 14 7 11 14 -7z m391 8 c-15 -13 -255 -95 -261 -90 -3 3 7 9
23 12 22 6 24 9 12 18 -11 8 -10 9 5 4 27 -9 123 24 105 35 -10 7 -6 8 11 5
14 -3 39 1 55 8 34 16 64 21 50 8z m-315 -62 c43 -43 38 -109 -13 -141 -89
-55 -183 58 -112 135 31 33 94 37 125 6z"/>
<path d="M462 1038 c-20 -20 -14 -56 13 -74 23 -15 27 -15 50 0 27 18 31 36
15 67 -12 22 -59 26 -78 7z m58 -13 c19 -23 8 -50 -20 -50 -19 0 -26 6 -28 24
-5 35 26 53 48 26z"/>
<path d="M1946 742 c-3 -5 1 -9 9 -9 8 0 12 4 9 9 -3 4 -7 8 -9 8 -2 0 -6 -4
-9 -8z"/>
<path d="M369 93 c-13 -16 -12 -17 4 -4 16 13 21 21 13 21 -2 0 -10 -8 -17
-17z"/>
</g>
</svg>
