<svg id="svg" version="1.1" width="400" height="300" viewBox="0 0 400 300" xmlns="http://www.w3.org/2000/svg" xmlns:xlink="http://www.w3.org/1999/xlink" ><g id="svgg"><path id="path0" d="M167.942 89.922 C 167.832 90.033,167.742 110.895,167.742 136.284 L 167.742 182.446 166.242 182.446 L 164.741 182.446 164.741 183.778 C 164.741 184.511,164.861 185.185,165.007 185.275 C 165.154 185.366,165.363 185.917,165.472 186.500 C 165.582 187.083,165.935 187.725,166.256 187.926 C 166.578 188.127,166.842 188.457,166.842 188.659 C 166.842 189.097,168.497 190.848,168.911 190.848 C 169.070 190.848,169.383 191.017,169.608 191.223 C 170.721 192.246,171.368 192.348,176.740 192.348 L 182.146 192.348 182.146 193.531 C 182.146 194.181,182.281 194.797,182.446 194.899 C 182.611 195.001,182.746 195.481,182.746 195.967 C 182.746 196.452,182.863 196.849,183.007 196.849 C 183.151 196.849,183.356 197.389,183.461 198.050 C 183.567 198.710,183.786 199.250,183.950 199.250 C 184.113 199.250,184.246 199.452,184.246 199.700 C 184.246 199.947,184.381 200.150,184.546 200.150 C 184.711 200.150,184.846 200.424,184.846 200.760 C 184.846 201.095,185.049 201.447,185.296 201.542 C 185.544 201.637,185.746 201.882,185.746 202.086 C 185.746 202.544,189.229 206.152,189.670 206.152 C 190.007 206.152,190.848 206.887,190.848 207.180 C 190.848 207.275,171.925 207.352,148.796 207.352 L 106.745 207.352 107.525 206.571 C 107.955 206.142,108.387 205.534,108.487 205.221 C 108.586 204.908,108.794 204.651,108.947 204.651 C 109.101 204.651,109.227 204.449,109.227 204.201 C 109.227 203.953,109.361 203.751,109.524 203.751 C 109.687 203.751,109.907 203.211,110.012 202.551 C 110.118 201.890,110.322 201.350,110.466 201.350 C 110.610 201.350,110.728 200.424,110.728 199.292 L 110.728 197.233 112.153 197.057 C 113.590 196.879,115.222 196.266,115.226 195.902 C 115.228 195.794,115.904 195.612,116.729 195.499 C 117.554 195.385,118.230 195.170,118.230 195.021 C 118.230 194.871,118.417 194.749,118.645 194.749 C 118.874 194.749,119.448 194.547,119.921 194.300 C 120.393 194.054,121.084 193.851,121.455 193.850 C 121.827 193.849,122.131 193.713,122.131 193.548 C 122.131 193.383,122.468 193.248,122.881 193.248 C 123.293 193.248,123.631 193.122,123.631 192.967 C 123.631 192.812,124.239 192.594,124.981 192.482 C 125.724 192.371,126.332 192.160,126.332 192.014 C 126.332 191.868,126.669 191.748,127.082 191.748 C 127.494 191.748,127.832 191.625,127.832 191.474 C 127.832 191.324,128.372 191.109,129.032 190.998 C 129.692 190.886,130.233 190.672,130.233 190.521 C 130.233 190.371,130.570 190.248,130.983 190.248 C 131.395 190.248,131.733 190.130,131.733 189.986 C 131.733 189.842,132.273 189.638,132.933 189.532 C 133.593 189.427,134.134 189.207,134.134 189.044 C 134.134 188.881,134.471 188.747,134.884 188.747 C 135.296 188.747,135.634 188.612,135.634 188.447 C 135.634 188.282,135.951 188.147,136.338 188.147 C 137.996 188.147,139.182 185.002,137.959 183.850 C 137.207 183.140,135.991 182.687,135.370 182.884 C 134.862 183.046,134.734 182.961,134.734 182.466 C 134.734 182.125,134.616 181.845,134.473 181.845 C 134.329 181.845,134.134 181.363,134.038 180.773 C 133.840 179.555,133.186 177.944,132.888 177.944 C 132.779 177.944,132.597 177.269,132.483 176.444 C 132.370 175.619,132.154 174.944,132.005 174.944 C 131.855 174.944,131.733 174.682,131.733 174.361 C 131.733 174.041,131.610 173.703,131.459 173.610 C 131.308 173.516,131.094 172.901,130.983 172.243 C 130.872 171.585,130.657 170.970,130.507 170.877 C 130.356 170.783,130.233 170.445,130.233 170.125 C 130.233 169.804,130.106 169.542,129.951 169.542 C 129.796 169.542,129.578 168.935,129.467 168.192 C 129.355 167.449,129.144 166.842,128.998 166.842 C 128.852 166.842,128.732 166.655,128.732 166.426 C 128.732 166.197,128.530 165.623,128.284 165.151 C 128.037 164.678,127.835 164.045,127.834 163.745 C 127.833 163.444,127.639 163.005,127.403 162.769 C 126.938 162.304,125.431 162.176,125.431 162.602 C 125.431 162.746,124.864 162.955,124.171 163.066 C 123.478 163.176,122.739 163.410,122.529 163.584 C 122.036 163.993,121.230 163.235,121.230 162.362 C 121.230 162.020,121.095 161.740,120.930 161.740 C 120.765 161.740,120.629 161.437,120.628 161.065 C 120.627 160.694,120.425 160.003,120.178 159.531 C 119.932 159.058,119.730 158.484,119.730 158.255 C 119.730 158.027,119.608 157.839,119.458 157.839 C 119.308 157.839,119.093 157.164,118.980 156.339 C 118.866 155.514,118.651 154.839,118.501 154.839 C 118.352 154.839,118.230 154.501,118.230 154.089 C 118.230 153.676,118.106 153.338,117.956 153.338 C 117.805 153.338,117.591 152.798,117.479 152.138 C 117.368 151.478,117.153 150.938,117.003 150.938 C 116.852 150.938,116.729 150.581,116.729 150.145 L 116.729 149.352 114.854 149.548 C 113.822 149.655,112.933 149.877,112.878 150.040 C 112.823 150.204,112.452 150.338,112.053 150.338 C 111.654 150.338,111.328 150.446,111.328 150.578 C 111.328 150.711,110.653 150.958,109.827 151.127 L 108.327 151.434 108.327 150.586 C 108.327 150.119,108.192 149.737,108.027 149.737 C 107.862 149.737,107.727 149.400,107.727 148.987 C 107.727 148.575,107.604 148.237,107.453 148.237 C 107.303 148.237,107.088 147.698,106.977 147.038 C 106.866 146.379,106.651 145.763,106.501 145.670 C 106.350 145.577,106.227 145.239,106.227 144.919 C 106.227 144.598,106.109 144.336,105.965 144.336 C 105.821 144.336,105.616 143.790,105.509 143.123 C 105.402 142.455,105.194 141.679,105.046 141.397 C 104.406 140.181,103.826 138.656,103.826 138.193 C 103.826 137.917,103.633 137.499,103.397 137.263 C 102.930 136.795,101.425 136.671,101.425 137.100 C 101.425 137.247,100.821 137.457,100.082 137.568 C 99.343 137.678,98.660 137.896,98.564 138.052 C 98.468 138.207,98.127 138.335,97.807 138.335 C 97.486 138.335,97.224 138.452,97.224 138.596 C 97.224 138.740,96.678 138.945,96.011 139.052 C 95.344 139.159,94.567 139.367,94.285 139.515 C 92.973 140.206,91.525 140.735,90.952 140.735 C 90.606 140.735,90.323 140.870,90.323 141.035 C 90.323 141.200,89.985 141.335,89.572 141.335 C 89.160 141.335,88.822 141.470,88.822 141.635 C 88.822 141.800,88.555 141.935,88.228 141.935 C 87.585 141.935,85.166 142.819,84.921 143.143 C 84.565 143.614,82.833 143.705,82.404 143.276 C 82.161 143.034,81.751 142.836,81.492 142.836 C 81.232 142.836,81.020 142.701,81.020 142.536 C 81.020 142.371,80.615 142.236,80.120 142.236 C 79.625 142.236,79.220 142.091,79.220 141.914 C 79.220 140.505,67.923 139.766,66.781 141.100 C 64.878 143.322,66.926 145.741,70.951 146.024 C 72.528 146.134,73.818 146.340,73.818 146.481 C 73.818 146.622,74.553 146.737,75.451 146.737 C 76.349 146.737,77.167 146.872,77.269 147.037 C 77.371 147.202,77.789 147.337,78.197 147.337 C 78.639 147.337,79.006 147.549,79.106 147.862 C 79.324 148.542,79.820 149.750,80.149 150.399 C 80.292 150.681,80.496 151.458,80.603 152.125 C 80.710 152.792,80.915 153.338,81.059 153.338 C 81.203 153.338,81.320 153.676,81.320 154.089 C 81.320 154.501,81.455 154.839,81.620 154.839 C 81.785 154.839,81.921 155.143,81.922 155.514 C 81.923 155.885,82.126 156.576,82.372 157.049 C 82.619 157.521,82.821 158.095,82.821 158.324 C 82.821 158.553,82.943 158.740,83.093 158.740 C 83.242 158.740,83.457 159.415,83.571 160.240 C 83.684 161.065,83.900 161.740,84.049 161.740 C 84.199 161.740,84.321 162.078,84.321 162.491 C 84.321 162.903,84.444 163.241,84.595 163.241 C 84.745 163.241,84.960 163.781,85.071 164.441 C 85.183 165.101,85.397 165.641,85.548 165.641 C 85.698 165.641,85.821 165.979,85.821 166.392 C 85.821 166.804,85.939 167.142,86.083 167.142 C 86.227 167.142,86.432 167.688,86.539 168.355 C 86.646 169.023,86.865 169.833,87.027 170.156 C 87.189 170.479,87.454 171.007,87.616 171.330 C 87.778 171.653,87.998 172.463,88.105 173.130 C 88.211 173.798,88.417 174.344,88.560 174.344 C 88.704 174.344,88.822 174.681,88.822 175.094 C 88.822 175.506,88.957 175.844,89.122 175.844 C 89.287 175.844,89.423 176.148,89.424 176.519 C 89.425 176.890,89.628 177.581,89.874 178.054 C 90.121 178.527,90.323 179.100,90.323 179.329 C 90.323 179.558,90.445 179.745,90.594 179.745 C 90.744 179.745,90.959 180.420,91.073 181.245 C 91.186 182.071,91.401 182.746,91.551 182.746 C 91.701 182.746,91.823 183.083,91.823 183.496 C 91.823 183.908,91.946 184.246,92.097 184.246 C 92.247 184.246,92.462 184.786,92.573 185.446 C 92.685 186.107,92.899 186.647,93.050 186.647 C 93.200 186.647,93.323 186.984,93.323 187.397 C 93.323 187.809,93.458 188.147,93.623 188.147 C 93.788 188.147,93.923 188.552,93.923 189.047 C 93.923 189.542,93.788 189.947,93.623 189.947 C 93.015 189.947,90.985 192.312,90.179 193.959 C 89.265 195.826,89.103 202.794,89.966 203.082 C 90.162 203.147,90.323 203.460,90.323 203.776 C 90.323 204.092,90.443 204.351,90.590 204.351 C 90.737 204.351,90.942 204.689,91.046 205.101 C 91.150 205.514,91.357 205.851,91.507 205.851 C 91.864 205.851,92.723 206.715,92.723 207.073 C 92.723 207.241,85.895 207.352,75.489 207.352 C 56.447 207.352,57.460 207.247,58.065 209.152 C 58.255 209.751,58.519 209.752,200.488 209.752 L 342.722 209.752 342.629 208.627 L 342.536 207.502 321.155 207.425 C 307.249 207.375,299.775 207.244,299.775 207.050 C 299.775 206.886,299.920 206.752,300.096 206.752 C 300.273 206.752,300.599 206.583,300.821 206.377 C 301.042 206.170,301.664 205.664,302.202 205.251 C 303.414 204.323,303.672 204.064,304.426 203.017 C 304.756 202.559,305.195 202.006,305.401 201.789 C 305.608 201.571,305.776 201.249,305.776 201.072 C 305.776 200.895,305.901 200.750,306.053 200.750 C 306.205 200.750,306.424 200.311,306.540 199.775 C 306.657 199.239,306.836 198.732,306.939 198.650 C 307.466 198.228,307.946 196.904,308.094 195.462 C 308.186 194.575,308.377 193.848,308.519 193.848 C 308.661 193.848,308.777 193.511,308.777 193.098 L 308.777 192.348 314.272 192.348 C 319.352 192.348,319.815 192.303,320.411 191.748 C 320.765 191.418,321.189 191.148,321.354 191.148 C 321.821 191.148,324.681 188.169,324.681 187.683 C 324.681 187.443,324.782 187.246,324.906 187.244 C 325.320 187.240,325.918 185.614,326.093 184.021 L 326.266 182.446 321.722 182.446 L 317.179 182.446 317.179 169.430 C 317.179 162.271,317.093 155.982,316.987 155.453 C 316.760 154.315,314.432 151.838,313.591 151.838 C 313.419 151.838,313.278 151.703,313.278 151.538 C 313.278 151.373,313.091 151.238,312.862 151.238 C 311.982 151.238,311.215 148.799,310.386 143.361 C 310.292 142.742,310.111 142.236,309.985 142.236 C 309.858 142.236,309.662 141.293,309.549 140.142 C 309.435 138.990,309.215 137.970,309.060 137.874 C 308.904 137.778,308.777 137.257,308.777 136.716 C 308.777 136.176,308.676 135.633,308.552 135.510 C 308.346 135.306,307.795 132.646,307.381 129.857 C 307.289 129.239,307.110 128.732,306.984 128.732 C 306.858 128.732,306.661 127.790,306.548 126.639 C 306.434 125.487,306.214 124.466,306.059 124.370 C 305.904 124.274,305.776 123.663,305.776 123.013 C 305.776 122.363,305.641 121.830,305.476 121.830 C 305.311 121.830,305.176 121.567,305.176 121.245 C 305.176 120.923,305.007 120.552,304.801 120.420 C 304.594 120.288,304.227 119.775,303.985 119.280 C 302.785 116.829,300.346 115.189,297.607 114.994 C 296.489 114.914,295.574 114.731,295.574 114.588 C 295.574 114.445,295.034 114.329,294.374 114.329 C 293.713 114.329,293.173 114.206,293.173 114.055 C 293.173 113.905,292.026 113.687,290.623 113.570 C 289.220 113.453,288.072 113.238,288.072 113.093 C 288.072 112.947,287.540 112.828,286.889 112.828 C 286.239 112.828,285.633 112.709,285.544 112.564 C 285.454 112.419,284.230 112.204,282.825 112.087 C 281.420 111.970,280.270 111.751,280.270 111.601 C 280.270 111.451,279.738 111.328,279.087 111.328 C 278.437 111.328,277.830 111.207,277.739 111.059 C 277.647 110.911,276.492 110.695,275.170 110.578 C 273.849 110.461,272.768 110.244,272.768 110.096 C 272.768 109.948,272.236 109.827,271.586 109.827 C 270.935 109.827,270.328 109.707,270.237 109.559 C 270.146 109.411,268.989 109.194,267.667 109.077 C 266.345 108.960,265.188 108.744,265.097 108.596 C 265.006 108.448,264.466 108.327,263.898 108.327 L 262.866 108.327 262.866 99.025 L 262.866 89.722 215.504 89.722 C 189.455 89.722,168.052 89.812,167.942 89.922 M260.165 137.284 L 260.165 182.446 239.166 182.446 L 218.166 182.446 217.978 181.695 C 217.874 181.283,217.669 180.945,217.522 180.945 C 217.375 180.945,217.254 180.754,217.254 180.521 C 217.254 179.511,212.655 174.944,211.638 174.944 C 211.426 174.944,211.253 174.838,211.253 174.708 C 211.253 174.338,209.576 173.443,208.881 173.443 C 208.535 173.443,208.252 173.308,208.252 173.143 C 208.252 172.978,208.009 172.843,207.712 172.843 C 207.415 172.843,207.003 172.674,206.797 172.468 C 206.524 172.196,204.934 172.093,200.985 172.093 C 196.903 172.093,195.518 172.186,195.424 172.468 C 195.355 172.674,194.972 172.843,194.574 172.843 C 194.175 172.843,193.848 172.963,193.848 173.110 C 193.848 173.257,193.376 173.465,192.798 173.574 C 192.221 173.682,191.748 173.900,191.748 174.057 C 191.748 174.215,191.545 174.344,191.298 174.344 C 191.050 174.344,190.848 174.470,190.848 174.623 C 190.848 174.777,190.583 174.987,190.259 175.090 C 189.531 175.321,185.746 178.941,185.746 179.406 C 185.746 179.593,185.614 179.745,185.452 179.745 C 185.290 179.745,185.073 180.083,184.969 180.495 C 184.866 180.908,184.661 181.245,184.514 181.245 C 184.366 181.245,184.246 181.515,184.246 181.845 C 184.246 182.429,184.046 182.446,177.194 182.446 L 170.143 182.446 170.143 137.284 L 170.143 92.123 215.154 92.123 L 260.165 92.123 260.165 137.284 M264.366 110.997 C 264.366 111.144,265.446 111.361,266.767 111.478 C 268.087 111.595,269.167 111.811,269.167 111.959 C 269.167 112.107,269.775 112.228,270.518 112.228 C 271.260 112.228,271.868 112.349,271.868 112.497 C 271.868 112.645,272.949 112.861,274.270 112.978 C 275.592 113.095,276.747 113.312,276.839 113.460 C 276.930 113.608,277.529 113.728,278.170 113.728 C 278.810 113.728,279.409 113.849,279.500 113.997 C 279.592 114.145,280.748 114.362,282.071 114.479 C 283.393 114.596,284.549 114.812,284.641 114.960 C 284.732 115.108,285.339 115.229,285.989 115.229 C 286.640 115.229,287.172 115.348,287.172 115.493 C 287.172 115.639,288.320 115.854,289.722 115.970 C 291.125 116.087,292.273 116.306,292.273 116.456 C 292.273 116.606,292.805 116.729,293.456 116.729 C 294.106 116.729,294.710 116.845,294.798 116.987 C 294.885 117.129,295.851 117.336,296.944 117.448 C 299.266 117.686,301.687 119.614,302.070 121.530 C 302.189 122.123,302.486 122.568,302.821 122.656 C 303.153 122.742,303.376 123.071,303.376 123.474 C 303.376 123.844,303.462 124.774,303.567 125.540 L 303.757 126.932 302.216 126.932 C 301.369 126.932,300.675 126.797,300.675 126.632 C 300.675 126.463,299.845 126.332,298.785 126.332 C 297.745 126.332,296.745 126.182,296.562 126.000 C 296.045 125.482,276.234 125.221,275.629 125.723 C 274.889 126.337,274.942 147.665,275.686 148.534 C 276.192 149.125,276.543 149.137,292.382 149.137 C 310.086 149.137,309.342 149.063,309.368 150.841 C 309.373 151.201,309.580 151.698,309.827 151.945 C 310.075 152.193,310.278 152.543,310.278 152.723 C 310.278 152.904,310.615 153.205,311.028 153.393 C 311.440 153.581,311.778 153.848,311.778 153.987 C 311.778 154.125,311.980 154.239,312.228 154.239 C 312.476 154.239,312.678 154.374,312.678 154.539 C 312.678 154.704,312.942 154.839,313.265 154.839 C 313.698 154.839,313.903 155.114,314.049 155.892 C 314.158 156.472,314.366 157.020,314.513 157.110 C 314.660 157.202,314.779 162.866,314.779 169.860 L 314.779 182.446 310.733 182.446 L 306.688 182.446 306.500 181.695 C 306.396 181.283,306.191 180.945,306.044 180.945 C 305.897 180.945,305.776 180.775,305.776 180.567 C 305.776 180.359,305.439 179.825,305.026 179.380 C 304.614 178.935,304.276 178.486,304.276 178.383 C 304.276 177.887,300.753 174.944,300.160 174.944 C 299.948 174.944,299.775 174.838,299.775 174.708 C 299.775 174.338,298.098 173.443,297.403 173.443 C 297.057 173.443,296.774 173.308,296.774 173.143 C 296.774 172.978,296.531 172.843,296.234 172.843 C 295.937 172.843,295.525 172.674,295.319 172.468 C 295.046 172.196,293.456 172.093,289.507 172.093 C 285.425 172.093,284.040 172.186,283.946 172.468 C 283.877 172.674,283.495 172.843,283.096 172.843 C 282.697 172.843,282.371 172.963,282.371 173.110 C 282.371 173.257,281.898 173.465,281.320 173.574 C 280.743 173.682,280.270 173.900,280.270 174.057 C 280.270 174.215,280.068 174.344,279.820 174.344 C 279.572 174.344,279.370 174.470,279.370 174.623 C 279.370 174.777,279.078 174.996,278.722 175.109 C 277.979 175.345,274.269 178.939,274.269 179.423 C 274.269 179.600,274.136 179.745,273.974 179.745 C 273.812 179.745,273.595 180.083,273.492 180.495 C 273.388 180.908,273.183 181.245,273.036 181.245 C 272.889 181.245,272.768 181.515,272.768 181.845 C 272.768 182.421,272.568 182.446,267.817 182.446 L 262.866 182.446 262.866 146.587 L 262.866 110.728 263.616 110.728 C 264.029 110.728,264.366 110.849,264.366 110.997 M295.824 128.477 C 295.879 128.617,296.790 128.732,297.849 128.732 C 298.933 128.732,299.775 128.863,299.775 129.032 C 299.775 129.197,300.214 129.334,300.750 129.335 C 301.287 129.336,302.422 129.421,303.274 129.524 L 304.823 129.710 305.030 131.773 C 305.144 132.907,305.359 133.911,305.507 134.002 C 305.655 134.094,305.776 134.634,305.776 135.202 C 305.776 135.769,305.896 136.234,306.041 136.234 C 306.187 136.234,306.401 137.247,306.517 138.485 C 306.633 139.722,306.851 140.735,307.002 140.735 C 307.153 140.735,307.277 141.264,307.277 141.910 C 307.277 142.557,307.394 143.131,307.537 143.186 C 307.680 143.241,307.892 144.062,308.009 145.011 L 308.220 146.737 293.045 146.737 L 277.869 146.737 277.869 137.441 L 277.869 128.146 283.046 128.056 C 289.568 127.943,295.693 128.145,295.824 128.477 M101.725 140.417 C 101.725 140.738,101.860 141.083,102.026 141.185 C 102.191 141.287,102.326 141.633,102.326 141.953 C 102.326 142.274,102.452 142.536,102.607 142.536 C 102.762 142.536,102.980 143.143,103.091 143.886 C 103.203 144.629,103.414 145.236,103.560 145.236 C 103.706 145.236,103.826 145.574,103.826 145.986 C 103.826 146.399,103.944 146.737,104.088 146.737 C 104.232 146.737,104.436 147.277,104.541 147.937 C 104.647 148.597,104.867 149.137,105.030 149.137 C 105.193 149.137,105.326 149.475,105.326 149.887 C 105.326 150.300,105.495 150.650,105.701 150.665 C 105.908 150.680,105.604 150.819,105.026 150.975 C 104.449 151.131,103.706 151.375,103.376 151.518 C 103.046 151.660,102.283 151.993,101.680 152.257 C 101.077 152.522,100.301 152.738,99.955 152.738 C 99.608 152.738,99.325 152.873,99.325 153.038 C 99.325 153.203,98.987 153.338,98.575 153.338 C 98.162 153.338,97.824 153.473,97.824 153.638 C 97.824 153.803,97.521 153.939,97.149 153.940 C 96.778 153.941,96.087 154.144,95.615 154.390 C 95.142 154.637,94.568 154.839,94.339 154.839 C 94.111 154.839,93.923 154.961,93.923 155.111 C 93.923 155.260,93.248 155.475,92.423 155.589 C 91.598 155.702,90.923 155.918,90.923 156.067 C 90.923 156.217,90.596 156.339,90.198 156.339 C 89.799 156.339,89.414 156.508,89.342 156.714 C 89.270 156.920,89.112 156.516,88.990 155.816 C 88.869 155.115,88.647 154.466,88.496 154.372 C 88.345 154.279,88.222 153.941,88.222 153.621 C 88.222 153.300,88.095 153.038,87.940 153.038 C 87.785 153.038,87.568 152.431,87.456 151.688 C 87.345 150.945,87.134 150.338,86.988 150.338 C 86.841 150.338,86.722 150.000,86.722 149.587 C 86.722 149.175,86.604 148.837,86.460 148.837 C 86.316 148.837,86.114 148.308,86.010 147.662 C 85.907 147.016,85.653 146.430,85.447 146.361 C 84.901 146.177,85.733 145.236,86.441 145.236 C 86.741 145.236,87.063 145.113,87.156 144.962 C 87.249 144.812,87.864 144.597,88.524 144.486 C 89.183 144.374,89.722 144.160,89.722 144.010 C 89.722 143.859,90.060 143.736,90.473 143.736 C 90.885 143.736,91.223 143.619,91.223 143.475 C 91.223 143.332,91.706 143.136,92.295 143.040 C 93.513 142.843,95.124 142.188,95.124 141.890 C 95.124 141.781,95.799 141.599,96.624 141.485 C 97.449 141.372,98.125 141.157,98.125 141.007 C 98.125 140.858,98.462 140.735,98.875 140.735 C 99.287 140.735,99.625 140.610,99.625 140.456 C 99.625 140.207,100.255 139.995,101.350 139.876 C 101.557 139.853,101.725 140.097,101.725 140.417 M76.819 143.736 C 76.819 144.391,74.943 144.641,74.569 144.036 C 74.467 143.871,73.682 143.720,72.826 143.700 C 69.325 143.621,69.574 143.206,73.143 143.171 C 76.631 143.138,76.819 143.167,76.819 143.736 M115.048 153.111 C 115.285 154.297,115.903 155.739,116.174 155.739 C 116.283 155.739,116.466 156.414,116.579 157.239 C 116.693 158.065,116.908 158.740,117.057 158.740 C 117.207 158.740,117.329 159.077,117.329 159.490 C 117.329 159.902,117.463 160.240,117.626 160.240 C 117.789 160.240,118.009 160.780,118.114 161.440 C 118.220 162.101,118.424 162.641,118.568 162.641 C 118.712 162.641,118.830 162.776,118.830 162.941 C 118.830 163.106,118.627 163.241,118.380 163.241 C 118.132 163.241,117.929 163.376,117.929 163.541 C 117.929 163.706,117.592 163.841,117.179 163.841 C 116.767 163.841,116.429 163.961,116.429 164.107 C 116.429 164.253,115.821 164.464,115.079 164.575 C 114.336 164.687,113.728 164.905,113.728 165.060 C 113.728 165.215,113.391 165.341,112.978 165.341 C 112.566 165.341,112.228 165.476,112.228 165.641 C 112.228 165.806,111.924 165.942,111.553 165.943 C 111.182 165.944,110.491 166.147,110.018 166.393 C 109.545 166.640,108.972 166.842,108.743 166.842 C 108.514 166.842,108.327 166.977,108.327 167.142 C 108.327 167.307,108.060 167.442,107.733 167.442 C 107.076 167.442,104.662 168.331,104.426 168.660 C 104.344 168.775,103.703 168.965,103.002 169.082 C 102.302 169.199,101.652 169.418,101.559 169.568 C 101.466 169.719,101.128 169.842,100.807 169.842 C 100.487 169.842,100.225 169.960,100.225 170.104 C 100.225 170.248,99.687 170.452,99.029 170.557 C 98.371 170.662,97.354 171.017,96.769 171.346 C 95.419 172.104,94.824 172.103,94.824 171.343 C 94.824 171.013,94.689 170.743,94.524 170.743 C 94.359 170.743,94.224 170.405,94.224 169.992 C 94.224 169.580,94.106 169.242,93.963 169.242 C 93.819 169.242,93.628 168.786,93.537 168.229 C 93.447 167.672,93.088 166.626,92.740 165.905 C 92.392 165.184,92.026 164.087,91.926 163.468 C 91.827 162.848,91.628 162.341,91.485 162.341 C 91.341 162.341,91.223 161.868,91.223 161.290 C 91.223 160.370,91.316 160.240,91.973 160.240 C 92.386 160.240,92.723 160.122,92.723 159.978 C 92.723 159.834,93.262 159.631,93.920 159.525 C 94.578 159.420,95.592 159.067,96.174 158.740 C 96.756 158.413,97.771 158.059,98.429 157.954 C 99.087 157.849,99.625 157.645,99.625 157.501 C 99.625 157.357,99.962 157.239,100.375 157.239 C 100.788 157.239,101.125 157.120,101.125 156.973 C 101.125 156.827,101.733 156.616,102.476 156.505 C 103.218 156.393,103.826 156.176,103.826 156.021 C 103.826 155.866,104.164 155.739,104.576 155.739 C 104.989 155.739,105.326 155.619,105.326 155.473 C 105.326 155.327,105.931 155.116,106.670 155.005 C 107.409 154.895,108.092 154.677,108.188 154.521 C 108.284 154.366,108.625 154.239,108.945 154.239 C 109.265 154.239,109.527 154.112,109.527 153.957 C 109.527 153.802,110.135 153.584,110.878 153.473 C 111.620 153.361,112.228 153.150,112.228 153.004 C 112.228 152.858,112.566 152.738,112.978 152.738 C 113.391 152.738,113.728 152.603,113.728 152.438 C 113.728 151.620,114.866 152.200,115.048 153.111 M125.731 165.757 C 125.731 165.986,125.933 166.560,126.180 167.032 C 126.426 167.505,126.629 168.120,126.630 168.399 C 126.631 168.678,126.767 168.990,126.932 169.092 C 127.097 169.194,127.232 169.607,127.232 170.010 C 127.232 170.413,127.365 170.743,127.528 170.743 C 127.691 170.743,127.911 171.283,128.017 171.943 C 128.122 172.603,128.327 173.143,128.470 173.143 C 128.614 173.143,128.732 173.481,128.732 173.893 C 128.732 174.306,128.855 174.644,129.006 174.644 C 129.156 174.644,129.371 175.183,129.482 175.842 C 129.593 176.502,129.808 177.117,129.959 177.210 C 130.109 177.304,130.233 177.709,130.233 178.112 C 130.233 178.515,130.356 178.845,130.506 178.845 C 130.657 178.845,130.871 179.385,130.983 180.045 C 131.094 180.705,131.309 181.245,131.459 181.245 C 131.610 181.245,131.733 181.583,131.733 181.995 C 131.733 182.408,131.868 182.746,132.033 182.746 C 132.198 182.746,132.333 182.881,132.333 183.046 C 132.333 183.211,131.995 183.346,131.583 183.346 C 131.170 183.346,130.833 183.466,130.833 183.612 C 130.833 183.758,130.225 183.969,129.482 184.080 C 128.740 184.192,128.132 184.410,128.132 184.565 C 128.132 184.719,127.870 184.846,127.550 184.846 C 127.229 184.846,126.891 184.969,126.798 185.120 C 126.705 185.271,126.090 185.485,125.431 185.596 C 124.773 185.708,124.158 185.922,124.065 186.073 C 123.972 186.223,123.633 186.347,123.313 186.347 C 122.993 186.347,122.731 186.464,122.731 186.608 C 122.731 186.752,122.192 186.956,121.534 187.061 C 120.876 187.167,119.862 187.520,119.280 187.847 C 118.698 188.174,117.683 188.527,117.025 188.633 C 116.367 188.738,115.829 188.942,115.829 189.086 C 115.829 189.230,115.642 189.347,115.413 189.347 C 115.184 189.347,114.611 189.549,114.138 189.796 C 113.665 190.042,112.974 190.245,112.603 190.246 C 112.232 190.247,111.928 190.383,111.928 190.548 C 111.928 190.713,111.602 190.848,111.203 190.848 C 110.804 190.848,110.423 191.013,110.355 191.215 C 110.284 191.428,109.574 190.923,108.666 190.014 C 107.804 189.152,106.902 188.447,106.662 188.447 C 106.423 188.447,106.227 188.312,106.227 188.147 C 106.227 187.982,106.024 187.847,105.776 187.847 C 105.529 187.847,105.326 187.717,105.326 187.557 C 105.326 187.398,104.651 187.178,103.826 187.068 C 103.001 186.959,102.326 186.752,102.326 186.608 C 102.326 186.464,101.911 186.347,101.404 186.347 C 100.247 186.347,99.725 185.833,99.463 184.439 C 99.350 183.838,99.138 183.346,98.991 183.346 C 98.845 183.346,98.725 183.008,98.725 182.596 C 98.725 182.183,98.591 181.845,98.428 181.845 C 98.265 181.845,98.045 181.305,97.940 180.645 C 97.834 179.985,97.630 179.445,97.486 179.445 C 97.342 179.445,97.224 179.119,97.224 178.720 C 97.224 178.321,97.106 177.949,96.961 177.894 C 96.475 177.710,96.229 175.844,96.691 175.844 C 97.231 175.844,98.719 175.150,98.722 174.897 C 98.724 174.789,99.400 174.607,100.225 174.494 C 101.050 174.380,101.725 174.165,101.725 174.015 C 101.725 173.866,102.063 173.743,102.476 173.743 C 102.888 173.743,103.226 173.610,103.226 173.447 C 103.226 173.284,103.766 173.064,104.426 172.958 C 105.086 172.853,105.626 172.649,105.626 172.505 C 105.626 172.361,105.964 172.243,106.377 172.243 C 106.789 172.243,107.127 172.123,107.127 171.977 C 107.127 171.831,107.734 171.620,108.477 171.509 C 109.220 171.397,109.827 171.179,109.827 171.024 C 109.827 170.869,110.165 170.743,110.578 170.743 C 110.990 170.743,111.328 170.608,111.328 170.443 C 111.328 170.278,111.632 170.142,112.003 170.141 C 112.374 170.140,113.065 169.937,113.538 169.691 C 114.010 169.444,114.584 169.242,114.813 169.242 C 115.042 169.242,115.229 169.120,115.229 168.970 C 115.229 168.821,115.904 168.606,116.729 168.492 C 117.554 168.379,118.230 168.163,118.230 168.014 C 118.230 167.864,118.417 167.742,118.645 167.742 C 118.874 167.742,119.448 167.540,119.921 167.294 C 120.393 167.047,121.084 166.845,121.455 166.844 C 121.827 166.843,122.131 166.707,122.131 166.542 C 122.131 166.377,122.468 166.242,122.881 166.242 C 123.293 166.242,123.631 166.115,123.631 165.961 C 123.631 165.807,124.002 165.625,124.456 165.556 C 124.910 165.488,125.383 165.411,125.506 165.386 C 125.630 165.362,125.731 165.528,125.731 165.757 M205.788 174.903 C 205.850 175.091,206.228 175.244,206.627 175.244 C 207.026 175.244,207.352 175.379,207.352 175.544 C 207.352 175.709,207.500 175.844,207.682 175.844 C 208.179 175.844,210.118 176.812,210.665 177.334 C 211.474 178.106,212.871 179.145,213.098 179.145 C 213.216 179.145,213.389 179.381,213.481 179.670 C 213.574 179.959,213.988 180.587,214.402 181.067 C 214.815 181.546,215.154 182.120,215.154 182.342 C 215.154 182.564,215.289 182.746,215.454 182.746 C 215.619 182.746,215.754 182.948,215.754 183.196 C 215.754 183.443,215.877 183.646,216.028 183.646 C 216.178 183.646,216.392 184.185,216.504 184.845 C 216.615 185.504,216.830 186.120,216.980 186.213 C 217.131 186.306,217.254 186.839,217.254 187.397 C 217.254 187.955,217.389 188.495,217.554 188.597 C 217.719 188.699,217.854 189.720,217.854 190.865 C 217.854 192.054,217.726 192.948,217.554 192.948 C 217.389 192.948,217.254 193.480,217.254 194.131 C 217.254 194.781,217.135 195.387,216.988 195.478 C 216.842 195.568,216.633 196.116,216.525 196.696 C 216.416 197.275,216.198 197.749,216.040 197.749 C 215.883 197.749,215.754 198.020,215.754 198.350 C 215.754 198.680,215.628 198.950,215.474 198.950 C 215.320 198.950,215.109 199.218,215.005 199.546 C 214.786 200.237,213.872 201.380,212.636 202.508 C 212.159 202.944,211.383 203.661,210.911 204.102 C 210.440 204.543,209.649 204.992,209.153 205.101 C 208.658 205.210,208.252 205.423,208.252 205.575 C 208.252 205.727,208.050 205.851,207.802 205.851 C 207.554 205.851,207.352 205.977,207.352 206.130 C 207.352 206.283,206.607 206.501,205.697 206.615 C 204.788 206.729,203.969 206.941,203.879 207.087 C 203.668 207.429,198.350 207.435,198.350 207.094 C 198.350 206.952,197.651 206.753,196.797 206.651 C 195.943 206.550,195.166 206.361,195.071 206.232 C 194.976 206.102,194.361 205.727,193.703 205.398 C 193.045 205.070,192.327 204.632,192.106 204.426 C 191.886 204.220,191.595 204.051,191.459 204.051 C 191.100 204.051,187.847 200.792,187.847 200.431 C 187.847 200.263,187.572 199.829,187.235 199.468 C 186.899 199.107,186.547 198.505,186.452 198.131 C 186.358 197.756,186.161 197.449,186.014 197.449 C 185.867 197.449,185.746 197.123,185.746 196.724 C 185.746 196.325,185.578 195.943,185.371 195.874 C 184.899 195.717,184.828 186.145,185.296 185.811 C 185.748 185.488,186.246 184.489,186.475 183.442 C 186.588 182.928,186.943 182.270,187.264 181.980 C 187.585 181.690,187.847 181.319,187.847 181.157 C 187.847 180.701,191.430 177.344,191.917 177.344 C 192.154 177.344,192.348 177.228,192.348 177.087 C 192.348 176.774,195.236 175.244,195.827 175.244 C 196.059 175.244,196.249 175.117,196.249 174.962 C 196.249 174.310,205.571 174.252,205.788 174.903 M294.309 174.900 C 294.372 175.089,294.750 175.244,295.149 175.244 C 295.548 175.244,295.874 175.368,295.874 175.520 C 295.874 175.672,296.279 175.885,296.774 175.994 C 297.269 176.103,297.674 176.316,297.674 176.468 C 297.674 176.620,297.883 176.744,298.139 176.744 C 298.394 176.744,298.916 177.082,299.299 177.494 C 299.681 177.907,300.147 178.245,300.334 178.245 C 300.522 178.245,300.675 178.370,300.675 178.524 C 300.675 178.678,300.945 178.890,301.275 178.995 C 301.605 179.100,301.878 179.345,301.880 179.540 C 301.883 179.735,302.288 180.352,302.780 180.911 C 303.273 181.470,303.676 182.111,303.676 182.336 C 303.676 182.561,303.811 182.746,303.976 182.746 C 304.141 182.746,304.276 183.025,304.276 183.367 C 304.276 183.709,304.479 184.191,304.726 184.439 C 304.974 184.687,305.176 185.217,305.176 185.618 C 305.176 186.019,305.311 186.347,305.476 186.347 C 305.641 186.347,305.776 186.887,305.776 187.547 C 305.776 188.207,305.911 188.747,306.077 188.747 C 306.248 188.747,306.377 189.647,306.377 190.848 C 306.377 192.048,306.248 192.948,306.077 192.948 C 305.911 192.948,305.776 193.488,305.776 194.149 C 305.776 194.809,305.659 195.349,305.515 195.349 C 305.371 195.349,305.167 195.889,305.061 196.549 C 304.955 197.209,304.736 197.749,304.573 197.749 C 304.410 197.749,304.276 198.020,304.276 198.350 C 304.276 198.680,304.150 198.950,303.996 198.950 C 303.842 198.950,303.629 199.224,303.523 199.560 C 303.076 200.967,299.012 204.808,297.653 205.106 C 297.170 205.212,296.774 205.423,296.774 205.575 C 296.774 205.727,296.572 205.851,296.324 205.851 C 296.077 205.851,295.874 205.977,295.874 206.130 C 295.874 206.283,295.129 206.501,294.220 206.615 C 293.310 206.729,292.492 206.941,292.401 207.087 C 292.189 207.430,286.958 207.434,286.746 207.091 C 286.658 206.948,285.907 206.741,285.078 206.631 C 284.249 206.521,283.569 206.334,283.567 206.216 C 283.566 206.098,282.992 205.736,282.292 205.410 C 279.244 203.994,274.869 199.507,274.869 197.798 C 274.869 197.606,274.734 197.449,274.569 197.449 C 274.404 197.449,274.269 197.123,274.269 196.724 C 274.269 196.325,274.100 195.943,273.893 195.874 C 273.422 195.717,273.350 186.145,273.818 185.811 C 274.270 185.488,274.768 184.489,274.998 183.442 C 275.110 182.928,275.465 182.270,275.786 181.980 C 276.107 181.690,276.369 181.324,276.369 181.166 C 276.369 180.095,282.879 175.244,284.317 175.244 C 284.567 175.244,284.771 175.117,284.771 174.963 C 284.771 174.302,294.089 174.240,294.309 174.900 M198.350 182.625 C 196.489 183.307,193.848 185.559,193.848 186.464 C 193.848 186.729,193.747 186.948,193.623 186.949 C 193.108 186.954,192.648 188.704,192.648 190.661 C 192.648 192.705,193.128 194.749,193.609 194.749 C 193.741 194.749,193.848 194.939,193.848 195.171 C 193.848 195.986,196.506 198.380,197.608 198.559 C 198.181 198.652,198.650 198.846,198.650 198.989 C 198.650 199.132,199.797 199.250,201.200 199.250 C 202.701 199.250,203.751 199.126,203.751 198.950 C 203.751 198.785,204.079 198.650,204.480 198.650 C 204.881 198.650,205.411 198.447,205.659 198.200 C 205.906 197.952,206.196 197.749,206.303 197.749 C 206.628 197.749,208.252 196.018,208.252 195.672 C 208.252 195.494,208.359 195.349,208.490 195.349 C 209.288 195.349,210.185 189.050,209.452 188.597 C 209.287 188.495,209.152 188.092,209.152 187.701 C 209.152 187.310,208.950 186.787,208.702 186.539 C 208.455 186.292,208.252 185.945,208.252 185.768 C 208.252 185.591,208.126 185.446,207.972 185.446 C 207.818 185.446,207.612 185.210,207.515 184.921 C 206.953 183.261,200.811 181.722,198.350 182.625 M286.347 182.642 C 285.975 182.722,285.671 182.913,285.671 183.067 C 285.671 183.220,285.530 183.346,285.357 183.346 C 284.851 183.346,282.371 185.935,282.371 186.464 C 282.371 186.729,282.269 186.948,282.146 186.949 C 281.615 186.955,281.170 188.731,281.170 190.848 C 281.170 192.964,281.615 194.741,282.146 194.746 C 282.269 194.748,282.371 194.939,282.371 195.171 C 282.371 195.986,285.028 198.380,286.130 198.559 C 286.703 198.652,287.172 198.846,287.172 198.989 C 287.172 199.132,288.320 199.250,289.722 199.250 C 291.223 199.250,292.273 199.126,292.273 198.950 C 292.273 198.785,292.601 198.650,293.002 198.650 C 293.403 198.650,293.933 198.447,294.181 198.200 C 294.428 197.952,294.718 197.749,294.825 197.749 C 295.150 197.749,296.774 196.018,296.774 195.672 C 296.774 195.494,296.908 195.349,297.071 195.349 C 297.234 195.349,297.454 194.806,297.560 194.142 C 297.666 193.478,297.871 192.862,298.014 192.774 C 298.355 192.563,298.354 188.747,298.013 188.747 C 297.869 188.747,297.665 188.207,297.559 187.547 C 297.454 186.887,297.234 186.347,297.071 186.347 C 296.908 186.347,296.774 186.213,296.774 186.050 C 296.774 183.756,290.573 181.729,286.347 182.642 M182.606 185.821 C 182.492 186.358,182.329 187.506,182.244 188.372 L 182.090 189.947 177.167 189.947 C 174.459 189.947,172.243 189.845,172.243 189.721 C 172.243 189.596,171.804 189.304,171.268 189.071 C 170.106 188.567,168.958 187.436,168.352 186.197 C 168.109 185.701,167.862 185.195,167.802 185.071 C 167.741 184.947,171.094 184.846,175.253 184.846 L 182.814 184.846 182.606 185.821 M203.682 185.389 C 203.747 185.586,203.992 185.746,204.226 185.746 C 204.460 185.746,204.651 185.872,204.651 186.026 C 204.651 186.180,204.921 186.392,205.251 186.496 C 205.580 186.601,205.933 187.015,206.033 187.417 C 206.134 187.818,206.337 188.147,206.484 188.147 C 206.631 188.147,206.752 188.409,206.752 188.729 C 206.752 189.050,206.887 189.395,207.052 189.497 C 207.217 189.599,207.352 190.215,207.352 190.865 C 207.352 191.516,207.217 192.048,207.052 192.048 C 206.887 192.048,206.752 192.235,206.752 192.464 C 206.752 193.630,204.896 195.801,203.627 196.119 C 203.200 196.226,202.851 196.435,202.851 196.582 C 202.851 196.951,199.930 196.921,199.700 196.549 C 199.598 196.384,199.265 196.249,198.960 196.249 C 198.654 196.249,197.751 195.614,196.952 194.837 L 195.499 193.425 195.499 190.847 L 195.499 188.268 197.029 186.738 C 197.871 185.896,198.816 185.135,199.130 185.046 C 200.155 184.757,203.556 185.013,203.682 185.389 M271.129 185.821 C 271.014 186.358,270.852 187.506,270.767 188.372 L 270.612 189.947 245.434 189.947 L 220.255 189.947 220.255 188.957 C 220.255 188.413,220.137 187.839,219.993 187.682 C 219.849 187.525,219.659 186.823,219.571 186.122 L 219.412 184.846 245.374 184.846 L 271.336 184.846 271.129 185.821 M292.204 185.389 C 292.269 185.586,292.514 185.746,292.748 185.746 C 292.982 185.746,293.173 185.872,293.173 186.026 C 293.173 186.180,293.443 186.392,293.773 186.496 C 294.102 186.601,294.455 187.015,294.555 187.417 C 294.656 187.818,294.859 188.147,295.006 188.147 C 295.153 188.147,295.274 188.485,295.274 188.897 C 295.274 189.310,295.409 189.647,295.574 189.647 C 295.945 189.647,295.969 191.269,295.609 191.977 C 295.463 192.264,295.162 192.903,294.940 193.398 C 294.400 194.599,293.075 195.887,292.135 196.123 C 291.716 196.228,291.373 196.435,291.373 196.582 C 291.373 196.729,290.630 196.849,289.722 196.849 C 288.815 196.849,288.072 196.714,288.072 196.549 C 288.072 196.384,287.812 196.249,287.493 196.249 C 287.175 196.249,286.264 195.625,285.468 194.863 L 284.021 193.477 284.021 190.846 L 284.021 188.215 285.548 186.712 C 286.387 185.885,287.333 185.136,287.648 185.047 C 288.677 184.757,292.078 185.012,292.204 185.389 M323.021 185.476 C 322.761 186.295,319.683 189.347,319.117 189.347 C 318.876 189.347,318.680 189.482,318.680 189.647 C 318.680 189.835,316.829 189.947,313.728 189.947 L 308.777 189.947 308.777 188.957 C 308.777 188.413,308.659 187.839,308.515 187.682 C 308.371 187.525,308.181 186.823,308.093 186.122 L 307.934 184.846 315.578 184.846 C 323.204 184.846,323.221 184.848,323.021 185.476 M101.425 190.509 C 101.425 190.653,101.965 190.857,102.626 190.963 C 103.286 191.069,103.826 191.288,103.826 191.451 C 103.826 191.614,103.971 191.748,104.147 191.748 C 104.447 191.748,104.694 191.926,105.691 192.859 C 106.391 193.514,106.827 194.119,106.827 194.436 C 106.827 194.608,106.960 194.749,107.123 194.749 C 107.286 194.749,107.506 195.289,107.612 195.949 C 107.717 196.609,107.921 197.149,108.065 197.149 C 108.209 197.149,108.327 197.892,108.327 198.800 C 108.327 199.707,108.210 200.450,108.066 200.450 C 107.923 200.450,107.728 200.927,107.634 201.509 C 107.449 202.647,104.556 205.851,103.714 205.851 C 103.473 205.851,103.219 206.020,103.150 206.227 C 102.898 206.978,96.892 206.724,96.035 205.926 C 95.637 205.555,95.222 205.251,95.113 205.251 C 93.061 205.251,90.473 196.051,92.348 195.424 C 92.554 195.355,92.723 195.105,92.723 194.867 C 92.723 194.043,95.977 191.118,97.096 190.936 C 97.670 190.843,98.211 190.650,98.300 190.507 C 98.510 190.167,101.425 190.169,101.425 190.509 M270.768 193.623 C 271.025 195.660,271.318 196.849,271.564 196.849 C 271.689 196.849,271.878 197.389,271.983 198.050 C 272.089 198.710,272.309 199.250,272.472 199.250 C 272.635 199.250,272.768 199.452,272.768 199.700 C 272.768 199.947,272.903 200.150,273.068 200.150 C 273.233 200.150,273.368 200.424,273.368 200.760 C 273.368 201.095,273.571 201.447,273.818 201.542 C 274.066 201.637,274.269 201.882,274.269 202.086 C 274.269 202.544,277.751 206.152,278.193 206.152 C 278.529 206.152,279.370 206.887,279.370 207.180 C 279.370 207.275,264.044 207.352,245.311 207.352 C 222.806 207.352,211.253 207.250,211.253 207.052 C 211.253 206.887,211.397 206.752,211.574 206.752 C 211.751 206.752,212.084 206.583,212.314 206.377 C 213.240 205.546,213.638 205.251,213.831 205.251 C 214.078 205.251,215.086 204.168,215.904 203.024 C 216.234 202.562,216.673 202.006,216.879 201.789 C 217.086 201.571,217.254 201.249,217.254 201.072 C 217.254 200.895,217.383 200.750,217.541 200.750 C 217.698 200.750,217.916 200.278,218.024 199.700 C 218.133 199.122,218.341 198.650,218.488 198.650 C 218.635 198.650,218.755 198.447,218.755 198.200 C 218.755 197.952,218.883 197.749,219.040 197.749 C 219.197 197.749,219.417 196.936,219.529 195.942 C 219.642 194.948,219.851 194.063,219.995 193.974 C 220.138 193.886,220.255 193.483,220.255 193.081 L 220.255 192.348 245.431 192.348 L 270.607 192.348 270.768 193.623 M98.875 193.548 C 98.773 193.713,98.360 193.848,97.957 193.848 C 97.554 193.848,97.224 193.983,97.224 194.149 C 97.224 194.314,97.020 194.449,96.769 194.449 C 96.519 194.449,96.080 194.955,95.794 195.574 C 95.508 196.193,95.173 196.744,95.049 196.799 C 94.706 196.952,94.778 200.750,95.124 200.750 C 95.289 200.750,95.424 200.947,95.424 201.187 C 95.424 201.752,96.823 203.151,97.388 203.151 C 97.628 203.151,97.824 203.286,97.824 203.451 C 97.824 204.626,103.717 203.183,104.045 201.927 C 104.128 201.610,104.315 201.350,104.461 201.350 C 104.607 201.350,104.726 201.088,104.726 200.768 C 104.726 200.448,104.861 200.102,105.026 200.000 C 105.191 199.898,105.326 199.282,105.326 198.632 C 105.326 197.982,105.191 197.449,105.026 197.449 C 104.861 197.449,104.726 197.174,104.726 196.837 C 104.726 196.247,104.412 195.728,103.590 194.959 C 102.549 193.985,102.325 193.848,101.765 193.848 C 101.432 193.848,101.077 193.713,100.975 193.548 C 100.873 193.383,100.401 193.248,99.925 193.248 C 99.449 193.248,98.977 193.383,98.875 193.548 M100.225 195.949 C 100.225 196.114,100.428 196.249,100.675 196.249 C 101.245 196.249,102.326 197.313,102.326 197.874 C 102.326 198.108,102.494 198.368,102.701 198.452 C 102.975 198.563,102.985 198.670,102.735 198.852 C 102.548 198.988,102.345 199.370,102.284 199.700 C 102.222 200.030,101.869 200.433,101.499 200.596 C 101.128 200.759,100.825 200.996,100.825 201.121 C 100.825 201.755,99.003 201.282,98.148 200.427 C 96.802 199.081,97.531 196.249,99.224 196.249 C 99.445 196.249,99.625 196.114,99.625 195.949 C 99.625 195.784,99.760 195.649,99.925 195.649 C 100.090 195.649,100.225 195.784,100.225 195.949 " stroke="none" fill="#040404" fill-rule="evenodd"></path><path id="path1" d="" stroke="none" fill="#080404" fill-rule="evenodd"></path></g></svg>