<?xml version="1.0" encoding="utf-8"?>
<!-- Generator: Adobe Illustrator 18.0.0, SVG Export Plug-In . SVG Version: 6.00 Build 0)  -->
<!DOCTYPE svg PUBLIC "-//W3C//DTD SVG 1.1//EN" "http://www.w3.org/Graphics/SVG/1.1/DTD/svg11.dtd">
<svg version="1.1" id="Layer_2" xmlns="http://www.w3.org/2000/svg" xmlns:xlink="http://www.w3.org/1999/xlink" x="0px" y="0px"
	 viewBox="0 0 4864 4512" enable-background="new 0 0 4864 4512" xml:space="preserve">
<g>
	<g>
		<path fill="#FFFFFF" d="M2510.7,3808.6c-191.5,0-377.3-37.5-552.2-111.5c-84.1-35.6-165.2-79.6-241-130.8
			c-75.1-50.7-145.7-109-209.9-173.2s-122.5-134.8-173.2-209.9c-51.2-75.8-95.3-156.9-130.8-241c-74-174.9-111.5-360.7-111.5-552.2
			s37.5-377.3,111.5-552.2c35.6-84.1,79.6-165.2,130.8-241c50.7-75.1,109-145.7,173.2-209.9c64.2-64.2,134.8-122.5,209.9-173.2
			c75.8-51.2,156.9-95.3,241-130.8c174.9-74,360.7-111.5,552.2-111.5s377.3,37.5,552.2,111.5c84.1,35.6,165.2,79.6,241,130.8
			c75.1,50.7,145.7,109,209.9,173.2c64.2,64.2,122.5,134.8,173.2,209.9c51.2,75.8,95.3,156.9,130.8,241
			c74,174.9,111.5,360.7,111.5,552.2s-37.5,377.3-111.5,552.2c-35.6,84.1-79.6,165.2-130.8,241c-50.7,75.1-109,145.7-173.2,209.9
			s-134.8,122.5-209.9,173.2c-75.8,51.2-156.9,95.3-241,130.8C2888,3771.1,2702.2,3808.6,2510.7,3808.6z M2510.7,1061.2
			c-732.7,0-1328.7,596.1-1328.7,1328.7s596.1,1328.7,1328.7,1328.7s1328.7-596.1,1328.7-1328.7S3243.4,1061.2,2510.7,1061.2z"/>
	</g>
	<g>
		<path fill="#FFFFFF" d="M2510.7,4373.4c-134.5,0-269-13.6-399.7-40.3c-127.4-26.1-252.7-65-372.4-115.6
			c-117.5-49.7-230.9-111.2-336.9-182.9c-105-70.9-203.8-152.4-293.5-242.2S937,3603.9,866,3498.9
			c-71.6-106-133.2-219.4-182.9-336.9c-50.6-119.7-89.5-245-115.6-372.4c-26.7-130.7-40.3-265.1-40.3-399.7s13.6-269,40.3-399.7
			c26.1-127.4,65-252.7,115.6-372.4c49.7-117.5,111.2-230.9,182.9-336.9c70.9-105,152.4-203.8,242.2-293.5
			c89.7-89.7,188.5-171.2,293.5-242.2c106-71.6,219.4-133.2,336.9-182.9c119.7-50.6,245-89.5,372.4-115.6
			c130.7-26.7,265.1-40.3,399.7-40.3s269,13.6,399.7,40.3c127.4,26.1,252.7,65,372.4,115.6c117.5,49.7,230.9,111.2,336.9,182.9
			c105,70.9,203.8,152.4,293.5,242.2c89.7,89.7,171.2,188.5,242.2,293.5c71.6,106,133.2,219.4,182.9,336.9
			c50.6,119.7,89.5,245,115.6,372.4c26.7,130.7,40.3,265.1,40.3,399.7s-13.6,269-40.3,399.7c-26.1,127.4-65,252.7-115.6,372.4
			c-49.7,117.5-111.2,230.9-182.9,336.9c-70.9,105-152.4,203.8-242.2,293.5s-188.5,171.2-293.5,242.2
			c-106,71.6-219.4,133.2-336.9,182.9c-119.7,50.6-245,89.5-372.4,115.6C2779.8,4359.8,2645.3,4373.4,2510.7,4373.4z M2510.7,496.4
			c-1044.1,0-1893.5,849.4-1893.5,1893.5s849.4,1893.5,1893.5,1893.5S4404.2,3434,4404.2,2389.9S3554.8,496.4,2510.7,496.4z"/>
	</g>
</g>
<g>
	<g>
		<path fill="#FFFFFF" d="M4171,2884.2c0,0-21.7-7-60-7v-34.5h-14.7l-5.7-14l-16.6-27.4v-267.3h-98.9l-9.6,295.4l-28.1-0.6v-798.2
			h-128.2v641.2l-33.8,9.6v-565.5c0-8.5-3.2-16.6-9.1-22.7l-89.2-98.9l-93.8,95.4c-7.3,6.3-11.5,15.4-11.5,25v481.9l-45.3,6.4
			v-947.1h-61.7v-16.3h45.1c8.5,0,15.3-6.9,15.3-15.3v0c0-8.5-6.9-15.3-15.3-15.3h-45.1l-12.8-300.3l-14.5,300.3h-49.8
			c-8.5,0-15.3,6.9-15.3,15.3v0c0,8.5,6.9,15.3,15.3,15.3h49.8v16.3h-63.8v908.6l-29.8-21.3l-9,8.4c-0.8-2-1.7-4-2.5-5.9h-1.7
			c-0.8-2.1-1.6-4.1-2.4-6.1h1.4c-5.3-11.7-10.9-22.3-16.6-31.8v0.5c-0.4-0.7-0.8-1.4-1.2-2h0.3c-1.3-2.1-2.6-4.1-3.9-6.2h-0.1
			c-1.3-2.1-2.7-4.1-4-6.1h0.1c-3.9-5.7-7.9-10.9-11.9-15.7h-0.2c-1.8-2.1-3.5-4.1-5.3-6.1h0.2c-1.6-1.8-3.2-3.5-4.8-5.2h-0.4
			c-0.1-0.1-0.1-0.1-0.2-0.2v-0.4c-3-3.1-6-6-9.1-8.8h-0.9c-44.8-38.2-90.4-36.3-90.4-36.3h-19.6v2h-43v-38.1h-9.8v38.1h-34.5v3.3
			h35.9v6.1h-35.9v5.2h35.9v6.1h-35.9v15.7h87.2v6.1h-87.2v6.2h23.2v5.8h-23.2v42.3h9.1v6.2h-9.1v4h54.9v7.4h-54.9v4.3h54.9v6h-54.9
			v22.8h12.1v7.8h-12.1v3.5h87.2v6.4h-87.2v3.8h34.3v7.8h-34.3v39.3h49.7v6h-49.7v3.9h66v8h-66v3.5h66v7.9h-66v13.9h87.2v7.9h-87.2
			v3.9h23.1v7.9h-23.1v4.6h87.2v6h-87.2v3.5h87.2v7.9h-87.2v4.3h2.2v7.9h-2.2v25.3h34.1v7.9h-34.1v13.9h9.7v7.9h-9.7v4.1h54.9v7.9
			h-54.9v4h54.9v5.6h-54.9v15.4h87.2v8.2h-87.2v27.6h87.2v5.9h-87.2v61.3h13.3v5.4h-13.3v4.7h87.2v5.4h-87.2v6.4h2.8v5.4h-2.8v28
			h34.6v5.4h-34.6v16.3h23.3v5.4h-23.3v6.3h29.1v5.4h-29.1v4.7h25.9v7.3h-25.9v16.2h42.3v5.4h-42.3v27.4h87.2v7.3h-87.2v4.8h14v5.4
			h-14v2.2h-49.7v-707h-21.4v123.6h-13.9l-27.2,28v5h-4.9l-9,9.3h4.8v6.2h-10.8l-3.9,4h5.1v7.4h-12.3l-4.1,4.3h8.5v6h-14.3l-14,14.5
			l-95,98.8v-105.3h-21.4v138.6h-12l-5.4,6h17.4v8.7h-21.9l-6,3.5h27.9v6.6h-35.6l-3.8,3.9h39.5v8h-47.2l-3.4,3.5h50.6v7.9h-58.2
			l-4.1,4.3h30.4v6h-36.2l-3.6,3.7h71.7v7.9h-79.3l-3.8,3.9h43v7.9h-49.8v-0.9l-4.6,4.8v281.2h-44.6v-12.4h-25.9v-7.3h25.9v-4.7
			h-29.1v-5.4h29.1v-6.3H2629v-5.4h23.3v-16.3h-34.6v-5.4h34.6v-28h-2.8v-5.4h2.8v-6.4h-93.2v-5.4h93.2v-4.7H2639v-5.4h13.3v-61.3
			h-92.6v-5.9h92.6v-27.6h-92.6v-8.2h92.6v-15.4h-54.9v-5.6h54.9v-4h-54.9v-7.9h54.9v-4.1h-9.7v-7.9h9.7v-13.9h-34.1v-7.9h34.1
			v-25.3h-2.2v-7.9h2.2v-4.3h-93v-7.9h93v-3.5h-93v-6h93v-4.6h-23.1v-7.9h23.1v-3.9h-93v-7.9h93V2725h-66v-7.9h66v-3.5h-66v-8h66
			v-3.9h-49.7v-6h49.7v-39.3h-34.3v-7.8h34.3v-3.8h-92.8v-6.4h92.8v-3.5h-12.1v-7.8h12.1v-22.8h-54.9v-6h54.9v-4.3h-54.9v-7.4h54.9
			v-4h-9.1v-6.2h9.1v-42.3h-23.2v-5.8h23.2v-6.2h-92.8v-6.1h92.8v-15.7h-35.9v-6.1h35.9v-5.2h-35.9v-6.1h35.9v-3.3h-96v-77.4h-21.4
			v521l-49.2,45.7l-55.9-51.5v-515.2h-21.4v76.5h-95.9v9.2h0.5h9.1v6.2h-9.1h-0.5v4h0.5h54.9v7.4h-54.9h-0.5v4.3h0.5h54.9v6h-54.9
			h-0.5v22.8h0.5h12.1v7.8h-12.1h-0.5v3.5h0.5h92.8v6.4h-92.8h-0.5v3.8h0.5h34.3v7.8h-34.3h-0.5v39.3h0.5h49.7v6h-49.7h-0.5v3.9h0.5
			h66v8h-66h-0.5v3.5h0.5h66v7.9h-66h-0.5v13.9h0.5h93v7.9h-93h-0.5v3.9h0.5h23.1v7.9h-23.1h-0.5v4.6h0.5h93v6h-93h-0.5v3.5h0.5h93
			v7.9h-93h-0.5v4.3h0.5h2.2v7.9h-2.2h-0.5v25.3h0.5h34.1v7.9h-34.1h-0.5v13.9h0.5h9.7v7.9h-9.7h-0.5v4.1h0.5h54.9v7.9h-54.9h-0.5v4
			h0.5h54.9v5.6h-54.9h-0.5v15.4h0.5h92.6v8.2h-92.6h-0.5v27.6h0.5h92.6v5.9h-92.6h-0.5v61.3h0.5h13.3v5.4h-13.3h-0.5v4.7h0.5h93.2
			v5.4h-93.2h-0.5v39.8h10.7h34.6v5.4h-34.6h-10.7v40.6h3.1h92.8v6.1h-92.8h-3.1v64.5h3.1h54.9v7.4h-54.9h-3.1v4.3h3.1h54.9v6h-54.9
			h-3.1v17.4h-100.7l23.1-23.8h-22.4v-7.3h24.4v5.2l4.9-5v-0.1h0.1l4.6-4.7h-8.5v-5.4h13.7l6.1-6.3h-13v-5.4h18.3l9.1-9.4v-7h-40.5
			v-5.4h40.5v-28h-3.3v-5.4h3.3v-6.4h-109.4v-5.4h109.4v-4.7h-15.6v-5.4h15.6v-61.3h-108.6v-5.9h108.6v-27.6h-108.6v-8.2h108.6
			v-15.4h-64.4v-5.6h64.4v-4h-64.4v-7.9h64.4v-4.1h-11.4v-7.9h11.4v-13.9h-40v-7.9h40v-25.3h-2.6v-7.9h2.6v-4.3h-109.2v-7.9h109.2
			v-3.5h-109.2v-6h109.2v-4.6h-27.1v-7.9h27.1v-3.9h-109.2v-7.9h109.2v-13.9h-77.5v-7.9h77.5v-3.5h-77.5v-8h77.5v-3.9h-58.3v-6h58.3
			v-39.3h-40.3v-7.8h37.7l-3.8-3.8h-102.5v-6.4h96.2l-10.7-10.8v7.3h-3.6v-7.8h3.2l-22.5-22.8h-18v-6h12.1l-4.2-4.3h-7.9v-4.2h-6.9
			v4.2h-22.6v-4.2h-6.3v4.2h-3.6v-4.2h-10v527.7h-19.7v-527.7h-9.9v4.2h-3.6v-4.2h-6.2v4.2h-22.4v-4.2h-6.8v4.2h-7.7l-5.2,4.3h12.8
			v6h-20l-17.1,14.1v4.3h-5.1l-7.5,6.2v6h-7.2l-4.3,3.5h105.4v6.4h-108v3.8h40v7.8h-40v39.3h57.8v6h-57.8v3.9h76.8v8h-76.8v3.5h76.8
			v7.9h-76.8v13.9h108.2v7.9h-108.2v3.9h26.8v7.9h-26.8v4.6h108.2v6h-108.2v3.5h108.2v7.9h-108.2v4.3h2.6v7.9h-2.6v25.3h39.7v7.9
			h-39.7v13.9h11.3v7.9h-11.3v4.1h63.9v7.9h-63.9v4h63.9v5.6h-63.9v15.4h107.7v8.2h-107.7v27.6h107.7v5.9h-107.7v61.3h15.5v5.4
			h-15.5v4.7h108.5v5.4h-108.5v6.4h3.2v5.4h-3.2v28h40.2v5.4h-40.2v9.1c2.2,2.1,4.7,4.6,7.5,7.3h19.6v5.4h-14c2.1,2,4.3,4.1,6.5,6.3
			h14.3v5.4h-8.6c1.6,1.6,3.2,3.1,4.9,4.7h0v0c1.6,1.5,3.2,3.1,4.8,4.6v-4.7h24.2v7.3h-21.5c7.6,7.3,15,14.4,21,20.1v-3.9h2.2v5.4
			h-0.6c0.8,0.8,1.6,1.5,2.4,2.2H1989v-479.3h-97v-13.6h-19.1v360.4l-94.1-109.9v-402.3h-18.1v-1.1h-4.1v5.2h-44.3v-58h-10.8v58
			h-37.7v6.2h23.2v5.8h-23.2v42.3h9.1v6.2h-9.1v4h54.9v7.4h-54.9v4.3h54.9v6h-54.9v22.8h12.1v7.8h-12.1v3.5h92.8v6.4h-92.8v3.8h34.3
			v7.8h-34.3v39.3h49.7v6h-49.7v3.9h66v8h-66v3.5h66v7.9h-66v13.9h93v7.9h-93v3.9h23.1v7.9h-23.1v4.6h93v6h-93v0.2l-4.6-81.1
			c0,0-4.5,123.8-9.6,133.9c-5.1,10.1-5.1,3.9-5.1,3.9l-1.3-705.9l-13.4-3.8v-112.3l-19.8-5.7v-44.7l-14.7-5.1v-13.4l-18.5-5.1
			v-23.6c0,0-22.3,11.5-24.2-44v-116.8l-26.7-27.5v-55.2h-6.4v57l-28.2,25.7v159.2l-23.3,0.6v21.7l-18.8,0.3v23.9l-18.2,4.1v39.2
			l-11.5,4.5V2055l-10.5,9.6v589.9l-11.3,13.9v48.2h-23.8v-334.3l-91.9-0.9v365.7l-49.3-56v-283.3h-23.8v-28.9H1134v-170.1h-61.3
			v353l-63-0.9v-295.2l-74.9-0.9v451.7l-19.6-0.9v-25.5h-30.6v-61.3l-16.2-0.9v478.1v28.9h3305.8v-28.9L4171,2884.2z M3098.2,3082.4
			h-1.9v-5.4h1.9V3082.4z M3115.8,3082.4h-9.4v-5.4h9.4V3082.4z M2629.2,2784.7h12.8v7.9h-12.8V2784.7z M2618.1,2784.7h3.9v7.9h-3.9
			V2784.7z M2590.9,2483.1h14.7v6.1h-14.7V2483.1z M2590.9,2494.3h14.9v6.1h-14.9V2494.3z M2582.3,2483.1h2.6v6.1h-2.6V2483.1z
			 M2575.8,2483.1h2.6v6.1h-2.6V2483.1z M2569.1,2483.1h2.6v6.1h-2.6V2483.1z M2565.8,2494.3h18.5v6.1h-18.5V2494.3z M2559.6,2483.1
			h5.8v6.1h-5.8V2483.1z M2596.6,2701.7h-19.1v-6h19.1V2701.7z M2568.8,2679.9v-7.4h2.8v7.4H2568.8z M2571.6,2695.7v6h-2.7v-6
			H2571.6z M2571.7,2705.8v7.7h-8.6v-7.7H2571.7z M2559.7,2670v-6h28.6v6H2559.7z M2580,2672.4v7.4h-2.8v-7.4H2580z M2577.1,2717.1
			h3v7.8h-3V2717.1z M2577.1,2713.3v-7.7h3v7.7H2577.1z M2619.4,2664h5.8v6h-5.8V2664z M2631.6,2676.9v6h-45.4v-6H2631.6z
			 M2590.8,2670v-6h7.9v6H2590.8z M2603.6,2670v-6h3.5v6H2603.6z M2610.9,2664h5v6h-5V2664z M2559.5,2648.6h50.8v7.8h-50.8V2648.6z
			 M2565.1,2672.4v7.4h-5.7v-7.4H2565.1z M2589.4,2634.9h-30v-7.8h30V2634.9z M2629.3,2616.8h13v6h-13V2616.8z M2629.2,2627.1h3.1
			v7.8h-3.1V2627.1z M2617.9,2616.8h4v6h-4V2616.8z M2610.9,2627.1h11.3v7.8h-11.3V2627.1z M2610.3,2616.8v6h-34.5v-6H2610.3z
			 M2591.5,2586.7v7.4h-19.2v-7.4H2591.5z M2580.9,2582.7v-6.2h3.1v6.2H2580.9z M2588.9,2598.4h2.1v6h-2.1V2598.4z M2601.1,2582.7
			h-11.9v-6.2h11.9V2582.7z M2617.9,2528.4h4.4v5.8h-4.4V2528.4z M2617.9,2561.6h24.7v6.1h-24.7V2561.6z M2617.9,2576.5h4.3v6.2
			h-4.3V2576.5z M2610.7,2582.7h-4.3v-6.2h4.3V2582.7z M2610.2,2567.3h-34.3v-5.3h34.3V2567.3z M2559.5,2528.4h29.3v5.8h-29.3
			V2528.4z M2559.2,2576.5h15.3v6.2h-15.3V2576.5z M2566.9,2586.7v7.4h-3.1v-7.4H2566.9z M2559.2,2598.4h24.4v6h-24.4V2598.4z
			 M2559.2,2695.7h5.8v6h-5.8V2695.7z M2559.2,2729.2h49.5v6h-49.5V2729.2z M2618.6,2750.7h4v7.9h-4V2750.7z M2559.2,2750.7h42.5
			v7.9h-42.5V2750.7z M2351.6,2984.8h-35.9h-1.9v-6.1h1.9h35.9V2984.8z M2351.6,2973.5h-35.9h-1.6v-6.1h1.6h35.9V2973.5z
			 M2245.2,2773.3h15v7.9h-15V2773.3z M2232.2,2773.3h4.6v7.9h-4.6V2773.3z M2206.9,2690.2h-22.5v-6h22.5V2690.2z M2174.3,2668.4
			v-7.4h3.2v7.4H2174.3z M2177.5,2684.3v6h-3.1v-6H2177.5z M2177.7,2694.3v7.7h-10v-7.7H2177.7z M2163.6,2658.5v-6h33.5v6H2163.6z
			 M2187.4,2661v7.4h-3.2v-7.4H2187.4z M2184,2705.6h3.5v7.8h-3.5V2705.6z M2184,2701.8v-7.7h3.5v7.7H2184z M2233.7,2652.6h6.9v6
			h-6.9V2652.6z M2248,2665.4v6h-53.2v-6H2248z M2200.1,2658.5v-6h9.2v6H2200.1z M2215.1,2658.5v-6h4.1v6H2215.1z M2223.7,2652.6
			h5.9v6h-5.9V2652.6z M2163.4,2637.1h59.6v7.8h-59.6V2637.1z M2169.9,2661v7.4h-6.7v-7.4H2169.9z M2198.5,2623.4h-35.2v-7.8h35.2
			V2623.4z M2231.9,2605.3h4.7v6h-4.7V2605.3z M2223.7,2615.7h13.2v7.8h-13.2V2615.7z M2223,2605.3v6h-40.5v-6H2223z M2197.9,2587
			h2.5v6h-2.5V2587z M2163.1,2587h28.6v6h-28.6V2587z M2163.1,2684.3h6.9v6h-6.9V2684.3z M2163.1,2717.7h58v6h-58V2717.7z
			 M2232.7,2739.2h4.7v7.9h-4.7V2739.2z M2163.1,2739.2h49.8v7.9h-49.8V2739.2z M2213,3098.5v5.4h-2.2v-5.4H2213z M2222.9,3070.4
			h-59v-5.4h59V3070.4z M2193.5,3053.2v5.4h-29.6v-5.4H2193.5z M2163.9,3046.9v-5.4h19.1v5.4H2163.9z M2197.9,3058.7v-5.4h10.3v5.4
			H2197.9z M2213,3058.7v-5.4h4.6v5.4H2213z M2231.2,3070.4h-3.5v-5.4h3.5V3070.4z M2235.7,3053.2v5.4h-13.6v-5.4H2235.7z
			 M2245.3,2998.1h15.1v5.4h-15.1V2998.1z M2182.6,2998.1h53.5v5.4h-53.5V2998.1z M2163.4,3031.5h58.8v5.4h-58.8V3031.5z
			 M2163.4,3098.5h38.6v5.4h-38.6V3098.5z M2197.1,2981.5h-34.2v-5.4h34.2V2981.5z M2175,2946.8v-6.4h3.1v6.4H2175z M2184.5,2946.8
			v-6.4h3.1v6.4H2184.5z M2248.2,2981.5h-24.5v-5.4h24.5V2981.5z M2204.2,2966.6v-5.4h26.5v5.4H2204.2z M2237.2,2966.6v-5.4h3.6v5.4
			H2237.2z M2248.6,2950h-54.6v-6.4h54.6V2950z M2233.8,2930.7h6.9v7h-6.9V2930.7z M2224.9,2930.7h4.2v7h-4.2V2930.7z
			 M2214.8,2930.7h4.2v7h-4.2V2930.7z M2200.1,2930.7h9.6v7h-9.6V2930.7z M2163.8,2930.7h34v7h-34V2930.7z M2248.8,2885.5v5.7h-85.2
			v-5.7H2248.8z M2191.5,2857.8h-27.9v-5.6h27.9V2857.8z M2168.4,2848.1v-7.9h3.8v7.9H2168.4z M2200.9,2857.8h-2.3v-5.6h2.3V2857.8z
			 M2200.9,2848.1H2179v-7.9h21.9V2848.1z M2188,2836.1v-7.9h3.8v7.9H2188z M2211.4,2836.1h-13.7v-7.9h13.7V2836.1z M2222.8,2836.1
			h-5.2v-7.9h5.2V2836.1z M2231.1,2828.2h5.2v7.9h-5.2V2828.2z M2222.9,2814.3h-15v-7.9h15V2814.3z M2175,2773.3h41.6v7.9H2175
			V2773.3z M2163.2,2828.2h18v7.9h-18V2828.2z M2162.7,2940.4h7v6.4h-7V2940.4z M2133.3,3053.2v5.4H2104v-5.4H2133.3z
			 M2114.4,3046.9v-5.4h18.9v5.4H2114.4z M2133.9,3098.5v5.4h-38.2v-5.4H2133.9z M2105.8,2587h28.4v6h-28.4V2587z M2109.9,2701.8
			v-7.7h3.5v7.7H2109.9z M2113.4,2705.6v7.8h-3.5v-7.8H2113.4z M2113.3,2668.4h-3.2v-7.4h3.2V2668.4z M2100.5,2658.5v-6h33.2v6
			H2100.5z M2119.8,2668.4v-7.4h3.2v7.4H2119.8z M2122.9,2684.3v6h-3.1v-6H2122.9z M2119.7,2694.3h10v7.7h-10V2694.3z
			 M2127.4,2690.2v-6h6.8v6H2127.4z M2097.2,2587h2.5v6h-2.5V2587z M2061.2,2605.3h4.7v6h-4.7V2605.3z M2052.8,2623.4h-3.6v-7.8h3.6
			V2623.4z M2074.1,2623.4H2061v-7.8h13.1V2623.4z M2074.8,2605.3h40.1v6h-40.1V2605.3z M2099.1,2623.4v-7.8h34.9v7.8H2099.1z
			 M2134.1,2661v7.4h-6.7v-7.4H2134.1z M2074.8,2637.1h59.1v7.8h-59.1V2637.1z M2097.5,2652.6v6h-9.2v-6H2097.5z M2082.6,2652.6v6
			h-4.1v-6H2082.6z M2068.3,2652.6h5.8v6h-5.8V2652.6z M2057.4,2652.6h6.8v6h-6.8V2652.6z M2050,2671.4v-6h52.8v6H2050z
			 M2090.7,2690.2v-6h22.3v6H2090.7z M2076.6,2723.7v-6h57.6v6H2076.6z M2065.2,2747.1h-4.7v-7.9h4.7V2747.1z M2084.8,2747.1v-7.9
			h49.4v7.9H2084.8z M2116.2,2836.1v-7.9h17.9v7.9H2116.2z M2128.9,2840.3v7.9h-3.8v-7.9H2128.9z M2118.4,2840.3v7.9h-21.7v-7.9
			H2118.4z M2105.7,2836.1v-7.9h3.8v7.9H2105.7z M2081.1,2773.3h41.3v7.9h-41.3V2773.3z M2052.8,2781.1h-14.9v-7.9h14.9V2781.1z
			 M2061.1,2781.1v-7.9h4.5v7.9H2061.1z M2066.8,2836.1h-5.2v-7.9h5.2V2836.1z M2074.9,2806.4h14.9v7.9h-14.9V2806.4z
			 M2080.1,2836.1h-5.2v-7.9h5.2V2836.1z M2086.2,2836.1v-7.9h13.5v7.9H2086.2z M2099,2857.8h-2.3v-5.6h2.3V2857.8z M2106,2857.8
			v-5.6h27.7v5.6H2106z M2049.1,2891.3v-5.7h84.5v5.7H2049.1z M2134.5,2940.4v6.4h-7v-6.4H2134.5z M2099.8,2930.7h33.7v7h-33.7
			V2930.7z M2122.3,2940.4v6.4h-3.1v-6.4H2122.3z M2113,2940.4v6.4h-3.1v-6.4H2113z M2087.9,2930.7h9.6v7h-9.6V2930.7z
			 M2078.7,2930.7h4.2v7h-4.2V2930.7z M2068.7,2930.7h4.2v7h-4.2V2930.7z M2057.2,2930.7h6.9v7h-6.9V2930.7z M2049.3,2943.6h54.1
			v6.4h-54.1V2943.6z M2060.6,2961.1v5.4h-3.5v-5.4H2060.6z M2074.1,2981.5h-24.3v-5.4h24.3V2981.5z M2093.4,2966.6h-26.3v-5.4h26.3
			V2966.6z M2100.5,2981.5v-5.4h34v5.4H2100.5z M2133.9,3036.9h-58.3v-5.4h58.3V3036.9z M2099.7,3053.2v5.4h-10.2v-5.4H2099.7z
			 M2084.6,3053.2v5.4h-4.5v-5.4H2084.6z M2052.7,3003.5h-14.9v-5.4h14.9V3003.5z M2061.8,3003.5v-5.4h53.1v5.4H2061.8z
			 M2062.2,3053.2h13.5v5.4h-13.5V3053.2z M2070.1,3070.4h-3.4v-5.4h3.4V3070.4z M2074.9,3070.4v-5.4h58.5v5.4H2074.9z
			 M2770.1,3106.2v-0.7h21.3v0.7H2770.1z M2791.4,2880.5v7.9h-20.8v-7.9H2791.4z M2770.6,2855.1v-7.9h4.6v7.9H2770.6z
			 M2791.4,3077.5h-7.7v-5.4h7.7V3077.5z M2702,2955.4v-8.2h89.4v8.2H2702z M2787.3,2959.5v5.7H2702v-5.7H2787.3z M2729.9,2926.2
			v5.6H2702v-5.6H2729.9z M2706.8,2922.1v-7.9h3.8v7.9H2706.8z M2739.3,2914.3v7.9h-21.9v-7.9H2739.3z M2726.4,2910.1v-7.9h3.8v7.9
			H2726.4z M2791.4,2931.8h-45.2v-5.6h45.2V2931.8z M2736.2,2910.1v-7.9h13.7v7.9H2736.2z M2739.3,2926.2v5.6h-2.3v-5.6H2739.3z
			 M2791.4,2855.1h-7.9v-7.9h7.9V2855.1z M2774.7,2902.3v7.9h-5.2v-7.9H2774.7z M2791.4,2914.3v7.9h-45.2v-7.9H2791.4z M2756,2910.1
			v-7.9h5.2v7.9H2756z M2761.3,2888.3h-15v-7.9h15V2888.3z M2755.1,2855.1h-41.6v-7.9h41.6V2855.1z M2719.6,2902.3v7.9h-18v-7.9
			H2719.6z M2702,2983h89.4v5.9H2702V2983z M2762.1,3050.1h24.5v5.4h-24.5V3050.1z M2742.6,3040.6v-5.4h26.5v5.4H2742.6z
			 M2775.7,3040.6v-5.4h3.6v5.4H2775.7z M2732.5,3024v-6.4h54.6v6.4H2732.5z M2738.5,3011.8v-7h9.6v7H2738.5z M2753.2,3011.8v-7h4.2
			v7H2753.2z M2763.3,3011.8v-7h4.2v7H2763.3z M2772.2,3011.8v-7h6.9v7H2772.2z M2702.2,3004.8h34v7h-34V3004.8z M2726,3014.4v6.4
			h-3.1v-6.4H2726z M2713.4,3014.4h3.1v6.4h-3.1V3014.4z M2735.5,3050.1v5.4h-34.2v-5.4H2735.5z M2791.4,3060.3v5.4h-90.2v-5.4
			H2791.4z M2721,3072.1h53.5v5.4H2721V3072.1z M2812.8,2966.6h95v139.6h-95V2966.6z M3003.8,2806.4v7.9h-33.1v-7.9H3003.8z
			 M2970.7,2781.1v-7.9h3.9v7.9H2970.7z M2981.7,2781.1v-7.9h12.8v7.9H2981.7z M2921.3,2668.4v-7.4h2.8v7.4H2921.3z M2924.1,2684.2
			v6h-2.7v-6H2924.1z M2924.2,2694.3v7.7h-8.6v-7.7H2924.2z M2912.2,2658.5v-6h28.6v6H2912.2z M2984.1,2665.4v6h-45.4v-6H2984.1z
			 M2963.4,2658.5v-6h5v6H2963.4z M2981.8,2611.3v-6h13v6H2981.8z M2984.8,2615.7v7.8h-3.1v-7.8H2984.8z M2992.7,2615.7h11.1v7.8
			h-11.1V2615.7z M3003.8,2702.1h-65v-8h65V2702.1z M3003.8,2690.2h-48.7v-6h48.7V2690.2z M3003.8,2644.9h-33.3v-7.8h33.3V2644.9z
			 M2977.8,2652.6v6h-5.8v-6H2977.8z M2943.3,2658.5v-6h7.9v6H2943.3z M2956.1,2658.5v-6h3.5v6H2956.1z M2962.9,2644.9H2912v-7.8
			h50.8V2644.9z M2932.5,2661v7.4h-2.8v-7.4H2932.5z M2929.6,2705.6h3v7.8h-3V2705.6z M2929.6,2701.8v-7.7h3v7.7H2929.6z
			 M2930,2690.2v-6h19.1v6H2930z M2938.8,2705.6h65v7.9h-65V2705.6z M3003.8,2747.1h-22.1v-7.9h22.1V2747.1z M3003.8,3082.4h-24.9
			v-7.3h24.9V3082.4z M3003.8,3070.4h-28.1v-5.4h28.1V3070.4z M3003.8,3058.7h-22.3v-5.4h22.3V3058.7z M3003.8,3036.9h-33.6v-5.4
			h33.6V3036.9z M2962.1,3031.5v5.4H2912v-5.4H2962.1z M2928.4,3003.5v-5.4h45.6v5.4H2928.4z M2962.1,3058.7v-5.4h11.6v5.4H2962.1z
			 M2969.9,3065v5.4h-3v-5.4H2969.9z M2958.3,3053.2v5.4h-3.9v-5.4H2958.3z M2950.2,3053.2v5.4h-8.8v-5.4H2950.2z M2937.7,3053.2
			v5.4h-25.2v-5.4H2937.7z M2912.5,3046.9v-5.4h16.3v5.4H2912.5z M2912.5,3070.4v-5.4h50.3v5.4H2912.5z M2944.9,3098.5v5.4H2912
			v-5.4H2944.9z M2952.5,3098.5h1.9v5.4h-1.9V3098.5z M2953.9,3082.4v-7.3h20.8v7.3H2953.9z M2981.8,3003.5v-5.4h12.8v5.4H2981.8z
			 M3003.8,3003.5h-1.8v-5.4h1.8V3003.5z M3003.8,2981.5h-12.3v-5.4h12.3V2981.5z M3003.8,2881.4h-91.6v-8.2h91.6V2881.4z
			 M2984.9,2885.5v5.7h-72.7v-5.7H2984.9z M2936,2852.2v5.6h-23.8v-5.6H2936z M2916.3,2848.1v-7.9h3.2v7.9H2916.3z M2944,2840.2v7.9
			h-18.7v-7.9H2944z M2933,2836.1v-7.9h3.2v7.9H2933z M2941.4,2836.1v-7.9h11.6v7.9H2941.4z M2944,2852.2v5.6h-1.9v-5.6H2944z
			 M3003.8,2857.8h-53.9v-5.6h53.9V2857.8z M3003.8,2836.1h-8.7v-7.9h8.7V2836.1z M3003.8,2781.1h-1.2v-7.9h1.2V2781.1z
			 M2974.2,2828.2v7.9h-4.4v-7.9H2974.2z M3003.8,2840.2v7.9h-53.9v-7.9H3003.8z M2958.2,2836.1v-7.9h4.4v7.9H2958.2z
			 M2962.7,2814.3h-12.8v-7.9h12.8V2814.3z M2957.4,2781.1H2922v-7.9h35.5V2781.1z M2927.2,2828.2v7.9h-15.4v-7.9H2927.2z
			 M2912.2,2909h91.6v5.9h-91.6V2909z M2963.4,2976.1h20.9v5.4h-20.9V2976.1z M2946.8,2966.6v-5.4h22.6v5.4H2946.8z M2975,2966.6
			v-5.4h3v5.4H2975z M2938.2,2950v-6.4h46.5v6.4H2938.2z M2943.3,2937.8v-7h8.2v7H2943.3z M2955.8,2937.8v-7h3.6v7H2955.8z
			 M2964.5,2937.8v-7h3.6v7H2964.5z M2972,2937.8v-7h5.9v7H2972z M2912.4,2930.7h29v7h-29V2930.7z M2932.6,2940.4v6.4h-2.6v-6.4
			H2932.6z M2921.9,2940.4h2.6v6.4h-2.6V2940.4z M2940.8,2976.1v5.4h-29.2v-5.4H2940.8z M3003.8,2986.3v5.4h-92.2v-5.4H3003.8z
			 M2962.5,3104v-5.4h41.3v7.7H2993c0.8-0.2,1.5-0.5,2.3-0.7c2.5-0.8,4.9-1.3,7.2-1.5H2962.5z M2995.7,2565h8.1v6.2h-8.1V2565z
			 M2970.5,2550.2h24.7v6.1h-24.7V2550.2z M2970.5,2565h4.3v6.2h-4.3V2565z M2959,2565h4.3v6.2h-4.3V2565z M2949.9,2575.2h53.9v7.4
			h-53.9V2575.2z M2949.9,2586.9h53.9v6h-53.9V2586.9z M2974.7,2615.7v7.8h-11.3v-7.8H2974.7z M2970.5,2611.3v-6h4v6H2970.5z
			 M2941.5,2586.9h2.1v6h-2.1V2586.9z M2928.4,2605.3h34.5v6h-34.5V2605.3z M2912,2615.7h30v7.8h-30V2615.7z M2912,2626.9h91.8v6.4
			H2912V2626.9z M2911.9,2661h5.7v7.4h-5.7V2661z M2911.8,2684.2h5.8v6h-5.8V2684.2z M2911.8,2717.7h49.5v6h-49.5V2717.7z
			 M2911.8,2727.4h92v7.9h-92V2727.4z M2975.1,2739.2v7.9h-4v-7.9H2975.1z M2911.8,2739.2h42.5v7.9h-42.5V2739.2z M2911.8,2751.7h92
			v6h-92V2751.7z M2911.8,2761.1h92v7.9h-92V2761.1z M2911.5,2940.4h6v6.4h-6V2940.4z M2907.8,2652.6v265.6h-95v-171L2907.8,2652.6z
			 M2783.6,2813.2h7.9v7.9h-7.9V2813.2z M2771.1,2813.2h4.7v7.9h-4.7V2813.2z M2701.5,2825.7h90v6h-90V2825.7z M2701.5,2835.2h90
			v7.9h-90V2835.2z M2701.2,3014.4h7v6.4h-7V3014.4z M2701.8,3105.5h58.8v0.7h-58.8V3105.5z M2585.2,3064.7v5.4H2560v-5.4H2585.2z
			 M2560,3058.4v-5.4h16.3v5.4H2560z M2610.2,3076.5v5.4H2560v-5.4H2610.2z M2588.9,3070.2v-5.4h8.8v5.4H2588.9z M2601.8,3070.2
			v-5.4h3.9v5.4H2601.8z M2622.2,3093.8h-20.8v-7.3h20.8V3093.8z M2614.4,3081.9v-5.4h3v5.4H2614.4z M2621.2,3064.7v5.4h-11.6v-5.4
			H2621.2z M2629.3,3009.5h12.8v5.4h-12.8V3009.5z M2575.9,3009.5h45.6v5.4h-45.6V3009.5z M2559.5,3043h50.1v5.4h-50.1V3043z
			 M2588.2,2993h-29.2v-5.4h29.2V2993z M2569.4,2958.3v-6.4h2.6v6.4H2569.4z M2577.5,2958.3v-6.4h2.6v6.4H2577.5z M2631.8,2993
			h-20.9v-5.4h20.9V2993z M2594.3,2978v-5.4h22.6v5.4H2594.3z M2622.5,2978v-5.4h3v5.4H2622.5z M2632.2,2961.5h-46.5v-6.4h46.5
			V2961.5z M2619.5,2942.2h5.9v7h-5.9V2942.2z M2611.9,2942.2h3.6v7h-3.6V2942.2z M2603.3,2942.2h3.6v7h-3.6V2942.2z M2590.8,2942.2
			h8.2v7h-8.2V2942.2z M2559.8,2942.2h29v7h-29V2942.2z M2632.3,2897v5.7h-72.7v-5.7H2632.3z M2583.5,2869.3h-23.8v-5.6h23.8V2869.3
			z M2563.8,2859.6v-7.9h3.2v7.9H2563.8z M2591.5,2869.3h-1.9v-5.6h1.9V2869.3z M2591.5,2859.6h-18.7v-7.9h18.7V2859.6z
			 M2580.5,2847.6v-7.9h3.2v7.9H2580.5z M2600.5,2847.6h-11.6v-7.9h11.6V2847.6z M2610.1,2847.6h-4.4v-7.9h4.4V2847.6z
			 M2617.2,2839.7h4.4v7.9h-4.4V2839.7z M2610.2,2825.8h-12.8v-7.9h12.8V2825.8z M2569.4,2784.7h35.5v7.9h-35.5V2784.7z
			 M2559.3,2839.7h15.4v7.9h-15.4V2839.7z M2559,2951.9h6v6.4h-6V2951.9z M2484.9,3043.7l50-45.2v107.7h-105.1v-118.4L2484.9,3043.7
			z M2376.4,3078.6v-7.4h19.2v7.4H2376.4z M2379,3082.9v6h-2.1v-6H2379z M2384,3067.1v-6.2h3.1v6.2H2384z M2408.5,3067.1h-15.1v-6.2
			h15.1V3067.1z M2404.1,3071.2v7.4h-3.1v-7.4H2404.1z M2384.3,3082.9h24.2v6h-24.2V3082.9z M2390.8,2488.1h15.3v6.2h-15.3V2488.1z
			 M2385.3,2624.8v-7.7h3v7.7H2385.3z M2388.2,2628.6v7.8h-3v-7.8H2388.2z M2388.1,2591.4h-2.8v-7.4h2.8V2591.4z M2377.1,2581.5v-6
			h28.6v6H2377.1z M2393.8,2591.4v-7.4h2.8v7.4H2393.8z M2396.4,2607.3v6h-2.7v-6H2396.4z M2393.7,2617.3h8.6v7.7h-8.6V2617.3z
			 M2400.3,2613.2v-6h5.8v6H2400.3z M2373.8,2505.7v-7.4h19.2v7.4H2373.8z M2376.4,2510v6h-2.1v-6H2376.4z M2381.7,2510h24.4v6
			h-24.4V2510z M2398.5,2505.7v-7.4h3.1v7.4H2398.5z M2381.4,2488.1h3.1v6.2h-3.1V2488.1z M2347.4,2494.2h-4.3v-6.2h4.3V2494.2z
			 M2358.9,2494.2h-4.3v-6.2h4.3V2494.2z M2364.2,2494.2v-6.2h11.9v6.2H2364.2z M2343.4,2528.4h4v6h-4V2528.4z M2323.1,2534.3v-6h13
			v6H2323.1z M2336.1,2546.4h-3.1v-7.8h3.1V2546.4z M2354.4,2546.4h-11.3v-7.8h11.3V2546.4z M2355,2528.4h34.5v6H2355V2528.4z
			 M2375.9,2546.4v-7.8h30v7.8H2375.9z M2406,2584v7.4h-5.7v-7.4H2406z M2355,2560.2h50.8v7.8H2355V2560.2z M2374.5,2575.6v6h-7.9
			v-6H2374.5z M2361.8,2575.6v6h-3.5v-6H2361.8z M2349.4,2575.6h5v6h-5V2575.6z M2340.1,2575.6h5.8v6h-5.8V2575.6z M2333.7,2594.4
			v-6h45.4v6H2333.7z M2368.8,2613.2v-6h19.1v6H2368.8z M2356.6,2646.7v-6h49.5v6H2356.6z M2346.8,2670.1h-4v-7.9h4V2670.1z
			 M2363.6,2670.1v-7.9h42.5v7.9H2363.6z M2390.7,2759.1v-7.9h15.4v7.9H2390.7z M2401.6,2763.3v7.9h-3.2v-7.9H2401.6z
			 M2392.6,2763.3v7.9h-18.7v-7.9H2392.6z M2381.6,2759.1v-7.9h3.2v7.9H2381.6z M2360.4,2696.3h35.5v7.9h-35.5V2696.3z
			 M2336.1,2704.1h-12.8v-7.9h12.8V2704.1z M2343.3,2704.1v-7.9h3.9v7.9H2343.3z M2348.2,2759.1h-4.4v-7.9h4.4V2759.1z
			 M2355.1,2729.4h12.8v7.9h-12.8V2729.4z M2359.6,2759.1h-4.4v-7.9h4.4V2759.1z M2364.9,2759.1v-7.9h11.6v7.9H2364.9z
			 M2375.8,2780.8h-1.9v-5.6h1.9V2780.8z M2381.9,2780.8v-5.6h23.8v5.6H2381.9z M2333,2814.3v-5.7h72.7v5.7H2333z M2406.4,2863.4
			v6.4h-6v-6.4H2406.4z M2376.5,2853.8h29v7h-29V2853.8z M2395.9,2863.4v6.4h-2.6v-6.4H2395.9z M2387.9,2863.4v6.4h-2.6v-6.4H2387.9
			z M2366.3,2853.8h8.2v7h-8.2V2853.8z M2358.4,2853.8h3.6v7h-3.6V2853.8z M2349.8,2853.8h3.6v7h-3.6V2853.8z M2339.9,2853.8h5.9v7
			h-5.9V2853.8z M2333.2,2866.6h46.5v6.4h-46.5V2866.6z M2342.9,2884.1v5.4h-3v-5.4H2342.9z M2354.5,2904.6h-20.9v-5.4h20.9V2904.6z
			 M2371,2889.6h-22.6v-5.4h22.6V2889.6z M2377.1,2904.6v-5.4h29.2v5.4H2377.1z M2326.1,2926.5h-2.8h-10v-5.4h10h2.8V2926.5z
			 M2346.2,2926.5h-12.8v-5.4h12.8V2926.5z M2354.1,2926.5v-5.4h45.6v5.4H2354.1z M2377,2984.8h-14.9v-6.1h14.9V2984.8z
			 M2377,2973.5h-14.7v-6.1h14.7V2973.5z M2402.1,2984.8h-18.5v-6.1h18.5V2984.8z M2383,2973.5v-6.1h2.6v6.1H2383z M2389.5,2973.5
			v-6.1h2.6v6.1H2389.5z M2396.2,2973.5v-6.1h2.6v6.1H2396.2z M2408.4,2973.5h-5.8v-6.1h5.8V2973.5z M2366,2959.9v-5.4h42.5v5.4
			H2366z M2379.1,3012.8h29.3v5.8h-29.3V3012.8z M2357.7,3046.4h34.3v5.3h-34.3V3046.4z M2314,3012.8h1.6h23.2v5.8h-23.2h-1.6
			V3012.8z M2324.8,3067.1h-9.1h-2.2v-6.2h2.2h9.1V3067.1z M2350,3067.1h-4.3v-6.2h4.3V3067.1z M2350,3052.1h-24.7v-6.1h24.7V3052.1
			z M2350,3018.6h-4.4v-5.8h4.4V3018.6z M2361.5,3067.1h-4.3v-6.2h4.3V3067.1z M2366.8,3067.1v-6.2h11.9v6.2H2366.8z M2392.1,3101.3
			v4.9h-34.5v-4.9H2392.1z M2350,3101.3v4.9h-4v-4.9H2350z M2325.6,3101.3h13v4.9h-13V3101.3z M1922.1,3106.2v-4.7h20.8v4.7H1922.1z
			 M1984.4,3091.3v5.4h-50.3v-5.4H1984.4z M1938.6,3085v-5.4h3.9v5.4H1938.6z M1946.7,3085v-5.4h8.8v5.4H1946.7z M1959.2,3085v-5.4
			h25.2v5.4H1959.2z M1968.1,3073.2v-5.4h16.3v5.4H1968.1z M1934.8,3063.3v-5.4h50.1v5.4H1934.8z M1968.5,3029.9h-45.6v-5.4h45.6
			V3029.9z M1934.8,3085h-11.6v-5.4h11.6V3085z M1930,3091.3v5.4h-3v-5.4H1930z M1933.5,3002.5v5.4h-20.9v-5.4H1933.5z
			 M1918.9,2992.9v-5.4h3v5.4H1918.9z M1927.5,2992.9v-5.4h22.6v5.4H1927.5z M1912.2,2976.3v-6.4h46.5v6.4H1912.2z M1918.9,2964.1
			v-7h5.9v7H1918.9z M1928.8,2964.1v-7h3.6v7H1928.8z M1937.4,2964.1v-7h3.6v7H1937.4z M1945.3,2964.1v-7h8.2v7H1945.3z
			 M1955.5,2964.1v-7h29v7H1955.5z M1974.9,2966.8v6.4h-2.6v-6.4H1974.9z M1966.9,2966.8v6.4h-2.6v-6.4H1966.9z M1956.1,3002.5h29.2
			v5.4h-29.2V3002.5z M1985.4,2973.1h-6v-6.4h6V2973.1z M1984.7,2917.6H1912v-5.7h72.7V2917.6z M1934.1,2840.7v-7.9h12.8v7.9H1934.1
			z M1938.6,2854.6v7.9h-4.4v-7.9H1938.6z M1969.7,2862.5v-7.9h15.4v7.9H1969.7z M1980.6,2866.6v7.9h-3.2v-7.9H1980.6z
			 M1974.9,2807.5h-35.5v-7.9h35.5V2807.5z M1963.9,2854.6v7.9h-3.2v-7.9H1963.9z M1943.9,2854.6h11.6v7.9h-11.6V2854.6z
			 M1952.9,2878.5h1.9v5.6h-1.9V2878.5z M1952.9,2874.5v-7.9h18.7v7.9H1952.9z M1960.9,2878.5h23.8v5.6h-23.8V2878.5z
			 M1985.1,2773.5h-42.5v-7.9h42.5V2773.5z M1958.1,2691.8v6h-45.4v-6H1958.1z M1919.1,2684.9v-6h5.8v6H1919.1z M1928.4,2684.9v-6h5
			v6H1928.4z M1981.2,2720.7v7.7h-8.6v-7.7H1981.2z M1972.8,2716.6v-6h2.7v6H1972.8z M1975.5,2694.8h-2.8v-7.4h2.8V2694.8z
			 M1956.1,2684.9v-6h28.6v6H1956.1z M1967.2,2720.5v7.7h-3v-7.7H1967.2z M1967.1,2694.8h-2.8v-7.4h2.8V2694.8z M1934,2671.3v-7.8
			h50.8v7.8H1934z M1953.5,2678.9v6h-7.9v-6H1953.5z M1940.8,2678.9v6h-3.5v-6H1940.8z M1947.8,2710.6h19.1v6h-19.1V2710.6z
			 M1964.3,2732h3v7.8h-3V2732z M1985.1,2744.1v6h-49.5v-6H1985.1z M1985.1,2716.6h-5.8v-6h5.8V2716.6z M1985,2694.8h-5.7v-7.4h5.7
			V2694.8z M1984.9,2649.8h-30v-7.8h30V2649.8z M1934,2631.7h34.5v6H1934V2631.7z M1922.4,2631.7h4v6h-4V2631.7z M1922.2,2642h11.3
			v7.8h-11.3V2642z M1902.1,2631.7h13v6h-13V2631.7z M1915.1,2642v7.8h-3.1v-7.8H1915.1z M1892.1,2642h12.1v7.8h-12.1V2642z
			 M1892.1,2653.3h92.8v6.4h-92.8V2653.3z M1892.1,2663.5h34.3v7.8h-34.3V2663.5z M1892.1,2710.6h49.7v6h-49.7V2710.6z
			 M1892.1,2720.5h66v8h-66V2720.5z M1892.1,2732h66v7.9h-66V2732z M1892.1,2753.8h93v7.9h-93V2753.8z M1925.8,2765.6v7.9h-4v-7.9
			H1925.8z M1892.1,2765.6h23.1v7.9h-23.1V2765.6z M1892.1,2778h93v6h-93V2778z M1892.1,2787.5h93v7.9h-93V2787.5z M1927.2,2854.6
			v7.9h-4.4v-7.9H1927.2z M1926.2,2807.5h-3.9v-7.9h3.9V2807.5z M1915.1,2799.6v7.9h-12.8v-7.9H1915.1z M1892.1,2799.6h2.2v7.9h-2.2
			V2799.6z M1892.1,2832.8h34.1v7.9h-34.1V2832.8z M1892.1,2854.6h9.7v7.9h-9.7V2854.6z M1892.1,2866.6h54.9v7.9h-54.9V2866.6z
			 M1892.1,2878.5h54.9v5.6h-54.9V2878.5z M1892.1,2899.6h92.6v8.2h-92.6V2899.6z M1892.1,2935.3h92.6v5.9h-92.6V2935.3z
			 M1892.1,3002.5h13.3v5.4h-13.3V3002.5z M1892.1,3012.6h93.2v5.4h-93.2V3012.6z M1915,3024.4v5.4h-12.8v-5.4H1915z M1892.1,3024.4
			h2.8v5.4h-2.8V3024.4z M1892.1,3057.8h34.6v5.4h-34.6V3057.8z M1892.1,3079.6h23.3v5.4h-23.3V3079.6z M1892.1,3091.3h29.1v5.4
			h-29.1V3091.3z M1918,3101.5v4.7h-25.9v-4.7H1918z M1872.9,3039.6v66.6h-94.1v-175.4L1872.9,3039.6z M1665,2736.1l-0.4-7.9h1.4
			v7.9H1665z M1697.8,2761.4v7.9h-30.9l-0.4-7.9H1697.8z M1674,2736.1v-7.9h12.8v7.9H1674z M1697.8,2736.1h-3.9v-7.9h3.9V2736.1z
			 M1698.8,2783.2v7.9h-4.4v-7.9H1698.8z M1673.4,2783.2v7.9h-5.6c-0.1-3.1-0.2-5.7-0.3-7.9H1673.4z M1718.6,2795.3v7.9h-50.4
			c-0.1-2.8-0.2-5.5-0.3-7.9H1718.6z M1724.5,2807.2h1.9v5.6h-1.9V2807.2z M1715.5,2791.1v-7.9h11.6v7.9H1715.5z M1724.5,2803.1
			v-7.9h18.7v7.9H1724.5z M1732.3,2791.1v-7.9h3.2v7.9H1732.3z M1732.5,2807.2h23.8v5.6h-23.8V2807.2z M1749,2803.1v-7.9h3.2v7.9
			H1749z M1741.3,2791.1v-7.9h15.4v7.9H1741.3z M1746.5,2736.1h-35.5v-7.9h35.5V2736.1z M1718.6,2761.4v7.9h-12.8v-7.9H1718.6z
			 M1710.3,2783.2v7.9h-4.4v-7.9H1710.3z M1718.6,2807.2v5.6h-50.1c-0.1-1.9-0.1-3.8-0.2-5.6H1718.6z M1756.3,2828.2v8.2h-87
			c-0.1-2.8-0.2-5.5-0.3-8.2H1756.3z M1756.3,2840.5v5.7h-72.7v-5.7H1756.3z M1756.3,2864v5.9h-85.9c-0.1-2-0.1-4-0.2-5.9H1756.3z
			 M1739.7,3001.9v-5.4h16.3v5.4H1739.7z M1756,3008.3v5.4h-25.2v-5.4H1756z M1706.4,2991.9v-5.4h50.1v5.4H1706.4z M1727.1,3008.3
			v5.4h-8.8v-5.4H1727.1z M1714.1,3008.3v5.4h-3.9v-5.4H1714.1z M1740.1,2958.5h-45.6v-5.4h45.6V2958.5z M1694.8,3013.7v-5.4h11.6
			v5.4H1694.8z M1701.6,3020v5.4h-3v-5.4H1701.6z M1714.6,3030.1v7.3h-20.8v-7.3H1714.6z M1714.1,3053.6h1.9v5.4h-1.9V3053.6z
			 M1705.7,3025.4v-5.4h50.3v5.4H1705.7z M1723.6,3053.6h32.9v5.4h-32.9V3053.6z M1727.6,3077h29.3v5.4h-29.3V3077z M1756.9,2936.6
			h-29.2v-5.4h29.2V2936.6z M1705.1,2931.1v5.4h-20.9v-5.4H1705.1z M1690.5,2921.6v-5.4h3v5.4H1690.5z M1699.1,2921.6v-5.4h22.6v5.4
			H1699.1z M1683.8,2905v-6.4h46.5v6.4H1683.8z M1690.6,2892.8v-7h5.9v7H1690.6z M1700.5,2892.8v-7h3.6v7H1700.5z M1709.1,2892.8v-7
			h3.6v7H1709.1z M1717,2892.8v-7h8.2v7H1717z M1735.9,2901.8v-6.4h2.6v6.4H1735.9z M1746.6,2901.8h-2.6v-6.4h2.6V2901.8z
			 M1727.2,2892.8v-7h29v7H1727.2z M1677,2931.1v5.4h-4.5c-0.1-1.8-0.1-3.6-0.2-5.4H1677z M1756.9,2941.3v5.4h-84.1
			c-0.1-1.8-0.1-3.6-0.2-5.4H1756.9z M1686.7,2953.1v5.4h-12.8v-5.4H1686.7z M1698.3,2986.5v5.4h-24c-0.1-1.8-0.1-3.6-0.2-5.4
			H1698.3z M1687,3008.3v5.4h-12c-0.1-1.8-0.1-3.6-0.2-5.4H1687z M1692.8,3020v5.4h-17.4c-0.1-1.8-0.1-3.6-0.2-5.4H1692.8z
			 M1689.6,3030.1v7.3h-13.8c-0.1-2.4-0.2-4.8-0.2-7.3H1689.6z M1706.1,3053.6v5.4h-29.6c-0.1-1.8-0.1-3.6-0.2-5.4H1706.1z
			 M1704.6,3077v5.4h-9.4v-5.4H1704.6z M1687,3077v5.4h-1.9v-5.4H1687z M1756.9,3086.4v7.3h-79.3c-0.1-2.2-0.2-4.7-0.3-7.3H1756.9z
			 M1756.7,2520.1v6.2h-15.3v-6.2H1756.7z M1735.9,2656.8v-7.7h3v7.7H1735.9z M1738.9,2660.6v7.8h-3v-7.8H1738.9z M1738.8,2623.4
			h-2.8v-7.4h2.8V2623.4z M1727.8,2613.5v-6h28.6v6H1727.8z M1744.4,2623.4v-7.4h2.8v7.4H1744.4z M1747.1,2639.3v6h-2.7v-6H1747.1z
			 M1744.3,2649.3h8.6v7.7h-8.6V2649.3z M1750.9,2645.2v-6h5.8v6H1750.9z M1724.5,2537.7v-7.4h19.2v7.4H1724.5z M1727.1,2542v6h-2.1
			v-6H1727.1z M1705.8,2505.5h34.3v5.3h-34.3V2505.5z M1732,2520.1h3.1v6.2h-3.1V2520.1z M1732.3,2542h24.4v6h-24.4V2542z
			 M1749.1,2537.7v-7.4h3.1v7.4H1749.1z M1727.2,2471.9h29.3v5.8h-29.3V2471.9z M1698,2526.2h-4.3v-6.2h4.3V2526.2z M1698,2511.2
			h-24.7v-6.1h24.7V2511.2z M1698,2477.7h-4.4v-5.8h4.4V2477.7z M1709.5,2526.2h-4.3v-6.2h4.3V2526.2z M1714.9,2526.2v-6.2h11.9v6.2
			H1714.9z M1694,2560.4h4v6h-4V2560.4z M1673.7,2566.3v-6h13v6H1673.7z M1686.8,2578.4h-3.1v-7.8h3.1V2578.4z M1705.1,2578.4h-11.3
			v-7.8h11.3V2578.4z M1705.7,2560.4h34.5v6h-34.5V2560.4z M1726.5,2578.4v-7.8h30v7.8H1726.5z M1756.6,2616v7.4h-5.7v-7.4H1756.6z
			 M1705.7,2592.2h50.8v7.8h-50.8V2592.2z M1725.2,2607.6v6h-7.9v-6H1725.2z M1712.4,2607.6v6h-3.5v-6H1712.4z M1700.1,2607.6h5v6
			h-5V2607.6z M1690.7,2607.6h5.8v6h-5.8V2607.6z M1684.4,2626.4v-6h45.4v6H1684.4z M1719.4,2645.2v-6h19.1v6H1719.4z
			 M1707.3,2678.7v-6h49.5v6H1707.3z M1697.4,2702.1h-4v-7.9h4V2702.1z M1714.3,2702.1v-7.9h42.5v7.9H1714.3z M1757,2895.4v6.4h-6
			v-6.4H1757z M1756.7,2716.1v7.9h-92.4l-0.4-7.9H1756.7z M3162.1,3020v5.4h-45.2v-5.4H3162.1z M3121.4,3013.7v-5.4h3.9v5.4H3121.4z
			 M3129.5,3013.7v-5.4h8.8v5.4H3129.5z M3162.1,3001.9h-11.2v-5.4h11.2V3001.9z M3162.1,3008.3v5.4H3142v-5.4H3162.1z
			 M3162.1,2803.1h-1.9v-7.9h1.9V2803.1z M3147.1,2656.8v-7.7h3v7.7H3147.1z M3150.1,2660.6v7.8h-3v-7.8H3150.1z M3150,2623.4h-2.8
			v-7.4h2.8V2623.4z M3138.9,2613.5v-6h23.1v6H3138.9z M3135.7,2537.7v-7.4h19.2v7.4H3135.7z M3138.2,2542v6h-2.1v-6H3138.2z
			 M3143.2,2526.2v-6.2h3.1v6.2H3143.2z M3162.1,2537.7h-1.8v-7.4h1.8V2537.7z M3162.1,2526.2h-9.5v-6.2h9.5V2526.2z M3143.5,2542
			h18.6v6h-18.6V2542z M3155.6,2623.4v-7.4h2.8v7.4H3155.6z M3158.2,2639.3v6h-2.7v-6H3158.2z M3155.5,2649.3h6.6v7.7h-6.6V2649.3z
			 M3270.1,2478.2h-13.3v-6.1h7.3C3266.2,2474.1,3268.2,2476.2,3270.1,2478.2z M3256.4,2465.2v1.7h-5.8v-6.1h0.3
			C3252.8,2462.3,3254.6,2463.7,3256.4,2465.2z M3302.5,2992.8h-35.6v-5.4h38.1C3304.2,2989.2,3303.3,2991,3302.5,2992.8z
			 M3287.2,3020.8c-1.2,1.8-2.3,3.6-3.5,5.4h-33.2v-5.4H3287.2z M3267.2,3030.8v5.4H3251v-5.4H3267.2z M3251,3042.6h20.5
			c-1.5,1.8-3.1,3.7-4.7,5.4H3251V3042.6z M3307.8,2981H3250v-5.4h60C3309.3,2977.4,3308.5,2979.2,3307.8,2981z M3323.2,2932.9v4.3
			c-0.2,0.7-0.4,1.4-0.6,2.1h-45.9v-6.4H3323.2z M3281.8,2927.1v-7h8.2v7H3281.8z M3294.3,2927.1v-7h3.6v7H3294.3z M3302.9,2927.1
			v-7h3.6v7H3302.9z M3310.5,2927.1v-7h5.9v7H3310.5z M3301.9,2965.4h12c-0.7,1.8-1.4,3.6-2.1,5.4h-10V2965.4z M3285.3,2955.9v-5.4
			h22.6v5.4H3285.3z M3316.5,2955.9h-3v-5.4h3V2955.9z M3279.8,2927.1h-29v-7h29V2927.1z M3271.1,2929.7v6.4h-2.6v-6.4H3271.1z
			 M3260.4,2929.7h2.6v6.4h-2.6V2929.7z M3279.2,2965.4v5.4H3250v-5.4H3279.2z M3331.4,2904.2h-80.8v-5.9h82
			C3332.3,2900.3,3331.9,2902.2,3331.4,2904.2z M3288.4,2803.6v-7.9h12.8v7.9H3288.4z M3301.1,2817.5v7.9h-4.4v-7.9H3301.1z
			 M3263.8,2837.4v-7.9h18.7v7.9H3263.8z M3282.5,2841.5v5.6h-1.9v-5.6H3282.5z M3274.5,2841.5v5.6h-23.8v-5.6H3274.5z
			 M3254.8,2837.4v-7.9h3.2v7.9H3254.8z M3271.5,2825.4v-7.9h3.2v7.9H3271.5z M3279.8,2825.4v-7.9h11.6v7.9H3279.8z M3295.9,2770.4
			h-35.5v-7.9h35.5V2770.4z M3265.7,2817.5v7.9h-15.4v-7.9H3265.7z M3250.7,2874.8h72.7v5.7h-72.7V2874.8z M3337.5,2870.7h-86.8
			v-8.2h88C3338.3,2865.2,3337.9,2868,3337.5,2870.7z M3340.5,2847.1h-52.1v-5.6h52.7C3340.9,2843.3,3340.7,2845.2,3340.5,2847.1z
			 M3341.4,2837.4h-53v-7.9h53.6C3341.8,2832.2,3341.6,2834.8,3341.4,2837.4z M3308.2,2825.4v-7.9h4.4v7.9H3308.2z M3342.3,2825.4
			h-8.7v-7.9h9.1C3342.6,2820.1,3342.5,2822.8,3342.3,2825.4z M3343.2,2803.6h-34.1v-7.9h34.1
			C3343.3,2798.3,3343.3,2800.9,3343.2,2803.6z M3309.1,2770.4v-7.9h3.9v7.9H3309.1z M3320.2,2770.4v-7.9h12.8v7.9H3320.2z
			 M3342.8,2770.4h-1.7v-7.9h1.4C3342.6,2765.2,3342.7,2767.8,3342.8,2770.4z M3342.2,2758.3h-92v-7.9h91.5
			C3341.9,2753.1,3342.1,2755.7,3342.2,2758.3z M3341.5,2746.9h-91.3v-6h90.9C3341.2,2743,3341.4,2745,3341.5,2746.9z
			 M3250.2,2736.4v-7.9h42.5v7.9H3250.2z M3309.6,2736.4v-7.9h4v7.9H3309.6z M3340.8,2736.4h-20.6v-7.9h19.9
			C3340.3,2731.2,3340.5,2733.8,3340.8,2736.4z M3339.8,2724.6h-89.5v-7.9h88.8C3339.3,2719.4,3339.5,2722,3339.8,2724.6z
			 M3282.5,2564.6v7.4h-19.2v-7.4H3282.5z M3271.9,2560.5v-6.2h3.1v6.2H3271.9z M3315.4,2564.6c0.5,2.2,1,4.7,1.5,7.4h-28.6v-7.4
			H3315.4z M3297.4,2560.5v-6.2h4.3v6.2H3297.4z M3308.9,2560.5v-6.2h4.3v6.2H3308.9z M3292.1,2560.5h-11.9v-6.2h11.9V2560.5z
			 M3266.8,2600.6v-6h34.5v6H3266.8z M3280.4,2605v7.8h-30v-7.8H3280.4z M3279.9,2582.2v-6h2.1v6H3279.9z M3265.5,2560.5h-15.3v-6.2
			h15.3V2560.5z M3257.9,2564.6v7.4h-3.1v-7.4H3257.9z M3274.6,2576.3v6h-24.4v-6H3274.6z M3322.6,2654.7v6h-45.4v-6H3322.6z
			 M3301.9,2647.8v-6h5v6H3301.9z M3310.4,2647.8v-6h5.8v6H3310.4z M3259.8,2657.7v-7.4h2.8v7.4H3259.8z M3262.6,2673.6v6h-2.7v-6
			H3262.6z M3262.7,2683.6v7.7h-8.6v-7.7H3262.7z M3250.7,2647.8v-6h28.6v6H3250.7z M3271,2650.3v7.4h-2.8v-7.4H3271z
			 M3268.1,2694.9h3v7.8h-3V2694.9z M3268.1,2691.1v-7.7h3v7.7H3268.1z M3268.4,2679.5v-6h19.1v6H3268.4z M3281.8,2647.8v-6h7.9v6
			H3281.8z M3294.6,2647.8v-6h3.5v6H3294.6z M3301.3,2634.2h-50.8v-7.8h50.8V2634.2z M3256.1,2650.3v7.4h-5.7v-7.4H3256.1z
			 M3256.1,2673.6v6h-5.8v-6H3256.1z M3299.7,2707.1v6h-49.5v-6H3299.7z M3337.6,2702.8h-60.3v-7.9h59.4
			C3337,2697.5,3337.3,2700.2,3337.6,2702.8z M3336.3,2691.4h-59v-8h58C3335.6,2686.1,3335.9,2688.8,3336.3,2691.4z M3334.8,2679.5
			h-41.2v-6h40.4C3334.3,2675.5,3334.5,2677.5,3334.8,2679.5z M3328.2,2634.2h-19.3v-7.8h18
			C3327.4,2629,3327.8,2631.6,3328.2,2634.2z M3326.3,2622.6h-75.8v-6.4h74.8C3325.6,2618.3,3325.9,2620.5,3326.3,2622.6z
			 M3313.2,2605v7.8h-11.3v-7.8H3313.2z M3308.9,2600.6v-6h4v6H3308.9z M3322.4,2600.6h-2.1v-6h1
			C3321.7,2596.6,3322.1,2598.6,3322.4,2600.6z M3320.2,2605h3c0,0.1,0,0.3,0.1,0.4v7.4h-3.1V2605z M3318.9,2582.2h-30.6v-6h29.4
			C3318.1,2578.1,3318.5,2580.1,3318.9,2582.2z M3308.9,2545.5v-4.1c0.6,1.5,1.1,2.9,1.6,4.1H3308.9z M3301.2,2545.1h-34.3v-5.3
			h34.3V2545.1z M3279.8,2512h-29.3v-5.8h29.3V2512z M3250,2929.7h6v6.4h-6V2929.7z M3251,3059.7v-5.4h9.8c-1.9,1.9-3.8,3.7-5.8,5.4
			H3251z M3287.3,2500h-36.8v-6.1h32.6C3284.5,2496,3285.9,2498,3287.3,2500z M3275.9,2460.9v0.1c0,0-0.1-0.1-0.1-0.1H3275.9z
			 M3246.3,2457.7l0,609.2c-18,13.5-38.8,22.1-62.9,23.5v-651.6C3208.4,2438.5,3229.2,2446.2,3246.3,2457.7z M3155.5,2426.6h2.6v6.1
			h-2.6V2426.6z M3148.8,2426.6h2.6v6.1h-2.6V2426.6z M3136.2,2443.9h-14.9v-6.1h14.9V2443.9z M3136.2,2432.6h-14.7v-6.1h14.7
			V2432.6z M3142.3,2426.6h2.6v6.1h-2.6V2426.6z M3161.3,2443.9h-18.5v-6.1h18.5V2443.9z M3161.8,2432.6v-6.1h0.3v6.1H3161.8z
			 M3138.4,2471.9h23.7v5.8h-23.7V2471.9z M3117,2505.5h34.3v5.3H3117V2505.5z M3109.2,2526.2h-4.3v-6.2h4.3V2526.2z M3109.2,2511.2
			h-24.7v-6.1h24.7V2511.2z M3109.2,2477.7h-4.4v-5.8h4.4V2477.7z M3120.7,2526.2h-4.3v-6.2h4.3V2526.2z M3126,2526.2v-6.2h11.9v6.2
			H3126z M3105.2,2560.4h4v6h-4V2560.4z M3084.9,2566.3v-6h13v6H3084.9z M3098,2578.4h-3.1v-7.8h3.1V2578.4z M3116.2,2578.4H3105
			v-7.8h11.3V2578.4z M3116.8,2560.4h34.5v6h-34.5V2560.4z M3137.7,2578.4v-7.8h24.4v7.8H3137.7z M3116.8,2592.2h45.2v7.8h-45.2
			V2592.2z M3136.3,2607.6v6h-7.9v-6H3136.3z M3123.6,2607.6v6h-3.5v-6H3123.6z M3111.2,2607.6h5v6h-5V2607.6z M3101.9,2607.6h5.8v6
			h-5.8V2607.6z M3095.6,2626.4v-6h45.4v6H3095.6z M3130.6,2645.2v-6h19.1v6H3130.6z M3118.4,2678.7v-6h43.6v6H3118.4z
			 M3108.6,2702.1h-4v-7.9h4V2702.1z M3125.4,2702.1v-7.9h36.6v7.9H3125.4z M3162.1,2791.1h-9.6v-7.9h9.6V2791.1z M3154.4,2795.3
			v7.9h-18.7v-7.9H3154.4z M3143.4,2791.1v-7.9h3.2v7.9H3143.4z M3122.3,2728.3h35.5v7.9h-35.5V2728.3z M3098,2736.1h-12.8v-7.9
			h12.8V2736.1z M3105.1,2736.1v-7.9h3.9v7.9H3105.1z M3110,2791.1h-4.4v-7.9h4.4V2791.1z M3117,2761.4h12.8v7.9H3117V2761.4z
			 M3121.5,2791.1h-4.4v-7.9h4.4V2791.1z M3126.7,2791.1v-7.9h11.6v7.9H3126.7z M3137.6,2812.8h-1.9v-5.6h1.9V2812.8z
			 M3143.7,2812.8v-5.6h18.4v5.6H3143.7z M3094.8,2846.3v-5.7h67.3v5.7H3094.8z M3138.4,2885.8h23.7v7h-23.7V2885.8z M3157.7,2895.4
			v6.4h-2.6v-6.4H3157.7z M3149.7,2895.4v6.4h-2.6v-6.4H3149.7z M3128.2,2885.8h8.2v7h-8.2V2885.8z M3120.3,2885.8h3.6v7h-3.6
			V2885.8z M3111.6,2885.8h3.6v7h-3.6V2885.8z M3101.8,2885.8h5.9v7h-5.9V2885.8z M3095,2898.6h46.5v6.4H3095V2898.6z
			 M3104.7,2916.1v5.4h-3v-5.4H3104.7z M3116.3,2936.6h-20.9v-5.4h20.9V2936.6z M3132.9,2921.6h-22.6v-5.4h22.6V2921.6z
			 M3138.9,2936.6v-5.4h23.2v5.4H3138.9z M3162.1,2991.9h-44.5v-5.4h44.5V2991.9z M3097.8,2958.5H3085v-5.4h12.8V2958.5z
			 M3105.7,2958.5v-5.4h45.6v5.4H3105.7z M3106,3008.3h11.6v5.4H3106V3008.3z M3112.8,3020v5.4h-3v-5.4H3112.8z M3104.9,3037.4v-7.3
			h20.8v7.3H3104.9z M3127.2,3059h-1.9v-5.4h1.9V3059z M3134.8,3053.6h27.3v5.4h-27.3V3053.6z M3138.8,3082.4v-5.4h23.3v5.4H3138.8z
			"/>
	</g>
	<g>
		<path fill="#FFFFFF" d="M1151.2,3394.8l34.5-23.5c20.8-14.2,35-24.6,42.6-31.2c7.6-6.7,13.2-15,16.7-25.1
			c3.5-10.1,4.1-20.6,1.7-31.6c-2.3-11-7.2-21.9-14.5-32.7c-7.8-11.4-16.4-20.1-26-26.1c-9.6-6-19.6-9.2-30-9.4
			c-10.4-0.3-20.2,2-29.2,6.8c-9.1,4.8-23.8,14.1-44,27.9l-34.5,23.5c-20.8,14.2-35,24.6-42.6,31.2c-7.6,6.7-13.2,15-16.7,25.1
			c-3.5,10.1-4.1,20.6-1.7,31.6c2.3,11,7.2,21.9,14.5,32.7c7.8,11.4,16.4,20.1,26,26.1c9.6,6,19.6,9.1,30,9.4
			c10.4,0.3,20.2-2,29.2-6.8C1116.2,3417.9,1130.9,3408.6,1151.2,3394.8z M1065.4,3374.2c-3.8,1.2-7-0.1-9.4-3.6
			c-2.4-3.5-2.5-6.7-0.4-9.5c2.1-2.8,9-8.2,20.7-16.2l94.2-64.2c10.4-7.1,17.1-10.6,20.2-10.6c3.1,0,5.6,1.4,7.5,4.1
			c2.2,3.2,2.4,6.3,0.4,9.1c-1.9,2.8-7.6,7.4-17,13.8l-92.8,63.2C1077.1,3368.4,1069.3,3373.1,1065.4,3374.2z"/>
	</g>
	<g>
		<polygon fill="#FFFFFF" points="1334.7,3392.5 1250.6,3463.4 1311.7,3365.3 1277.5,3324.7 1090.7,3482.2 1125,3522.8 
			1209.9,3451.2 1146.3,3548 1182.2,3590.6 1368.9,3433.1 		"/>
	</g>
	<g>
		
			<rect x="1279.3" y="3569.5" transform="matrix(0.725 0.6887 -0.6887 0.725 2835.592 78.5801)" fill="#FFFFFF" width="80.1" height="42.1"/>
	</g>
	<g>
		<path fill="#FFFFFF" d="M1537,3699c14.6-18,23.8-30.4,27.7-37.5c3.9-7,5.7-14.8,5.4-23.3c-0.3-8.5-3.8-17.3-10.4-26.3
			c-6.6-9-21.8-23.2-45.7-42.5l-36.9-30l-154,189.6l62.2,50.5c11.8,9.6,21.1,16.1,28,19.6s13.7,5.2,20.3,5.2c6.6,0,13-2.2,19.3-6.7
			c6.3-4.4,16.3-15.2,30.1-32.2L1537,3699z M1436.7,3721.7c-10.3,12.6-17.4,19.7-21.3,21.3c-4,1.5-9.5-0.6-16.6-6.4l101.3-124.7
			c5.4,4.4,8.6,7.9,9.6,10.6c1,2.7,0.8,5.5-0.6,8.4c-1.4,2.9-5.6,8.6-12.6,17.2L1436.7,3721.7z"/>
	</g>
	<g>
		<polygon fill="#FFFFFF" points="1577.1,3792.9 1610.1,3815 1636,3776.4 1603.1,3754.3 1628.9,3715.9 1664.1,3739.5 1691.4,3699 
			1603.5,3639.8 1467.2,3842.5 1558.6,3904 1585.8,3863.4 1547.2,3837.4 		"/>
	</g>
	<g>
		<path fill="#FFFFFF" d="M1800.4,3759.8l-66.2,94.1l21-59.2c7-18.8,12.9-35.3,17.6-49.4l-72.7-38.4l-114,216l49.1,25.9l75.3-142.5
			l-54.6,153.4l34.8,18.4l96.5-135.5l-76.9,145.9l49.1,25.9l114-216L1800.4,3759.8z"/>
	</g>
	<g>
		<path fill="#FFFFFF" d="M1903.5,3808.9l-118.6,216l61.2,23.8l19.4-39.5l21.2,8.2l-12.7,42.2l60.5,23.5l54.5-240.9L1903.5,3808.9z
			 M1900.8,3976.4l-20.4-7.9c9.4-19.6,25.5-50,48.5-91.2C1917.2,3916.4,1907.8,3949.4,1900.8,3976.4z"/>
	</g>
	<g>
		<polygon fill="#FFFFFF" points="2109.1,3878.8 2079.6,3984.8 2074.8,3869.3 2023.7,3855.1 1958.2,4090.4 2009.3,4104.6 
			2039.1,3997.6 2041.1,4113.5 2094.8,4128.4 2160.3,3893.1 		"/>
	</g>
	<g>
		<path fill="#FFFFFF" d="M2282.4,3919.1c-10.2-4.6-30.4-9.5-60.6-14.6l-46.8-8l-41.1,240.8l79,13.5c15,2.6,26.3,3.6,34,3.3
			c7.7-0.4,14.5-2.2,20.2-5.4c5.8-3.3,10.3-8.3,13.6-15.3c3.3-6.9,6.8-21.2,10.4-42.8l14.4-84.3c3.9-22.8,5.8-38.2,5.7-46.2
			c-0.1-8-2.3-15.7-6.8-23C2299.9,3929.6,2292.6,3923.7,2282.4,3919.1z M2245.2,3981.6l-16,93.6c-2.7,16.1-5.5,25.7-8.2,29
			c-2.7,3.3-8.6,4.1-17.6,2.6l27-158.4c6.8,1.2,11.4,2.7,13.6,4.5c2.2,1.9,3.4,4.4,3.6,7.6C2247.9,3963.6,2247,3970.7,2245.2,3981.6
			z"/>
	</g>
	<g>
		<path fill="#FFFFFF" d="M2478.9,4044.6l-7.9-62.3c-2.2-20-4.4-37.3-6.6-52.1l-82.2-1.5l-4.4,244.2l55.5,1l3-161.1l20.4,161.5
			l39.4,0.7l25-164.5l-2.9,164.9l55.5,1l4.4-244.2l-82.6-1.5L2478.9,4044.6z"/>
	</g>
	<g>
		<path fill="#FFFFFF" d="M2746.1,4016.6c-2.5-25-4.8-42.5-7-52.4c-2.2-9.9-6.9-18.8-14-26.7c-7.2-7.9-16.1-13.4-26.9-16.6
			c-10.8-3.2-22.7-4.2-35.7-2.9c-13.7,1.4-25.5,4.8-35.4,10.4c-9.9,5.5-17.4,12.8-22.6,21.8c-5.2,9-7.9,18.7-8,28.9
			c-0.1,10.3,1,27.6,3.4,52l4.1,41.6c2.5,25,4.8,42.5,7,52.4c2.2,9.9,6.9,18.8,14,26.7c7.2,7.9,16.1,13.4,26.9,16.6
			c10.8,3.2,22.7,4.2,35.7,2.9c13.7-1.4,25.5-4.8,35.4-10.4c9.9-5.5,17.4-12.8,22.6-21.8c5.2-9,7.9-18.7,8-28.9
			c0.1-10.3-1-27.6-3.4-52L2746.1,4016.6z M2691.1,4123.6c-0.8,3.9-3.4,6.1-7.7,6.5c-4.2,0.4-7-1-8.5-4.2c-1.5-3.2-2.9-11.8-4.3-26
			l-11.3-113.5c-1.2-12.5-1.1-20.1,0.4-22.9c1.5-2.7,3.9-4.3,7.2-4.6c3.9-0.4,6.6,0.9,8.2,4c1.6,3,2.9,10.2,4,21.5l11.1,111.7
			C2691.6,4110.6,2691.9,4119.7,2691.1,4123.6z"/>
	</g>
	<g>
		<path fill="#FFFFFF" d="M2831.7,3897l4.7,45.4c3.6,36.5,8.4,78.2,14.5,125c-12.5-45-29.2-99.7-50.1-164.1l-65.7,13.2l84.2,232.2
			l94.6-19.1l-16.6-245.8L2831.7,3897z"/>
	</g>
	<g>
		
			<rect x="2841.3" y="3958.4" transform="matrix(-0.2711 -0.9625 0.9625 -0.2711 -73.8445 7924.3213)" fill="#FFFFFF" width="244.3" height="63.5"/>
	</g>
	<g>
		<polygon fill="#FFFFFF" points="3061.3,3829.4 3099.2,3932.6 3027.9,3841.7 2978,3860 3062.3,4089.3 3112.1,4071 3073.8,3966.7 
			3143.1,4059.6 3195.4,4040.4 3111.1,3811.1 		"/>
	</g>
	<g>
		<path fill="#FFFFFF" d="M3238.7,3875.6l16.3,33.3l11.5-5.6l12.7,26c5,10.2,7.6,17.4,7.8,21.7c0.2,4.3-1.7,7.4-5.9,9.4
			c-3.8,1.9-7.1,1.5-9.9-1c-2.8-2.5-6.6-8.7-11.4-18.5l-51.5-105.3c-5.5-11.2-8.3-18.5-8.3-21.8c-0.1-3.3,1.7-5.9,5.2-7.6
			c4.1-2,7.4-1.7,10,1c2.6,2.6,7,10.2,13.2,22.8l9.7,19.9l57.1-27.9l-4.6-9.5c-8.8-18-17.2-30.9-25.1-38.7
			c-8-7.8-19.1-12.4-33.5-13.9c-14.4-1.5-29.9,1.9-46.6,10c-17,8.3-28.9,19-35.7,32.2c-6.8,13.1-9.1,25-6.7,35.6
			c2.4,10.6,8.7,26.4,18.9,47.3l31.9,65.2c7.4,15.1,13.5,26.1,18.2,33.2c4.8,7,11,12.9,18.7,17.6c7.7,4.7,16.9,7.4,27.5,8
			c10.6,0.6,20.8-1.5,30.3-6.2c8-3.9,14.2-9,18.5-15.3c4.3-6.3,6.7-13.8,7.3-22.4l13,13.1l35.9-17.5l-57.6-117.8L3238.7,3875.6z"/>
	</g>
	<g>
		<polygon fill="#FFFFFF" points="3472.7,3836.3 3366.3,3672.4 3313,3707 3446,3911.9 3531.7,3856.3 3505.1,3815.3 		"/>
	</g>
	<g>
		<path fill="#FFFFFF" d="M3424.5,3632.5l125.1,212.3l51.7-40.5l-24.1-36.9l17.9-14l29.7,32.5l51.1-40l-179.2-170L3424.5,3632.5z
			 M3549.9,3733.8c-12-18-29.9-47.5-53.6-88.3c27.7,30.1,51.3,55,70.9,74.8L3549.9,3733.8z"/>
	</g>
	<g>
		<path fill="#FFFFFF" d="M3761.6,3585.6l-15.7-16.4c-11-11.5-21-18.2-30.1-20.2c-9.1-1.9-20.1,1-33,8.7
			c7.4-11.3,10.8-20.5,10.2-27.7c-0.7-7.2-5.9-15.9-15.8-26.2c-14.6-15.3-27.5-24.1-38.6-26.6c-11.1-2.5-21.5-1.3-31.1,3.6
			c-9.6,4.9-21.6,14.2-36.1,28.1l-45.8,43.8l168.9,176.5l53.1-50.8c18.5-17.7,29.7-30.4,33.6-38.2c3.9-7.8,4.5-15.9,1.8-24.2
			C3780.2,3607.7,3773.1,3597.6,3761.6,3585.6z M3642.4,3573.9c-1.1,1-2.6,2.5-4.5,4.5l-37.5-39.2c4.8-4.4,8.3-7.2,10.5-8.1
			c2.2-1,4.9-0.9,8,0.4c3.1,1.2,7.4,4.6,12.6,10.2c10,10.5,15.5,17.4,16.3,20.8C3648.7,3565.7,3646.9,3569.5,3642.4,3573.9z
			 M3711.5,3655.2l-47.3-49.4c7-6.3,12.1-9.4,15.3-9.4c3.1,0.1,8.3,3.9,15.5,11.4l15.7,16.5c6.8,7.1,10.2,12.4,10.2,16
			C3720.9,3643.8,3717.7,3648.8,3711.5,3655.2z"/>
	</g>
	<g>
		<path fill="#FFFFFF" d="M3882.6,3458.5c-7-7.5-19.9-19.2-38.6-35.1l-31.8-27.1c-19.2-16.3-33-27.2-41.4-32.8
			c-8.4-5.6-18-8.8-28.6-9.5c-10.6-0.7-20.9,1.5-30.9,6.7c-10,5.2-19.2,12.7-27.7,22.7c-8.9,10.5-15,21.2-18.3,32
			c-3.3,10.8-3.7,21.3-1.2,31.4c2.5,10.1,7.3,18.9,14.3,26.4c7,7.5,19.9,19.2,38.6,35.1l31.8,27.1c19.2,16.3,33,27.2,41.4,32.8
			c8.4,5.6,18,8.8,28.6,9.5c10.6,0.7,20.9-1.5,30.9-6.7c10-5.2,19.2-12.7,27.7-22.7c8.9-10.5,15-21.2,18.3-32
			c3.3-10.8,3.7-21.3,1.2-31.4C3894.4,3474.8,3889.7,3466,3882.6,3458.5z M3845.9,3521.6c-2.7,3.2-5.7,4.2-9,2.9
			c-3.3-1.3-10.3-6.5-21.1-15.7l-86.9-73.9c-9.6-8.1-14.8-13.7-15.6-16.7c-0.8-3-0.1-5.8,2-8.3c2.5-3,5.4-3.9,8.7-2.8
			c3.2,1.1,9.2,5.3,17.8,12.7l85.5,72.7c11,9.3,17.5,15.7,19.6,19.1C3849,3515,3848.7,3518.3,3845.9,3521.6z"/>
	</g>
	<g>
		<path fill="#FFFFFF" d="M3941.1,3286.9c-4.2-1.6-9.7-2.1-16.4-1.6c-6.8,0.6-15,5.1-24.7,13.7c6.8-12.2,8.9-22,6.2-29.6
			c-2.7-7.6-11.8-16.8-27.5-27.7c-17.1-11.9-31.5-17.7-43.1-17.7c-11.6,0.1-21.4,3.8-29.4,11.2c-7.9,7.4-20.5,23.4-37.5,48.1
			l-25.6,37l200.8,139.1l36.2-52.2l-90.5-62.7c5-7.2,9.3-10.7,13.1-10.7c3.7,0.1,11,3.8,21.7,11.3l66.7,46.2l33.6-48.5l-53-36.7
			C3955.5,3295,3945.3,3288.6,3941.1,3286.9z M3858.3,3322.9l-44.6-30.9c4.2-6,8.1-9.5,11.6-10.4c3.6-0.9,8.5,0.9,14.9,5.3l11,7.6
			c8.8,6.1,13.3,10.9,13.2,14.4C3864.4,3312.4,3862.3,3317,3858.3,3322.9z"/>
	</g>
	<g>
		<polygon fill="#FFFFFF" points="1227,1646 1102.1,1574.5 1248.3,1608.9 1284.1,1546.3 1009.4,1388.9 975.2,1448.7 1098.9,1519.5 
			952.3,1488.7 918.1,1548.5 1192.8,1705.8 		"/>
	</g>
	<g>
		<path fill="#FFFFFF" d="M1163.1,1298c8.8,10,25.1,25.6,48.8,46.8l40.3,36.2c24.3,21.8,41.8,36.4,52.5,44c10.7,7.5,23,12,36.7,13.2
			c13.7,1.3,27.2-1.2,40.3-7.6c13.1-6.3,25.4-15.8,36.7-28.4c11.9-13.3,20.2-26.9,24.8-40.8c4.6-13.9,5.5-27.5,2.6-40.6
			c-2.9-13.2-8.7-24.7-17.6-34.7c-8.8-10-25.1-25.6-48.8-46.8l-40.3-36.2c-24.3-21.8-41.8-36.4-52.5-44c-10.7-7.5-23-12-36.7-13.2
			c-13.7-1.3-27.2,1.2-40.3,7.6c-13.1,6.3-25.4,15.8-36.7,28.4c-11.9,13.3-20.2,26.9-24.8,40.8c-4.6,13.9-5.5,27.5-2.6,40.6
			C1148.4,1276.5,1154.3,1288,1163.1,1298z M1213.1,1217.3c3.4-3.8,7.2-4.9,11.3-3.4c4.1,1.5,11.7,7.2,22.7,17.1l108.3,97.2
			c13.9,12.5,22.1,20.9,24.8,25.4c2.6,4.5,2.1,8.8-1.7,13c-3.7,4.1-7.6,5.2-11.8,3.5c-4.2-1.8-13.1-8.8-26.8-21.1l-110-98.7
			c-12.1-10.9-18.7-18.3-19.6-22.2C1209.2,1224.1,1210.2,1220.5,1213.1,1217.3z"/>
	</g>
	<g>
		<path fill="#FFFFFF" d="M1571.6,1247.7l-125.4-167l149.6,148.8l40.8-30.7l-105.5-188l128.5,170.8l57.5-43.2l-190.2-253l-85.6,64.4
			l73.7,129.5l-57.7-57.3c-18.2-18.6-34.3-34.6-48.3-47.9l-85.1,64l190.2,253L1571.6,1247.7z"/>
	</g>
	<g>
		<path fill="#FFFFFF" d="M1827,1076.9l-22-52.7l26.1-13.7l30.3,48.3l74.5-39.1l-188.7-258.5l-105.4,55.2l109.8,299.9L1827,1076.9z
			 M1803,961.8l-25.1,13.2c-11.1-25.8-27-67.5-47.7-125.1C1758.4,894.7,1782.7,932,1803,961.8z"/>
	</g>
	<g>
		<path fill="#FFFFFF" d="M2133,960.9c18.8-5.2,32.6-10.1,41.4-14.8c8.8-4.7,15.7-10.5,20.6-17.5c4.9-7,7.4-15.4,7.5-25.4
			c0-9.9-3.7-28.6-11.1-56l-29.1-106.9c-7.9-28.9-14-48.1-18.4-57.4c-4.4-9.4-11.2-17.1-20.4-23.3c-9.2-6.1-20.9-9.1-35.3-8.9
			c-14.4,0.2-40.6,5.5-78.6,16l-58.9,16.3l83.1,305.3L2133,960.9z M2061.9,711.4c3.6,1,6.4,3.3,8.3,6.9c1.9,3.7,4.8,12.4,8.5,26.2
			l32.3,118.6c5.5,20.4,7.6,33.2,6.3,38.5c-1.4,5.3-7.7,9.5-19.1,12.7l-54.6-200.8C2052.2,711.1,2058.3,710.4,2061.9,711.4z"/>
	</g>
	<g>
		<path fill="#FFFFFF" d="M2632.5,699.9l7.1,210.9l50.7,5.6l52-209.3l-23.4,212.4l71.5,7.9l34.8-314.6l-106.5-11.8l-35.1,144.8
			l-2.8-81.3c-0.5-26-1.3-48.7-2.3-68l-105.9-11.7l-34.8,314.6l71.5,7.9L2632.5,699.9z"/>
	</g>
	<g>
		<path fill="#FFFFFF" d="M2892.4,953.7c11,9.5,24.6,17,40.7,22.3c16.9,5.6,32.7,7.8,47.3,6.5c14.6-1.3,27.4-5.9,38.3-13.8
			c10.9-7.9,19.2-17.9,24.8-30c5.6-12.1,13.4-33.2,23.5-63.4l17.1-51.4c10.3-30.9,16.8-52.8,19.4-65.7c2.6-12.9,1.8-25.8-2.5-39
			c-4.3-13.1-12-24.4-23-33.9c-11-9.5-24.6-17-40.7-22.3c-16.9-5.6-32.7-7.8-47.3-6.5c-14.6,1.3-27.4,5.9-38.3,13.8
			c-10.9,7.9-19.2,17.9-24.8,30c-5.6,12.1-13.4,33.2-23.5,63.4l-17.1,51.4c-10.3,30.9-16.8,52.8-19.4,65.7
			c-2.6,12.9-1.8,25.8,2.5,39C2873.6,932.8,2881.3,944.1,2892.4,953.7z M2950.5,882.7l46.7-140.2c5.1-15.5,9.3-24.4,12.5-26.8
			c3.2-2.4,6.9-3,10.9-1.6c4.8,1.6,7.4,4.6,7.6,9c0.2,4.4-2,13.6-6.6,27.6l-46,138c-5.9,17.7-10.4,28.6-13.4,32.8
			c-3.1,4.2-7.2,5.4-12.6,3.7c-5.2-1.7-7.8-4.9-7.9-9.4C2941.9,911.1,2944.7,900.1,2950.5,882.7z"/>
	</g>
	<g>
		<path fill="#FFFFFF" d="M3445.9,854.2l-75.2-43.3l-34.3,48.2c-27.7,38.6-58.7,83.3-92.8,134.1c26.4-54.5,56.9-122,91.7-202.6
			l-75.2-43.3l-116.7,298.1l108.4,62.4L3445.9,854.2z"/>
	</g>
	<g>
		<polygon fill="#FFFFFF" points="3500.2,1265.7 3539.1,1215.7 3491.4,1178.6 3534,1123.6 3574.7,1155.2 3611.6,1107.6 3571,1076.1 
			3607.8,1028.6 3651.2,1062.3 3690.1,1012.3 3581.7,928.1 3387.5,1178.1 		"/>
	</g>
	<g>
		<path fill="#FFFFFF" d="M3654.3,1415.1l104.9-96.8c7.7,8.3,11,14.9,9.8,19.6c-1.2,4.7-8,12.8-20.4,24.3l-77.3,71.4l51.9,56.2
			l61.3-56.6c18.8-17.3,29.8-28.4,33-33.3s5.4-11.6,6.6-20.4c1.2-8.7-2.3-20.4-10.4-35.1c13.4,12.1,25.4,17.5,35.7,16.2
			c10.4-1.2,24.6-10.2,42.7-26.9c19.8-18.3,31.3-34.8,34.5-49.6c3.2-14.7,1.2-28.2-5.9-40.3c-7.1-12.1-23.9-32.5-50.2-61l-39.5-42.8
			l-232.6,214.8L3654.3,1415.1z M3847.1,1237.1c6.5,7,9.8,12.9,9.9,17.6c0.1,4.8-3.5,10.5-10.9,17.3l-12.8,11.8
			c-10.2,9.5-17.6,13.7-22,12.7c-4.4-1-9.7-4.9-16-11.7L3847.1,1237.1z"/>
	</g>
	<g>
		<path fill="#FFFFFF" d="M3914.3,1544.2c-2.3,24.4-4.7,40.2-7.3,47.5c-2.7,7.2-12.3,15.1-28.7,23.9c-7.5,4-13.8,5.8-18.8,5.4
			c-5.1-0.3-8.9-2.9-11.4-7.8c-2.6-4.8-2.9-9-0.9-12.5c2-3.5,8.2-8,18.7-13.6l34-18l-35.8-67.5l-18.3,9.7
			c-21,11.1-36,21.8-45.2,32.1c-9.1,10.3-13.8,24.3-13.8,42c-0.1,17.7,5,36.2,15.4,55.7c9.4,17.7,20.8,31.6,34.3,41.6
			c13.5,10,26.2,14.8,38.1,14.4c11.9-0.3,27.8-5.8,47.8-16.4c27.4-14.5,45-29.3,52.9-44.2c7.9-14.9,12.8-43.7,14.9-86.3
			c0.7-14.8,2.8-24.7,6.2-29.6c3.4-5,9.7-10,19.1-15c7.3-3.9,13.3-5.6,18-5.2c4.8,0.4,8.3,2.7,10.6,7.1c2.1,4,2.3,7.6,0.6,10.7
			c-1.7,3.1-7.4,7.3-17.1,12.4l-20.7,11l35.8,67.5l11.1-5.9c22.2-11.8,36.8-22.3,43.8-31.5c7-9.2,10-22.1,9-38.7
			c-1-16.5-6.4-34.3-16.4-53.1c-9.2-17.3-19.8-30.5-31.8-39.8c-12.1-9.2-24.5-14-37.3-14.2c-12.8-0.2-29.9,5.4-51.3,16.7
			c-14.9,7.9-26,16.3-33.6,25.2c-7.5,8.9-12.4,17.8-14.7,26.5C3919,1503.2,3916.7,1519.8,3914.3,1544.2z"/>
	</g>
</g>
</svg>
