<?xml version="1.0" encoding="utf-8"?>
<!-- Generator: Adobe Illustrator 18.0.0, SVG Export Plug-In . SVG Version: 6.00 Build 0)  -->
<!DOCTYPE svg PUBLIC "-//W3C//DTD SVG 1.1//EN" "http://www.w3.org/Graphics/SVG/1.1/DTD/svg11.dtd">
<svg version="1.1" xmlns="http://www.w3.org/2000/svg" xmlns:xlink="http://www.w3.org/1999/xlink" x="0px" y="0px"
	 viewBox="0 0 882 597" enable-background="new 0 0 882 597" xml:space="preserve">
<g id="Layer_1">
</g>
<g id="Layer_2">
	<g>
		<path fill="#FFFFFF" d="M754.2,433v-5.7l-0.7-43.5c0,0-4.3-1.4-11.8-1.4v-6.8H739l-1.1-2.8l-3.3-5.4v-52.4h-19.4l-1.9,57.9
			l-5.5-0.1V216.6h-25.1v125.6l-6.6,1.9V233.3c0-1.7-0.6-3.2-1.8-4.4l-17.5-19.4l-18.4,18.7c-1.4,1.2-2.2,3-2.2,4.9v94.4l-8.9,1.3
			V143.2h-12.1V140h8.8c1.7,0,3-1.3,3-3c0-1.7-1.3-3-3-3h-8.8l-2.5-58.8l-2.8,58.8h-9.8c-1.7,0-3,1.3-3,3c0,1.7,1.3,3,3,3h9.8v3.2
			h-12.5v178l-5.8-4.2l-1.8,1.7c-0.2-0.4-0.3-0.8-0.5-1.2H589c-0.2-0.4-0.3-0.8-0.5-1.2h0.3c-1-2.3-2.1-4.4-3.3-6.2v0.1
			c-0.1-0.1-0.2-0.3-0.2-0.4h0.1c-0.3-0.4-0.5-0.8-0.8-1.2h0c-0.3-0.4-0.5-0.8-0.8-1.2h0c-0.8-1.1-1.5-2.1-2.3-3.1h0
			c-0.3-0.4-0.7-0.8-1-1.2h0.1c-0.3-0.4-0.6-0.7-0.9-1h-0.1c0,0,0,0,0,0V302c-0.6-0.6-1.2-1.2-1.8-1.7h-0.2
			c-8.8-7.5-17.7-7.1-17.7-7.1h-3.8v0.4h-8.4v-7.5h-1.9v7.5h-6.8v0.6h7v1.2h-7v1h7v1.2h-7v3.1h17.1v1.2h-17.1v1.2h4.5v1.1h-4.5v8.3
			h1.8v1.2h-1.8v0.8h10.8v1.5h-10.8v0.8h10.8v1.2h-10.8v4.5h2.4v1.5h-2.4v0.7h17.1v1.3h-17.1v0.8h6.7v1.5h-6.7v7.7h9.7v1.2h-9.7v0.8
			h12.9v1.6h-12.9v0.7h12.9v1.5h-12.9v2.7h17.1v1.5h-17.1v0.8h4.5v1.5h-4.5v0.9h17.1v1.2h-17.1v0.7h17.1v1.5h-17.1v0.8h0.4v1.5h-0.4
			v5h6.7v1.5h-6.7v2.7h1.9v1.5h-1.9v0.8h10.8v1.5h-10.8v0.8h10.8v1.1h-10.8v3h17.1v1.6h-17.1v5.4h17.1v1.2h-17.1v12h2.6v1.1h-2.6
			v0.9h17.1v1.1h-17.1v1.3h0.5v1.1h-0.5v5.5h6.8v1.1h-6.8v3.2h4.6v1.1h-4.6v1.2h5.7v1.1h-5.7v0.9h5.1v1.4h-5.1v3.2h8.3v1.1h-8.3v5.4
			h17.1v1.4h-17.1v0.9h2.7v1.1h-2.7v0.4h-9.5V288.8h-4.2V313h-2.9l-5.3,5.5v1h-1l-1.8,1.8h0.9v1.2H513l-0.8,0.8h1v1.5h-2.4l-0.8,0.8
			h1.7v1.2h-2.8l-2.7,2.8L487.5,349v-21h-4.2v27.6H481l-1.1,1.2h3.4v1.7H479l-1.2,0.7h5.5v1.3h-7l-0.7,0.8h7.7v1.6h-9.2l-0.7,0.7
			h9.9v1.5h-11.4l-0.8,0.8h6v1.2H470l-0.7,0.7h14.1v1.5h-15.5l-0.7,0.8h8.4v1.5h-9.8v-0.2l-0.9,0.9v55.1H456v-2.4H451v-1.4h5.1v-0.9
			h-5.7v-1.1h5.7v-1.2h-4.6v-1.1h4.6V416h-6.8v-1.1h6.8v-5.5h-0.5v-1.1h0.5v-1.3h-18v-1.1h18v-0.9h-2.6v-1.1h2.6v-12h-18v-1.2h18
			v-5.4h-18v-1.6h18v-3h-10.8v-1.1H456V379h-10.8v-1.5H456v-0.8h-1.9v-1.5h1.9v-2.7h-6.7v-1.5h6.7v-5h-0.4v-1.5h0.4v-0.8h-18V362h18
			v-0.7h-18v-1.2h18v-0.9h-4.5v-1.5h4.5v-0.8h-18v-1.5h18v-2.7h-12.9v-1.5H456v-0.7h-12.9v-1.6H456v-0.8h-9.7v-1.2h9.7v-7.7h-6.7
			v-1.5h6.7v-0.8h-18v-1.3h18V335h-2.4v-1.5h2.4V329h-10.8v-1.2H456V327h-10.8v-1.5H456v-0.8h-1.8v-1.2h1.8v-8.3h-4.5v-1.1h4.5v-1.2
			h-18v-1.2h18v-3.1h-7v-1.2h7v-1h-7v-1.2h7v-0.6h-18v-15.2h-4.2v101.3l-10.4,9.7l-11-10.1V289.4h-4.2v15h-18.8v1.8h0.1h1.8v1.2
			h-1.8h-0.1v0.8h0.1h10.8v1.5h-10.8h-0.1v0.8h0.1h10.8v1.2h-10.8h-0.1v4.5h0.1h2.4v1.5h-2.4h-0.1v0.7h0.1h18.2v1.3h-18.2h-0.1v0.8
			h0.1h6.7v1.5h-6.7h-0.1v7.7h0.1h9.7v1.2h-9.7h-0.1v0.8h0.1h12.9v1.6h-12.9h-0.1v0.7h0.1h12.9v1.5h-12.9h-0.1v2.7h0.1h18.2v1.5
			h-18.2h-0.1v0.8h0.1h4.5v1.5h-4.5h-0.1v0.9h0.1h18.2v1.2h-18.2h-0.1v0.7h0.1h18.2v1.5h-18.2h-0.1v0.8h0.1h0.4v1.5h-0.4h-0.1v5h0.1
			h6.7v1.5h-6.7h-0.1v2.7h0.1h1.9v1.5h-1.9h-0.1v0.8h0.1h10.8v1.5h-10.8h-0.1v0.8h0.1h10.8v1.1h-10.8h-0.1v3h0.1h18.1v1.6h-18.1
			h-0.1v5.4h0.1h18.1v1.2h-18.1h-0.1v12h0.1h2.6v1.1h-2.6h-0.1v0.9h0.1h18.3v1.1h-18.3h-0.1v7.8h2.1h6.8v1.1h-6.8h-2.1v8h0.6h18.2
			v1.2h-18.2h-0.6v12.6h0.6h10.8v1.5h-10.8h-0.6v0.8h0.6h10.8v1.2h-10.8h-0.6v3.4h-19.7l4.5-4.7h-4.4v-1.4h4.8v1l1-1v0h0l0.9-0.9
			h-1.7v-1.1h2.7l1.2-1.2h-2.5v-1.1h3.6l1.8-1.8v-1.4h-7.9v-1.1h7.9v-5.5h-0.6v-1.1h0.6v-1.3h-21.4v-1.1h21.4v-0.9h-3.1v-1.1h3.1
			v-12h-21.3v-1.2h21.3v-5.4h-21.3v-1.6h21.3v-3H369v-1.1h12.6v-0.8H369v-1.5h12.6v-0.8h-2.2v-1.5h2.2v-2.7h-7.8v-1.5h7.8v-5h-0.5
			v-1.5h0.5v-0.8h-21.4v-1.5h21.4V359h-21.4v-1.2h21.4V357h-5.3v-1.5h5.3v-0.8h-21.4v-1.5h21.4v-2.7h-15.2v-1.5h15.2v-0.7h-15.2
			v-1.6h15.2v-0.8h-11.4v-1.2h11.4v-7.7h-7.9v-1.5h7.4l-0.7-0.8h-20.1v-1.3h18.8l-2.1-2.1v1.4h-0.7v-1.5h0.6l-4.4-4.5H369v-1.2h2.4
			l-0.8-0.8H369v-0.8h-1.3v0.8h-4.4v-0.8H362v0.8h-0.7v-0.8h-2v103.4h-3.9V323.9h-1.9v0.8h-0.7v-0.8h-1.2v0.8h-4.4v-0.8h-1.3v0.8
			h-1.5l-1,0.8h2.5v1.2h-3.9l-3.4,2.8v0.8h-1l-1.5,1.2v1.2h-1.4l-0.8,0.7h20.6v1.3h-21.2v0.8h7.8v1.5h-7.8v7.7h11.3v1.2h-11.3v0.8
			h15.1v1.6h-15.1v0.7h15.1v1.5h-15.1v2.7h21.2v1.5h-21.2v0.8h5.3v1.5h-5.3v0.9h21.2v1.2h-21.2v0.7h21.2v1.5h-21.2v0.8h0.5v1.5h-0.5
			v5h7.8v1.5h-7.8v2.7h2.2v1.5h-2.2v0.8h12.5v1.5h-12.5v0.8h12.5v1.1h-12.5v3h21.1v1.6h-21.1v5.4h21.1v1.2h-21.1v12h3v1.1h-3v0.9
			h21.2v1.1h-21.2v1.3h0.6v1.1h-0.6v5.5h7.9v1.1h-7.9v1.8c0.4,0.4,0.9,0.9,1.5,1.4h3.8v1.1h-2.7c0.4,0.4,0.8,0.8,1.3,1.2h2.8v1.1
			h-1.7c0.3,0.3,0.6,0.6,1,0.9h0v0c0.3,0.3,0.6,0.6,0.9,0.9v-0.9h4.7v1.4h-4.2c1.5,1.4,2.9,2.8,4.1,3.9v-0.8h0.4v1.1h-0.1
			c0.2,0.2,0.3,0.3,0.5,0.4h-19.5v-93.9h-18.4v-2.7h-3.8V402l-18.8-22v-79h-3.8v-0.2h-0.8v1h-8.7v-11.4h-2.1v11.4h-7.4v1.2h4.5v1.1
			h-4.5v8.3h1.8v1.2h-1.8v0.8h10.8v1.5h-10.8v0.8h10.8v1.2h-10.8v4.5h2.4v1.5h-2.4v0.7h18.2v1.3h-18.2v0.8h6.7v1.5h-6.7v7.7h9.7v1.2
			h-9.7v0.8h12.9v1.6h-12.9v0.7h12.9v1.5h-12.9v2.7h18.2v1.5h-18.2v0.8h4.5v1.5h-4.5v0.9h18.2v1.2h-18.2v0l-0.9-15.9
			c0,0-0.9,24.3-1.9,26.2c-1,2-1,0.8-1,0.8l-0.3-138.3l-2.6-0.8v-22l-3.9-1.1v-8.8l-2.9-1v-2.6l-3.6-1v-4.6c0,0-4.4,2.3-4.8-8.6
			v-22.9l-5.2-5.4v-10.8h-1.3v11.2l-5.5,5v31.2L224,181v4.3l-3.7,0.1v4.7l-3.6,0.8v7.7l-2.3,0.9v22l-2.1,1.9v115.6l-2.2,2.7v9.4
			h-4.7v-65.5l-18-0.2V357l-9.7-11v-55.5h-4.7v-5.7h-14.7v-33.3h-12v69.2l-12.3-0.2v-57.8l-14.7-0.2V351l-3.8-0.2v-5h-6v-12
			l-3.2-0.2v93.7v5.7h491.8H754.2z M543.4,422.7H543v-1.1h0.4V422.7z M546.8,422.7H545v-1.1h1.8V422.7z M451.5,364.3h2.5v1.5h-2.5
			V364.3z M449.4,364.3h0.8v1.5h-0.8V364.3z M397.1,403.5h-7h-0.4v-1.2h0.4h7V403.5z M397.1,401.3h-7h-0.3v-1.2h0.3h7V401.3z
			 M376.3,362.1h2.9v1.5h-2.9V362.1z M373.7,362.1h0.9v1.5h-0.9V362.1z M368.8,345.8h-4.4v-1.2h4.4V345.8z M362.4,341.6v-1.5h0.6
			v1.5H362.4z M363,344.7v1.2h-0.6v-1.2H363z M363.1,346.6v1.5h-2v-1.5H363.1z M360.3,339.6v-1.2h6.6v1.2H360.3z M365,340.1v1.5
			h-0.6v-1.5H365z M364.3,348.8h0.7v1.5h-0.7V348.8z M364.3,348.1v-1.5h0.7v1.5H364.3z M374,338.4h1.3v1.2H374V338.4z M376.8,341
			v1.2h-10.4V341H376.8z M367.5,339.6v-1.2h1.8v1.2H367.5z M370.4,339.6v-1.2h0.8v1.2H370.4z M372.1,338.4h1.1v1.2h-1.1V338.4z
			 M360.3,335.4h11.7v1.5h-11.7V335.4z M361.5,340.1v1.5h-1.3v-1.5H361.5z M367.1,332.7h-6.9v-1.5h6.9V332.7z M373.7,329.2h0.9v1.2
			h-0.9V329.2z M372.1,331.2h2.6v1.5h-2.6V331.2z M371.9,329.2v1.2H364v-1.2H371.9z M367,325.6h0.5v1.2H367V325.6z M360.2,325.6h5.6
			v1.2h-5.6V325.6z M360.2,344.7h1.3v1.2h-1.3V344.7z M360.2,351.2h11.4v1.2h-11.4V351.2z M373.8,355.4h0.9v1.5h-0.9V355.4z
			 M360.2,355.4h9.8v1.5h-9.8V355.4z M370,425.8v1.1h-0.4v-1.1H370z M371.9,420.3h-11.6v-1.1h11.6V420.3z M366.2,416.9v1.1h-5.8
			v-1.1H366.2z M360.4,415.7v-1.1h3.7v1.1H360.4z M367,418v-1.1h2v1.1H367z M370,418v-1.1h0.9v1.1H370z M373.5,420.3h-0.7v-1.1h0.7
			V420.3z M374.4,416.9v1.1h-2.7v-1.1H374.4z M376.3,406.1h3v1.1h-3V406.1z M364,406.1h10.5v1.1H364V406.1z M360.3,412.7h11.5v1.1
			h-11.5V412.7z M360.3,425.8h7.6v1.1h-7.6V425.8z M366.9,402.9h-6.7v-1.1h6.7V402.9z M362.5,396.1v-1.3h0.6v1.3H362.5z
			 M364.4,396.1v-1.3h0.6v1.3H364.4z M376.9,402.9h-4.8v-1.1h4.8V402.9z M368.3,400v-1.1h5.2v1.1H368.3z M374.7,400v-1.1h0.7v1.1
			H374.7z M377,396.7h-10.7v-1.3H377V396.7z M374,392.9h1.4v1.4H374V392.9z M372.3,392.9h0.8v1.4h-0.8V392.9z M370.3,392.9h0.8v1.4
			h-0.8V392.9z M367.4,392.9h1.9v1.4h-1.9V392.9z M360.3,392.9h6.7v1.4h-6.7V392.9z M377,384.1v1.1h-16.7v-1.1H377z M365.8,378.7
			h-5.5v-1.1h5.5V378.7z M361.2,376.8v-1.5h0.7v1.5H361.2z M367.6,378.7h-0.4v-1.1h0.4V378.7z M367.6,376.8h-4.3v-1.5h4.3V376.8z
			 M365.1,374.4v-1.5h0.7v1.5H365.1z M369.7,374.4H367v-1.5h2.7V374.4z M371.9,374.4h-1v-1.5h1V374.4z M373.5,372.9h1v1.5h-1V372.9z
			 M371.9,370.1H369v-1.5h2.9V370.1z M362.5,362.1h8.2v1.5h-8.2V362.1z M360.2,372.9h3.5v1.5h-3.5V372.9z M360.1,394.8h1.4v1.3h-1.4
			V394.8z M354.4,416.9v1.1h-5.7v-1.1H354.4z M350.7,415.7v-1.1h3.7v1.1H350.7z M354.5,425.8v1.1H347v-1.1H354.5z M349,325.6h5.6
			v1.2H349V325.6z M349.8,348.1v-1.5h0.7v1.5H349.8z M350.5,348.8v1.5h-0.7v-1.5H350.5z M350.4,341.6h-0.6v-1.5h0.6V341.6z
			 M347.9,339.6v-1.2h6.5v1.2H347.9z M351.7,341.6v-1.5h0.6v1.5H351.7z M352.3,344.7v1.2h-0.6v-1.2H352.3z M351.7,346.6h2v1.5h-2
			V346.6z M353.2,345.8v-1.2h1.3v1.2H353.2z M347.3,325.6h0.5v1.2h-0.5V325.6z M340.2,329.2h0.9v1.2h-0.9V329.2z M338.6,332.7h-0.7
			v-1.5h0.7V332.7z M342.8,332.7h-2.6v-1.5h2.6V332.7z M342.9,329.2h7.9v1.2h-7.9V329.2z M347.7,332.7v-1.5h6.8v1.5H347.7z
			 M354.5,340.1v1.5h-1.3v-1.5H354.5z M342.9,335.4h11.6v1.5h-11.6V335.4z M347.3,338.4v1.2h-1.8v-1.2H347.3z M344.4,338.4v1.2h-0.8
			v-1.2H344.4z M341.6,338.4h1.1v1.2h-1.1V338.4z M339.5,338.4h1.3v1.2h-1.3V338.4z M338,342.1V341h10.3v1.2H338z M346,345.8v-1.2
			h4.4v1.2H346z M343.3,352.4v-1.2h11.3v1.2H343.3z M341,357h-0.9v-1.5h0.9V357z M344.9,357v-1.5h9.7v1.5H344.9z M351,374.4v-1.5
			h3.5v1.5H351z M353.5,375.2v1.5h-0.7v-1.5H353.5z M351.4,375.2v1.5h-4.3v-1.5H351.4z M349,374.4v-1.5h0.7v1.5H349z M344.1,362.1
			h8.1v1.5h-8.1V362.1z M338.6,363.6h-2.9v-1.5h2.9V363.6z M340.2,363.6v-1.5h0.9v1.5H340.2z M341.3,374.4h-1v-1.5h1V374.4z
			 M342.9,368.6h2.9v1.5h-2.9V368.6z M343.9,374.4h-1v-1.5h1V374.4z M345.1,374.4v-1.5h2.7v1.5H345.1z M347.6,378.7h-0.4v-1.1h0.4
			V378.7z M349,378.7v-1.1h5.4v1.1H349z M337.9,385.2v-1.1h16.6v1.1H337.9z M354.6,394.8v1.3h-1.4v-1.3H354.6z M347.8,392.9h6.6v1.4
			h-6.6V392.9z M352.2,394.8v1.3h-0.6v-1.3H352.2z M350.4,394.8v1.3h-0.6v-1.3H350.4z M345.5,392.9h1.9v1.4h-1.9V392.9z
			 M343.7,392.9h0.8v1.4h-0.8V392.9z M341.7,392.9h0.8v1.4h-0.8V392.9z M339.5,392.9h1.3v1.4h-1.3V392.9z M337.9,395.5h10.6v1.3
			h-10.6V395.5z M340.1,398.9v1.1h-0.7v-1.1H340.1z M342.8,402.9H338v-1.1h4.8V402.9z M346.5,400h-5.1v-1.1h5.1V400z M347.9,402.9
			v-1.1h6.7v1.1H347.9z M354.5,413.7h-11.4v-1.1h11.4V413.7z M347.8,416.9v1.1h-2v-1.1H347.8z M344.8,416.9v1.1h-0.9v-1.1H344.8z
			 M338.6,407.2h-2.9v-1.1h2.9V407.2z M340.3,407.2v-1.1h10.4v1.1H340.3z M340.4,416.9h2.6v1.1h-2.6V416.9z M342,420.3h-0.7v-1.1
			h0.7V420.3z M342.9,420.3v-1.1h11.5v1.1H342.9z M307.7,426.4h4.5v0.9h-4.5V426.4z M307.7,424.4h5.1v1.1h-5.1V424.4z M307.7,422.1
			h4v1.1h-4V422.1z M307.7,409h17.7v1.1h-17.7V409z M307.7,407h2v1.1h-2V407z M307.7,393.8h17.6v1.2h-17.6V393.8z M307.7,386.8h17.6
			v1.6h-17.6V386.8z M307.7,382.7h10.2v1.1h-10.2V382.7z M307.7,380.4h10.2v1.5h-10.2V380.4z M307.7,378h1.3v1.5h-1.3V378z
			 M307.7,364.9h17.7v1.5h-17.7V364.9z M307.7,363h17.7v1.2h-17.7V363z M307.7,360.6h4v1.5h-4V360.6z M307.7,358.3h17.7v1.5h-17.7
			V358.3z M307.7,354H320v1.5h-12.4V354z M307.7,351.8H320v1.6h-12.4V351.8z M307.7,349.8h9.2v1.2h-9.2V349.8z M307.7,340.6h6.2v1.5
			h-6.2V340.6z M307.7,338.6h17.6v1.3h-17.6V338.6z M320,346.1v1.2h-8.9v-1.2H320z M312.4,344.8v-1.2h1.1v1.2H312.4z M314.2,344.8
			v-1.2h1v1.2H314.2z M316,344.8v-1.2h0.7v1.2H316z M317.6,344.8v-1.2h1.5v1.2H317.6z M318,349.8h3.8v1.2H318V349.8z M321.8,346.7
			h-0.5v-1.5h0.5V346.7z M321.8,351.8v1.5h-0.6v-1.5H321.8z M321.2,354h0.6v1.5h-0.6V354z M325.3,356.4v1.2h-9.7v-1.2H325.3z
			 M324.6,353.3h-1.7v-1.5h1.7V353.3z M322.9,351v-1.2h0.5v1.2H322.9z M323.5,346.7h-0.5v-1.5h0.5V346.7z M319.7,344.8v-1.2h5.6v1.2
			H319.7z M315.3,342.1v-1.5h10v1.5H315.3z M325.3,360.6v1.5H317v-1.5H325.3z M313.7,360.6v1.5h-0.8v-1.5H313.7z M315.3,375.3v-1.5
			h2.5v1.5H315.3z M316.2,378v1.5h-0.9V378H316.2z M316.4,368.8v-1.5h6.9v1.5H316.4z M321.2,378v1.5h-0.6V378H321.2z M317.3,378h2.3
			v1.5h-2.3V378z M319,382.7h0.4v1.1H319V382.7z M319,381.9v-1.5h3.7v1.5H319z M320.6,382.7h4.7v1.1h-4.7V382.7z M323.8,381.9v-1.5
			h0.6v1.5H323.8z M322.3,379.6V378h3v1.5H322.3z M314,378v1.5h-0.9V378H314z M313.8,368.8H313v-1.5h0.8V368.8z M311.6,367.3v1.5
			h-2.5v-1.5H311.6z M307.7,373.8h6.1v1.5h-6.1V373.8z M325.2,389.3v1.1H311v-1.1H325.2z M315.2,407v1.1h-4.1V407H315.2z
			 M312.4,405.1v-1.1h0.6v1.1H312.4z M314,405.1v-1.1h4.4v1.1H314z M311,401.9v-1.3h9.1v1.3H311z M312.4,399.5v-1.4h1.2v1.4H312.4z
			 M314.3,399.5v-1.4h0.7v1.4H314.3z M316,399.5v-1.4h0.7v1.4H316z M317.5,399.5v-1.4h1.6v1.4H317.5z M319.6,407h5.7v1.1h-5.7V407z
			 M321.2,401.3V400h0.5v1.3H321.2z M323.3,401.3h-0.5V400h0.5V401.3z M319.5,399.5v-1.4h5.7v1.4H319.5z M313.2,423.2v-1.1h2.3v1.1
			H313.2z M314.5,424.4v1.1h-0.6v-1.1H314.5z M315.3,424.4h9.8v1.1h-9.8V424.4z M316.2,423.2v-1.1h0.8v1.1H316.2z M317.8,423.2v-1.1
			h1.7v1.1H317.8z M320.2,423.2v-1.1h4.9v1.1H320.2z M322,420.9v-1.1h3.2v1.1H322z M315.5,418.9v-1.1h9.8v1.1H315.5z M313.1,412.4
			v-1.1h8.9v1.1H313.1z M311.6,411.3v1.1h-2.5v-1.1H311.6z M307.7,417.8h6.2v1.1h-6.2V417.8z M313,427.3v-0.9h4.1v0.9H313z
			 M325.4,401.3h-1.2V400h1.2V401.3z M325.3,351h-1.1v-1.2h1.1V351z M325.3,346.7h-1.1v-1.5h1.1V346.7z M325.3,337.9h-5.9v-1.5h5.9
			V337.9z M315.3,334.4h6.8v1.2h-6.8V334.4z M313,334.4h0.8v1.2H313V334.4z M313,336.4h2.2v1.5H313V336.4z M311.6,337.9H311v-1.5
			h0.6V337.9z M309.1,334.4h2.5v1.2h-2.5V334.4z M309.5,336.4v1.5h-1.8v-1.5H309.5z M265,423.4h15.6v1.4h-15.5
			C265.1,424.4,265.1,424,265,423.4z M264.8,417h5.8v1.1h-5.8C264.9,417.7,264.8,417.4,264.8,417z M264.7,412.4h2.8v1.4h-2.7
			C264.7,413.4,264.7,412.9,264.7,412.4z M264.6,410.4h3.5v1.1h-3.4C264.6,411.1,264.6,410.8,264.6,410.4z M264.5,408.1h2.4v1.1
			h-2.4C264.6,408.8,264.6,408.5,264.5,408.1z M264.4,403.9h4.7v1.1h-4.7C264.4,404.6,264.4,404.2,264.4,403.9z M264.1,395h16.5v1.1
			h-16.5C264.1,395.7,264.1,395.4,264.1,395z M264.1,393h0.9v1.1h-0.9C264.1,393.7,264.1,393.4,264.1,393z M263.6,379.9h16.9v1.2
			h-16.8C263.7,380.6,263.6,380.3,263.6,379.9z M263.4,372.9h17.1v1.6h-17C263.4,373.9,263.4,373.4,263.4,372.9z M263.3,368.7h9.8
			v1.1h-9.8C263.3,369.5,263.3,369.1,263.3,368.7z M263.2,366.4h9.9v1.5h-9.9C263.2,367.4,263.2,366.9,263.2,366.4z M263.1,364.1
			h1.1v1.5h-1.1C263.1,365,263.1,364.5,263.1,364.1z M262.9,359.8h6.1v1.5H263L262.9,359.8z M262.5,353.3h0.3v1.5h-0.2L262.5,353.3z
			 M264.4,354.8v-1.5h2.5v1.5H264.4z M269,354.8h-0.8v-1.5h0.8V354.8z M269.2,364.1v1.5h-0.9v-1.5H269.2z M274.3,368.7h0.4v1.1h-0.4
			V368.7z M272.5,365.6v-1.5h2.3v1.5H272.5z M274.3,367.9v-1.5h3.7v1.5H274.3z M275.8,365.6v-1.5h0.6v1.5H275.8z M275.8,368.7h4.7
			v1.1h-4.7V368.7z M279.1,367.9v-1.5h0.6v1.5H279.1z M277.6,365.6v-1.5h3v1.5H277.6z M278.6,354.8h-6.9v-1.5h6.9V354.8z
			 M273.1,359.8v1.5h-2.5v-1.5H273.1z M271.5,364.1v1.5h-0.9v-1.5H271.5z M280.5,375.3v1.1h-14.2v-1.1H280.5z M277.3,406.9v-1.1h3.2
			v1.1H277.3z M280.4,408.1v1.1h-4.9v-1.1H280.4z M270.7,404.9v-1.1h9.8v1.1H270.7z M274.8,408.1v1.1h-1.7v-1.1H274.8z M272.2,408.1
			v1.1h-0.8v-1.1H272.2z M277.3,398.4h-8.9v-1.1h8.9V398.4z M268.5,409.2v-1.1h2.3v1.1H268.5z M269.8,410.4v1.1h-0.6v-1.1H269.8z
			 M272.3,412.4v1.4h-4.1v-1.4H272.3z M272.2,417h0.4v1.1h-0.4V417z M270.6,411.5v-1.1h9.8v1.1H270.6z M274.1,417h6.4v1.1h-6.4V417z
			 M274.9,421.6h5.7v1.1h-5.7V421.6z M280.6,394.1h-5.7V393h5.7V394.1z M270.5,393v1.1h-4.1V393H270.5z M267.6,391.1v-1.1h0.6v1.1
			H267.6z M269.3,391.1v-1.1h4.4v1.1H269.3z M266.3,387.9v-1.3h9.1v1.3H266.3z M267.6,385.5v-1.4h1.2v1.4H267.6z M269.6,385.5v-1.4
			h0.7v1.4H269.6z M271.3,385.5v-1.4h0.7v1.4H271.3z M272.8,385.5v-1.4h1.6v1.4H272.8z M276.5,387.3V386h0.5v1.3H276.5z
			 M278.6,387.3h-0.5V386h0.5V387.3z M274.8,385.5v-1.4h5.7v1.4H274.8z M266.9,397.3v1.1h-2.5v-1.1H266.9z M270.4,421.6v1.1h-1.8
			v-1.1H270.4z M266.9,421.6v1.1h-0.4v-1.1H266.9z M280.6,312.5v1.2h-3v-1.2H280.6z M276.5,339.3v-1.5h0.6v1.5H276.5z M277.1,340
			v1.5h-0.6V340H277.1z M277.1,332.7h-0.5v-1.5h0.5V332.7z M274.9,330.8v-1.2h5.6v1.2H274.9z M278.2,332.7v-1.5h0.5v1.5H278.2z
			 M278.7,335.8v1.2h-0.5v-1.2H278.7z M278.2,337.8h1.7v1.5h-1.7V337.8z M279.4,337v-1.2h1.1v1.2H279.4z M274.3,315.9v-1.5h3.8v1.5
			H274.3z M274.8,316.8v1.2h-0.4v-1.2H274.8z M275.7,313.7v-1.2h0.6v1.2H275.7z M275.8,316.8h4.8v1.2h-4.8V316.8z M279.1,315.9v-1.5
			h0.6v1.5H279.1z M274.8,303.1h5.8v1.1h-5.8V303.1z M277.3,309.6v1h-6.7v-1H277.3z M269.1,313.7h-0.8v-1.2h0.8V313.7z M269.1,310.8
			h-4.8v-1.2h4.8V310.8z M269.1,304.2h-0.9v-1.1h0.9V304.2z M271.3,313.7h-0.8v-1.2h0.8V313.7z M272.4,313.7v-1.2h2.3v1.2H272.4z
			 M268.3,320.4h0.8v1.2h-0.8V320.4z M264.3,321.6v-1.2h2.5v1.2H264.3z M266.9,323.9h-0.6v-1.5h0.6V323.9z M270.5,323.9h-2.2v-1.5
			h2.2V323.9z M270.6,320.4h6.8v1.2h-6.8V320.4z M274.7,323.9v-1.5h5.9v1.5H274.7z M280.6,331.3v1.5h-1.1v-1.5H280.6z M270.6,326.6
			h10v1.5h-10V326.6z M274.4,329.6v1.2h-1.5v-1.2H274.4z M271.9,329.6v1.2h-0.7v-1.2H271.9z M269.5,329.6h1v1.2h-1V329.6z
			 M267.7,329.6h1.1v1.2h-1.1V329.6z M266.4,333.3v-1.2h8.9v1.2H266.4z M273.3,337v-1.2h3.8v1.2H273.3z M270.9,343.6v-1.2h9.7v1.2
			H270.9z M269,348.2h-0.8v-1.5h0.8V348.2z M272.3,348.2v-1.5h8.3v1.5H272.3z M280.6,386v1.3h-1.2V386H280.6z M280.6,350.9v1.5
			h-18.1l-0.1-1.5H280.6z M285.1,393.2l18.8,21.7v12.4h-18.8V393.2z M438,397.1h0.9v1.3H438V397.1z M447.8,421.5v1.1H438v-1.1H447.8
			z M443.6,420.3v-1.1h1.7v1.1H443.6z M446.2,420.3v-1.1h0.8v1.1H446.2z M442.9,420.3H438v-1.1h4.9V420.3z M441.1,417.9H438v-1.1
			h3.1V417.9z M450.1,424.9h-4.1v-1.4h4.1V424.9z M448.6,422.6v-1.1h0.6v1.1H448.6z M449.9,419.2v1.1h-2.3v-1.1H449.9z M451.5,408.4
			h2.5v1.1h-2.5V408.4z M441.1,408.4h8.9v1.1h-8.9V408.4z M447.7,414.9v1.1H438v-1.1H447.7z M443.5,405.2H438v-1.1h5.5V405.2z
			 M439.8,398.3v-1.3h0.5v1.3H439.8z M441.4,398.3v-1.3h0.5v1.3H441.4z M452,405.2h-4.1v-1.1h4.1V405.2z M444.7,402.2v-1.1h4.4v1.1
			H444.7z M450.2,402.2v-1.1h0.6v1.1H450.2z M452.1,399H443v-1.3h9.1V399z M449.6,395.2h1.2v1.4h-1.2V395.2z M448.1,395.2h0.7v1.4
			h-0.7V395.2z M446.4,395.2h0.7v1.4h-0.7V395.2z M444,395.2h1.6v1.4H444V395.2z M443.6,395.2v1.4H438v-1.4H443.6z M452.1,386.3v1.1
			H438v-1.1H452.1z M442.6,380.9H438v-1.1h4.5V380.9z M438.7,379v-1.5h0.6v1.5H438.7z M444.1,380.9h-0.4v-1.1h0.4V380.9z M444.1,379
			h-3.7v-1.5h3.7V379z M442,376.7v-1.5h0.6v1.5H442z M445.9,376.7h-2.3v-1.5h2.3V376.7z M447.8,376.7h-0.9v-1.5h0.9V376.7z
			 M449.2,375.1h0.9v1.5h-0.9V375.1z M447.8,372.4h-2.5v-1.5h2.5V372.4z M439.8,364.3h6.9v1.5h-6.9V364.3z M440.8,375.1v1.5H438
			v-1.5H440.8z M449.4,357.7h0.8v1.5h-0.8V357.7z M446.1,357.7v1.5H438v-1.5H446.1z M444.1,325.6v1.5h-3.8v-1.5H444.1z M442,324.8
			v-1.2h0.6v1.2H442z M444,327.8v1.2h-0.4v-1.2H444z M440.8,324.8H438v-1.2h2.8V324.8z M439.3,325.6v1.5h-0.6v-1.5H439.3z
			 M442.6,327.8v1.2H438v-1.2H442.6z M441.3,350.3v-1.5h0.6v1.5H441.3z M441.9,351.1v1.5h-0.6v-1.5H441.9z M438,341.9v-1.2h5.4v1.2
			H438z M441.9,342.3v1.5h-0.5v-1.5H441.9z M439.7,343.8v-1.5h0.5v1.5H439.7z M440.2,346.9v1.2h-0.5v-1.2H440.2z M440.2,348.9v1.5
			h-1.7v-1.5H440.2z M439,342.3v1.5H438v-1.5H439z M439,346.9v1.2H438v-1.2H439z M447.5,353.5v1.2H438v-1.2H447.5z M445.1,348.1
			h-3.8v-1.2h3.8V348.1z M449.6,340.7h1.1v1.2h-1.1V340.7z M452,343.2v1.2h-8.9v-1.2H452z M444,341.9v-1.2h1.5v1.2H444z
			 M446.5,341.9v-1.2h0.7v1.2H446.5z M447.9,340.7h1v1.2h-1V340.7z M447.8,337.7v1.5H438v-1.5H447.8z M443.7,335H438v-1.5h5.7V335z
			 M451.5,331.4h2.5v1.2h-2.5V331.4z M451.5,333.5h0.6v1.5h-0.6V333.5z M449.3,331.4h0.8v1.2h-0.8V331.4z M447.9,333.5h2.2v1.5h-2.2
			V333.5z M447.8,331.4v1.2h-6.8v-1.2H447.8z M446,324.8h-2.3v-1.2h2.3V324.8z M449.3,314.1h0.9v1.1h-0.9V314.1z M449.3,320.6h4.8
			v1.2h-4.8V320.6z M449.3,323.6h0.8v1.2h-0.8V323.6z M447.9,324.8h-0.8v-1.2h0.8V324.8z M447.8,321.7h-6.7v-1h6.7V321.7z
			 M443.6,314.1v1.1H438v-1.1H443.6z M444,305.2h2.9v1.2H444V305.2z M444,307.4h2.9v1.2H444V307.4z M442.3,305.2h0.5v1.2h-0.5V305.2
			z M441.1,305.2h0.5v1.2h-0.5V305.2z M439.7,305.2h0.5v1.2h-0.5V305.2z M439.1,307.4h3.6v1.2h-3.6V307.4z M439,305.2v1.2h-1v-1.2
			H439z M402,421.9v-1.5h3.8v1.5H402z M402.5,422.8v1.2h-0.4v-1.2H402.5z M403.5,419.7v-1.2h0.6v1.2H403.5z M408.3,419.7h-3v-1.2h3
			V419.7z M407.4,420.5v1.5h-0.6v-1.5H407.4z M403.5,422.8h4.7v1.2h-4.7V422.8z M404.8,306.2h3v1.2h-3V306.2z M403.7,333v-1.5h0.6
			v1.5H403.7z M404.3,333.8v1.5h-0.6v-1.5H404.3z M404.3,326.5h-0.5V325h0.5V326.5z M402.1,324.5v-1.2h5.6v1.2H402.1z M405.4,326.5
			V325h0.5v1.5H405.4z M405.9,329.6v1.2h-0.5v-1.2H405.9z M405.4,331.5h1.7v1.5h-1.7V331.5z M406.7,330.7v-1.2h1.1v1.2H406.7z
			 M401.5,309.7v-1.5h3.8v1.5H401.5z M402,310.5v1.2h-0.4v-1.2H402z M403,310.5h4.8v1.2H403V310.5z M406.3,309.7v-1.5h0.6v1.5H406.3
			z M403,306.2h0.6v1.2H403V306.2z M396.3,307.4h-0.8v-1.2h0.8V307.4z M398.6,307.4h-0.8v-1.2h0.8V307.4z M399.6,307.4v-1.2h2.3v1.2
			H399.6z M395.5,314.1h0.8v1.2h-0.8V314.1z M391.5,315.3v-1.2h2.5v1.2H391.5z M394.1,317.7h-0.6v-1.5h0.6V317.7z M397.7,317.7h-2.2
			v-1.5h2.2V317.7z M397.8,314.1h6.8v1.2h-6.8V314.1z M401.9,317.7v-1.5h5.9v1.5H401.9z M407.8,325v1.5h-1.1V325H407.8z
			 M397.8,320.3h10v1.5h-10V320.3z M401.6,323.4v1.2h-1.5v-1.2H401.6z M399.1,323.4v1.2h-0.7v-1.2H399.1z M396.7,323.4h1v1.2h-1
			V323.4z M394.9,323.4h1.1v1.2h-1.1V323.4z M393.6,327.1v-1.2h8.9v1.2H393.6z M400.5,330.7v-1.2h3.8v1.2H400.5z M398.1,337.3v-1.2
			h9.7v1.2H398.1z M396.2,341.9h-0.8v-1.5h0.8V341.9z M399.5,341.9v-1.5h8.3v1.5H399.5z M404.8,359.3v-1.5h3v1.5H404.8z
			 M406.9,360.1v1.5h-0.6v-1.5H406.9z M405.2,360.1v1.5h-3.7v-1.5H405.2z M403,359.3v-1.5h0.6v1.5H403z M398.9,347h6.9v1.5h-6.9V347
			z M394.1,348.6h-2.5V347h2.5V348.6z M395.5,348.6V347h0.8v1.5H395.5z M396.5,359.3h-0.9v-1.5h0.9V359.3z M397.8,353.5h2.5v1.5
			h-2.5V353.5z M398.7,359.3h-0.9v-1.5h0.9V359.3z M399.7,359.3v-1.5h2.3v1.5H399.7z M401.9,363.6h-0.4v-1.1h0.4V363.6z
			 M403.1,363.6v-1.1h4.7v1.1H403.1z M393.5,370.1V369h14.2v1.1H393.5z M407.9,379.8v1.3h-1.2v-1.3H407.9z M402,377.9h5.7v1.4H402
			V377.9z M405.8,379.8v1.3h-0.5v-1.3H405.8z M404.2,379.8v1.3h-0.5v-1.3H404.2z M400,377.9h1.6v1.4H400V377.9z M398.5,377.9h0.7
			v1.4h-0.7V377.9z M396.8,377.9h0.7v1.4h-0.7V377.9z M394.8,377.9h1.2v1.4h-1.2V377.9z M393.5,380.4h9.1v1.3h-9.1V380.4z
			 M395.4,383.8v1.1h-0.6v-1.1H395.4z M397.7,387.8h-4.1v-1.1h4.1V387.8z M400.9,384.9h-4.4v-1.1h4.4V384.9z M402.1,387.8v-1.1h5.7
			v1.1H402.1z M392.1,392.1h-0.5h-2v-1.1h2h0.5V392.1z M396.1,392.1h-2.5v-1.1h2.5V392.1z M397.6,392.1v-1.1h8.9v1.1H397.6z
			 M402.1,403.5h-2.9v-1.2h2.9V403.5z M402.1,401.3h-2.9v-1.2h2.9V401.3z M407,403.5h-3.6v-1.2h3.6V403.5z M403.3,401.3v-1.2h0.5
			v1.2H403.3z M404.6,401.3v-1.2h0.5v1.2H404.6z M405.9,401.3v-1.2h0.5v1.2H405.9z M408.2,401.3h-1.1v-1.2h1.1V401.3z M399.9,398.7
			v-1.1h8.3v1.1H399.9z M402.5,409h5.8v1.1h-5.8V409z M398.3,415.6h6.7v1h-6.7V415.6z M389.8,409h0.3h4.5v1.1h-4.5h-0.3V409z
			 M391.9,419.7h-1.8h-0.4v-1.2h0.4h1.8V419.7z M396.8,419.7H396v-1.2h0.8V419.7z M396.8,416.7H392v-1.2h4.8V416.7z M396.8,410.2
			H396V409h0.9V410.2z M399.1,419.7h-0.8v-1.2h0.8V419.7z M400.1,419.7v-1.2h2.3v1.2H400.1z M398.3,426.4h6.8v1h-6.8V426.4z
			 M396,426.4h0.8v1H396V426.4z M392,426.4h2.5v1H392V426.4z M412.5,404.1l10.8,10.9l10.6-9.6v21.8h-21.4V404.1z M525.1,368.6v1.5
			h-6.7v-1.5H525.1z M518.4,363.6v-1.5h0.8v1.5H518.4z M520.6,363.6v-1.5h2.5v1.5H520.6z M524.7,363.6v-1.5h0.4v1.5H524.7z
			 M525.1,372.9v1.5h-1.9v-1.5H525.1z M519.1,372.9v1.5h-0.9v-1.5H519.1z M525.1,375.2v1.5h-10.8v-1.5H525.1z M507,383.3v-1.6h18.1
			v1.6H507z M521.2,384.1v1.1H507v-1.1H521.2z M511.6,377.6v1.1H507v-1.1H511.6z M507.8,376.8v-1.5h0.6v1.5H507.8z M513.2,375.2v1.5
			h-3.7v-1.5H513.2z M511,374.4v-1.5h0.6v1.5H511z M512.7,374.4v-1.5h2.3v1.5H512.7z M513.2,377.6v1.1h-0.4v-1.1H513.2z
			 M514.3,378.7v-1.1h10.8v1.1H514.3z M516,374.4v-1.5h0.9v1.5H516z M516.9,370.1h-2.5v-1.5h2.5V370.1z M515.8,363.6h-6.9v-1.5h6.9
			V363.6z M509.9,372.9v1.5h-3v-1.5H509.9z M507,388.7h18.1v1.2H507V388.7z M525.1,401.8v1.1h-2.6v-1.1H525.1z M517,401.8h4.1v1.1
			H517V401.8z M513.7,400v-1.1h4.4v1.1H513.7z M519.3,400v-1.1h0.6v1.1H519.3z M512.1,396.7v-1.3h9.1v1.3H512.1z M513.1,394.3v-1.4
			h1.6v1.4H513.1z M515.5,394.3v-1.4h0.7v1.4H515.5z M517.2,394.3v-1.4h0.7v1.4H517.2z M518.7,394.3v-1.4h1.2v1.4H518.7z M507,392.9
			h5.7v1.4H507V392.9z M511,394.8v1.3h-0.5v-1.3H511z M508.9,394.8h0.5v1.3h-0.5V394.8z M512.6,401.8v1.1h-5.7v-1.1H512.6z
			 M525.1,403.8v1.1h-18.3v-1.1H525.1z M525.1,406.1v1.1h-0.5v-1.1H525.1z M523.1,406.1v1.1h-2.5v-1.1H523.1z M516.7,418v-1.1h2.3
			v1.1H516.7z M518.3,419.2v1.1h-0.6v-1.1H518.3z M507,420.3v-1.1h9.8v1.1H507z M513.4,425.8v1.1h-6.4v-1.1H513.4z M512,416.9v1.1
			H507v-1.1H512z M507,415.7v-1.1h3.2v1.1H507z M512.7,418v-1.1h1.7v1.1H512.7z M515.2,418v-1.1h0.8v1.1H515.2z M516.7,413.7h-9.8
			v-1.1h9.8V413.7z M510.1,407.2v-1.1h8.9v1.1H510.1z M515.2,426.9h-0.4v-1.1h0.4V426.9z M515.1,422.7v-1.4h4.1v1.4H515.1z
			 M518.3,413.7v-1.1h6.8v1.1H518.3z M525.1,416.9v1.1h-4.6v-1.1H525.1z M519.4,419.2h5.7v1.1h-5.7V419.2z M520,421.2h5.1v1.4H520
			V421.2z M525.1,357h-4.5v-1.5h4.5V357z M508.7,341.6v-1.5h0.5v1.5H508.7z M509.3,344.7v1.2h-0.5v-1.2H509.3z M509.3,346.6v1.5
			h-1.7v-1.5H509.3z M507,339.6v-1.2h5.6v1.2H507z M521.1,341v1.2h-8.9V341H521.1z M517,339.6v-1.2h1v1.2H517z M515.4,345.8v-1.2
			h9.7v1.2H515.4z M525.1,346.6v1.6h-12.9v-1.6H525.1z M518.4,336.9v-1.5h6.7v1.5H518.4z M519.8,338.4v1.2h-1.1v-1.2H519.8z
			 M513.1,339.6v-1.2h1.5v1.2H513.1z M515.6,339.6v-1.2h0.7v1.2H515.6z M516.9,336.9h-10v-1.5h10V336.9z M510.9,340.1v1.5h-0.5v-1.5
			H510.9z M510.4,348.8h0.6v1.5h-0.6V348.8z M510.4,348.1v-1.5h0.6v1.5H510.4z M510.4,345.8v-1.2h3.8v1.2H510.4z M512.2,348.8h12.9
			v1.5h-12.9V348.8z M520.6,330.4v-1.2h2.5v1.2H520.6z M521.2,331.2v1.5h-0.6v-1.5H521.2z M522.7,331.2h2.4v1.5h-2.4V331.2z
			 M523.3,321.3h1.8v1.2h-1.8V321.3z M518.4,318.4h4.8v1.2h-4.8V318.4z M518.4,321.3h0.8v1.2h-0.8V321.3z M516.1,321.3h0.8v1.2h-0.8
			V321.3z M514.3,323.3h10.8v1.5h-10.8V323.3z M514.3,325.6h10.8v1.2h-10.8V325.6z M519.2,331.2v1.5H517v-1.5H519.2z M518.4,330.4
			v-1.2h0.8v1.2H518.4z M512.7,325.6h0.4v1.2h-0.4V325.6z M510.1,329.2h6.8v1.2h-6.8V329.2z M506.9,331.2h5.9v1.5h-5.9V331.2z
			 M506.9,333.4h18.2v1.3h-18.2V333.4z M506.9,340.1h1.1v1.5h-1.1V340.1z M506.9,344.7h1.1v1.2h-1.1V344.7z M506.9,351.2h9.7v1.2
			h-9.7V351.2z M506.9,353.1h18.2v1.5h-18.2V353.1z M519.3,355.4v1.5h-0.8v-1.5H519.3z M506.9,355.4h8.3v1.5h-8.3V355.4z
			 M506.9,357.9h18.2v1.2h-18.2V357.9z M506.9,359.7h18.2v1.5h-18.2V359.7z M506.8,394.8h1.2v1.3h-1.2V394.8z M506.1,338.4v52h-18.6
			V357L506.1,338.4z M479.1,427.3v-0.1h4.2v0.1H479.1z M483.3,383.1v1.5h-4.1v-1.5H483.3z M479.2,378.1v-1.5h0.9v1.5H479.2z
			 M483.3,421.7h-1.5v-1.1h1.5V421.7z M465.8,397.8v-1.6h17.5v1.6H465.8z M482.5,398.6v1.1h-16.7v-1.1H482.5z M471.2,392.1v1.1h-5.5
			v-1.1H471.2z M466.7,391.3v-1.5h0.7v1.5H466.7z M473.1,389.7v1.5h-4.3v-1.5H473.1z M470.6,388.9v-1.5h0.7v1.5H470.6z M483.3,393.2
			h-8.9v-1.1h8.9V393.2z M472.5,388.9v-1.5h2.7v1.5H472.5z M473.1,392.1v1.1h-0.4v-1.1H473.1z M483.3,378.1h-1.5v-1.5h1.5V378.1z
			 M480,387.4v1.5h-1v-1.5H480z M483.3,389.7v1.5h-8.9v-1.5H483.3z M476.4,388.9v-1.5h1v1.5H476.4z M477.4,384.6h-2.9v-1.5h2.9
			V384.6z M476.2,378.1H468v-1.5h8.2V378.1z M469.2,387.4v1.5h-3.5v-1.5H469.2z M465.8,403.2h17.5v1.2h-17.5V403.2z M477.5,416.3
			h4.8v1.1h-4.8V416.3z M473.7,414.5v-1.1h5.2v1.1H473.7z M480.2,414.5v-1.1h0.7v1.1H480.2z M471.8,411.2V410h10.7v1.3H471.8z
			 M472.9,408.8v-1.4h1.9v1.4H472.9z M475.8,408.8v-1.4h0.8v1.4H475.8z M477.8,408.8v-1.4h0.8v1.4H477.8z M479.5,408.8v-1.4h1.4v1.4
			H479.5z M465.8,407.4h6.7v1.4h-6.7V407.4z M470.5,409.3v1.3h-0.6v-1.3H470.5z M468,409.3h0.6v1.3H468V409.3z M472.3,416.3v1.1
			h-6.7v-1.1H472.3z M483.3,418.3v1.1h-17.7v-1.1H483.3z M469.5,420.6H480v1.1h-10.5V420.6z M481.8,369.9h1.5v1.5h-1.5V369.9z
			 M479.3,369.9h0.9v1.5h-0.9V369.9z M465.7,372.4h17.6v1.2h-17.6V372.4z M465.7,374.2h17.6v1.5h-17.6V374.2z M465.6,409.3h1.4v1.3
			h-1.4V409.3z M465.7,427.2h11.5v0.1h-11.5V427.2z M487.5,400h18.6v27.4h-18.6V400z M516.8,426.9v-1.1h8.3v1.5h-2.3
			c0.2-0.1,0.3-0.1,0.5-0.1c0.5-0.2,1-0.3,1.4-0.3H516.8z M577.1,304.3h-2.6v-1.2h1.4C576.3,303.5,576.7,303.9,577.1,304.3z
			 M574.4,301.8v0.3h-1.1v-1.2h0C573.7,301.2,574,301.5,574.4,301.8z M586.2,322.7h-5.6v-1.5h5.3C586,321.6,586.1,322.1,586.2,322.7
			z M591.4,366.5c0,0.5,0,1,0,1.5h-6.7v-1.5H591.4L591.4,366.5C591.4,366.5,591.4,366.5,591.4,366.5z M583.4,405.1h-7V404h7.5
			C583.7,404.4,583.6,404.8,583.4,405.1z M580.4,410.6c-0.2,0.4-0.4,0.7-0.7,1.1h-6.5v-1.1H580.4z M576.5,412.5v1.1h-3.2v-1.1H576.5
			z M573.3,414.9h4c-0.3,0.4-0.6,0.7-0.9,1.1h-3.1V414.9z M584.4,402.8h-11.3v-1.1h11.7C584.7,402.1,584.6,402.4,584.4,402.8z
			 M587.5,393.4v0.8c0,0.1-0.1,0.3-0.1,0.4h-9v-1.3H587.5z M579.4,392.2v-1.4h1.6v1.4H579.4z M581.8,392.2v-1.4h0.7v1.4H581.8z
			 M583.5,392.2v-1.4h0.7v1.4H583.5z M585,392.2v-1.4h1.2v1.4H585z M583.3,399.7h2.3c-0.1,0.4-0.3,0.7-0.4,1.1h-1.9V399.7z
			 M580.1,397.9v-1.1h4.4v1.1H580.1z M586.2,397.9h-0.6v-1.1h0.6V397.9z M579,392.2h-5.7v-1.4h5.7V392.2z M577.3,392.7v1.3h-0.5
			v-1.3H577.3z M575.2,392.7h0.5v1.3h-0.5V392.7z M578.9,399.7v1.1h-5.7v-1.1H578.9z M589.1,387.7h-15.8v-1.2h16.1
			C589.3,387,589.2,387.4,589.1,387.7z M580.7,368v-1.5h2.5v1.5H580.7z M583.2,370.8v1.5h-0.9v-1.5H583.2z M575.8,374.7v-1.5h3.7
			v1.5H575.8z M579.5,375.5v1.1h-0.4v-1.1H579.5z M577.9,375.5v1.1h-4.7v-1.1H577.9z M574.1,374.7v-1.5h0.6v1.5H574.1z M577.3,372.3
			v-1.5h0.6v1.5H577.3z M579,372.3v-1.5h2.3v1.5H579z M582.1,361.5h-6.9V360h6.9V361.5z M576.2,370.8v1.5h-3v-1.5H576.2z M573.3,382
			h14.2v1.1h-14.2V382z M590.3,381.2h-17v-1.6h17.2C590.4,380.1,590.4,380.7,590.3,381.2z M590.9,376.6h-10.2v-1.1H591
			C590.9,375.8,590.9,376.2,590.9,376.6z M591,374.7h-10.4v-1.5h10.5C591.1,373.6,591.1,374.1,591,374.7z M584.5,372.3v-1.5h0.9v1.5
			H584.5z M591.2,372.3h-1.7v-1.5h1.8C591.3,371.3,591.3,371.8,591.2,372.3z M584.7,361.5V360h0.8v1.5H584.7z M586.9,361.5V360h2.5
			v1.5H586.9z M591.3,361.5H591V360h0.3C591.3,360.5,591.3,361,591.3,361.5z M591.2,359.2h-18v-1.5h17.9
			C591.1,358.1,591.2,358.7,591.2,359.2z M591.1,356.9h-17.9v-1.2H591C591,356.2,591,356.5,591.1,356.9z M573.2,354.9v-1.5h8.3v1.5
			H573.2z M584.8,354.9v-1.5h0.8v1.5H584.8z M590.9,354.9h-4v-1.5h3.9C590.8,353.8,590.9,354.4,590.9,354.9z M590.7,352.6h-17.5V351
			h17.4C590.6,351.5,590.7,352,590.7,352.6z M579.5,321.2v1.5h-3.8v-1.5H579.5z M577.4,320.4v-1.2h0.6v1.2H577.4z M579.1,320.4v-1.2
			h2.3v1.2H579.1z M576.4,328.3v-1.2h6.8v1.2H576.4z M579.1,329.1v1.5h-5.9v-1.5H579.1z M579,324.7v-1.2h0.4v1.2H579z M576.2,320.4
			h-3v-1.2h3V320.4z M574.7,321.2v1.5h-0.6v-1.5H574.7z M578,323.5v1.2h-4.8v-1.2H578z M587.4,338.9v1.2h-8.9v-1.2H587.4z
			 M583.3,337.5v-1.2h1v1.2H583.3z M585,337.5v-1.2h1.1v1.2H585z M575.1,339.5V338h0.5v1.5H575.1z M575.6,342.6v1.2h-0.5v-1.2H575.6
			z M575.6,344.5v1.5h-1.7v-1.5H575.6z M573.3,337.5v-1.2h5.6v1.2H573.3z M577.2,338v1.5h-0.5V338H577.2z M576.7,346.8h0.6v1.5h-0.6
			V346.8z M576.7,346v-1.5h0.6v1.5H576.7z M576.8,343.7v-1.2h3.8v1.2H576.8z M579.4,337.5v-1.2h1.5v1.2H579.4z M581.9,337.5v-1.2
			h0.7v1.2H581.9z M583.2,334.9h-10v-1.5h10V334.9z M574.3,338v1.5h-1.1V338H574.3z M574.3,342.6v1.2h-1.1v-1.2H574.3z M582.9,349.1
			v1.2h-9.7v-1.2H582.9z M590.3,348.3h-11.8v-1.5h11.6C590.2,347.3,590.2,347.8,590.3,348.3z M590,346.1h-11.6v-1.6h11.4
			C589.9,345,590,345.5,590,346.1z M589.7,343.7h-8.1v-1.2h7.9C589.6,342.9,589.7,343.3,589.7,343.7z M588.5,334.9h-3.8v-1.5h3.5
			C588.3,333.8,588.4,334.3,588.5,334.9z M588.1,332.6h-14.9v-1.3h14.6C587.9,331.7,588,332.2,588.1,332.6z M585.5,329.1v1.5h-2.2
			v-1.5H585.5z M584.7,328.3v-1.2h0.8v1.2H584.7z M587.3,328.3h-0.4v-1.2h0.2C587.2,327.5,587.3,327.9,587.3,328.3z M586.9,329.1
			h0.6c0,0,0,0.1,0,0.1v1.4h-0.6V329.1z M586.6,324.7h-6v-1.2h5.8C586.5,323.9,586.6,324.3,586.6,324.7z M582.4,320.4v-1.2h0.8v1.2
			H582.4z M585.5,319.2v1.2h-0.8v-1.2H585.5z M584.7,317.5v-0.8c0.1,0.3,0.2,0.6,0.3,0.8H584.7z M583.2,317.4h-6.7v-1h6.7V317.4z
			 M579,310.9h-5.8v-1.1h5.8V310.9z M573.1,392.7h1.2v1.3h-1.2V392.7z M573.3,418.2v-1.1h1.9c-0.4,0.4-0.8,0.7-1.1,1.1H573.3z
			 M580.4,308.6h-7.2v-1.2h6.4C579.9,307.8,580.2,308.2,580.4,308.6z M578.2,300.9L578.2,300.9C578.2,300.9,578.2,300.9,578.2,300.9
			L578.2,300.9z M572.4,419.6c-3.5,2.7-7.6,4.3-12.3,4.6V296.6c4.9-0.1,9,1.5,12.3,3.7L572.4,419.6z M555.9,410.4v1.1h-8.8v-1.1
			H555.9z M547.9,409.2v-1.1h0.8v1.1H547.9z M549.5,409.2v-1.1h1.7v1.1H549.5z M555.9,406.9h-2.2v-1.1h2.2V406.9z M555.9,408.1v1.1
			H552v-1.1H555.9z M555.9,367.9h-0.4v-1.5h0.4V367.9z M553,339.3v-1.5h0.6v1.5H553z M553.6,340v1.5H553V340H553.6z M553.5,332.7
			H553v-1.5h0.5V332.7z M551.4,330.8v-1.2h4.5v1.2H551.4z M550.7,315.9v-1.5h3.8v1.5H550.7z M551.2,316.8v1.2h-0.4v-1.2H551.2z
			 M552.2,313.7v-1.2h0.6v1.2H552.2z M555.9,315.9h-0.4v-1.5h0.4V315.9z M555.9,313.7h-1.9v-1.2h1.9V313.7z M552.3,316.8h3.6v1.2
			h-3.6V316.8z M554.6,332.7v-1.5h0.5v1.5H554.6z M555.2,335.8v1.2h-0.5v-1.2H555.2z M554.6,337.8h1.3v1.5h-1.3V337.8z M554.6,294.2
			h0.5v1.2h-0.5V294.2z M553.3,294.2h0.5v1.2h-0.5V294.2z M550.9,297.6h-2.9v-1.2h2.9V297.6z M550.9,295.4H548v-1.2h2.9V295.4z
			 M552,294.2h0.5v1.2H552V294.2z M555.8,297.6h-3.6v-1.2h3.6V297.6z M555.9,295.4v-1.2h0.1L555.9,295.4L555.9,295.4z M551.3,303.1
			h4.6v1.1h-4.6V303.1z M547.1,309.6h6.7v1h-6.7V309.6z M545.6,313.7h-0.8v-1.2h0.8V313.7z M545.6,310.8h-4.8v-1.2h4.8V310.8z
			 M545.6,304.2h-0.9v-1.1h0.9V304.2z M547.8,313.7H547v-1.2h0.8V313.7z M548.9,313.7v-1.2h2.3v1.2H548.9z M544.8,320.4h0.8v1.2
			h-0.8V320.4z M540.8,321.6v-1.2h2.5v1.2H540.8z M543.4,323.9h-0.6v-1.5h0.6V323.9z M546.9,323.9h-2.2v-1.5h2.2V323.9z M547,320.4
			h6.8v1.2H547V320.4z M551.1,323.9v-1.5h4.8v1.5H551.1z M547,326.6h8.9v1.5H547V326.6z M550.9,329.6v1.2h-1.5v-1.2H550.9z
			 M548.4,329.6v1.2h-0.7v-1.2H548.4z M546,329.6h1v1.2h-1V329.6z M544.1,329.6h1.1v1.2h-1.1V329.6z M542.9,333.3v-1.2h8.9v1.2
			H542.9z M549.7,337v-1.2h3.8v1.2H549.7z M547.4,343.6v-1.2h8.5v1.2H547.4z M545.4,348.2h-0.8v-1.5h0.8V348.2z M548.7,348.2v-1.5
			h7.2v1.5H548.7z M555.9,365.6H554v-1.5h1.9V365.6z M554.4,366.4v1.5h-3.7v-1.5H554.4z M552.3,365.6v-1.5h0.6v1.5H552.3z
			 M548.1,353.3h6.9v1.5h-6.9V353.3z M543.4,354.8h-2.5v-1.5h2.5V354.8z M544.8,354.8v-1.5h0.8v1.5H544.8z M545.7,365.6h-0.9v-1.5
			h0.9V365.6z M547.1,359.8h2.5v1.5h-2.5V359.8z M548,365.6h-0.9v-1.5h0.9V365.6z M549,365.6v-1.5h2.3v1.5H549z M551.1,369.8h-0.4
			v-1.1h0.4V369.8z M552.3,369.8v-1.1h3.6v1.1H552.3z M542.7,376.4v-1.1h13.2v1.1H542.7z M551.3,384.1h4.6v1.4h-4.6V384.1z
			 M555.1,386v1.3h-0.5V386H555.1z M553.5,386v1.3H553V386H553.5z M549.3,384.1h1.6v1.4h-1.6V384.1z M547.7,384.1h0.7v1.4h-0.7
			V384.1z M546,384.1h0.7v1.4H546V384.1z M544.1,384.1h1.2v1.4h-1.2V384.1z M542.8,386.6h9.1v1.3h-9.1V386.6z M544.7,390.1v1.1h-0.6
			v-1.1H544.7z M546.9,394.1h-4.1V393h4.1V394.1z M550.2,391.1h-4.4v-1.1h4.4V391.1z M551.4,394.1V393h4.5v1.1H551.4z M555.9,404.9
			h-8.7v-1.1h8.7V404.9z M543.3,398.4h-2.5v-1.1h2.5V398.4z M544.9,398.4v-1.1h8.9v1.1H544.9z M544.9,408.1h2.3v1.1h-2.3V408.1z
			 M546.3,410.4v1.1h-0.6v-1.1H546.3z M544.7,413.8v-1.4h4.1v1.4H544.7z M549.1,418.1h-0.4V417h0.4V418.1z M550.6,417h5.3v1.1h-5.3
			V417z M551.4,422.7v-1.1h4.6v1.1H551.4z"/>
		<polygon fill="#FFFFFF" points="494.4,480.2 521.2,470.4 511.7,444.4 485.2,453.7 		"/>
		<path fill="#FFFFFF" d="M528,471.5l-32.6,11.9l4.4,12.5c7.3,0.3,10.8,5,10.8,5l25.3-9.2L528,471.5z"/>
		<path fill="#FFFFFF" d="M499.9,499.3c-5.8,0-10.5,4.7-10.5,10.5s4.7,10.5,10.5,10.5s10.5-4.7,10.5-10.5S505.6,499.3,499.9,499.3z
			 M499.9,513.9c-2.3,0-4.1-1.8-4.1-4.1s1.8-4.1,4.1-4.1s4.1,1.8,4.1,4.1S502.1,513.9,499.9,513.9z"/>
		<path fill="#FFFFFF" d="M489.9,504.1c0.4-0.7,0.9-1.6,1.7-2.5l-3.2-8.7l3.8-1.5c1.5,4,2.5,6.8,2.6,7.3c0,0.1,0.1,0.2,0.1,0.3
			c0.7-0.3,1.5-0.6,2.3-0.8c-0.2-0.8-1.4-4.1-3.1-8.9c0,0,0,0,0,0c0,0,0,0,0,0c-3.5-9.5-9.2-24.8-14.3-38.3c-0.2-0.4-0.5-0.7-1-0.8
			l-3.6-0.6c0.4-0.2,0.6-0.7,0.6-1.2c-0.1-0.7-0.7-1.2-1.4-1.1l-8.4,0.9c-0.6,0.1-1.1,0.6-1.1,1.2c0,0.6,0.4,1.2,1.1,1.3l11.7,1.9
			c1.9,4.9,3.9,10.5,6,16l-1.1,15.5c0,0.2,0,0.4,0.1,0.5l6.9,19.1C489.8,503.8,489.9,504,489.9,504.1z M484.8,483.4l1-9.7l6,16.3
			l-3.9,1.6L484.8,483.4z"/>
		<path fill="#FFFFFF" d="M538.8,494.3l-28.1,10.2c0,0,1.9,3,1.1,6.4l14.2-9.2l13.8-4.8c0.8-0.3,1.2-1.2,0.8-2
			C540.2,494.3,539.4,494,538.8,494.3z"/>
		<path fill="#FFFFFF" d="M143.4,480.7l-2.7-18.9c-0.8-6.1-1.5-11.3-2.3-15.8h-25v74.2h16.9l0-48.9l7.1,48.9h12l6.7-50.1l0,50.1
			h16.9v-74.2h-25.1L143.4,480.7z"/>
		<path fill="#FFFFFF" d="M288.8,452.3c-1.9-2.6-4.5-4.5-7.6-5.8c-3.2-1.3-6.7-1.9-10.7-1.9c-4.2,0-7.9,0.7-11,2.1
			c-3.1,1.4-5.6,3.3-7.5,5.9c-1.8,2.6-2.9,5.4-3.3,8.5c-0.4,3.1-0.5,8.4-0.5,15.8v12.7c0,7.6,0.2,13,0.6,16c0.4,3.1,1.5,5.9,3.4,8.5
			c1.9,2.6,4.5,4.5,7.6,5.8c3.2,1.3,6.7,1.9,10.7,1.9c4.2,0,7.9-0.7,11-2.1c3.1-1.4,5.6-3.3,7.5-5.9c1.8-2.6,2.9-5.4,3.3-8.5
			c0.4-3.1,0.5-8.4,0.5-15.8v-12.7c0-7.6-0.2-13-0.5-16C291.8,457.8,290.7,454.9,288.8,452.3z M273.5,499.3c0,4.4-0.2,7.1-0.5,8.3
			c-0.4,1.2-1.2,1.7-2.5,1.7c-1.3,0-2.1-0.5-2.5-1.5c-0.4-1-0.5-3.7-0.5-8v-34.6c0-3.8,0.3-6.1,0.8-6.9c0.5-0.8,1.3-1.2,2.3-1.2
			c1.2,0,2,0.5,2.4,1.4c0.4,1,0.6,3.2,0.6,6.6V499.3z"/>
		<path fill="#FFFFFF" d="M393.7,459.9c-1.1,11.1-2.2,23.8-3.2,38.1c-1-14.1-2.7-31.4-5.1-51.9h-20.3l11.1,74.2h29.3l9.8-74.2H395
			L393.7,459.9z"/>
		<path fill="#FFFFFF" d="M634.5,478c1.4-2,2.2-5.9,2.2-11.6c0-6.3-1-10.9-3-13.8c-2-2.9-4.7-4.7-7.9-5.4c-3.2-0.7-9.4-1.1-18.5-1.1
			h-13.7v74.2h19.3v-33.4c2.7,0,4.3,0.5,4.9,1.4c0.6,0.9,0.9,3.4,0.9,7.4v24.7h17.9v-19.6c0-6-0.2-9.6-0.5-11
			c-0.3-1.3-1.1-2.8-2.5-4.4c-1.3-1.6-3.9-2.9-7.7-3.8C630.3,481.2,633.1,480,634.5,478z M618.8,468.6c0,3.3-0.4,5.2-1.3,5.8
			c-0.9,0.6-2.4,0.9-4.6,0.9v-16.5c2.2,0,3.8,0.4,4.6,1.1c0.8,0.7,1.3,2.3,1.3,4.6V468.6z"/>
		<path fill="#FFFFFF" d="M751.7,485.5c-2.2-3.3-7.6-7.5-16.2-12.5c-3-1.8-4.8-3.3-5.5-4.5c-0.7-1.3-1-3.1-1-5.6
			c0-1.9,0.3-3.4,0.9-4.3s1.5-1.4,2.6-1.4c1.1,0,1.8,0.4,2.3,1.1c0.5,0.7,0.7,2.3,0.7,4.9v5.5h17.9v-2.9c0-5.9-0.6-10.1-1.7-12.5
			c-1.1-2.5-3.5-4.5-7-6.1c-3.5-1.6-7.8-2.4-12.8-2.4c-4.6,0-8.5,0.7-11.7,2.2c-3.2,1.5-5.6,3.5-7,6.2c-1.5,2.6-2.2,6.8-2.2,12.5
			c0,3.9,0.5,7.2,1.5,9.7c1,2.5,2.3,4.5,3.9,6c1.6,1.4,4.7,3.7,9.5,6.9c4.8,3.1,7.8,5.4,9,6.7c1.2,1.3,1.8,4.2,1.8,8.6
			c0,2-0.3,3.5-0.9,4.5c-0.6,1-1.6,1.5-2.9,1.5c-1.3,0-2.2-0.4-2.7-1.2c-0.5-0.8-0.8-2.6-0.8-5.4v-9h-17.9v4.9
			c0,5.6,0.6,9.9,1.7,12.9c1.1,3,3.5,5.5,7.2,7.5s8.1,2.9,13.2,2.9c4.7,0,8.8-0.8,12.4-2.5c3.5-1.7,5.9-3.8,7.2-6.3
			c1.2-2.5,1.9-6.4,1.9-11.7C755.1,494.1,754,488.8,751.7,485.5z"/>
	</g>
</g>
</svg>
