<?xml version="1.0" encoding="utf-8"?>
<!-- Generator: Adobe Illustrator 18.0.0, SVG Export Plug-In . SVG Version: 6.00 Build 0)  -->
<!DOCTYPE svg PUBLIC "-//W3C//DTD SVG 1.1//EN" "http://www.w3.org/Graphics/SVG/1.1/DTD/svg11.dtd">
<svg version="1.1" xmlns="http://www.w3.org/2000/svg" xmlns:xlink="http://www.w3.org/1999/xlink" x="0px" y="0px"
	 viewBox="0 0 766.5 489.7" enable-background="new 0 0 766.5 489.7" xml:space="preserve">
<g id="Layer_1">
</g>
<g id="Layer_2">
	<g>
		<path d="M714.6,379.3v-5.7l-0.7-43.5c0,0-4.3-1.4-11.8-1.4V322h-2.9l-1.1-2.8l-3.3-5.4v-52.4h-19.4l-1.9,57.9l-5.5-0.1V162.9
			h-25.1v125.6l-6.6,1.9V179.6c0-1.7-0.6-3.2-1.8-4.4l-17.5-19.4l-18.4,18.7c-1.4,1.2-2.2,3-2.2,4.9v94.4l-8.9,1.3V89.5h-12.1v-3.2
			h8.8c1.7,0,3-1.3,3-3c0-1.7-1.3-3-3-3h-8.8l-2.5-58.8l-2.8,58.8h-9.8c-1.7,0-3,1.3-3,3c0,1.7,1.3,3,3,3h9.8v3.2h-12.5v178
			l-5.8-4.2l-1.8,1.7c-0.2-0.4-0.3-0.8-0.5-1.2h-0.3c-0.2-0.4-0.3-0.8-0.5-1.2h0.3c-1-2.3-2.1-4.4-3.3-6.2v0.1
			c-0.1-0.1-0.2-0.3-0.2-0.4h0.1c-0.3-0.4-0.5-0.8-0.8-1.2h0c-0.3-0.4-0.5-0.8-0.8-1.2h0c-0.8-1.1-1.5-2.1-2.3-3.1h0
			c-0.3-0.4-0.7-0.8-1-1.2h0.1c-0.3-0.4-0.6-0.7-0.9-1h-0.1c0,0,0,0,0,0v-0.1c-0.6-0.6-1.2-1.2-1.8-1.7h-0.2
			c-8.8-7.5-17.7-7.1-17.7-7.1h-3.8v0.4h-8.4v-7.5h-1.9v7.5h-6.8v0.6h7v1.2h-7v1h7v1.2h-7v3.1h17.1v1.2h-17.1v1.2h4.5v1.1h-4.5v8.3
			h1.8v1.2h-1.8v0.8h10.8v1.5h-10.8v0.8h10.8v1.2h-10.8v4.5h2.4v1.5h-2.4v0.7h17.1v1.3h-17.1v0.8h6.7v1.5h-6.7v7.7h9.7v1.2h-9.7v0.8
			h12.9v1.6h-12.9v0.7h12.9v1.5h-12.9v2.7h17.1v1.5h-17.1v0.8h4.5v1.5h-4.5v0.9h17.1v1.2h-17.1v0.7h17.1v1.5h-17.1v0.8h0.4v1.5h-0.4
			v5h6.7v1.5h-6.7v2.7h1.9v1.5h-1.9v0.8h10.8v1.5h-10.8v0.8h10.8v1.1h-10.8v3h17.1v1.6h-17.1v5.4h17.1v1.2h-17.1v12h2.6v1.1h-2.6
			v0.9h17.1v1.1h-17.1v1.3h0.5v1.1h-0.5v5.5h6.8v1.1h-6.8v3.2h4.6v1.1h-4.6v1.2h5.7v1.1h-5.7v0.9h5.1v1.4h-5.1v3.2h8.3v1.1h-8.3v5.4
			h17.1v1.4h-17.1v0.9h2.7v1.1h-2.7v0.4h-9.5V235.1h-4.2v24.2h-2.9l-5.3,5.5v1h-1l-1.8,1.8h0.9v1.2h-2.1l-0.8,0.8h1v1.5h-2.4
			l-0.8,0.8h1.7v1.2h-2.8l-2.7,2.8l-18.6,19.4v-21h-4.2v27.6h-2.3l-1.1,1.2h3.4v1.7h-4.3l-1.2,0.7h5.5v1.3h-7l-0.7,0.8h7.7v1.6h-9.2
			l-0.7,0.7h9.9v1.5h-11.4l-0.8,0.8h6v1.2h-7.1l-0.7,0.7h14.1v1.5h-15.5l-0.7,0.8h8.4v1.5H426v-0.2l-0.9,0.9v55.1h-8.7v-2.4h-5.1
			v-1.4h5.1v-0.9h-5.7v-1.1h5.7v-1.2h-4.6v-1.1h4.6v-3.2h-6.8v-1.1h6.8v-5.5h-0.5v-1.1h0.5v-1.3h-18v-1.1h18v-0.9h-2.6v-1.1h2.6v-12
			h-18v-1.2h18v-5.4h-18v-1.6h18v-3h-10.8v-1.1h10.8v-0.8h-10.8v-1.5h10.8V323h-1.9v-1.5h1.9v-2.7h-6.7v-1.5h6.7v-5H416v-1.5h0.4
			v-0.8h-18v-1.5h18v-0.7h-18v-1.2h18v-0.9h-4.5V304h4.5v-0.8h-18v-1.5h18V299h-12.9v-1.5h12.9v-0.7h-12.9v-1.6h12.9v-0.8h-9.7v-1.2
			h9.7v-7.7h-6.7V284h6.7v-0.8h-18V282h18v-0.7H414v-1.5h2.4v-4.5h-10.8v-1.2h10.8v-0.8h-10.8v-1.5h10.8v-0.8h-1.8v-1.2h1.8v-8.3
			h-4.5v-1.1h4.5v-1.2h-18v-1.2h18V255h-7v-1.2h7v-1h-7v-1.2h7v-0.6h-18v-15.2h-4.2v101.3l-10.4,9.7l-11-10.1V235.8h-4.2v15h-18.8
			v1.8h0.1h1.8v1.2h-1.8h-0.1v0.8h0.1h10.8v1.5h-10.8h-0.1v0.8h0.1h10.8v1.2h-10.8h-0.1v4.5h0.1h2.4v1.5h-2.4h-0.1v0.7h0.1h18.2v1.3
			h-18.2h-0.1v0.8h0.1h6.7v1.5h-6.7h-0.1v7.7h0.1h9.7v1.2h-9.7h-0.1v0.8h0.1h12.9v1.6h-12.9h-0.1v0.7h0.1h12.9v1.5h-12.9h-0.1v2.7
			h0.1h18.2v1.5h-18.2h-0.1v0.8h0.1h4.5v1.5h-4.5h-0.1v0.9h0.1h18.2v1.2h-18.2h-0.1v0.7h0.1h18.2v1.5h-18.2h-0.1v0.8h0.1h0.4v1.5
			h-0.4h-0.1v5h0.1h6.7v1.5h-6.7h-0.1v2.7h0.1h1.9v1.5h-1.9h-0.1v0.8h0.1h10.8v1.5h-10.8h-0.1v0.8h0.1h10.8v1.1h-10.8h-0.1v3h0.1
			h18.1v1.6h-18.1h-0.1v5.4h0.1h18.1v1.2h-18.1h-0.1v12h0.1h2.6v1.1h-2.6h-0.1v0.9h0.1h18.3v1.1h-18.3h-0.1v7.8h2.1h6.8v1.1h-6.8
			h-2.1v8h0.6h18.2v1.2h-18.2h-0.6v12.6h0.6h10.8v1.5h-10.8h-0.6v0.8h0.6h10.8v1.2h-10.8h-0.6v3.4h-19.7l4.5-4.7h-4.4v-1.4h4.8v1
			l1-1v0h0l0.9-0.9h-1.7v-1.1h2.7l1.2-1.2h-2.5v-1.1h3.6l1.8-1.8v-1.4H334V359h7.9v-5.5h-0.6v-1.1h0.6v-1.3h-21.4v-1.1h21.4v-0.9
			h-3.1v-1.1h3.1v-12h-21.3V335h21.3v-5.4h-21.3V328h21.3v-3h-12.6v-1.1h12.6v-0.8h-12.6v-1.5h12.6v-0.8h-2.2v-1.5h2.2v-2.7h-7.8
			v-1.5h7.8v-5h-0.5v-1.5h0.5v-0.8h-21.4v-1.5h21.4v-0.7h-21.4v-1.2h21.4v-0.9h-5.3v-1.5h5.3V301h-21.4v-1.5h21.4v-2.7h-15.2v-1.5
			h15.2v-0.7h-15.2v-1.6h15.2v-0.8h-11.4V291h11.4v-7.7H334v-1.5h7.4l-0.7-0.8h-20.1v-1.3h18.8l-2.1-2.1v1.4h-0.7v-1.5h0.6l-4.4-4.5
			h-3.5v-1.2h2.4l-0.8-0.8h-1.6v-0.8H328v0.8h-4.4v-0.8h-1.2v0.8h-0.7v-0.8h-2v103.4h-3.9V270.3h-1.9v0.8h-0.7v-0.8h-1.2v0.8h-4.4
			v-0.8h-1.3v0.8h-1.5l-1,0.8h2.5v1.2h-3.9l-3.4,2.8v0.8h-1l-1.5,1.2v1.2H295l-0.8,0.7h20.6v1.3h-21.2v0.8h7.8v1.5h-7.8v7.7H305v1.2
			h-11.3v0.8h15.1v1.6h-15.1v0.7h15.1v1.5h-15.1v2.7h21.2v1.5h-21.2v0.8h5.3v1.5h-5.3v0.9h21.2v1.2h-21.2v0.7h21.2v1.5h-21.2v0.8
			h0.5v1.5h-0.5v5h7.8v1.5h-7.8v2.7h2.2v1.5h-2.2v0.8h12.5v1.5h-12.5v0.8h12.5v1.1h-12.5v3h21.1v1.6h-21.1v5.4h21.1v1.2h-21.1v12h3
			v1.1h-3v0.9h21.2v1.1h-21.2v1.3h0.6v1.1h-0.6v5.5h7.9v1.1h-7.9v1.8c0.4,0.4,0.9,0.9,1.5,1.4h3.8v1.1h-2.7c0.4,0.4,0.8,0.8,1.3,1.2
			h2.8v1.1h-1.7c0.3,0.3,0.6,0.6,1,0.9h0v0c0.3,0.3,0.6,0.6,0.9,0.9v-0.9h4.7v1.4h-4.2c1.5,1.4,2.9,2.8,4.1,3.9v-0.8h0.4v1.1h-0.1
			c0.2,0.2,0.3,0.3,0.5,0.4h-19.5v-93.9H268v-2.7h-3.8v71.3l-18.8-22v-79h-3.8v-0.2h-0.8v1h-8.7v-11.4h-2.1v11.4h-7.4v1.2h4.5v1.1
			h-4.5v8.3h1.8v1.2h-1.8v0.8h10.8v1.5h-10.8v0.8h10.8v1.2h-10.8v4.5h2.4v1.5h-2.4v0.7h18.2v1.3h-18.2v0.8h6.7v1.5h-6.7v7.7h9.7v1.2
			h-9.7v0.8h12.9v1.6h-12.9v0.7h12.9v1.5h-12.9v2.7h18.2v1.5h-18.2v0.8h4.5v1.5h-4.5v0.9h18.2v1.2h-18.2v0l-0.9-15.9
			c0,0-0.9,24.3-1.9,26.2c-1,2-1,0.8-1,0.8l-0.3-138.3l-2.6-0.8v-22l-3.9-1.1v-8.8l-2.9-1v-2.6l-3.6-1v-4.6c0,0-4.4,2.3-4.8-8.6V96
			l-5.2-5.4V79.8h-1.3V91l-5.5,5v31.2l-4.6,0.1v4.3l-3.7,0.1v4.7l-3.6,0.8v7.7l-2.3,0.9v22l-2.1,1.9v115.6l-2.2,2.7v9.4h-4.7v-65.5
			l-18-0.2v71.6l-9.7-11v-55.5h-4.7v-5.7h-14.7v-33.3h-12V267l-12.3-0.2V209l-14.7-0.2v88.5l-3.8-0.2v-5h-6v-12l-3.2-0.2v93.7v5.7
			h491.8H714.6z M503.8,369h-0.4v-1.1h0.4V369z M507.2,369h-1.8v-1.1h1.8V369z M411.9,310.7h2.5v1.5h-2.5V310.7z M409.7,310.7h0.8
			v1.5h-0.8V310.7z M357.5,349.9h-7h-0.4v-1.2h0.4h7V349.9z M357.5,347.7h-7h-0.3v-1.2h0.3h7V347.7z M336.6,308.4h2.9v1.5h-2.9
			V308.4z M334.1,308.4h0.9v1.5h-0.9V308.4z M329.1,292.2h-4.4V291h4.4V292.2z M322.7,287.9v-1.5h0.6v1.5H322.7z M323.4,291v1.2
			h-0.6V291H323.4z M323.4,293v1.5h-2V293H323.4z M320.6,286v-1.2h6.6v1.2H320.6z M325.3,286.4v1.5h-0.6v-1.5H325.3z M324.7,295.2
			h0.7v1.5h-0.7V295.2z M324.7,294.4v-1.5h0.7v1.5H324.7z M334.4,284.8h1.3v1.2h-1.3V284.8z M337.2,287.3v1.2h-10.4v-1.2H337.2z
			 M327.8,286v-1.2h1.8v1.2H327.8z M330.7,286v-1.2h0.8v1.2H330.7z M332.4,284.8h1.1v1.2h-1.1V284.8z M320.6,281.8h11.7v1.5h-11.7
			V281.8z M321.9,286.4v1.5h-1.3v-1.5H321.9z M327.5,279.1h-6.9v-1.5h6.9V279.1z M334,275.5h0.9v1.2H334V275.5z M332.4,277.6h2.6
			v1.5h-2.6V277.6z M332.3,275.5v1.2h-7.9v-1.2H332.3z M327.4,271.9h0.5v1.2h-0.5V271.9z M320.5,271.9h5.6v1.2h-5.6V271.9z
			 M320.5,291h1.3v1.2h-1.3V291z M320.5,297.6h11.4v1.2h-11.4V297.6z M334.2,301.8h0.9v1.5h-0.9V301.8z M320.5,301.8h9.8v1.5h-9.8
			V301.8z M330.3,372.2v1.1h-0.4v-1.1H330.3z M332.3,366.6h-11.6v-1.1h11.6V366.6z M326.5,363.3v1.1h-5.8v-1.1H326.5z M320.7,362
			V361h3.7v1.1H320.7z M327.4,364.4v-1.1h2v1.1H327.4z M330.3,364.4v-1.1h0.9v1.1H330.3z M333.9,366.6h-0.7v-1.1h0.7V366.6z
			 M334.8,363.3v1.1h-2.7v-1.1H334.8z M336.7,352.5h3v1.1h-3V352.5z M324.4,352.5h10.5v1.1h-10.5V352.5z M320.6,359h11.5v1.1h-11.5
			V359z M320.6,372.2h7.6v1.1h-7.6V372.2z M327.2,349.2h-6.7v-1.1h6.7V349.2z M322.9,342.4v-1.3h0.6v1.3H322.9z M324.7,342.4v-1.3
			h0.6v1.3H324.7z M337.2,349.2h-4.8v-1.1h4.8V349.2z M328.6,346.3v-1.1h5.2v1.1H328.6z M335.1,346.3v-1.1h0.7v1.1H335.1z
			 M337.3,343.1h-10.7v-1.3h10.7V343.1z M334.4,339.3h1.4v1.4h-1.4V339.3z M332.7,339.3h0.8v1.4h-0.8V339.3z M330.7,339.3h0.8v1.4
			h-0.8V339.3z M327.8,339.3h1.9v1.4h-1.9V339.3z M320.7,339.3h6.7v1.4h-6.7V339.3z M337.3,330.4v1.1h-16.7v-1.1H337.3z M326.1,325
			h-5.5v-1.1h5.5V325z M321.6,323.1v-1.5h0.7v1.5H321.6z M328,325h-0.4v-1.1h0.4V325z M328,323.1h-4.3v-1.5h4.3V323.1z M325.4,320.7
			v-1.5h0.7v1.5H325.4z M330,320.7h-2.7v-1.5h2.7V320.7z M332.2,320.7h-1v-1.5h1V320.7z M333.9,319.2h1v1.5h-1V319.2z M332.3,316.5
			h-2.9v-1.5h2.9V316.5z M322.9,308.4h8.2v1.5h-8.2V308.4z M320.6,319.2h3.5v1.5h-3.5V319.2z M320.5,341.2h1.4v1.3h-1.4V341.2z
			 M314.7,363.3v1.1H309v-1.1H314.7z M311,362V361h3.7v1.1H311z M314.8,372.2v1.1h-7.5v-1.1H314.8z M309.3,271.9h5.6v1.2h-5.6V271.9
			z M310.1,294.4v-1.5h0.7v1.5H310.1z M310.8,295.2v1.5h-0.7v-1.5H310.8z M310.8,287.9h-0.6v-1.5h0.6V287.9z M308.3,286v-1.2h6.5
			v1.2H308.3z M312.1,287.9v-1.5h0.6v1.5H312.1z M312.7,291v1.2h-0.6V291H312.7z M312.1,293h2v1.5h-2V293z M313.6,292.2V291h1.3v1.2
			H313.6z M307.6,271.9h0.5v1.2h-0.5V271.9z M300.6,275.5h0.9v1.2h-0.9V275.5z M298.9,279.1h-0.7v-1.5h0.7V279.1z M303.1,279.1h-2.6
			v-1.5h2.6V279.1z M303.2,275.5h7.9v1.2h-7.9V275.5z M308,279.1v-1.5h6.8v1.5H308z M314.9,286.4v1.5h-1.3v-1.5H314.9z M303.2,281.8
			h11.6v1.5h-11.6V281.8z M307.7,284.8v1.2h-1.8v-1.2H307.7z M304.8,284.8v1.2H304v-1.2H304.8z M302,284.8h1.1v1.2H302V284.8z
			 M299.8,284.8h1.3v1.2h-1.3V284.8z M298.4,288.5v-1.2h10.3v1.2H298.4z M306.4,292.2V291h4.4v1.2H306.4z M303.6,298.7v-1.2h11.3
			v1.2H303.6z M301.4,303.3h-0.9v-1.5h0.9V303.3z M305.2,303.3v-1.5h9.7v1.5H305.2z M311.4,320.7v-1.5h3.5v1.5H311.4z M313.9,321.6
			v1.5h-0.7v-1.5H313.9z M311.8,321.6v1.5h-4.3v-1.5H311.8z M309.3,320.7v-1.5h0.7v1.5H309.3z M304.5,308.4h8.1v1.5h-8.1V308.4z
			 M298.9,310H296v-1.5h2.9V310z M300.6,310v-1.5h0.9v1.5H300.6z M301.7,320.7h-1v-1.5h1V320.7z M303.3,314.9h2.9v1.5h-2.9V314.9z
			 M304.3,320.7h-1v-1.5h1V320.7z M305.5,320.7v-1.5h2.7v1.5H305.5z M308,325h-0.4v-1.1h0.4V325z M309.4,325v-1.1h5.4v1.1H309.4z
			 M298.2,331.6v-1.1h16.6v1.1H298.2z M315,341.2v1.3h-1.4v-1.3H315z M308.2,339.3h6.6v1.4h-6.6V339.3z M312.6,341.2v1.3H312v-1.3
			H312.6z M310.7,341.2v1.3h-0.6v-1.3H310.7z M305.8,339.3h1.9v1.4h-1.9V339.3z M304,339.3h0.8v1.4H304V339.3z M302.1,339.3h0.8v1.4
			h-0.8V339.3z M299.8,339.3h1.3v1.4h-1.3V339.3z M298.3,341.8h10.6v1.3h-10.6V341.8z M300.5,345.2v1.1h-0.7v-1.1H300.5z
			 M303.1,349.2h-4.8v-1.1h4.8V349.2z M306.9,346.3h-5.1v-1.1h5.1V346.3z M308.3,349.2v-1.1h6.7v1.1H308.3z M314.8,360.1h-11.4V359
			h11.4V360.1z M308.1,363.3v1.1h-2v-1.1H308.1z M305.2,363.3v1.1h-0.9v-1.1H305.2z M298.9,353.5H296v-1.1h2.9V353.5z M300.7,353.5
			v-1.1h10.4v1.1H300.7z M300.8,363.3h2.6v1.1h-2.6V363.3z M302.3,366.6h-0.7v-1.1h0.7V366.6z M303.3,366.6v-1.1h11.5v1.1H303.3z
			 M268,372.7h4.5v0.9H268V372.7z M268,370.8h5.1v1.1H268V370.8z M268,368.5h4v1.1h-4V368.5z M268,355.3h17.7v1.1H268V355.3z
			 M268,353.3h2v1.1h-2V353.3z M268,340.2h17.6v1.2H268V340.2z M268,333.2h17.6v1.6H268V333.2z M268,329.1h10.2v1.1H268V329.1z
			 M268,326.7h10.2v1.5H268V326.7z M268,324.4h1.3v1.5H268V324.4z M268,311.2h17.7v1.5H268V311.2z M268,309.4h17.7v1.2H268V309.4z
			 M268,306.9h4v1.5h-4V306.9z M268,304.6h17.7v1.5H268V304.6z M268,300.4h12.4v1.5H268V300.4z M268,298.1h12.4v1.6H268V298.1z
			 M268,296.2h9.2v1.2H268V296.2z M268,286.9h6.2v1.5H268V286.9z M268,284.9h17.6v1.3H268V284.9z M280.4,292.5v1.2h-8.9v-1.2H280.4z
			 M272.7,291.1V290h1.1v1.2H272.7z M274.6,291.1V290h1v1.2H274.6z M276.3,291.1V290h0.7v1.2H276.3z M278,291.1V290h1.5v1.2H278z
			 M278.4,296.2h3.8v1.2h-3.8V296.2z M282.2,293.1h-0.5v-1.5h0.5V293.1z M282.2,298.1v1.5h-0.6v-1.5H282.2z M281.6,300.4h0.6v1.5
			h-0.6V300.4z M285.7,302.7v1.2H276v-1.2H285.7z M284.9,299.6h-1.7v-1.5h1.7V299.6z M283.3,297.3v-1.2h0.5v1.2H283.3z M283.8,293.1
			h-0.5v-1.5h0.5V293.1z M280,291.1V290h5.6v1.2H280z M275.7,288.5v-1.5h10v1.5H275.7z M285.7,306.9v1.5h-8.3v-1.5H285.7z
			 M274.1,306.9v1.5h-0.8v-1.5H274.1z M275.7,321.6v-1.5h2.5v1.5H275.7z M276.6,324.4v1.5h-0.9v-1.5H276.6z M276.7,315.1v-1.5h6.9
			v1.5H276.7z M281.5,324.4v1.5h-0.6v-1.5H281.5z M277.6,324.4h2.3v1.5h-2.3V324.4z M279.4,329.1h0.4v1.1h-0.4V329.1z M279.4,328.3
			v-1.5h3.7v1.5H279.4z M280.9,329.1h4.7v1.1h-4.7V329.1z M284.2,328.3v-1.5h0.6v1.5H284.2z M282.7,325.9v-1.5h3v1.5H282.7z
			 M274.3,324.4v1.5h-0.9v-1.5H274.3z M274.1,315.1h-0.8v-1.5h0.8V315.1z M272,313.6v1.5h-2.5v-1.5H272z M268,320.1h6.1v1.5H268
			V320.1z M285.6,335.6v1.1h-14.2v-1.1H285.6z M275.6,353.3v1.1h-4.1v-1.1H275.6z M272.7,351.5v-1.1h0.6v1.1H272.7z M274.4,351.5
			v-1.1h4.4v1.1H274.4z M271.4,348.2V347h9.1v1.3H271.4z M272.7,345.8v-1.4h1.2v1.4H272.7z M274.7,345.8v-1.4h0.7v1.4H274.7z
			 M276.3,345.8v-1.4h0.7v1.4H276.3z M277.9,345.8v-1.4h1.6v1.4H277.9z M280,353.3h5.7v1.1H280V353.3z M281.6,347.6v-1.3h0.5v1.3
			H281.6z M283.7,347.6h-0.5v-1.3h0.5V347.6z M279.9,345.8v-1.4h5.7v1.4H279.9z M273.6,369.5v-1.1h2.3v1.1H273.6z M274.9,370.8v1.1
			h-0.6v-1.1H274.9z M275.7,370.8h9.8v1.1h-9.8V370.8z M276.6,369.5v-1.1h0.8v1.1H276.6z M278.1,369.5v-1.1h1.7v1.1H278.1z
			 M280.6,369.5v-1.1h4.9v1.1H280.6z M282.3,367.2v-1.1h3.2v1.1H282.3z M275.8,365.3v-1.1h9.8v1.1H275.8z M273.5,358.7v-1.1h8.9v1.1
			H273.5z M272,357.6v1.1h-2.5v-1.1H272z M268,364.2h6.2v1.1H268V364.2z M273.3,373.7v-0.9h4.1v0.9H273.3z M285.7,347.6h-1.2v-1.3
			h1.2V347.6z M285.7,297.3h-1.1v-1.2h1.1V297.3z M285.7,293.1h-1.1v-1.5h1.1V293.1z M285.6,284.2h-5.9v-1.5h5.9V284.2z
			 M275.7,280.7h6.8v1.2h-6.8V280.7z M273.4,280.7h0.8v1.2h-0.8V280.7z M273.3,282.7h2.2v1.5h-2.2V282.7z M272,284.2h-0.6v-1.5h0.6
			V284.2z M269.4,280.7h2.5v1.2h-2.5V280.7z M269.8,282.7v1.5H268v-1.5H269.8z M225.4,369.8H241v1.4h-15.5
			C225.4,370.8,225.4,370.3,225.4,369.8z M225.2,363.3h5.8v1.1h-5.8C225.2,364.1,225.2,363.7,225.2,363.3z M225,358.8h2.8v1.4h-2.7
			C225.1,359.7,225.1,359.2,225,358.8z M225,356.8h3.5v1.1H225C225,357.5,225,357.1,225,356.8z M224.9,354.5h2.4v1.1h-2.4
			C224.9,355.2,224.9,354.8,224.9,354.5z M224.8,350.2h4.7v1.1h-4.7C224.8,350.9,224.8,350.6,224.8,350.2z M224.5,341.3H241v1.1
			h-16.5C224.5,342.1,224.5,341.7,224.5,341.3z M224.4,339.4h0.9v1.1h-0.9C224.4,340.1,224.4,339.7,224.4,339.4z M224,326.2h16.9
			v1.2H224C224,327,224,326.6,224,326.2z M223.8,319.2h17.1v1.6h-17C223.8,320.3,223.8,319.7,223.8,319.2z M223.6,315.1h9.8v1.1
			h-9.8C223.6,315.8,223.6,315.4,223.6,315.1z M223.5,312.7h9.9v1.5h-9.9C223.6,313.7,223.6,313.2,223.5,312.7z M223.5,310.4h1.1
			v1.5h-1.1C223.5,311.3,223.5,310.8,223.5,310.4z M223.3,306.1h6.1v1.5h-6.1L223.3,306.1z M222.9,299.6h0.3v1.5H223L222.9,299.6z
			 M224.7,301.2v-1.5h2.5v1.5H224.7z M229.4,301.2h-0.8v-1.5h0.8V301.2z M229.6,310.4v1.5h-0.9v-1.5H229.6z M234.6,315.1h0.4v1.1
			h-0.4V315.1z M232.9,311.9v-1.5h2.3v1.5H232.9z M234.6,314.3v-1.5h3.7v1.5H234.6z M236.1,311.9v-1.5h0.6v1.5H236.1z M236.2,315.1
			h4.7v1.1h-4.7V315.1z M239.4,314.3v-1.5h0.6v1.5H239.4z M237.9,311.9v-1.5h3v1.5H237.9z M238.9,301.2H232v-1.5h6.9V301.2z
			 M233.5,306.1v1.5H231v-1.5H233.5z M231.8,310.4v1.5H231v-1.5H231.8z M240.9,321.6v1.1h-14.2v-1.1H240.9z M237.6,353.2v-1.1h3.2
			v1.1H237.6z M240.8,354.5v1.1h-4.9v-1.1H240.8z M231.1,351.3v-1.1h9.8v1.1H231.1z M235.1,354.5v1.1h-1.7v-1.1H235.1z M232.6,354.5
			v1.1h-0.8v-1.1H232.6z M237.7,344.7h-8.9v-1.1h8.9V344.7z M228.8,355.5v-1.1h2.3v1.1H228.8z M230.1,356.8v1.1h-0.6v-1.1H230.1z
			 M232.7,358.8v1.4h-4.1v-1.4H232.7z M232.6,363.3h0.4v1.1h-0.4V363.3z M231,357.8v-1.1h9.8v1.1H231z M234.5,363.3h6.4v1.1h-6.4
			V363.3z M235.2,367.9h5.7v1.1h-5.7V367.9z M241,340.4h-5.7v-1.1h5.7V340.4z M230.8,339.4v1.1h-4.1v-1.1H230.8z M228,337.5v-1.1
			h0.6v1.1H228z M229.7,337.5v-1.1h4.4v1.1H229.7z M226.7,334.2V333h9.1v1.3H226.7z M228,331.8v-1.4h1.2v1.4H228z M229.9,331.8v-1.4
			h0.7v1.4H229.9z M231.6,331.8v-1.4h0.7v1.4H231.6z M233.2,331.8v-1.4h1.6v1.4H233.2z M236.9,333.6v-1.3h0.5v1.3H236.9z
			 M238.9,333.6h-0.5v-1.3h0.5V333.6z M235.2,331.8v-1.4h5.7v1.4H235.2z M227.2,343.7v1.1h-2.5v-1.1H227.2z M230.7,367.9v1.1h-1.8
			v-1.1H230.7z M227.3,367.9v1.1h-0.4v-1.1H227.3z M240.9,258.8v1.2h-3v-1.2H240.9z M236.9,285.6v-1.5h0.6v1.5H236.9z M237.4,286.4
			v1.5h-0.6v-1.5H237.4z M237.4,279.1h-0.5v-1.5h0.5V279.1z M235.3,277.1V276h5.6v1.2H235.3z M238.5,279.1v-1.5h0.5v1.5H238.5z
			 M239,282.2v1.2h-0.5v-1.2H239z M238.5,284.2h1.7v1.5h-1.7V284.2z M239.8,283.3v-1.2h1.1v1.2H239.8z M234.6,262.3v-1.5h3.8v1.5
			H234.6z M235.1,263.1v1.2h-0.4v-1.2H235.1z M236.1,260v-1.2h0.6v1.2H236.1z M236.2,263.1h4.8v1.2h-4.8V263.1z M239.4,262.3v-1.5
			h0.6v1.5H239.4z M235.2,249.4h5.8v1.1h-5.8V249.4z M237.7,256v1H231v-1H237.7z M229.4,260h-0.8v-1.2h0.8V260z M229.4,257.1h-4.8
			v-1.2h4.8V257.1z M229.4,250.5h-0.9v-1.1h0.9V250.5z M231.7,260h-0.8v-1.2h0.8V260z M232.7,260v-1.2h2.3v1.2H232.7z M228.7,266.7
			h0.8v1.2h-0.8V266.7z M224.7,267.9v-1.2h2.5v1.2H224.7z M227.2,270.3h-0.6v-1.5h0.6V270.3z M230.8,270.3h-2.2v-1.5h2.2V270.3z
			 M230.9,266.7h6.8v1.2h-6.8V266.7z M235,270.3v-1.5h5.9v1.5H235z M240.9,277.6v1.5h-1.1v-1.5H240.9z M230.9,273h10v1.5h-10V273z
			 M234.8,276v1.2h-1.5V276H234.8z M232.3,276v1.2h-0.7V276H232.3z M229.8,276h1v1.2h-1V276z M228,276h1.1v1.2H228V276z
			 M226.8,279.7v-1.2h8.9v1.2H226.8z M233.6,283.3v-1.2h3.8v1.2H233.6z M231.3,289.9v-1.2h9.7v1.2H231.3z M229.3,294.5h-0.8V293h0.8
			V294.5z M232.6,294.5V293h8.3v1.5H232.6z M241,332.4v1.3h-1.2v-1.3H241z M240.9,297.2v1.5h-18.1l-0.1-1.5H240.9z M245.5,339.5
			l18.8,21.7v12.4h-18.8V339.5z M398.4,343.4h0.9v1.3h-0.9V343.4z M408.2,367.8v1.1h-9.8v-1.1H408.2z M404,366.6v-1.1h1.7v1.1H404z
			 M406.5,366.6v-1.1h0.8v1.1H406.5z M403.2,366.6h-4.9v-1.1h4.9V366.6z M401.5,364.3h-3.1v-1.1h3.1V364.3z M410.5,371.2h-4.1v-1.4
			h4.1V371.2z M409,368.9v-1.1h0.6v1.1H409z M410.3,365.5v1.1H408v-1.1H410.3z M411.9,354.7h2.5v1.1h-2.5V354.7z M401.4,354.7h8.9
			v1.1h-8.9V354.7z M408,361.3v1.1h-9.6v-1.1H408z M403.8,351.5h-5.5v-1.1h5.5V351.5z M400.2,344.7v-1.3h0.5v1.3H400.2z
			 M401.7,344.7v-1.3h0.5v1.3H401.7z M412.4,351.5h-4.1v-1.1h4.1V351.5z M405,348.6v-1.1h4.4v1.1H405z M410.5,348.6v-1.1h0.6v1.1
			H410.5z M412.5,345.3h-9.1v-1.3h9.1V345.3z M410,341.5h1.2v1.4H410V341.5z M408.5,341.5h0.7v1.4h-0.7V341.5z M406.8,341.5h0.7v1.4
			h-0.7V341.5z M404.3,341.5h1.6v1.4h-1.6V341.5z M404,341.5v1.4h-5.6v-1.4H404z M412.5,332.7v1.1h-14.1v-1.1H412.5z M402.9,327.2
			h-4.5v-1.1h4.5V327.2z M399,325.4v-1.5h0.6v1.5H399z M404.5,327.2h-0.4v-1.1h0.4V327.2z M404.5,325.4h-3.7v-1.5h3.7V325.4z
			 M402.3,323v-1.5h0.6v1.5H402.3z M406.2,323H404v-1.5h2.3V323z M408.1,323h-0.9v-1.5h0.9V323z M409.5,321.5h0.9v1.5h-0.9V321.5z
			 M408.1,318.7h-2.5v-1.5h2.5V318.7z M400.2,310.7h6.9v1.5h-6.9V310.7z M401.2,321.5v1.5h-2.8v-1.5H401.2z M409.8,304h0.8v1.5h-0.8
			V304z M406.5,304v1.5h-8.1V304H406.5z M404.5,271.9v1.5h-3.8v-1.5H404.5z M402.4,271.1v-1.2h0.6v1.2H402.4z M404.4,274.2v1.2H404
			v-1.2H404.4z M401.2,271.1h-2.8v-1.2h2.8V271.1z M399.7,271.9v1.5h-0.6v-1.5H399.7z M402.9,274.2v1.2h-4.6v-1.2H402.9z
			 M401.7,296.7v-1.5h0.6v1.5H401.7z M402.2,297.4v1.5h-0.6v-1.5H402.2z M398.4,288.2V287h5.4v1.2H398.4z M402.2,288.7v1.5h-0.5
			v-1.5H402.2z M400,290.1v-1.5h0.5v1.5H400z M400.6,293.2v1.2h-0.5v-1.2H400.6z M400.6,295.2v1.5h-1.7v-1.5H400.6z M399.3,288.7
			v1.5h-0.9v-1.5H399.3z M399.3,293.2v1.2h-0.9v-1.2H399.3z M407.9,299.8v1.2h-9.5v-1.2H407.9z M405.5,294.4h-3.8v-1.2h3.8V294.4z
			 M410,287h1.1v1.2H410V287z M412.3,289.6v1.2h-8.9v-1.2H412.3z M404.3,288.2V287h1.5v1.2H404.3z M406.8,288.2V287h0.7v1.2H406.8z
			 M408.3,287h1v1.2h-1V287z M408.2,284v1.5h-9.8V284H408.2z M404.1,281.3h-5.7v-1.5h5.7V281.3z M411.9,277.8h2.5v1.2h-2.5V277.8z
			 M411.9,279.8h0.6v1.5h-0.6V279.8z M409.7,277.8h0.8v1.2h-0.8V277.8z M408.3,279.8h2.2v1.5h-2.2V279.8z M408.2,277.8v1.2h-6.8
			v-1.2H408.2z M406.4,271.1H404v-1.2h2.3V271.1z M409.7,260.5h0.9v1.1h-0.9V260.5z M409.7,267h4.8v1.2h-4.8V267z M409.7,269.9h0.8
			v1.2h-0.8V269.9z M408.2,271.1h-0.8v-1.2h0.8V271.1z M408.1,268.1h-6.7v-1h6.7V268.1z M404,260.5v1.1h-5.6v-1.1H404z M404.4,251.6
			h2.9v1.2h-2.9V251.6z M404.4,253.8h2.9v1.2h-2.9V253.8z M402.7,251.6h0.5v1.2h-0.5V251.6z M401.4,251.6h0.5v1.2h-0.5V251.6z
			 M400.1,251.6h0.5v1.2h-0.5V251.6z M399.5,253.8h3.6v1.2h-3.6V253.8z M399.4,251.6v1.2h-1v-1.2H399.4z M362.3,368.3v-1.5h3.8v1.5
			H362.3z M362.8,369.1v1.2h-0.4v-1.2H362.8z M363.8,366v-1.2h0.6v1.2H363.8z M368.6,366h-3v-1.2h3V366z M367.8,366.8v1.5h-0.6v-1.5
			H367.8z M363.9,369.1h4.7v1.2h-4.7V369.1z M365.2,252.6h3v1.2h-3V252.6z M364.1,279.4v-1.5h0.6v1.5H364.1z M364.7,280.1v1.5h-0.6
			v-1.5H364.7z M364.6,272.8h-0.5v-1.5h0.5V272.8z M362.5,270.9v-1.2h5.6v1.2H362.5z M365.7,272.8v-1.5h0.5v1.5H365.7z M366.3,275.9
			v1.2h-0.5v-1.2H366.3z M365.7,277.9h1.7v1.5h-1.7V277.9z M367,277.1v-1.2h1.1v1.2H367z M361.8,256v-1.5h3.8v1.5H361.8z
			 M362.3,256.9v1.2h-0.4v-1.2H362.3z M363.4,256.9h4.8v1.2h-4.8V256.9z M366.7,256v-1.5h0.6v1.5H366.7z M363.3,252.6h0.6v1.2h-0.6
			V252.6z M356.7,253.8h-0.8v-1.2h0.8V253.8z M358.9,253.8h-0.8v-1.2h0.8V253.8z M360,253.8v-1.2h2.3v1.2H360z M355.9,260.5h0.8v1.2
			h-0.8V260.5z M351.9,261.6v-1.2h2.5v1.2H351.9z M354.5,264h-0.6v-1.5h0.6V264z M358,264h-2.2v-1.5h2.2V264z M358.2,260.5h6.8v1.2
			h-6.8V260.5z M362.2,264v-1.5h5.9v1.5H362.2z M368.1,271.4v1.5H367v-1.5H368.1z M358.2,266.7h10v1.5h-10V266.7z M362,269.7v1.2
			h-1.5v-1.2H362z M359.5,269.7v1.2h-0.7v-1.2H359.5z M357.1,269.7h1v1.2h-1V269.7z M355.2,269.7h1.1v1.2h-1.1V269.7z M354,273.4
			v-1.2h8.9v1.2H354z M360.8,277.1v-1.2h3.8v1.2H360.8z M358.5,283.6v-1.2h9.7v1.2H358.5z M356.5,288.2h-0.8v-1.5h0.8V288.2z
			 M359.8,288.2v-1.5h8.3v1.5H359.8z M365.1,305.7v-1.5h3v1.5H365.1z M367.3,306.5v1.5h-0.6v-1.5H367.3z M365.5,306.5v1.5h-3.7v-1.5
			H365.5z M363.4,305.7v-1.5h0.6v1.5H363.4z M359.2,293.4h6.9v1.5h-6.9V293.4z M354.5,294.9h-2.5v-1.5h2.5V294.9z M355.9,294.9v-1.5
			h0.8v1.5H355.9z M356.8,305.7h-0.9v-1.5h0.9V305.7z M358.2,299.9h2.5v1.5h-2.5V299.9z M359.1,305.7h-0.9v-1.5h0.9V305.7z
			 M360.1,305.7v-1.5h2.3v1.5H360.1z M362.2,309.9h-0.4v-1.1h0.4V309.9z M363.4,309.9v-1.1h4.7v1.1H363.4z M353.8,316.5v-1.1h14.2
			v1.1H353.8z M368.2,326.1v1.3H367v-1.3H368.2z M362.4,324.2h5.7v1.4h-5.7V324.2z M366.2,326.1v1.3h-0.5v-1.3H366.2z M364.6,326.1
			v1.3h-0.5v-1.3H364.6z M360.4,324.2h1.6v1.4h-1.6V324.2z M358.8,324.2h0.7v1.4h-0.7V324.2z M357.1,324.2h0.7v1.4h-0.7V324.2z
			 M355.2,324.2h1.2v1.4h-1.2V324.2z M353.9,326.7h9.1v1.3h-9.1V326.7z M355.8,330.2v1.1h-0.6v-1.1H355.8z M358,334.2h-4.1v-1.1h4.1
			V334.2z M361.3,331.2h-4.4v-1.1h4.4V331.2z M362.5,334.2v-1.1h5.7v1.1H362.5z M352.5,338.5h-0.5h-2v-1.1h2h0.5V338.5z
			 M356.4,338.5h-2.5v-1.1h2.5V338.5z M358,338.5v-1.1h8.9v1.1H358z M362.5,349.9h-2.9v-1.2h2.9V349.9z M362.5,347.7h-2.9v-1.2h2.9
			V347.7z M367.4,349.9h-3.6v-1.2h3.6V349.9z M363.6,347.7v-1.2h0.5v1.2H363.6z M364.9,347.7v-1.2h0.5v1.2H364.9z M366.2,347.7v-1.2
			h0.5v1.2H366.2z M368.6,347.7h-1.1v-1.2h1.1V347.7z M360.3,345v-1.1h8.3v1.1H360.3z M362.9,355.4h5.8v1.1h-5.8V355.4z
			 M358.7,361.9h6.7v1h-6.7V361.9z M350.1,355.4h0.3h4.5v1.1h-4.5h-0.3V355.4z M352.2,366h-1.8H350v-1.2h0.4h1.8V366z M357.2,366
			h-0.8v-1.2h0.8V366z M357.2,363.1h-4.8v-1.2h4.8V363.1z M357.2,356.5h-0.9v-1.1h0.9V356.5z M359.4,366h-0.8v-1.2h0.8V366z
			 M360.5,366v-1.2h2.3v1.2H360.5z M358.7,372.7h6.8v1h-6.8V372.7z M356.4,372.7h0.8v1h-0.8V372.7z M352.4,372.7h2.5v1h-2.5V372.7z
			 M372.8,350.5l10.8,10.9l10.6-9.6v21.8h-21.4V350.5z M485.5,314.9v1.5h-6.7v-1.5H485.5z M478.8,310v-1.5h0.8v1.5H478.8z
			 M480.9,310v-1.5h2.5v1.5H480.9z M485,310v-1.5h0.4v1.5H485z M485.5,319.2v1.5h-1.9v-1.5H485.5z M479.5,319.2v1.5h-0.9v-1.5H479.5
			z M485.5,321.6v1.5h-10.8v-1.5H485.5z M467.3,329.6V328h18.1v1.6H467.3z M481.5,330.4v1.1h-14.2v-1.1H481.5z M472,323.9v1.1h-4.7
			v-1.1H472z M468.1,323.1v-1.5h0.6v1.5H468.1z M473.5,321.6v1.5h-3.7v-1.5H473.5z M471.4,320.7v-1.5h0.6v1.5H471.4z M473,320.7
			v-1.5h2.3v1.5H473z M473.5,323.9v1.1h-0.4v-1.1H473.5z M474.7,325v-1.1h10.8v1.1H474.7z M476.3,320.7v-1.5h0.9v1.5H476.3z
			 M477.2,316.5h-2.5v-1.5h2.5V316.5z M476.2,310h-6.9v-1.5h6.9V310z M470.3,319.2v1.5h-3v-1.5H470.3z M467.3,335h18.1v1.2h-18.1
			V335z M485.5,348.2v1.1h-2.6v-1.1H485.5z M477.3,348.2h4.1v1.1h-4.1V348.2z M474.1,346.3v-1.1h4.4v1.1H474.1z M479.6,346.3v-1.1
			h0.6v1.1H479.6z M472.4,343.1v-1.3h9.1v1.3H472.4z M473.4,340.7v-1.4h1.6v1.4H473.4z M475.9,340.7v-1.4h0.7v1.4H475.9z
			 M477.5,340.7v-1.4h0.7v1.4H477.5z M479,340.7v-1.4h1.2v1.4H479z M467.3,339.3h5.7v1.4h-5.7V339.3z M471.3,341.2v1.3h-0.5v-1.3
			H471.3z M469.2,341.2h0.5v1.3h-0.5V341.2z M472.9,348.2v1.1h-5.7v-1.1H472.9z M485.5,350.2v1.1h-18.3v-1.1H485.5z M485.5,352.5
			v1.1h-0.5v-1.1H485.5z M483.5,352.5v1.1H481v-1.1H483.5z M477.1,364.4v-1.1h2.3v1.1H477.1z M478.6,365.6v1.1H478v-1.1H478.6z
			 M467.4,366.6v-1.1h9.8v1.1H467.4z M473.7,372.2v1.1h-6.4v-1.1H473.7z M472.3,363.3v1.1h-4.9v-1.1H472.3z M467.4,362V361h3.2v1.1
			H467.4z M473,364.4v-1.1h1.7v1.1H473z M475.6,364.4v-1.1h0.8v1.1H475.6z M477.1,360.1h-9.8V359h9.8V360.1z M470.5,353.5v-1.1h8.9
			v1.1H470.5z M475.6,373.2h-0.4v-1.1h0.4V373.2z M475.5,369v-1.4h4.1v1.4H475.5z M478.7,360.1V359h6.8v1.1H478.7z M485.5,363.3v1.1
			h-4.6v-1.1H485.5z M479.7,365.6h5.7v1.1h-5.7V365.6z M480.4,367.6h5.1v1.4h-5.1V367.6z M485.5,303.3h-4.5v-1.5h4.5V303.3z
			 M469.1,287.9v-1.5h0.5v1.5H469.1z M469.6,291v1.2h-0.5V291H469.6z M469.7,293v1.5H468V293H469.7z M467.3,286v-1.2h5.6v1.2H467.3z
			 M481.4,287.3v1.2h-8.9v-1.2H481.4z M477.4,286v-1.2h1v1.2H477.4z M475.7,292.2V291h9.7v1.2H475.7z M485.5,292.9v1.6h-12.9v-1.6
			H485.5z M478.7,283.3v-1.5h6.7v1.5H478.7z M480.2,284.8v1.2H479v-1.2H480.2z M473.4,286v-1.2h1.5v1.2H473.4z M475.9,286v-1.2h0.7
			v1.2H475.9z M477.2,283.3h-10v-1.5h10V283.3z M471.3,286.4v1.5h-0.5v-1.5H471.3z M470.7,295.2h0.6v1.5h-0.6V295.2z M470.7,294.4
			v-1.5h0.6v1.5H470.7z M470.8,292.2V291h3.8v1.2H470.8z M472.5,295.2h12.9v1.5h-12.9V295.2z M481,276.7v-1.2h2.5v1.2H481z
			 M481.5,277.6v1.5h-0.6v-1.5H481.5z M483.1,277.6h2.4v1.5h-2.4V277.6z M483.7,267.6h1.8v1.2h-1.8V267.6z M478.7,264.7h4.8v1.2
			h-4.8V264.7z M478.7,267.6h0.8v1.2h-0.8V267.6z M476.5,267.6h0.8v1.2h-0.8V267.6z M474.7,269.6h10.8v1.5h-10.8V269.6z
			 M474.7,271.9h10.8v1.2h-10.8V271.9z M479.6,277.6v1.5h-2.2v-1.5H479.6z M478.7,276.7v-1.2h0.8v1.2H478.7z M473,271.9h0.4v1.2H473
			V271.9z M470.5,275.5h6.8v1.2h-6.8V275.5z M467.3,277.6h5.9v1.5h-5.9V277.6z M467.3,279.8h18.2v1.3h-18.2V279.8z M467.2,286.4h1.1
			v1.5h-1.1V286.4z M467.2,291h1.1v1.2h-1.1V291z M467.2,297.6h9.7v1.2h-9.7V297.6z M467.2,299.5h18.2v1.5h-18.2V299.5z
			 M479.6,301.8v1.5h-0.8v-1.5H479.6z M467.2,301.8h8.3v1.5h-8.3V301.8z M467.2,304.2h18.2v1.2h-18.2V304.2z M467.2,306.1h18.2v1.5
			h-18.2V306.1z M467.2,341.2h1.2v1.3h-1.2V341.2z M466.5,284.8v52h-18.6v-33.5L466.5,284.8z M439.5,373.7v-0.1h4.2v0.1H439.5z
			 M443.7,329.4v1.5h-4.1v-1.5H443.7z M439.6,324.5v-1.5h0.9v1.5H439.6z M443.7,368h-1.5V367h1.5V368z M426.1,344.1v-1.6h17.5v1.6
			H426.1z M442.8,344.9v1.1h-16.7v-1.1H442.8z M431.6,338.4v1.1h-5.5v-1.1H431.6z M427.1,337.6v-1.5h0.7v1.5H427.1z M433.4,336.1
			v1.5h-4.3v-1.5H433.4z M430.9,335.2v-1.5h0.7v1.5H430.9z M443.7,339.5h-8.9v-1.1h8.9V339.5z M432.8,335.2v-1.5h2.7v1.5H432.8z
			 M433.4,338.4v1.1H433v-1.1H433.4z M443.7,324.5h-1.5v-1.5h1.5V324.5z M440.4,333.7v1.5h-1v-1.5H440.4z M443.7,336.1v1.5h-8.9
			v-1.5H443.7z M436.7,335.2v-1.5h1v1.5H436.7z M437.7,331h-2.9v-1.5h2.9V331z M436.5,324.5h-8.2v-1.5h8.2V324.5z M429.6,333.7v1.5
			H426v-1.5H429.6z M426.1,349.5h17.5v1.2h-17.5V349.5z M437.9,362.7h4.8v1.1h-4.8V362.7z M434.1,360.8v-1.1h5.2v1.1H434.1z
			 M440.6,360.8v-1.1h0.7v1.1H440.6z M432.1,357.6v-1.3h10.7v1.3H432.1z M433.3,355.2v-1.4h1.9v1.4H433.3z M436.2,355.2v-1.4h0.8
			v1.4H436.2z M438.1,355.2v-1.4h0.8v1.4H438.1z M439.9,355.2v-1.4h1.4v1.4H439.9z M426.2,353.8h6.7v1.4h-6.7V353.8z M430.8,355.7
			v1.3h-0.6v-1.3H430.8z M428.4,355.7h0.6v1.3h-0.6V355.7z M432.7,362.7v1.1H426v-1.1H432.7z M443.7,364.7v1.1H426v-1.1H443.7z
			 M429.9,367h10.5v1.1h-10.5V367z M442.1,316.3h1.5v1.5h-1.5V316.3z M439.7,316.3h0.9v1.5h-0.9V316.3z M426,318.7h17.6v1.2H426
			V318.7z M426,320.6h17.6v1.5H426V320.6z M426,355.7h1.4v1.3H426V355.7z M426.1,373.5h11.5v0.1h-11.5V373.5z M447.8,346.3h18.6
			v27.4h-18.6V346.3z M477.2,373.2v-1.1h8.3v1.5h-2.3c0.2-0.1,0.3-0.1,0.5-0.1c0.5-0.2,1-0.3,1.4-0.3H477.2z M537.4,250.6h-2.6v-1.2
			h1.4C536.7,249.8,537.1,250.2,537.4,250.6z M534.7,248.1v0.3h-1.1v-1.2h0C534,247.5,534.4,247.8,534.7,248.1z M546.6,269H541v-1.5
			h5.3C546.4,268,546.5,268.5,546.6,269z M551.8,312.8c0,0.5,0,1,0,1.5h-6.7v-1.5H551.8L551.8,312.8
			C551.8,312.8,551.8,312.8,551.8,312.8z M543.8,351.4h-7v-1.1h7.5C544.1,350.7,543.9,351.1,543.8,351.4z M540.8,356.9
			c-0.2,0.4-0.4,0.7-0.7,1.1h-6.5v-1.1H540.8z M536.9,358.9v1.1h-3.2v-1.1H536.9z M533.7,361.2h4c-0.3,0.4-0.6,0.7-0.9,1.1h-3.1
			V361.2z M544.8,349.1h-11.3v-1.1h11.7C545.1,348.4,544.9,348.8,544.8,349.1z M547.8,339.7v0.8c0,0.1-0.1,0.3-0.1,0.4h-9v-1.3
			H547.8z M539.7,338.6v-1.4h1.6v1.4H539.7z M542.2,338.6v-1.4h0.7v1.4H542.2z M543.9,338.6v-1.4h0.7v1.4H543.9z M545.3,338.6v-1.4
			h1.2v1.4H545.3z M543.7,346.1h2.3c-0.1,0.4-0.3,0.7-0.4,1.1h-1.9V346.1z M540.4,344.2v-1.1h4.4v1.1H540.4z M546.5,344.2h-0.6v-1.1
			h0.6V344.2z M539.3,338.6h-5.7v-1.4h5.7V338.6z M537.6,339.1v1.3h-0.5v-1.3H537.6z M535.5,339.1h0.5v1.3h-0.5V339.1z M539.2,346.1
			v1.1h-5.7v-1.1H539.2z M549.4,334.1h-15.8v-1.2h16.1C549.6,333.3,549.5,333.7,549.4,334.1z M541,314.4v-1.5h2.5v1.5H541z
			 M543.5,317.1v1.5h-0.9v-1.5H543.5z M536.2,321v-1.5h3.7v1.5H536.2z M539.8,321.8v1.1h-0.4v-1.1H539.8z M538.3,321.8v1.1h-4.7
			v-1.1H538.3z M534.4,321v-1.5h0.6v1.5H534.4z M537.7,318.7v-1.5h0.6v1.5H537.7z M539.3,318.7v-1.5h2.3v1.5H539.3z M542.5,307.9
			h-6.9v-1.5h6.9V307.9z M536.6,317.1v1.5h-3v-1.5H536.6z M533.6,328.3h14.2v1.1h-14.2V328.3z M550.6,327.5h-17v-1.6h17.2
			C550.8,326.5,550.7,327,550.6,327.5z M551.2,322.9H541v-1.1h10.3C551.3,322.2,551.3,322.5,551.2,322.9z M551.4,321H541v-1.5h10.5
			C551.5,320,551.4,320.5,551.4,321z M544.9,318.7v-1.5h0.9v1.5H544.9z M551.6,318.7h-1.7v-1.5h1.8
			C551.6,317.6,551.6,318.1,551.6,318.7z M545.1,307.9v-1.5h0.8v1.5H545.1z M547.2,307.9v-1.5h2.5v1.5H547.2z M551.7,307.9h-0.3
			v-1.5h0.3C551.6,306.9,551.6,307.4,551.7,307.9z M551.6,305.5h-18V304h17.9C551.5,304.5,551.5,305,551.6,305.5z M551.4,303.3
			h-17.9v-1.2h17.8C551.4,302.5,551.4,302.9,551.4,303.3z M533.5,301.2v-1.5h8.3v1.5H533.5z M545.2,301.2v-1.5h0.8v1.5H545.2z
			 M551.3,301.2h-4v-1.5h3.9C551.2,300.2,551.2,300.7,551.3,301.2z M551.1,298.9h-17.5v-1.5h17.4C551,297.9,551,298.4,551.1,298.9z
			 M539.9,267.5v1.5h-3.8v-1.5H539.9z M537.8,266.8v-1.2h0.6v1.2H537.8z M539.4,266.8v-1.2h2.3v1.2H539.4z M536.8,274.6v-1.2h6.8
			v1.2H536.8z M539.5,275.5v1.5h-5.9v-1.5H539.5z M539.4,271v-1.2h0.4v1.2H539.4z M536.5,266.8h-3v-1.2h3V266.8z M535,267.5v1.5
			h-0.6v-1.5H535z M538.3,269.8v1.2h-4.8v-1.2H538.3z M547.7,285.2v1.2h-8.9v-1.2H547.7z M543.7,283.9v-1.2h1v1.2H543.7z
			 M545.3,283.9v-1.2h1.1v1.2H545.3z M535.4,285.8v-1.5h0.5v1.5H535.4z M536,288.9v1.2h-0.5v-1.2H536z M536,290.9v1.5h-1.7v-1.5H536
			z M533.6,283.9v-1.2h5.6v1.2H533.6z M537.6,284.3v1.5h-0.5v-1.5H537.6z M537,293.1h0.6v1.5H537V293.1z M537,292.3v-1.5h0.6v1.5
			H537z M537.1,290.1v-1.2h3.8v1.2H537.1z M539.7,283.9v-1.2h1.5v1.2H539.7z M542.2,283.9v-1.2h0.7v1.2H542.2z M543.5,281.2h-10
			v-1.5h10V281.2z M534.7,284.3v1.5h-1.1v-1.5H534.7z M534.7,288.9v1.2h-1.1v-1.2H534.7z M543.2,295.5v1.2h-9.7v-1.2H543.2z
			 M550.6,294.6h-11.8v-1.5h11.6C550.5,293.6,550.6,294.1,550.6,294.6z M550.4,292.4h-11.6v-1.6h11.4
			C550.3,291.4,550.3,291.9,550.4,292.4z M550.1,290.1H542v-1.2h7.9C550,289.3,550.1,289.7,550.1,290.1z M548.8,281.2H545v-1.5h3.5
			C548.6,280.2,548.7,280.7,548.8,281.2z M548.4,278.9h-14.9v-1.3h14.6C548.3,278.1,548.4,278.5,548.4,278.9z M545.9,275.5v1.5h-2.2
			v-1.5H545.9z M545,274.6v-1.2h0.8v1.2H545z M547.7,274.6h-0.4v-1.2h0.2C547.5,273.8,547.6,274.2,547.7,274.6z M547.2,275.5h0.6
			c0,0,0,0.1,0,0.1v1.4h-0.6V275.5z M547,271h-6v-1.2h5.8C546.8,270.2,546.9,270.6,547,271z M542.8,266.8v-1.2h0.8v1.2H542.8z
			 M545.9,265.5v1.2H545v-1.2H545.9z M545,263.8V263c0.1,0.3,0.2,0.6,0.3,0.8H545z M543.5,263.7h-6.7v-1h6.7V263.7z M539.3,257.3
			h-5.8v-1.1h5.8V257.3z M533.5,339.1h1.2v1.3h-1.2V339.1z M533.7,364.6v-1.1h1.9c-0.4,0.4-0.8,0.7-1.1,1.1H533.7z M540.8,254.9
			h-7.2v-1.2h6.4C540.3,254.1,540.5,254.5,540.8,254.9z M538.6,247.2L538.6,247.2C538.5,247.3,538.5,247.2,538.6,247.2L538.6,247.2z
			 M532.8,365.9c-3.5,2.7-7.6,4.3-12.3,4.6V242.9c4.9-0.1,9,1.5,12.3,3.7L532.8,365.9z M516.3,356.8v1.1h-8.8v-1.1H516.3z
			 M508.3,355.5v-1.1h0.8v1.1H508.3z M509.9,355.5v-1.1h1.7v1.1H509.9z M516.3,353.2h-2.2v-1.1h2.2V353.2z M516.3,354.5v1.1h-3.9
			v-1.1H516.3z M516.3,314.3h-0.4v-1.5h0.4V314.3z M513.3,285.6v-1.5h0.6v1.5H513.3z M513.9,286.4v1.5h-0.6v-1.5H513.9z
			 M513.9,279.1h-0.5v-1.5h0.5V279.1z M511.7,277.1V276h4.5v1.2H511.7z M511.1,262.3v-1.5h3.8v1.5H511.1z M511.6,263.1v1.2h-0.4
			v-1.2H511.6z M512.6,260v-1.2h0.6v1.2H512.6z M516.3,262.3h-0.4v-1.5h0.4V262.3z M516.3,260h-1.9v-1.2h1.9V260z M512.6,263.1h3.6
			v1.2h-3.6V263.1z M515,279.1v-1.5h0.5v1.5H515z M515.5,282.2v1.2H515v-1.2H515.5z M515,284.2h1.3v1.5H515V284.2z M515,240.5h0.5
			v1.2H515V240.5z M513.7,240.5h0.5v1.2h-0.5V240.5z M511.2,243.9h-2.9v-1.2h2.9V243.9z M511.2,241.7h-2.9v-1.2h2.9V241.7z
			 M512.4,240.5h0.5v1.2h-0.5V240.5z M516.1,243.9h-3.6v-1.2h3.6V243.9z M516.2,241.7v-1.2h0.1L516.2,241.7L516.2,241.7z
			 M511.6,249.4h4.6v1.1h-4.6V249.4z M507.4,256h6.7v1h-6.7V256z M505.9,260h-0.8v-1.2h0.8V260z M505.9,257.1h-4.8v-1.2h4.8V257.1z
			 M505.9,250.5h-0.9v-1.1h0.9V250.5z M508.2,260h-0.8v-1.2h0.8V260z M509.2,260v-1.2h2.3v1.2H509.2z M505.1,266.7h0.8v1.2h-0.8
			V266.7z M501.1,267.9v-1.2h2.5v1.2H501.1z M503.7,270.3h-0.6v-1.5h0.6V270.3z M507.3,270.3h-2.2v-1.5h2.2V270.3z M507.4,266.7h6.8
			v1.2h-6.8V266.7z M511.5,270.3v-1.5h4.8v1.5H511.5z M507.4,273h8.9v1.5h-8.9V273z M511.2,276v1.2h-1.5V276H511.2z M508.7,276v1.2
			H508V276H508.7z M506.3,276h1v1.2h-1V276z M504.5,276h1.1v1.2h-1.1V276z M503.2,279.7v-1.2h8.9v1.2H503.2z M510.1,283.3v-1.2h3.8
			v1.2H510.1z M507.7,289.9v-1.2h8.5v1.2H507.7z M505.8,294.5H505V293h0.8V294.5z M509.1,294.5V293h7.2v1.5H509.1z M516.3,311.9
			h-1.9v-1.5h1.9V311.9z M514.8,312.7v1.5h-3.7v-1.5H514.8z M512.6,311.9v-1.5h0.6v1.5H512.6z M508.5,299.6h6.9v1.5h-6.9V299.6z
			 M503.7,301.2h-2.5v-1.5h2.5V301.2z M505.1,301.2v-1.5h0.8v1.5H505.1z M506.1,311.9h-0.9v-1.5h0.9V311.9z M507.4,306.1h2.5v1.5
			h-2.5V306.1z M508.3,311.9h-0.9v-1.5h0.9V311.9z M509.3,311.9v-1.5h2.3v1.5H509.3z M511.5,316.2h-0.4v-1.1h0.4V316.2z
			 M512.7,316.2v-1.1h3.6v1.1H512.7z M503.1,322.7v-1.1h13.2v1.1H503.1z M511.6,330.5h4.6v1.4h-4.6V330.5z M515.4,332.4v1.3h-0.5
			v-1.3H515.4z M513.8,332.4v1.3h-0.5v-1.3H513.8z M509.6,330.5h1.6v1.4h-1.6V330.5z M508.1,330.5h0.7v1.4h-0.7V330.5z M506.4,330.5
			h0.7v1.4h-0.7V330.5z M504.4,330.5h1.2v1.4h-1.2V330.5z M503.1,333h9.1v1.3h-9.1V333z M505,336.4v1.1h-0.6v-1.1H505z M507.3,340.4
			h-4.1v-1.1h4.1V340.4z M510.5,337.5h-4.4v-1.1h4.4V337.5z M511.7,340.4v-1.1h4.5v1.1H511.7z M516.3,351.3h-8.7v-1.1h8.7V351.3z
			 M503.7,344.7h-2.5v-1.1h2.5V344.7z M505.2,344.7v-1.1h8.9v1.1H505.2z M505.3,354.5h2.3v1.1h-2.3V354.5z M506.6,356.8v1.1H506
			v-1.1H506.6z M505.1,360.2v-1.4h4.1v1.4H505.1z M509.4,364.4h-0.4v-1.1h0.4V364.4z M510.9,363.3h5.3v1.1h-5.3V363.3z M511.7,369
			v-1.1h4.6v1.1H511.7z"/>
		<polygon points="454.7,426.6 481.6,416.7 472.1,390.7 445.6,400.1 		"/>
		<path d="M488.4,417.9l-32.6,11.9l4.4,12.5c7.3,0.3,10.8,5,10.8,5l25.3-9.2L488.4,417.9z"/>
		<path d="M460.2,445.6c-5.8,0-10.5,4.7-10.5,10.5s4.7,10.5,10.5,10.5s10.5-4.7,10.5-10.5S466,445.6,460.2,445.6z M460.2,460.2
			c-2.3,0-4.1-1.8-4.1-4.1s1.8-4.1,4.1-4.1s4.1,1.8,4.1,4.1S462.5,460.2,460.2,460.2z"/>
		<path d="M450.3,450.4c0.4-0.7,0.9-1.6,1.7-2.5l-3.2-8.7l3.8-1.5c1.5,4,2.5,6.8,2.6,7.3c0,0.1,0.1,0.2,0.1,0.3
			c0.7-0.3,1.5-0.6,2.3-0.8c-0.2-0.8-1.4-4.1-3.1-8.9c0,0,0,0,0,0c0,0,0,0,0,0c-3.5-9.5-9.2-24.8-14.3-38.3c-0.2-0.4-0.5-0.7-1-0.8
			l-3.6-0.6c0.4-0.2,0.6-0.7,0.6-1.2c-0.1-0.7-0.7-1.2-1.4-1.1l-8.4,0.9c-0.6,0.1-1.1,0.6-1.1,1.2c0,0.6,0.4,1.2,1.1,1.3l11.7,1.9
			c1.9,4.9,3.9,10.5,6,16l-1.1,15.5c0,0.2,0,0.4,0.1,0.5l6.9,19.1C450.1,450.2,450.2,450.3,450.3,450.4z M445.2,429.8l1-9.7l6,16.3
			l-3.9,1.6L445.2,429.8z"/>
		<path d="M499.1,440.6L471,450.8c0,0,1.9,3,1.1,6.4l14.2-9.2l13.8-4.8c0.8-0.3,1.2-1.2,0.8-2C500.5,440.7,499.8,440.4,499.1,440.6z
			"/>
		<path d="M103.7,427.1l-2.7-18.9c-0.8-6.1-1.5-11.3-2.3-15.8h-25v74.2h16.9l0-48.9l7.1,48.9h12l6.7-50.1l0,50.1h16.9v-74.2h-25.1
			L103.7,427.1z"/>
		<path d="M249.1,398.7c-1.9-2.6-4.5-4.5-7.6-5.8c-3.2-1.3-6.7-1.9-10.7-1.9c-4.2,0-7.9,0.7-11,2.1c-3.1,1.4-5.6,3.3-7.5,5.9
			c-1.8,2.6-2.9,5.4-3.3,8.5c-0.4,3.1-0.5,8.4-0.5,15.8v12.7c0,7.6,0.2,13,0.6,16c0.4,3.1,1.5,5.9,3.4,8.5c1.9,2.6,4.5,4.5,7.6,5.8
			c3.2,1.3,6.7,1.9,10.7,1.9c4.2,0,7.9-0.7,11-2.1c3.1-1.4,5.6-3.3,7.5-5.9c1.8-2.6,2.9-5.4,3.3-8.5c0.4-3.1,0.5-8.4,0.5-15.8v-12.7
			c0-7.6-0.2-13-0.5-16C252.2,404.1,251,401.3,249.1,398.7z M233.8,445.6c0,4.4-0.2,7.1-0.5,8.3c-0.4,1.2-1.2,1.7-2.5,1.7
			c-1.3,0-2.1-0.5-2.5-1.5c-0.4-1-0.5-3.7-0.5-8v-34.6c0-3.8,0.3-6.1,0.8-6.9c0.5-0.8,1.3-1.2,2.3-1.2c1.2,0,2,0.5,2.4,1.4
			c0.4,1,0.6,3.2,0.6,6.6V445.6z"/>
		<path d="M354,406.2c-1.1,11.1-2.2,23.8-3.2,38.1c-1-14.1-2.7-31.4-5.1-51.9h-20.3l11.1,74.2h29.3l9.8-74.2h-20.3L354,406.2z"/>
		<path d="M594.9,424.3c1.4-2,2.2-5.9,2.2-11.6c0-6.3-1-10.9-3-13.8c-2-2.9-4.7-4.7-7.9-5.4c-3.2-0.7-9.4-1.1-18.5-1.1H554v74.2
			h19.3v-33.4c2.7,0,4.3,0.5,4.9,1.4c0.6,0.9,0.9,3.4,0.9,7.4v24.7h17.9v-19.6c0-6-0.2-9.6-0.5-11c-0.3-1.3-1.1-2.8-2.5-4.4
			c-1.3-1.6-3.9-2.9-7.7-3.8C590.6,427.5,593.5,426.3,594.9,424.3z M579.1,414.9c0,3.3-0.4,5.2-1.3,5.8c-0.9,0.6-2.4,0.9-4.6,0.9
			v-16.5c2.2,0,3.8,0.4,4.6,1.1c0.8,0.7,1.3,2.3,1.3,4.6V414.9z"/>
		<path d="M712.1,431.9c-2.2-3.3-7.6-7.5-16.2-12.5c-3-1.8-4.8-3.3-5.5-4.5c-0.7-1.3-1-3.1-1-5.6c0-1.9,0.3-3.4,0.9-4.3
			s1.5-1.4,2.6-1.4c1.1,0,1.8,0.4,2.3,1.1c0.5,0.7,0.7,2.3,0.7,4.9v5.5h17.9V412c0-5.9-0.6-10.1-1.7-12.5c-1.1-2.5-3.5-4.5-7-6.1
			c-3.5-1.6-7.8-2.4-12.8-2.4c-4.6,0-8.5,0.7-11.7,2.2c-3.2,1.5-5.6,3.5-7,6.2c-1.5,2.6-2.2,6.8-2.2,12.5c0,3.9,0.5,7.2,1.5,9.7
			c1,2.5,2.3,4.5,3.9,6c1.6,1.4,4.7,3.7,9.5,6.9c4.8,3.1,7.8,5.4,9,6.7c1.2,1.3,1.8,4.2,1.8,8.6c0,2-0.3,3.5-0.9,4.5
			c-0.6,1-1.6,1.5-2.9,1.5c-1.3,0-2.2-0.4-2.7-1.2c-0.5-0.8-0.8-2.6-0.8-5.4v-9H672v4.9c0,5.6,0.6,9.9,1.7,12.9
			c1.1,3,3.5,5.5,7.2,7.5s8.1,2.9,13.2,2.9c4.7,0,8.8-0.8,12.4-2.5c3.5-1.7,5.9-3.8,7.2-6.3c1.2-2.5,1.9-6.4,1.9-11.7
			C715.4,440.4,714.3,435.1,712.1,431.9z"/>
	</g>
</g>
</svg>
