<?xml version="1.0" encoding="utf-8"?>
<!-- Generator: Adobe Illustrator 18.0.0, SVG Export Plug-In . SVG Version: 6.00 Build 0)  -->
<!DOCTYPE svg PUBLIC "-//W3C//DTD SVG 1.1//EN" "http://www.w3.org/Graphics/SVG/1.1/DTD/svg11.dtd">
<svg version="1.1" id="Layer_2" xmlns="http://www.w3.org/2000/svg" xmlns:xlink="http://www.w3.org/1999/xlink" x="0px" y="0px"
	 viewBox="0 0 4864 4512" enable-background="new 0 0 4864 4512" xml:space="preserve">
<g>
	<circle fill="none" stroke="#000000" stroke-width="90" stroke-miterlimit="10" cx="2374.7" cy="2317.9" r="1373.7"/>
	<circle fill="none" stroke="#000000" stroke-width="90" stroke-miterlimit="10" cx="2374.7" cy="2317.9" r="1938.5"/>
</g>
<g>
	<path d="M4035,2812.1c0,0-21.7-7-60-7v-34.5h-14.7l-5.7-14l-16.6-27.4v-267.3h-98.9l-9.6,295.4l-28.1-0.6v-798.2h-128.2v641.2
		l-33.8,9.6v-565.5c0-8.5-3.2-16.6-9.1-22.7l-89.2-98.9l-93.8,95.4c-7.3,6.3-11.5,15.4-11.5,25v481.9l-45.3,6.4v-947.1h-61.7v-16.3
		h45.1c8.5,0,15.3-6.9,15.3-15.3v0c0-8.5-6.9-15.3-15.3-15.3h-45.1l-12.8-300.3l-14.5,300.3h-49.8c-8.5,0-15.3,6.9-15.3,15.3v0
		c0,8.5,6.9,15.3,15.3,15.3h49.8v16.3h-63.8v908.6l-29.8-21.3l-9,8.4c-0.8-2-1.7-4-2.5-5.9h-1.7c-0.8-2.1-1.6-4.1-2.4-6.1h1.4
		c-5.3-11.7-10.9-22.3-16.6-31.8v0.5c-0.4-0.7-0.8-1.4-1.2-2h0.3c-1.3-2.1-2.6-4.1-3.9-6.2h-0.1c-1.3-2.1-2.7-4.1-4-6.1h0.1
		c-3.9-5.7-7.9-10.9-11.9-15.7h-0.2c-1.8-2.1-3.5-4.1-5.3-6.1h0.2c-1.6-1.8-3.2-3.5-4.8-5.2h-0.4c-0.1-0.1-0.1-0.1-0.2-0.2v-0.4
		c-3-3.1-6-6-9.1-8.8h-0.9c-44.8-38.2-90.4-36.3-90.4-36.3H3026v2h-43v-38.1h-9.8v38.1h-34.5v3.3h35.9v6.1h-35.9v5.2h35.9v6.1h-35.9
		v15.7h87.2v6.1h-87.2v6.2h23.2v5.8h-23.2v42.3h9.1v6.2h-9.1v4h54.9v7.4h-54.9v4.3h54.9v6h-54.9v22.8h12.1v7.8h-12.1v3.5h87.2v6.4
		h-87.2v3.8h34.3v7.8h-34.3v39.3h49.7v6h-49.7v3.9h66v8h-66v3.5h66v7.9h-66v13.9h87.2v7.9h-87.2v3.9h23.1v7.9h-23.1v4.6h87.2v6
		h-87.2v3.5h87.2v7.9h-87.2v4.3h2.2v7.9h-2.2v25.3h34.1v7.9h-34.1v13.9h9.7v7.9h-9.7v4.1h54.9v7.9h-54.9v4h54.9v5.6h-54.9v15.4h87.2
		v8.2h-87.2v27.6h87.2v5.9h-87.2v61.3h13.3v5.4h-13.3v4.7h87.2v5.4h-87.2v6.4h2.8v5.4h-2.8v28h34.6v5.4h-34.6v16.3h23.3v5.4h-23.3
		v6.3h29.1v5.4h-29.1v4.7h25.9v7.3h-25.9v16.2h42.3v5.4h-42.3v27.4h87.2v7.3h-87.2v4.8h14v5.4h-14v2.2h-49.7v-707h-21.4v123.6h-13.9
		l-27.2,28v5h-4.9l-9,9.3h4.8v6.2h-10.8l-3.9,4h5.1v7.4h-12.3l-4.1,4.3h8.5v6h-14.3l-14,14.5l-95,98.8v-105.3h-21.4v138.6h-12
		l-5.4,6h17.4v8.7h-21.9l-6,3.5h27.9v6.6h-35.6l-3.8,3.9h39.5v8h-47.2l-3.4,3.5h50.6v7.9h-58.2l-4.1,4.3h30.4v6h-36.2l-3.6,3.7h71.7
		v7.9h-79.4l-3.8,3.9h43v7.9h-49.8v-0.9l-4.6,4.8v281.2h-44.6v-12.4h-25.9v-7.3h25.9v-4.7h-29.1v-5.4h29.1v-6.3h-23.3v-5.4h23.3
		v-16.3h-34.6v-5.4h34.6v-28h-2.8v-5.4h2.8v-6.4H2423v-5.4h93.2v-4.7h-13.3v-5.4h13.3v-61.3h-92.6v-5.9h92.6v-27.6h-92.6v-8.2h92.6
		v-15.4h-54.9v-5.6h54.9v-4h-54.9v-7.9h54.9v-4.1h-9.7v-7.9h9.7v-13.9h-34.1v-7.9h34.1v-25.3h-2.2v-7.9h2.2v-4.3h-93v-7.9h93v-3.5
		h-93v-6h93v-4.6h-23.1v-7.9h23.1v-3.9h-93v-7.9h93V2653h-66v-7.9h66v-3.5h-66v-8h66v-3.9h-49.7v-6h49.7v-39.3h-34.3v-7.8h34.3v-3.8
		h-92.8v-6.4h92.8v-3.5h-12.1v-7.8h12.1v-22.8h-54.9v-6h54.9v-4.3h-54.9v-7.4h54.9v-4h-9.1v-6.2h9.1v-42.3h-23.2v-5.8h23.2v-6.2
		h-92.8v-6.1h92.8v-15.7h-35.9v-6.1h35.9v-5.2h-35.9v-6.1h35.9v-3.3h-96v-77.4h-21.4v521l-49.2,45.7l-55.9-51.5v-515.2h-21.4v76.5
		h-95.9v9.2h0.5h9.1v6.2h-9.1h-0.5v4h0.5h54.9v7.4H2177h-0.5v4.3h0.5h54.9v6H2177h-0.5v22.8h0.5h12.1v7.8H2177h-0.5v3.5h0.5h92.8
		v6.4H2177h-0.5v3.8h0.5h34.3v7.8H2177h-0.5v39.3h0.5h49.7v6H2177h-0.5v3.9h0.5h66v8h-66h-0.5v3.5h0.5h66v7.9h-66h-0.5v13.9h0.5h93
		v7.9h-93h-0.5v3.9h0.5h23.1v7.9H2177h-0.5v4.6h0.5h93v6h-93h-0.5v3.5h0.5h93v7.9h-93h-0.5v4.3h0.5h2.2v7.9h-2.2h-0.5v25.3h0.5h34.1
		v7.9H2177h-0.5v13.9h0.5h9.7v7.9h-9.7h-0.5v4.1h0.5h54.9v7.9H2177h-0.5v4h0.5h54.9v5.6H2177h-0.5v15.4h0.5h92.6v8.2H2177h-0.5v27.6
		h0.5h92.6v5.9H2177h-0.5v61.3h0.5h13.3v5.4H2177h-0.5v4.7h0.5h93.2v5.4H2177h-0.5v39.8h10.7h34.6v5.4h-34.6h-10.7v40.6h3.1h92.8
		v6.1h-92.8h-3.1v64.5h3.1h54.9v7.4h-54.9h-3.1v4.3h3.1h54.9v6h-54.9h-3.1v17.4h-100.7l23.1-23.8h-22.4v-7.3h24.4v5.2l4.9-5v-0.1
		h0.1l4.6-4.7h-8.5v-5.4h13.7l6.1-6.3h-13v-5.4h18.3l9.1-9.4v-7h-40.5v-5.4h40.5v-28h-3.3v-5.4h3.3v-6.4h-109.4v-5.4h109.4v-4.7
		h-15.6v-5.4h15.6v-61.3h-108.6v-5.9h108.6v-27.6h-108.6v-8.2h108.6v-15.4h-64.4v-5.6h64.4v-4h-64.4v-7.9h64.4v-4.1h-11.4v-7.9h11.4
		v-13.9h-40v-7.9h40v-25.3h-2.6v-7.9h2.6v-4.3H2027v-7.9h109.2v-3.5H2027v-6h109.2v-4.6h-27.1v-7.9h27.1v-3.9H2027v-7.9h109.2v-13.9
		h-77.5v-7.9h77.5v-3.5h-77.5v-8h77.5v-3.9h-58.3v-6h58.3v-39.3h-40.3v-7.8h37.7l-3.8-3.8h-102.5v-6.4h96.2l-10.7-10.8v7.3h-3.6
		v-7.8h3.2l-22.5-22.8h-18v-6h12.1l-4.2-4.3h-7.9v-4.2h-6.9v4.2h-22.6v-4.2h-6.3v4.2h-3.6v-4.2h-10v527.7h-19.7v-527.7h-9.9v4.2
		h-3.6v-4.2h-6.2v4.2h-22.4v-4.2h-6.8v4.2h-7.7l-5.2,4.3h12.8v6h-20l-17.1,14.1v4.3h-5.1l-7.5,6.2v6h-7.2l-4.3,3.5h105.4v6.4h-108
		v3.8h40v7.8h-40v39.3h57.8v6h-57.8v3.9h76.8v8h-76.8v3.5h76.8v7.9h-76.8v13.9h108.2v7.9h-108.2v3.9h26.8v7.9h-26.8v4.6h108.2v6
		h-108.2v3.5h108.2v7.9h-108.2v4.3h2.6v7.9h-2.6v25.3h39.7v7.9h-39.7v13.9h11.3v7.9h-11.3v4.1h63.9v7.9h-63.9v4h63.9v5.6h-63.9v15.4
		h107.7v8.2h-107.7v27.6h107.7v5.9h-107.7v61.3h15.5v5.4h-15.5v4.7h108.5v5.4h-108.5v6.4h3.2v5.4h-3.2v28h40.2v5.4h-40.2v9.1
		c2.2,2.1,4.7,4.6,7.5,7.3h19.6v5.4h-14c2.1,2,4.3,4.1,6.5,6.3h14.3v5.4h-8.6c1.6,1.6,3.2,3.1,4.9,4.7h0v0c1.6,1.5,3.2,3.1,4.8,4.6
		v-4.7h24.2v7.3h-21.5c7.6,7.3,15,14.4,21,20.1v-3.9h2.2v5.4h-0.6c0.8,0.8,1.6,1.5,2.4,2.2H1853v-479.3h-97v-13.6h-19.1v360.4
		l-94.1-109.9v-402.3h-18.1v-1.1h-4.1v5.2h-44.3v-58h-10.8v58h-37.7v6.2h23.2v5.8h-23.2v42.3h9.1v6.2h-9.1v4h54.9v7.4h-54.9v4.3
		h54.9v6h-54.9v22.8h12.1v7.8h-12.1v3.5h92.8v6.4h-92.8v3.8h34.3v7.8h-34.3v39.3h49.7v6h-49.7v3.9h66v8h-66v3.5h66v7.9h-66v13.9h93
		v7.9h-93v3.9h23.1v7.9h-23.1v4.6h93v6h-93v0.2l-4.6-81.1c0,0-4.5,123.8-9.6,133.9c-5.1,10.1-5.1,3.9-5.1,3.9l-1.3-705.9l-13.4-3.8
		v-112.3l-19.8-5.7v-44.7l-14.7-5.1v-13.4l-18.5-5.1v-23.6c0,0-22.3,11.5-24.2-44v-116.8l-26.7-27.5v-55.2h-6.4v57l-28.2,25.7v159.2
		l-23.3,0.6v21.7l-18.8,0.3v23.9l-18.2,4.1v39.2l-11.5,4.5V1983l-10.5,9.6v589.9l-11.3,13.9v48.2h-23.8v-334.3l-91.9-0.9v365.7
		l-49.3-56v-283.3h-23.8v-28.9h-74.9v-170.1h-61.3v353l-63-0.9v-295.2l-74.9-0.9v451.7l-19.6-0.9v-25.5h-30.6v-61.3l-16.2-0.9v478.1
		v28.9h3305.8v-28.9L4035,2812.1z M2962.2,3010.4h-1.9v-5.4h1.9V3010.4z M2979.8,3010.4h-9.4v-5.4h9.4V3010.4z M2493.2,2712.7h12.8
		v7.9h-12.8V2712.7z M2482.1,2712.7h3.9v7.9h-3.9V2712.7z M2454.9,2411h14.7v6.1h-14.7V2411z M2454.9,2422.3h14.9v6.1h-14.9V2422.3z
		 M2446.3,2411h2.6v6.1h-2.6V2411z M2439.8,2411h2.6v6.1h-2.6V2411z M2433.1,2411h2.6v6.1h-2.6V2411z M2429.8,2422.3h18.5v6.1h-18.5
		V2422.3z M2423.5,2411h5.8v6.1h-5.8V2411z M2460.6,2629.7h-19.1v-6h19.1V2629.7z M2432.8,2607.9v-7.4h2.8v7.4H2432.8z
		 M2435.5,2623.7v6h-2.7v-6H2435.5z M2435.6,2633.8v7.7h-8.6v-7.7H2435.6z M2423.6,2598v-6h28.6v6H2423.6z M2443.9,2600.4v7.4h-2.8
		v-7.4H2443.9z M2441.1,2645.1h3v7.8h-3V2645.1z M2441.1,2641.3v-7.7h3v7.7H2441.1z M2483.4,2592h5.8v6h-5.8V2592z M2495.6,2604.9v6
		h-45.4v-6H2495.6z M2454.8,2598v-6h7.9v6H2454.8z M2467.5,2598v-6h3.5v6H2467.5z M2474.9,2592h5v6h-5V2592z M2423.5,2576.6h50.8
		v7.8h-50.8V2576.6z M2429.1,2600.4v7.4h-5.7v-7.4H2429.1z M2453.4,2562.9h-30v-7.8h30V2562.9z M2493.3,2544.8h13v6h-13V2544.8z
		 M2493.2,2555.1h3.1v7.8h-3.1V2555.1z M2481.9,2544.8h4v6h-4V2544.8z M2474.9,2555.1h11.3v7.8h-11.3V2555.1z M2474.3,2544.8v6
		h-34.5v-6H2474.3z M2455.5,2514.7v7.4h-19.2v-7.4H2455.5z M2444.8,2510.7v-6.2h3.1v6.2H2444.8z M2452.9,2526.4h2.1v6h-2.1V2526.4z
		 M2465.1,2510.7h-11.9v-6.2h11.9V2510.7z M2481.9,2456.3h4.4v5.8h-4.4V2456.3z M2481.9,2489.6h24.7v6.1h-24.7V2489.6z
		 M2481.9,2504.5h4.3v6.2h-4.3V2504.5z M2474.7,2510.7h-4.3v-6.2h4.3V2510.7z M2474.1,2495.2h-34.3v-5.3h34.3V2495.2z
		 M2423.4,2456.3h29.3v5.8h-29.3V2456.3z M2423.2,2504.5h15.3v6.2h-15.3V2504.5z M2430.9,2514.7v7.4h-3.1v-7.4H2430.9z
		 M2423.2,2526.4h24.4v6h-24.4V2526.4z M2423.2,2623.7h5.8v6h-5.8V2623.7z M2423.2,2657.2h49.5v6h-49.5V2657.2z M2482.5,2678.7h4
		v7.9h-4V2678.7z M2423.2,2678.7h42.5v7.9h-42.5V2678.7z M2215.5,2912.8h-35.9h-1.9v-6.1h1.9h35.9V2912.8z M2215.5,2901.5h-35.9
		h-1.6v-6.1h1.6h35.9V2901.5z M2109.1,2701.2h15v7.9h-15V2701.2z M2096.1,2701.2h4.6v7.9h-4.6V2701.2z M2070.9,2618.2h-22.5v-6h22.5
		V2618.2z M2038.3,2596.4v-7.4h3.2v7.4H2038.3z M2041.5,2612.2v6h-3.1v-6H2041.5z M2041.6,2622.3v7.7h-10v-7.7H2041.6z
		 M2027.5,2586.5v-6h33.5v6H2027.5z M2051.4,2588.9v7.4h-3.2v-7.4H2051.4z M2048,2633.6h3.5v7.8h-3.5V2633.6z M2048,2629.8v-7.7h3.5
		v7.7H2048z M2097.6,2580.5h6.9v6h-6.9V2580.5z M2111.9,2593.4v6h-53.2v-6H2111.9z M2064.1,2586.5v-6h9.2v6H2064.1z M2079.1,2586.5
		v-6h4.1v6H2079.1z M2087.7,2580.5h5.9v6h-5.9V2580.5z M2027.3,2565.1h59.6v7.8h-59.6V2565.1z M2033.9,2588.9v7.4h-6.7v-7.4H2033.9z
		 M2062.5,2551.4h-35.2v-7.8h35.2V2551.4z M2095.9,2533.3h4.7v6h-4.7V2533.3z M2087.7,2543.6h13.2v7.8h-13.2V2543.6z M2087,2533.3v6
		h-40.5v-6H2087z M2061.9,2514.9h2.5v6h-2.5V2514.9z M2027,2514.9h28.6v6H2027V2514.9z M2027,2612.2h6.9v6h-6.9V2612.2z
		 M2027,2645.7h58v6h-58V2645.7z M2096.6,2667.2h4.7v7.9h-4.7V2667.2z M2027,2667.2h49.8v7.9H2027V2667.2z M2077,3026.5v5.4h-2.2
		v-5.4H2077z M2086.9,2998.4h-59v-5.4h59V2998.4z M2057.5,2981.2v5.4h-29.6v-5.4H2057.5z M2027.9,2974.8v-5.4h19.1v5.4H2027.9z
		 M2061.9,2986.6v-5.4h10.3v5.4H2061.9z M2077,2986.6v-5.4h4.6v5.4H2077z M2095.2,2998.4h-3.5v-5.4h3.5V2998.4z M2099.7,2981.2v5.4
		h-13.6v-5.4H2099.7z M2109.2,2926h15.1v5.4h-15.1V2926z M2046.6,2926h53.5v5.4h-53.5V2926z M2027.3,2959.4h58.8v5.4h-58.8V2959.4z
		 M2027.3,3026.5h38.6v5.4h-38.6V3026.5z M2061.1,2909.5h-34.2v-5.4h34.2V2909.5z M2039,2874.7v-6.4h3.1v6.4H2039z M2048.4,2874.7
		v-6.4h3.1v6.4H2048.4z M2112.1,2909.5h-24.5v-5.4h24.5V2909.5z M2068.2,2894.5v-5.4h26.5v5.4H2068.2z M2101.2,2894.5v-5.4h3.6v5.4
		H2101.2z M2112.6,2877.9h-54.6v-6.4h54.6V2877.9z M2097.7,2858.7h6.9v7h-6.9V2858.7z M2088.8,2858.7h4.2v7h-4.2V2858.7z
		 M2078.7,2858.7h4.2v7h-4.2V2858.7z M2064.1,2858.7h9.6v7h-9.6V2858.7z M2027.7,2858.7h34v7h-34V2858.7z M2112.8,2813.5v5.7h-85.2
		v-5.7H2112.8z M2055.5,2785.8h-27.9v-5.6h27.9V2785.8z M2032.3,2776.1v-7.9h3.8v7.9H2032.3z M2064.8,2785.8h-2.3v-5.6h2.3V2785.8z
		 M2064.8,2776.1h-21.9v-7.9h21.9V2776.1z M2052,2764.1v-7.9h3.8v7.9H2052z M2075.4,2764.1h-13.7v-7.9h13.7V2764.1z M2086.8,2764.1
		h-5.2v-7.9h5.2V2764.1z M2095,2756.2h5.2v7.9h-5.2V2756.2z M2086.8,2742.3h-15v-7.9h15V2742.3z M2039,2701.2h41.6v7.9H2039V2701.2z
		 M2027.1,2756.2h18v7.9h-18V2756.2z M2026.7,2868.4h7v6.4h-7V2868.4z M1997.3,2981.2v5.4H1968v-5.4H1997.3z M1978.4,2974.8v-5.4
		h18.9v5.4H1978.4z M1997.9,3026.5v5.4h-38.2v-5.4H1997.9z M1969.8,2514.9h28.4v6h-28.4V2514.9z M1973.9,2629.8v-7.7h3.5v7.7H1973.9
		z M1977.4,2633.6v7.8h-3.5v-7.8H1977.4z M1977.3,2596.4h-3.2v-7.4h3.2V2596.4z M1964.5,2586.5v-6h33.2v6H1964.5z M1983.8,2596.4
		v-7.4h3.2v7.4H1983.8z M1986.9,2612.2v6h-3.1v-6H1986.9z M1983.7,2622.3h10v7.7h-10V2622.3z M1991.4,2618.2v-6h6.8v6H1991.4z
		 M1961.1,2514.9h2.5v6h-2.5V2514.9z M1925.2,2533.3h4.7v6h-4.7V2533.3z M1916.8,2551.4h-3.6v-7.8h3.6V2551.4z M1938,2551.4h-13.1
		v-7.8h13.1V2551.4z M1938.7,2533.3h40.1v6h-40.1V2533.3z M1963,2551.4v-7.8h34.9v7.8H1963z M1998,2588.9v7.4h-6.7v-7.4H1998z
		 M1938.7,2565.1h59.1v7.8h-59.1V2565.1z M1961.4,2580.5v6h-9.2v-6H1961.4z M1946.6,2580.5v6h-4.1v-6H1946.6z M1932.2,2580.5h5.8v6
		h-5.8V2580.5z M1921.3,2580.5h6.8v6h-6.8V2580.5z M1914,2599.4v-6h52.8v6H1914z M1954.7,2618.2v-6h22.3v6H1954.7z M1940.6,2651.7
		v-6h57.6v6H1940.6z M1929.1,2675.1h-4.7v-7.9h4.7V2675.1z M1948.7,2675.1v-7.9h49.4v7.9H1948.7z M1980.2,2764.1v-7.9h17.9v7.9
		H1980.2z M1992.9,2768.2v7.9h-3.8v-7.9H1992.9z M1982.4,2768.2v7.9h-21.7v-7.9H1982.4z M1969.7,2764.1v-7.9h3.8v7.9H1969.7z
		 M1945,2701.2h41.3v7.9H1945V2701.2z M1916.8,2709.1h-14.9v-7.9h14.9V2709.1z M1925.1,2709.1v-7.9h4.5v7.9H1925.1z M1930.7,2764.1
		h-5.2v-7.9h5.2V2764.1z M1938.9,2734.4h14.9v7.9h-14.9V2734.4z M1944.1,2764.1h-5.2v-7.9h5.2V2764.1z M1950.2,2764.1v-7.9h13.5v7.9
		H1950.2z M1962.9,2785.8h-2.3v-5.6h2.3V2785.8z M1970,2785.8v-5.6h27.7v5.6H1970z M1913.1,2819.2v-5.7h84.5v5.7H1913.1z
		 M1998.5,2868.4v6.4h-7v-6.4H1998.5z M1963.8,2858.7h33.7v7h-33.7V2858.7z M1986.3,2868.4v6.4h-3.1v-6.4H1986.3z M1976.9,2868.4
		v6.4h-3.1v-6.4H1976.9z M1951.9,2858.7h9.6v7h-9.6V2858.7z M1942.7,2858.7h4.2v7h-4.2V2858.7z M1932.7,2858.7h4.2v7h-4.2V2858.7z
		 M1921.2,2858.7h6.9v7h-6.9V2858.7z M1913.3,2871.6h54.1v6.4h-54.1V2871.6z M1924.6,2889.1v5.4h-3.5v-5.4H1924.6z M1938.1,2909.5
		h-24.3v-5.4h24.3V2909.5z M1957.4,2894.5h-26.3v-5.4h26.3V2894.5z M1964.4,2909.5v-5.4h34v5.4H1964.4z M1997.9,2964.9h-58.3v-5.4
		h58.3V2964.9z M1963.6,2981.2v5.4h-10.2v-5.4H1963.6z M1948.6,2981.2v5.4h-4.5v-5.4H1948.6z M1916.6,2931.5h-14.9v-5.4h14.9V2931.5
		z M1925.7,2931.5v-5.4h53.1v5.4H1925.7z M1926.1,2981.2h13.5v5.4h-13.5V2981.2z M1934,2998.4h-3.4v-5.4h3.4V2998.4z M1938.8,2998.4
		v-5.4h58.5v5.4H1938.8z M2634.1,3034.2v-0.7h21.3v0.7H2634.1z M2655.4,2808.4v7.9h-20.8v-7.9H2655.4z M2634.6,2783.1v-7.9h4.6v7.9
		H2634.6z M2655.4,3005.5h-7.7v-5.4h7.7V3005.5z M2566,2883.4v-8.2h89.4v8.2H2566z M2651.2,2887.5v5.7H2566v-5.7H2651.2z
		 M2593.9,2854.2v5.6H2566v-5.6H2593.9z M2570.8,2850.1v-7.9h3.8v7.9H2570.8z M2603.3,2842.2v7.9h-21.9v-7.9H2603.3z M2590.4,2838.1
		v-7.9h3.8v7.9H2590.4z M2655.4,2859.8h-45.2v-5.6h45.2V2859.8z M2600.2,2838.1v-7.9h13.7v7.9H2600.2z M2603.3,2854.2v5.6h-2.3v-5.6
		H2603.3z M2655.4,2783.1h-7.9v-7.9h7.9V2783.1z M2638.7,2830.2v7.9h-5.2v-7.9H2638.7z M2655.4,2842.2v7.9h-45.2v-7.9H2655.4z
		 M2620,2838.1v-7.9h5.2v7.9H2620z M2625.2,2816.3h-15v-7.9h15V2816.3z M2619,2783.1h-41.6v-7.9h41.6V2783.1z M2583.6,2830.2v7.9
		h-18v-7.9H2583.6z M2566,2911h89.4v5.9H2566V2911z M2626.1,2978.1h24.5v5.4h-24.5V2978.1z M2606.6,2968.5v-5.4h26.5v5.4H2606.6z
		 M2639.6,2968.5v-5.4h3.6v5.4H2639.6z M2596.5,2952v-6.4h54.6v6.4H2596.5z M2602.5,2939.8v-7h9.6v7H2602.5z M2617.2,2939.8v-7h4.2
		v7H2617.2z M2627.3,2939.8v-7h4.2v7H2627.3z M2636.2,2939.8v-7h6.9v7H2636.2z M2566.2,2932.7h34v7h-34V2932.7z M2589.9,2942.4v6.4
		h-3.1v-6.4H2589.9z M2577.4,2942.4h3.1v6.4h-3.1V2942.4z M2599.5,2978.1v5.4h-34.2v-5.4H2599.5z M2655.4,2988.2v5.4h-90.2v-5.4
		H2655.4z M2585,3000.1h53.5v5.4H2585V3000.1z M2676.8,2894.5h95v139.6h-95V2894.5z M2867.8,2734.4v7.9h-33.1v-7.9H2867.8z
		 M2834.6,2709.1v-7.9h3.9v7.9H2834.6z M2845.7,2709.1v-7.9h12.8v7.9H2845.7z M2785.3,2596.4v-7.4h2.8v7.4H2785.3z M2788.1,2612.2v6
		h-2.7v-6H2788.1z M2788.2,2622.3v7.7h-8.6v-7.7H2788.2z M2776.2,2586.5v-6h28.6v6H2776.2z M2848.1,2593.4v6h-45.4v-6H2848.1z
		 M2827.4,2586.5v-6h5v6H2827.4z M2845.8,2539.3v-6h13v6H2845.8z M2848.8,2543.6v7.8h-3.1v-7.8H2848.8z M2856.7,2543.6h11.1v7.8
		h-11.1V2543.6z M2867.8,2630.1h-65v-8h65V2630.1z M2867.8,2618.2h-48.7v-6h48.7V2618.2z M2867.8,2572.9h-33.3v-7.8h33.3V2572.9z
		 M2841.8,2580.5v6h-5.8v-6H2841.8z M2807.3,2586.5v-6h7.9v6H2807.3z M2820.1,2586.5v-6h3.5v6H2820.1z M2826.8,2572.9H2776v-7.8
		h50.8V2572.9z M2796.5,2588.9v7.4h-2.8v-7.4H2796.5z M2793.6,2633.6h3v7.8h-3V2633.6z M2793.6,2629.8v-7.7h3v7.7H2793.6z
		 M2793.9,2618.2v-6h19.1v6H2793.9z M2802.7,2633.6h65v7.9h-65V2633.6z M2867.8,2675.1h-22.1v-7.9h22.1V2675.1z M2867.8,3010.3
		h-24.9v-7.3h24.9V3010.3z M2867.8,2998.4h-28.1v-5.4h28.1V2998.4z M2867.8,2986.6h-22.3v-5.4h22.3V2986.6z M2867.8,2964.9h-33.6
		v-5.4h33.6V2964.9z M2826.1,2959.4v5.4H2776v-5.4H2826.1z M2792.4,2931.4v-5.4h45.6v5.4H2792.4z M2826.1,2986.6v-5.4h11.6v5.4
		H2826.1z M2833.8,2992.9v5.4h-3v-5.4H2833.8z M2822.2,2981.2v5.4h-3.9v-5.4H2822.2z M2814.2,2981.2v5.4h-8.8v-5.4H2814.2z
		 M2801.7,2981.2v5.4h-25.2v-5.4H2801.7z M2776.5,2974.8v-5.4h16.3v5.4H2776.5z M2776.5,2998.4v-5.4h50.3v5.4H2776.5z
		 M2808.9,3026.5v5.4H2776v-5.4H2808.9z M2816.5,3026.5h1.9v5.4h-1.9V3026.5z M2817.9,3010.3v-7.3h20.8v7.3H2817.9z M2845.8,2931.4
		v-5.4h12.8v5.4H2845.8z M2867.8,2931.4h-1.8v-5.4h1.8V2931.4z M2867.8,2909.5h-12.3v-5.4h12.3V2909.5z M2867.8,2809.4h-91.6v-8.2
		h91.6V2809.4z M2848.8,2813.5v5.7h-72.7v-5.7H2848.8z M2800,2780.1v5.6h-23.8v-5.6H2800z M2780.3,2776.1v-7.9h3.2v7.9H2780.3z
		 M2808,2768.2v7.9h-18.7v-7.9H2808z M2797,2764.1v-7.9h3.2v7.9H2797z M2805.3,2764.1v-7.9h11.6v7.9H2805.3z M2808,2780.1v5.6h-1.9
		v-5.6H2808z M2867.8,2785.8h-53.9v-5.6h53.9V2785.8z M2867.8,2764.1h-8.7v-7.9h8.7V2764.1z M2867.8,2709.1h-1.2v-7.9h1.2V2709.1z
		 M2838.1,2756.2v7.9h-4.4v-7.9H2838.1z M2867.8,2768.2v7.9h-53.9v-7.9H2867.8z M2822.2,2764.1v-7.9h4.4v7.9H2822.2z M2826.7,2742.3
		h-12.8v-7.9h12.8V2742.3z M2821.4,2709.1h-35.5v-7.9h35.5V2709.1z M2791.2,2756.2v7.9h-15.4v-7.9H2791.2z M2776.2,2836.9h91.6v5.9
		h-91.6V2836.9z M2827.4,2904.1h20.9v5.4h-20.9V2904.1z M2810.8,2894.5v-5.4h22.6v5.4H2810.8z M2839,2894.5v-5.4h3v5.4H2839z
		 M2802.2,2877.9v-6.4h46.5v6.4H2802.2z M2807.3,2865.7v-7h8.2v7H2807.3z M2819.8,2865.7v-7h3.6v7H2819.8z M2828.4,2865.7v-7h3.6v7
		H2828.4z M2836,2865.7v-7h5.9v7H2836z M2776.3,2858.7h29v7h-29V2858.7z M2796.6,2868.4v6.4h-2.6v-6.4H2796.6z M2785.9,2868.4h2.6
		v6.4h-2.6V2868.4z M2804.7,2904.1v5.4h-29.2v-5.4H2804.7z M2867.8,2914.2v5.4h-92.2v-5.4H2867.8z M2826.4,3031.9v-5.4h41.3v7.7
		h-10.8c0.8-0.2,1.5-0.5,2.3-0.7c2.5-0.8,4.9-1.3,7.2-1.5H2826.4z M2859.6,2493h8.1v6.2h-8.1V2493z M2834.4,2478.1h24.7v6.1h-24.7
		V2478.1z M2834.4,2493h4.3v6.2h-4.3V2493z M2822.9,2493h4.3v6.2h-4.3V2493z M2813.9,2503.2h53.9v7.4h-53.9V2503.2z M2813.9,2514.9
		h53.9v6h-53.9V2514.9z M2838.7,2543.6v7.8h-11.3v-7.8H2838.7z M2834.4,2539.3v-6h4v6H2834.4z M2805.4,2514.9h2.1v6h-2.1V2514.9z
		 M2792.3,2533.3h34.5v6h-34.5V2533.3z M2775.9,2543.6h30v7.8h-30V2543.6z M2775.9,2554.9h91.8v6.4h-91.8V2554.9z M2775.8,2588.9
		h5.7v7.4h-5.7V2588.9z M2775.7,2612.2h5.8v6h-5.8V2612.2z M2775.7,2645.7h49.5v6h-49.5V2645.7z M2775.7,2655.4h92v7.9h-92V2655.4z
		 M2839.1,2667.2v7.9h-4v-7.9H2839.1z M2775.7,2667.2h42.5v7.9h-42.5V2667.2z M2775.7,2679.6h92v6h-92V2679.6z M2775.7,2689.1h92
		v7.9h-92V2689.1z M2775.5,2868.4h6v6.4h-6V2868.4z M2771.8,2580.5v265.6h-95v-171L2771.8,2580.5z M2647.5,2741.2h7.9v7.9h-7.9
		V2741.2z M2635.1,2741.2h4.7v7.9h-4.7V2741.2z M2565.5,2753.7h90v6h-90V2753.7z M2565.5,2763.1h90v7.9h-90V2763.1z M2565.1,2942.4
		h7v6.4h-7V2942.4z M2565.8,3033.5h58.8v0.7h-58.8V3033.5z M2449.2,2992.7v5.4H2424v-5.4H2449.2z M2424,2986.3v-5.4h16.3v5.4H2424z
		 M2474.2,3004.4v5.4H2424v-5.4H2474.2z M2452.9,2998.1v-5.4h8.8v5.4H2452.9z M2465.8,2998.1v-5.4h3.9v5.4H2465.8z M2486.2,3021.8
		h-20.8v-7.3h20.8V3021.8z M2478.3,3009.9v-5.4h3v5.4H2478.3z M2485.1,2992.7v5.4h-11.6v-5.4H2485.1z M2493.3,2937.5h12.8v5.4h-12.8
		V2937.5z M2439.8,2937.5h45.6v5.4h-45.6V2937.5z M2423.5,2970.9h50.1v5.4h-50.1V2970.9z M2452.2,2921H2423v-5.4h29.2V2921z
		 M2433.4,2886.2v-6.4h2.6v6.4H2433.4z M2441.4,2886.2v-6.4h2.6v6.4H2441.4z M2495.8,2921h-20.9v-5.4h20.9V2921z M2458.3,2906v-5.4
		h22.6v5.4H2458.3z M2486.4,2906v-5.4h3v5.4H2486.4z M2496.2,2889.4h-46.5v-6.4h46.5V2889.4z M2483.5,2870.2h5.9v7h-5.9V2870.2z
		 M2475.9,2870.2h3.6v7h-3.6V2870.2z M2467.3,2870.2h3.6v7h-3.6V2870.2z M2454.8,2870.2h8.2v7h-8.2V2870.2z M2423.8,2870.2h29v7h-29
		V2870.2z M2496.3,2825v5.7h-72.7v-5.7H2496.3z M2447.5,2797.3h-23.8v-5.6h23.8V2797.3z M2427.7,2787.6v-7.9h3.2v7.9H2427.7z
		 M2455.4,2797.3h-1.9v-5.6h1.9V2797.3z M2455.4,2787.6h-18.7v-7.9h18.7V2787.6z M2444.4,2775.6v-7.9h3.2v7.9H2444.4z
		 M2464.4,2775.6h-11.6v-7.9h11.6V2775.6z M2474.1,2775.6h-4.4v-7.9h4.4V2775.6z M2481.2,2767.7h4.4v7.9h-4.4V2767.7z
		 M2474.2,2753.8h-12.8v-7.9h12.8V2753.8z M2433.4,2712.7h35.5v7.9h-35.5V2712.7z M2423.3,2767.7h15.4v7.9h-15.4V2767.7z
		 M2422.9,2879.9h6v6.4h-6V2879.9z M2348.9,2971.6l50-45.2v107.7h-105.1v-118.4L2348.9,2971.6z M2240.4,3006.6v-7.4h19.2v7.4H2240.4
		z M2242.9,3010.8v6h-2.1v-6H2242.9z M2247.9,2995.1v-6.2h3.1v6.2H2247.9z M2272.4,2995.1h-15.1v-6.2h15.1V2995.1z M2268.1,2999.1
		v7.4h-3.1v-7.4H2268.1z M2248.2,3010.8h24.2v6h-24.2V3010.8z M2254.8,2416h15.3v6.2h-15.3V2416z M2249.2,2552.8v-7.7h3v7.7H2249.2z
		 M2252.2,2556.6v7.8h-3v-7.8H2252.2z M2252.1,2519.4h-2.8v-7.4h2.8V2519.4z M2241.1,2509.5v-6h28.6v6H2241.1z M2257.7,2519.4v-7.4
		h2.8v7.4H2257.7z M2260.4,2535.2v6h-2.7v-6H2260.4z M2257.6,2545.3h8.6v7.7h-8.6V2545.3z M2264.2,2541.2v-6h5.8v6H2264.2z
		 M2237.8,2433.7v-7.4h19.2v7.4H2237.8z M2240.4,2437.9v6h-2.1v-6H2240.4z M2245.7,2437.9h24.4v6h-24.4V2437.9z M2262.4,2433.7v-7.4
		h3.1v7.4H2262.4z M2245.4,2416h3.1v6.2h-3.1V2416z M2211.4,2422.2h-4.3v-6.2h4.3V2422.2z M2222.9,2422.2h-4.3v-6.2h4.3V2422.2z
		 M2228.2,2422.2v-6.2h11.9v6.2H2228.2z M2207.3,2456.3h4v6h-4V2456.3z M2187,2462.3v-6h13v6H2187z M2200.1,2474.4h-3.1v-7.8h3.1
		V2474.4z M2218.4,2474.4h-11.3v-7.8h11.3V2474.4z M2219,2456.3h34.5v6H2219V2456.3z M2239.9,2474.4v-7.8h30v7.8H2239.9z
		 M2270,2511.9v7.4h-5.7v-7.4H2270z M2219,2488.1h50.8v7.8H2219V2488.1z M2238.5,2503.5v6h-7.9v-6H2238.5z M2225.7,2503.5v6h-3.5v-6
		H2225.7z M2213.4,2503.5h5v6h-5V2503.5z M2204,2503.5h5.8v6h-5.8V2503.5z M2197.7,2522.4v-6h45.4v6H2197.7z M2232.7,2541.2v-6h19.1
		v6H2232.7z M2220.6,2574.7v-6h49.5v6H2220.6z M2210.7,2598.1h-4v-7.9h4V2598.1z M2227.6,2598.1v-7.9h42.5v7.9H2227.6z
		 M2254.6,2687.1v-7.9h15.4v7.9H2254.6z M2265.6,2691.2v7.9h-3.2v-7.9H2265.6z M2256.5,2691.2v7.9h-18.7v-7.9H2256.5z
		 M2245.6,2687.1v-7.9h3.2v7.9H2245.6z M2224.4,2624.2h35.5v7.9h-35.5V2624.2z M2200.1,2632.1h-12.8v-7.9h12.8V2632.1z
		 M2207.3,2632.1v-7.9h3.9v7.9H2207.3z M2212.1,2687.1h-4.4v-7.9h4.4V2687.1z M2219.1,2657.4h12.8v7.9h-12.8V2657.4z M2223.6,2687.1
		h-4.4v-7.9h4.4V2687.1z M2228.8,2687.1v-7.9h11.6v7.9H2228.8z M2239.8,2708.8h-1.9v-5.6h1.9V2708.8z M2245.8,2708.8v-5.6h23.8v5.6
		H2245.8z M2197,2742.2v-5.7h72.7v5.7H2197z M2270.3,2791.4v6.4h-6v-6.4H2270.3z M2240.5,2781.7h29v7h-29V2781.7z M2259.9,2791.4
		v6.4h-2.6v-6.4H2259.9z M2251.8,2791.4v6.4h-2.6v-6.4H2251.8z M2230.3,2781.7h8.2v7h-8.2V2781.7z M2222.4,2781.7h3.6v7h-3.6V2781.7
		z M2213.8,2781.7h3.6v7h-3.6V2781.7z M2203.9,2781.7h5.9v7h-5.9V2781.7z M2197.1,2794.6h46.5v6.4h-46.5V2794.6z M2206.9,2812.1v5.4
		h-3v-5.4H2206.9z M2218.4,2832.5h-20.9v-5.4h20.9V2832.5z M2235,2817.5h-22.6v-5.4h22.6V2817.5z M2241.1,2832.5v-5.4h29.2v5.4
		H2241.1z M2190,2854.5h-2.8h-10v-5.4h10h2.8V2854.5z M2210.2,2854.5h-12.8v-5.4h12.8V2854.5z M2218,2854.5v-5.4h45.6v5.4H2218z
		 M2241,2912.8h-14.9v-6.1h14.9V2912.8z M2241,2901.5h-14.7v-6.1h14.7V2901.5z M2266.1,2912.8h-18.5v-6.1h18.5V2912.8z M2247,2901.5
		v-6.1h2.6v6.1H2247z M2253.5,2901.5v-6.1h2.6v6.1H2253.5z M2260.2,2901.5v-6.1h2.6v6.1H2260.2z M2272.3,2901.5h-5.8v-6.1h5.8
		V2901.5z M2229.9,2887.9v-5.4h42.5v5.4H2229.9z M2243.1,2940.8h29.3v5.8h-29.3V2940.8z M2221.7,2974.4h34.3v5.3h-34.3V2974.4z
		 M2178,2940.8h1.6h23.2v5.8h-23.2h-1.6V2940.8z M2188.7,2995.1h-9.1h-2.2v-6.2h2.2h9.1V2995.1z M2213.9,2995.1h-4.3v-6.2h4.3
		V2995.1z M2213.9,2980.1h-24.7v-6.1h24.7V2980.1z M2213.9,2946.6h-4.4v-5.8h4.4V2946.6z M2225.4,2995.1h-4.3v-6.2h4.3V2995.1z
		 M2230.7,2995.1v-6.2h11.9v6.2H2230.7z M2256.1,3029.2v4.9h-34.5v-4.9H2256.1z M2213.9,3029.2v4.9h-4v-4.9H2213.9z M2189.6,3029.2
		h13v4.9h-13V3029.2z M1786.1,3034.2v-4.7h20.8v4.7H1786.1z M1848.3,3019.3v5.4h-50.3v-5.4H1848.3z M1802.6,3013v-5.4h3.9v5.4
		H1802.6z M1810.6,3013v-5.4h8.8v5.4H1810.6z M1823.1,3013v-5.4h25.2v5.4H1823.1z M1832.1,3001.2v-5.4h16.3v5.4H1832.1z
		 M1798.7,2991.2v-5.4h50.1v5.4H1798.7z M1832.4,2957.8h-45.6v-5.4h45.6V2957.8z M1798.7,3013h-11.6v-5.4h11.6V3013z M1793.9,3019.3
		v5.4h-3v-5.4H1793.9z M1797.4,2930.5v5.4h-20.9v-5.4H1797.4z M1782.8,2920.9v-5.4h3v5.4H1782.8z M1791.4,2920.9v-5.4h22.6v5.4
		H1791.4z M1776.1,2904.3v-6.4h46.5v6.4H1776.1z M1782.9,2892.1v-7h5.9v7H1782.9z M1792.8,2892.1v-7h3.6v7H1792.8z M1801.4,2892.1
		v-7h3.6v7H1801.4z M1809.3,2892.1v-7h8.2v7H1809.3z M1819.5,2892.1v-7h29v7H1819.5z M1838.9,2894.7v6.4h-2.6v-6.4H1838.9z
		 M1830.8,2894.7v6.4h-2.6v-6.4H1830.8z M1820.1,2930.5h29.2v5.4h-29.2V2930.5z M1849.3,2901.1h-6v-6.4h6V2901.1z M1848.6,2845.6
		H1776v-5.7h72.7V2845.6z M1798.1,2768.6v-7.9h12.8v7.9H1798.1z M1802.6,2782.6v7.9h-4.4v-7.9H1802.6z M1833.6,2790.4v-7.9h15.4v7.9
		H1833.6z M1844.6,2794.6v7.9h-3.2v-7.9H1844.6z M1838.9,2735.5h-35.5v-7.9h35.5V2735.5z M1827.8,2782.6v7.9h-3.2v-7.9H1827.8z
		 M1807.8,2782.6h11.6v7.9h-11.6V2782.6z M1816.9,2806.5h1.9v5.6h-1.9V2806.5z M1816.9,2802.5v-7.9h18.7v7.9H1816.9z M1824.8,2806.5
		h23.8v5.6h-23.8V2806.5z M1849.1,2701.4h-42.5v-7.9h42.5V2701.4z M1822.1,2619.8v6h-45.4v-6H1822.1z M1783,2612.9v-6h5.8v6H1783z
		 M1792.4,2612.9v-6h5v6H1792.4z M1845.2,2648.6v7.7h-8.6v-7.7H1845.2z M1836.7,2644.5v-6h2.7v6H1836.7z M1839.5,2622.8h-2.8v-7.4
		h2.8V2622.8z M1820.1,2612.9v-6h28.6v6H1820.1z M1831.2,2648.5v7.7h-3v-7.7H1831.2z M1831.1,2622.8h-2.8v-7.4h2.8V2622.8z
		 M1798,2599.2v-7.8h50.8v7.8H1798z M1817.5,2606.9v6h-7.9v-6H1817.5z M1804.7,2606.9v6h-3.5v-6H1804.7z M1811.7,2638.6h19.1v6
		h-19.1V2638.6z M1828.2,2660h3v7.8h-3V2660z M1849.1,2672.1v6h-49.5v-6H1849.1z M1849.1,2644.5h-5.8v-6h5.8V2644.5z M1849,2622.8
		h-5.7v-7.4h5.7V2622.8z M1848.9,2577.8h-30v-7.8h30V2577.8z M1798,2559.7h34.5v6H1798V2559.7z M1786.3,2559.7h4v6h-4V2559.7z
		 M1786.1,2570h11.3v7.8h-11.3V2570z M1766,2559.7h13v6h-13V2559.7z M1779.1,2570v7.8h-3.1v-7.8H1779.1z M1756,2570h12.1v7.8H1756
		V2570z M1756,2581.3h92.8v6.4H1756V2581.3z M1756,2591.5h34.3v7.8H1756V2591.5z M1756,2638.6h49.7v6H1756V2638.6z M1756,2648.5h66
		v8h-66V2648.5z M1756,2660h66v7.9h-66V2660z M1756,2681.8h93v7.9h-93V2681.8z M1789.7,2693.6v7.9h-4v-7.9H1789.7z M1756,2693.6
		h23.1v7.9H1756V2693.6z M1756,2706h93v6h-93V2706z M1756,2715.5h93v7.9h-93V2715.5z M1791.1,2782.6v7.9h-4.4v-7.9H1791.1z
		 M1790.2,2735.5h-3.9v-7.9h3.9V2735.5z M1779.1,2727.6v7.9h-12.8v-7.9H1779.1z M1756,2727.6h2.2v7.9h-2.2V2727.6z M1756,2760.8
		h34.1v7.9H1756V2760.8z M1756,2782.6h9.7v7.9h-9.7V2782.6z M1756,2794.6h54.9v7.9H1756V2794.6z M1756,2806.5h54.9v5.6H1756V2806.5z
		 M1756,2827.6h92.6v8.2H1756V2827.6z M1756,2863.3h92.6v5.9H1756V2863.3z M1756,2930.5h13.3v5.4H1756V2930.5z M1756,2940.6h93.2
		v5.4H1756V2940.6z M1779,2952.4v5.4h-12.8v-5.4H1779z M1756,2952.4h2.8v5.4h-2.8V2952.4z M1756,2985.8h34.6v5.4H1756V2985.8z
		 M1756,3007.6h23.3v5.4H1756V3007.6z M1756,3019.3h29.1v5.4H1756V3019.3z M1782,3029.4v4.7H1756v-4.7H1782z M1736.9,2967.6v66.6
		h-94.1v-175.4L1736.9,2967.6z M1529,2664.1l-0.4-7.9h1.4v7.9H1529z M1561.8,2689.4v7.9h-30.9l-0.4-7.9H1561.8z M1537.9,2664.1v-7.9
		h12.8v7.9H1537.9z M1561.8,2664.1h-3.9v-7.9h3.9V2664.1z M1562.8,2711.2v7.9h-4.4v-7.9H1562.8z M1537.3,2711.2v7.9h-5.6
		c-0.1-3.1-0.2-5.7-0.3-7.9H1537.3z M1582.6,2723.2v7.9h-50.4c-0.1-2.8-0.2-5.5-0.3-7.9H1582.6z M1588.5,2735.1h1.9v5.6h-1.9V2735.1
		z M1579.5,2719.1v-7.9h11.6v7.9H1579.5z M1588.5,2731.1v-7.9h18.7v7.9H1588.5z M1596.2,2719.1v-7.9h3.2v7.9H1596.2z M1596.5,2735.1
		h23.8v5.6h-23.8V2735.1z M1613,2731.1v-7.9h3.2v7.9H1613z M1605.3,2719.1v-7.9h15.4v7.9H1605.3z M1610.5,2664.1H1575v-7.9h35.5
		V2664.1z M1582.6,2689.4v7.9h-12.8v-7.9H1582.6z M1574.2,2711.2v7.9h-4.4v-7.9H1574.2z M1582.6,2735.1v5.6h-50.1
		c-0.1-1.9-0.1-3.8-0.2-5.6H1582.6z M1620.3,2756.2v8.2h-87c-0.1-2.8-0.2-5.5-0.3-8.2H1620.3z M1620.3,2768.5v5.7h-72.7v-5.7H1620.3
		z M1620.3,2792v5.9h-85.9c-0.1-2-0.1-4-0.2-5.9H1620.3z M1603.7,2929.9v-5.4h16.3v5.4H1603.7z M1620,2936.2v5.4h-25.2v-5.4H1620z
		 M1570.4,2919.9v-5.4h50.1v5.4H1570.4z M1591,2936.2v5.4h-8.8v-5.4H1591z M1578.1,2936.2v5.4h-3.9v-5.4H1578.1z M1604.1,2886.5
		h-45.6v-5.4h45.6V2886.5z M1558.8,2941.7v-5.4h11.6v5.4H1558.8z M1565.6,2948v5.4h-3v-5.4H1565.6z M1578.6,2958.1v7.3h-20.8v-7.3
		H1578.6z M1578.1,2981.5h1.9v5.4h-1.9V2981.5z M1569.7,2953.4v-5.4h50.3v5.4H1569.7z M1587.6,2981.5h32.9v5.4h-32.9V2981.5z
		 M1591.6,3005h29.3v5.4h-29.3V3005z M1620.9,2864.5h-29.2v-5.4h29.2V2864.5z M1569.1,2859.1v5.4h-20.9v-5.4H1569.1z M1554.5,2849.5
		v-5.4h3v5.4H1554.5z M1563.1,2849.5v-5.4h22.6v5.4H1563.1z M1547.8,2832.9v-6.4h46.5v6.4H1547.8z M1554.5,2820.7v-7h5.9v7H1554.5z
		 M1564.4,2820.7v-7h3.6v7H1564.4z M1573.1,2820.7v-7h3.6v7H1573.1z M1580.9,2820.7v-7h8.2v7H1580.9z M1599.8,2829.8v-6.4h2.6v6.4
		H1599.8z M1610.5,2829.8h-2.6v-6.4h2.6V2829.8z M1591.2,2820.7v-7h29v7H1591.2z M1541,2859.1v5.4h-4.5c-0.1-1.8-0.1-3.6-0.2-5.4
		H1541z M1620.9,2869.2v5.4h-84.1c-0.1-1.8-0.1-3.6-0.2-5.4H1620.9z M1550.6,2881v5.4h-12.8v-5.4H1550.6z M1562.2,2914.5v5.4h-24
		c-0.1-1.8-0.1-3.6-0.2-5.4H1562.2z M1551,2936.2v5.4h-12c-0.1-1.8-0.1-3.6-0.2-5.4H1551z M1556.8,2948v5.4h-17.4
		c-0.1-1.8-0.1-3.6-0.2-5.4H1556.8z M1553.6,2958.1v7.3h-13.8c-0.1-2.4-0.2-4.8-0.2-7.3H1553.6z M1570,2981.5v5.4h-29.6
		c-0.1-1.8-0.1-3.6-0.2-5.4H1570z M1568.6,3005v5.4h-9.4v-5.4H1568.6z M1551,3005v5.4h-1.9v-5.4H1551z M1620.9,3014.4v7.3h-79.3
		c-0.1-2.2-0.2-4.7-0.3-7.3H1620.9z M1620.7,2448v6.2h-15.3v-6.2H1620.7z M1599.9,2584.8v-7.7h3v7.7H1599.9z M1602.9,2588.6v7.8h-3
		v-7.8H1602.9z M1602.7,2551.4h-2.8v-7.4h2.8V2551.4z M1591.7,2541.5v-6h28.6v6H1591.7z M1608.4,2551.4v-7.4h2.8v7.4H1608.4z
		 M1611,2567.2v6h-2.7v-6H1611z M1608.3,2577.3h8.6v7.7h-8.6V2577.3z M1614.9,2573.2v-6h5.8v6H1614.9z M1588.4,2465.7v-7.4h19.2v7.4
		H1588.4z M1591,2469.9v6h-2.1v-6H1591z M1569.8,2433.5h34.3v5.3h-34.3V2433.5z M1596,2448h3.1v6.2h-3.1V2448z M1596.3,2469.9h24.4
		v6h-24.4V2469.9z M1613.1,2465.7v-7.4h3.1v7.4H1613.1z M1591.2,2399.9h29.3v5.8h-29.3V2399.9z M1562,2454.2h-4.3v-6.2h4.3V2454.2z
		 M1562,2439.2h-24.7v-6.1h24.7V2439.2z M1562,2405.7h-4.4v-5.8h4.4V2405.7z M1573.5,2454.2h-4.3v-6.2h4.3V2454.2z M1578.8,2454.2
		v-6.2h11.9v6.2H1578.8z M1558,2488.3h4v6h-4V2488.3z M1537.7,2494.3v-6h13v6H1537.7z M1550.7,2506.4h-3.1v-7.8h3.1V2506.4z
		 M1569,2506.4h-11.3v-7.8h11.3V2506.4z M1569.6,2488.3h34.5v6h-34.5V2488.3z M1590.5,2506.4v-7.8h30v7.8H1590.5z M1620.6,2543.9
		v7.4h-5.7v-7.4H1620.6z M1569.6,2520.1h50.8v7.8h-50.8V2520.1z M1589.1,2535.5v6h-7.9v-6H1589.1z M1576.4,2535.5v6h-3.5v-6H1576.4z
		 M1564,2535.5h5v6h-5V2535.5z M1554.7,2535.5h5.8v6h-5.8V2535.5z M1548.4,2554.4v-6h45.4v6H1548.4z M1583.4,2573.2v-6h19.1v6
		H1583.4z M1571.2,2606.7v-6h49.5v6H1571.2z M1561.4,2630.1h-4v-7.9h4V2630.1z M1578.2,2630.1v-7.9h42.5v7.9H1578.2z M1621,2823.4
		v6.4h-6v-6.4H1621z M1620.7,2644.1v7.9h-92.4l-0.4-7.9H1620.7z M3026,2948v5.4h-45.2v-5.4H3026z M2985.4,2941.7v-5.4h3.9v5.4
		H2985.4z M2993.4,2941.7v-5.4h8.8v5.4H2993.4z M3026,2929.9h-11.2v-5.4h11.2V2929.9z M3026,2936.2v5.4h-20.1v-5.4H3026z
		 M3026,2731.1h-1.9v-7.9h1.9V2731.1z M3011.1,2584.8v-7.7h3v7.7H3011.1z M3014,2588.6v7.8h-3v-7.8H3014z M3013.9,2551.4h-2.8v-7.4
		h2.8V2551.4z M3002.9,2541.5v-6h23.1v6H3002.9z M2999.6,2465.7v-7.4h19.2v7.4H2999.6z M3002.2,2469.9v6h-2.1v-6H3002.2z
		 M3007.2,2454.2v-6.2h3.1v6.2H3007.2z M3026,2465.7h-1.8v-7.4h1.8V2465.7z M3026,2454.2h-9.5v-6.2h9.5V2454.2z M3007.5,2469.9h18.6
		v6h-18.6V2469.9z M3019.6,2551.4v-7.4h2.8v7.4H3019.6z M3022.2,2567.2v6h-2.7v-6H3022.2z M3019.5,2577.3h6.6v7.7h-6.6V2577.3z
		 M3134.1,2406.2h-13.3v-6.1h7.3C3130.2,2402.1,3132.2,2404.1,3134.1,2406.2z M3120.4,2393.2v1.7h-5.8v-6.1h0.3
		C3116.7,2390.3,3118.6,2391.7,3120.4,2393.2z M3166.5,2920.8h-35.6v-5.4h38.1C3168.1,2917.2,3167.3,2919,3166.5,2920.8z
		 M3151.2,2948.8c-1.2,1.8-2.3,3.6-3.5,5.4h-33.2v-5.4H3151.2z M3131.2,2958.7v5.4h-16.3v-5.4H3131.2z M3114.9,2970.5h20.5
		c-1.5,1.8-3.1,3.7-4.7,5.4h-15.8V2970.5z M3171.7,2909H3114v-5.4h60C3173.2,2905.4,3172.5,2907.2,3171.7,2909z M3187.1,2860.9v4.3
		c-0.2,0.7-0.4,1.4-0.6,2.1h-45.9v-6.4H3187.1z M3145.8,2855v-7h8.2v7H3145.8z M3158.3,2855v-7h3.6v7H3158.3z M3166.9,2855v-7h3.6v7
		H3166.9z M3174.5,2855v-7h5.9v7H3174.5z M3165.9,2893.4h12c-0.7,1.8-1.4,3.6-2.1,5.4h-10V2893.4z M3149.3,2883.8v-5.4h22.6v5.4
		H3149.3z M3180.4,2883.8h-3v-5.4h3V2883.8z M3143.8,2855h-29v-7h29V2855z M3135.1,2857.7v6.4h-2.6v-6.4H3135.1z M3124.4,2857.7h2.6
		v6.4h-2.6V2857.7z M3143.2,2893.4v5.4H3114v-5.4H3143.2z M3195.4,2832.2h-80.8v-5.9h82C3196.2,2828.2,3195.8,2830.2,3195.4,2832.2z
		 M3152.3,2731.6v-7.9h12.8v7.9H3152.3z M3165.1,2745.5v7.9h-4.4v-7.9H3165.1z M3127.8,2765.4v-7.9h18.7v7.9H3127.8z M3146.4,2769.4
		v5.6h-1.9v-5.6H3146.4z M3138.4,2769.4v5.6h-23.8v-5.6H3138.4z M3118.7,2765.4v-7.9h3.2v7.9H3118.7z M3135.4,2753.4v-7.9h3.2v7.9
		H3135.4z M3143.8,2753.4v-7.9h11.6v7.9H3143.8z M3159.9,2698.4h-35.5v-7.9h35.5V2698.4z M3129.6,2745.5v7.9h-15.4v-7.9H3129.6z
		 M3114.7,2802.8h72.7v5.7h-72.7V2802.8z M3201.5,2798.7h-86.8v-8.2h88C3202.3,2793.2,3201.9,2795.9,3201.5,2798.7z M3204.4,2775.1
		h-52.1v-5.6h52.7C3204.8,2771.3,3204.6,2773.2,3204.4,2775.1z M3205.4,2765.4h-53v-7.9h53.6
		C3205.8,2760.1,3205.6,2762.8,3205.4,2765.4z M3172.2,2753.4v-7.9h4.4v7.9H3172.2z M3206.3,2753.4h-8.7v-7.9h9.1
		C3206.6,2748.1,3206.4,2750.7,3206.3,2753.4z M3207.2,2731.6h-34.1v-7.9h34.1C3207.2,2726.3,3207.2,2728.9,3207.2,2731.6z
		 M3173.1,2698.4v-7.9h3.9v7.9H3173.1z M3184.2,2698.4v-7.9h12.8v7.9H3184.2z M3206.7,2698.4h-1.7v-7.9h1.4
		C3206.5,2693.2,3206.6,2695.8,3206.7,2698.4z M3206.2,2686.3h-92v-7.9h91.5C3205.9,2681,3206,2683.7,3206.2,2686.3z M3205.5,2674.9
		h-91.3v-6h90.9C3205.2,2670.9,3205.4,2672.9,3205.5,2674.9z M3114.2,2664.4v-7.9h42.5v7.9H3114.2z M3173.5,2664.4v-7.9h4v7.9
		H3173.5z M3204.7,2664.4h-20.6v-7.9h19.9C3204.3,2659.1,3204.5,2661.8,3204.7,2664.4z M3203.7,2652.6h-89.5v-7.9h88.8
		C3203.2,2647.3,3203.5,2649.9,3203.7,2652.6z M3146.5,2492.5v7.4h-19.2v-7.4H3146.5z M3135.8,2488.5v-6.2h3.1v6.2H3135.8z
		 M3179.4,2492.5c0.5,2.2,1,4.7,1.5,7.4h-28.6v-7.4H3179.4z M3161.4,2488.5v-6.2h4.3v6.2H3161.4z M3172.9,2488.5v-6.2h4.3v6.2
		H3172.9z M3156.1,2488.5h-11.9v-6.2h11.9V2488.5z M3130.8,2528.6v-6h34.5v6H3130.8z M3144.4,2532.9v7.8h-30v-7.8H3144.4z
		 M3143.9,2510.2v-6h2.1v6H3143.9z M3129.5,2488.5h-15.3v-6.2h15.3V2488.5z M3121.9,2492.5v7.4h-3.1v-7.4H3121.9z M3138.6,2504.2v6
		h-24.4v-6H3138.6z M3186.6,2582.7v6h-45.4v-6H3186.6z M3165.9,2575.8v-6h5v6H3165.9z M3174.4,2575.8v-6h5.8v6H3174.4z
		 M3123.8,2585.7v-7.4h2.8v7.4H3123.8z M3126.5,2601.5v6h-2.7v-6H3126.5z M3126.6,2611.6v7.7h-8.6v-7.7H3126.6z M3114.6,2575.8v-6
		h28.6v6H3114.6z M3134.9,2578.2v7.4h-2.8v-7.4H3134.9z M3132.1,2622.9h3v7.8h-3V2622.9z M3132.1,2619.1v-7.7h3v7.7H3132.1z
		 M3132.4,2607.5v-6h19.1v6H3132.4z M3145.8,2575.8v-6h7.9v6H3145.8z M3158.5,2575.8v-6h3.5v6H3158.5z M3165.3,2562.2h-50.8v-7.8
		h50.8V2562.2z M3120,2578.2v7.4h-5.7v-7.4H3120z M3120,2601.5v6h-5.8v-6H3120z M3163.7,2635v6h-49.5v-6H3163.7z M3201.5,2630.8
		h-60.3v-7.9h59.4C3200.9,2625.5,3201.2,2628.1,3201.5,2630.8z M3200.2,2619.4h-59v-8h58C3199.6,2614.1,3199.9,2616.7,3200.2,2619.4
		z M3198.8,2607.5h-41.2v-6h40.4C3198.2,2603.5,3198.5,2605.5,3198.8,2607.5z M3192.2,2562.2h-19.3v-7.8h18
		C3191.3,2557,3191.7,2559.6,3192.2,2562.2z M3190.3,2550.6h-75.8v-6.4h74.8C3189.5,2546.3,3189.9,2548.4,3190.3,2550.6z
		 M3177.2,2532.9v7.8h-11.3v-7.8H3177.2z M3172.9,2528.6v-6h4v6H3172.9z M3186.4,2528.6h-2.1v-6h1
		C3185.7,2524.6,3186,2526.5,3186.4,2528.6z M3184.2,2532.9h3c0,0.1,0,0.3,0.1,0.4v7.4h-3.1V2532.9z M3182.9,2510.2h-30.6v-6h29.4
		C3182.1,2506.1,3182.5,2508.1,3182.9,2510.2z M3172.9,2473.5v-4.1c0.6,1.5,1.1,2.9,1.6,4.1H3172.9z M3165.1,2473.1h-34.3v-5.3h34.3
		V2473.1z M3143.8,2440h-29.3v-5.8h29.3V2440z M3113.9,2857.7h6v6.4h-6V2857.7z M3114.9,2987.7v-5.4h9.8c-1.9,1.9-3.8,3.7-5.8,5.4
		H3114.9z M3151.2,2428h-36.8v-6.1h32.6C3148.5,2423.9,3149.9,2426,3151.2,2428z M3139.8,2388.9v0.1c0,0-0.1-0.1-0.1-0.1H3139.8z
		 M3110.3,2385.6l0,609.2c-18,13.5-38.8,22.1-62.9,23.5v-651.6C3072.4,2366.5,3093.2,2374.2,3110.3,2385.6z M3019.5,2354.6h2.6v6.1
		h-2.6V2354.6z M3012.8,2354.6h2.6v6.1h-2.6V2354.6z M3000.2,2371.9h-14.9v-6.1h14.9V2371.9z M3000.2,2360.6h-14.7v-6.1h14.7V2360.6
		z M3006.3,2354.6h2.6v6.1h-2.6V2354.6z M3025.3,2371.9h-18.5v-6.1h18.5V2371.9z M3025.7,2360.6v-6.1h0.3v6.1H3025.7z
		 M3002.3,2399.9h23.7v5.8h-23.7V2399.9z M2981,2433.5h34.3v5.3H2981V2433.5z M2973.2,2454.2h-4.3v-6.2h4.3V2454.2z M2973.2,2439.2
		h-24.7v-6.1h24.7V2439.2z M2973.2,2405.7h-4.4v-5.8h4.4V2405.7z M2984.7,2454.2h-4.3v-6.2h4.3V2454.2z M2990,2454.2v-6.2h11.9v6.2
		H2990z M2969.2,2488.3h4v6h-4V2488.3z M2948.8,2494.3v-6h13v6H2948.8z M2961.9,2506.4h-3.1v-7.8h3.1V2506.4z M2980.2,2506.4h-11.3
		v-7.8h11.3V2506.4z M2980.8,2488.3h34.5v6h-34.5V2488.3z M3001.7,2506.4v-7.8h24.4v7.8H3001.7z M2980.8,2520.1h45.2v7.8h-45.2
		V2520.1z M3000.3,2535.5v6h-7.9v-6H3000.3z M2987.5,2535.5v6h-3.5v-6H2987.5z M2975.2,2535.5h5v6h-5V2535.5z M2965.9,2535.5h5.8v6
		h-5.8V2535.5z M2959.5,2554.4v-6h45.4v6H2959.5z M2994.5,2573.2v-6h19.1v6H2994.5z M2982.4,2606.7v-6h43.6v6H2982.4z
		 M2972.6,2630.1h-4v-7.9h4V2630.1z M2989.4,2630.1v-7.9h36.6v7.9H2989.4z M3026,2719.1h-9.6v-7.9h9.6V2719.1z M3018.3,2723.2v7.9
		h-18.7v-7.9H3018.3z M3007.4,2719.1v-7.9h3.2v7.9H3007.4z M2986.2,2656.2h35.5v7.9h-35.5V2656.2z M2961.9,2664.1h-12.8v-7.9h12.8
		V2664.1z M2969.1,2664.1v-7.9h3.9v7.9H2969.1z M2973.9,2719.1h-4.4v-7.9h4.4V2719.1z M2980.9,2689.4h12.8v7.9h-12.8V2689.4z
		 M2985.4,2719.1h-4.4v-7.9h4.4V2719.1z M2990.7,2719.1v-7.9h11.6v7.9H2990.7z M3001.6,2740.8h-1.9v-5.6h1.9V2740.8z M3007.6,2740.8
		v-5.6h18.4v5.6H3007.6z M2958.8,2774.2v-5.7h67.3v5.7H2958.8z M3002.3,2813.7h23.7v7h-23.7V2813.7z M3021.7,2823.4v6.4h-2.6v-6.4
		H3021.7z M3013.7,2823.4v6.4h-2.6v-6.4H3013.7z M2992.1,2813.7h8.2v7h-8.2V2813.7z M2984.2,2813.7h3.6v7h-3.6V2813.7z
		 M2975.6,2813.7h3.6v7h-3.6V2813.7z M2965.7,2813.7h5.9v7h-5.9V2813.7z M2958.9,2826.6h46.5v6.4h-46.5V2826.6z M2968.7,2844.1v5.4
		h-3v-5.4H2968.7z M2980.2,2864.5h-20.9v-5.4h20.9V2864.5z M2996.8,2849.5h-22.6v-5.4h22.6V2849.5z M3002.9,2864.5v-5.4h23.2v5.4
		H3002.9z M3026,2919.9h-44.5v-5.4h44.5V2919.9z M2961.8,2886.5H2949v-5.4h12.8V2886.5z M2969.6,2886.5v-5.4h45.6v5.4H2969.6z
		 M2970,2936.2h11.6v5.4H2970V2936.2z M2976.8,2948v5.4h-3v-5.4H2976.8z M2968.9,2965.3v-7.3h20.8v7.3H2968.9z M2991.2,2987h-1.9
		v-5.4h1.9V2987z M2998.8,2981.5h27.3v5.4h-27.3V2981.5z M3002.8,3010.4v-5.4h23.3v5.4H3002.8z"/>
	<path d="M1015.2,3322.8l34.5-23.5c20.8-14.2,35-24.6,42.6-31.2c7.6-6.7,13.2-15,16.7-25.1c3.5-10.1,4.1-20.6,1.7-31.6
		c-2.3-11-7.2-21.9-14.5-32.7c-7.8-11.4-16.4-20.1-26-26.1c-9.6-6-19.6-9.2-30-9.4c-10.4-0.3-20.2,2-29.2,6.8
		c-9.1,4.8-23.8,14.1-44,27.9l-34.5,23.5c-20.8,14.2-35,24.6-42.6,31.2c-7.6,6.7-13.2,15-16.7,25.1c-3.5,10.1-4.1,20.6-1.7,31.6
		c2.3,11,7.2,21.9,14.5,32.7c7.8,11.4,16.4,20.1,26,26.1c9.6,6,19.6,9.1,30,9.4c10.4,0.3,20.2-2,29.2-6.8
		C980.2,3345.9,994.9,3336.6,1015.2,3322.8z M929.4,3302.2c-3.8,1.2-7-0.1-9.4-3.6c-2.4-3.5-2.5-6.7-0.4-9.5
		c2.1-2.8,9-8.2,20.7-16.2l94.2-64.2c10.4-7.1,17.1-10.6,20.2-10.6c3.1,0,5.6,1.4,7.5,4.1c2.2,3.2,2.4,6.3,0.4,9.1
		c-1.9,2.8-7.6,7.4-17,13.8l-92.8,63.2C941.1,3296.4,933.2,3301,929.4,3302.2z"/>
	<polygon points="1198.6,3320.5 1114.6,3391.4 1175.7,3293.2 1141.4,3252.6 954.7,3410.1 988.9,3450.7 1073.8,3379.1 1010.3,3476 
		1046.1,3518.5 1232.9,3361.1 	"/>
	<rect x="1143.3" y="3497.5" transform="matrix(0.725 0.6887 -0.6887 0.725 2748.5837 152.4603)" width="80.1" height="42.1"/>
	<path d="M1401,3626.9c14.6-18,23.8-30.4,27.7-37.5c3.9-7,5.7-14.8,5.4-23.3c-0.3-8.5-3.8-17.3-10.4-26.3
		c-6.6-9-21.8-23.2-45.7-42.5l-36.9-30l-154,189.6l62.2,50.5c11.8,9.6,21.1,16.1,28,19.6s13.7,5.2,20.3,5.2c6.6,0,13-2.2,19.3-6.7
		c6.3-4.4,16.3-15.2,30.1-32.2L1401,3626.9z M1300.7,3649.7c-10.3,12.6-17.4,19.7-21.3,21.3c-4,1.5-9.5-0.6-16.6-6.4l101.3-124.7
		c5.4,4.4,8.6,7.9,9.6,10.6c1,2.7,0.8,5.5-0.6,8.4c-1.4,2.9-5.6,8.6-12.6,17.2L1300.7,3649.7z"/>
	<polygon points="1441.1,3720.8 1474,3743 1500,3704.4 1467,3682.3 1492.9,3643.8 1528.1,3667.5 1555.3,3626.9 1467.5,3567.8 
		1331.1,3770.5 1422.5,3832 1449.8,3791.4 1411.1,3765.4 	"/>
	<path d="M1664.3,3687.8l-66.2,94.1l21-59.2c7-18.8,12.9-35.3,17.6-49.4l-72.7-38.4l-114,216l49.1,25.9l75.3-142.5l-54.6,153.4
		l34.8,18.4l96.5-135.5l-76.9,145.9l49.1,25.9l114-216L1664.3,3687.8z"/>
	<path d="M1767.4,3736.9l-118.6,216l61.2,23.8l19.4-39.5l21.2,8.2l-12.7,42.2l60.5,23.5l54.5-240.9L1767.4,3736.9z M1764.8,3904.3
		l-20.4-7.9c9.4-19.6,25.5-50,48.5-91.2C1781.2,3844.3,1771.8,3877.4,1764.8,3904.3z"/>
	<polygon points="1973.1,3806.8 1943.6,3912.8 1938.8,3797.3 1887.6,3783 1822.1,4018.3 1873.3,4032.6 1903.1,3925.6 1905.1,4041.5 
		1958.7,4056.4 2024.3,3821.1 	"/>
	<path d="M2146.3,3847.1c-10.2-4.6-30.4-9.5-60.6-14.6l-46.8-8l-41.1,240.8l79,13.5c15,2.6,26.3,3.6,34,3.3
		c7.7-0.4,14.5-2.2,20.2-5.4c5.8-3.3,10.3-8.3,13.6-15.3c3.3-6.9,6.8-21.2,10.4-42.8l14.4-84.3c3.9-22.8,5.8-38.2,5.7-46.2
		c-0.1-8-2.3-15.7-6.8-23C2163.9,3857.6,2156.5,3851.6,2146.3,3847.1z M2109.1,3909.6l-16,93.6c-2.7,16.1-5.5,25.7-8.2,29
		c-2.7,3.3-8.6,4.1-17.6,2.6l27-158.4c6.8,1.2,11.4,2.7,13.6,4.5c2.2,1.9,3.4,4.4,3.6,7.6C2111.8,3891.6,2111,3898.7,2109.1,3909.6z
		"/>
	<path d="M2342.9,3972.6l-7.9-62.3c-2.2-20-4.4-37.3-6.6-52.1l-82.2-1.5l-4.4,244.2l55.5,1l3-161.1l20.4,161.5l39.4,0.7l25-164.5
		l-2.9,164.9l55.5,1l4.4-244.2l-82.6-1.5L2342.9,3972.6z"/>
	<path d="M2610,3944.5c-2.5-25-4.8-42.5-7-52.4c-2.2-9.9-6.9-18.8-14-26.7c-7.2-7.9-16.1-13.4-26.9-16.6
		c-10.8-3.2-22.7-4.2-35.7-2.9c-13.7,1.4-25.5,4.8-35.4,10.4c-9.9,5.5-17.4,12.8-22.6,21.8c-5.2,9-7.9,18.7-8,28.9
		c-0.1,10.3,1,27.6,3.4,52l4.1,41.6c2.5,25,4.8,42.5,7,52.4c2.2,9.9,6.9,18.8,14,26.7c7.2,7.9,16.1,13.4,26.9,16.6
		c10.8,3.2,22.7,4.2,35.7,2.9c13.7-1.4,25.5-4.8,35.4-10.4c9.9-5.5,17.4-12.8,22.6-21.8c5.2-9,7.9-18.7,8-28.9
		c0.1-10.3-1-27.6-3.4-52L2610,3944.5z M2555.1,4051.6c-0.8,3.9-3.4,6.1-7.7,6.5c-4.2,0.4-7-1-8.5-4.2c-1.5-3.2-2.9-11.8-4.3-26
		l-11.3-113.5c-1.2-12.5-1.1-20.1,0.4-22.9c1.5-2.7,3.9-4.3,7.2-4.6c3.9-0.4,6.6,0.9,8.2,4c1.6,3,2.9,10.2,4,21.5l11.1,111.7
		C2555.6,4038.6,2555.9,4047.7,2555.1,4051.6z"/>
	<path d="M2695.7,3824.9l4.7,45.4c3.6,36.5,8.4,78.2,14.5,125c-12.5-45-29.2-99.7-50.1-164.1l-65.7,13.2l84.2,232.2l94.6-19.1
		l-16.6-245.8L2695.7,3824.9z"/>
	
		<rect x="2705.3" y="3886.3" transform="matrix(-0.2711 -0.9625 0.9625 -0.2711 -177.4238 7701.8281)" width="244.3" height="63.5"/>
	<polygon points="2925.3,3757.4 2963.2,3860.6 2891.8,3769.7 2842,3788 2926.2,4017.3 2976.1,3998.9 2937.8,3894.7 3007.1,3987.5 
		3059.4,3968.3 2975.1,3739.1 	"/>
	<path d="M3102.7,3803.6l16.3,33.3l11.5-5.6l12.7,26c5,10.2,7.6,17.4,7.8,21.7c0.2,4.3-1.7,7.4-5.9,9.4c-3.8,1.9-7.1,1.5-9.9-1
		c-2.8-2.5-6.6-8.7-11.4-18.5l-51.5-105.3c-5.5-11.2-8.3-18.5-8.3-21.8c-0.1-3.3,1.7-5.9,5.2-7.6c4.1-2,7.4-1.7,10,1
		c2.6,2.6,7,10.2,13.2,22.8l9.7,19.9l57.1-27.9l-4.6-9.5c-8.8-18-17.2-30.9-25.1-38.7c-8-7.8-19.1-12.4-33.5-13.9
		c-14.4-1.5-29.9,1.9-46.6,10c-17,8.3-28.9,19-35.7,32.2c-6.8,13.1-9.1,25-6.7,35.6c2.4,10.6,8.7,26.4,18.9,47.3l31.9,65.2
		c7.4,15.1,13.5,26.1,18.2,33.2c4.8,7,11,12.9,18.7,17.6c7.7,4.7,16.9,7.4,27.5,8c10.6,0.6,20.8-1.5,30.3-6.2
		c8-3.9,14.2-9,18.5-15.3c4.3-6.3,6.7-13.8,7.3-22.4l13,13.1l35.9-17.5l-57.6-117.8L3102.7,3803.6z"/>
	<polygon points="3336.6,3764.3 3230.2,3600.4 3177,3635 3310,3839.9 3395.7,3784.2 3369,3743.2 	"/>
	<path d="M3288.5,3560.5l125.1,212.3l51.7-40.5l-24.1-36.9l17.9-14l29.7,32.5l51.1-40l-179.2-170L3288.5,3560.5z M3413.8,3661.8
		c-12-18-29.9-47.5-53.6-88.3c27.7,30.1,51.3,55,70.9,74.8L3413.8,3661.8z"/>
	<path d="M3625.6,3513.6l-15.7-16.4c-11-11.5-21-18.2-30.1-20.2c-9.1-1.9-20.1,1-33,8.7c7.4-11.3,10.8-20.5,10.2-27.7
		c-0.7-7.2-5.9-15.9-15.8-26.2c-14.6-15.3-27.5-24.1-38.6-26.6c-11.1-2.5-21.5-1.3-31.1,3.6c-9.6,4.9-21.6,14.2-36.1,28.1
		l-45.8,43.8l168.9,176.5l53.1-50.8c18.5-17.7,29.7-30.4,33.6-38.2c3.9-7.8,4.5-15.9,1.8-24.2
		C3644.1,3535.7,3637,3525.5,3625.6,3513.6z M3506.4,3501.8c-1.1,1-2.6,2.5-4.5,4.5l-37.5-39.2c4.8-4.4,8.3-7.2,10.5-8.1
		c2.2-1,4.9-0.9,8,0.4c3.1,1.2,7.4,4.6,12.6,10.2c10,10.5,15.5,17.4,16.3,20.8C3512.7,3493.7,3510.9,3497.5,3506.4,3501.8z
		 M3575.4,3583.2l-47.3-49.4c7-6.3,12.1-9.4,15.3-9.4c3.1,0.1,8.3,3.9,15.5,11.4l15.7,16.5c6.8,7.1,10.2,12.4,10.2,16
		C3584.9,3571.8,3581.7,3576.8,3575.4,3583.2z"/>
	<path d="M3746.6,3386.5c-7-7.5-19.9-19.2-38.6-35.1l-31.8-27.1c-19.2-16.3-33-27.2-41.4-32.8c-8.4-5.6-18-8.8-28.6-9.5
		c-10.6-0.7-20.9,1.5-30.9,6.7c-10,5.2-19.2,12.7-27.7,22.7c-8.9,10.5-15,21.2-18.3,32c-3.3,10.8-3.7,21.3-1.2,31.4
		c2.5,10.1,7.3,18.9,14.3,26.4c7,7.5,19.9,19.2,38.6,35.1l31.8,27.1c19.2,16.3,33,27.2,41.4,32.8c8.4,5.6,18,8.8,28.6,9.5
		c10.6,0.7,20.9-1.5,30.9-6.7c10-5.2,19.2-12.7,27.7-22.7c8.9-10.5,15-21.2,18.3-32c3.3-10.8,3.7-21.3,1.2-31.4
		C3758.4,3402.8,3753.6,3394,3746.6,3386.5z M3709.9,3449.6c-2.7,3.2-5.7,4.2-9,2.9c-3.3-1.3-10.3-6.5-21.1-15.7l-86.9-73.9
		c-9.6-8.1-14.8-13.7-15.6-16.7c-0.8-3-0.1-5.8,2-8.3c2.5-3,5.4-3.9,8.7-2.8c3.2,1.1,9.2,5.3,17.8,12.7l85.5,72.7
		c11,9.3,17.5,15.7,19.6,19.1C3713,3443,3712.7,3446.3,3709.9,3449.6z"/>
	<path d="M3805,3214.9c-4.2-1.6-9.7-2.1-16.4-1.6c-6.8,0.6-15,5.1-24.7,13.7c6.8-12.2,8.9-22,6.2-29.6c-2.7-7.6-11.8-16.8-27.5-27.7
		c-17.1-11.9-31.5-17.7-43.1-17.7c-11.6,0.1-21.4,3.8-29.4,11.2c-7.9,7.4-20.5,23.4-37.5,48.1l-25.6,37l200.8,139.1l36.2-52.2
		l-90.5-62.7c5-7.2,9.3-10.7,13.1-10.7c3.7,0.1,11,3.8,21.7,11.3l66.7,46.2l33.6-48.5l-53-36.7
		C3819.4,3223,3809.2,3216.5,3805,3214.9z M3722.2,3250.9l-44.6-30.9c4.2-6,8.1-9.5,11.6-10.4c3.6-0.9,8.5,0.9,14.9,5.3l11,7.6
		c8.8,6.1,13.3,10.9,13.2,14.4C3728.3,3240.3,3726.3,3245,3722.2,3250.9z"/>
	<polygon points="1090.9,1574 966.1,1502.5 1112.2,1536.8 1148.1,1474.2 873.4,1316.9 839.2,1376.6 962.9,1447.5 816.2,1416.7 
		782,1476.4 1056.7,1633.7 	"/>
	<path d="M1027.1,1226c8.8,10,25.1,25.6,48.8,46.8l40.3,36.2c24.3,21.8,41.8,36.4,52.5,44c10.7,7.5,23,12,36.7,13.2
		c13.7,1.3,27.2-1.2,40.3-7.6c13.1-6.3,25.4-15.8,36.7-28.4c11.9-13.3,20.2-26.9,24.8-40.8c4.6-13.9,5.5-27.5,2.6-40.6
		c-2.9-13.2-8.7-24.7-17.6-34.7c-8.8-10-25.1-25.6-48.8-46.8l-40.3-36.2c-24.3-21.8-41.8-36.4-52.5-44c-10.7-7.5-23-12-36.7-13.2
		c-13.7-1.3-27.2,1.2-40.3,7.6c-13.1,6.3-25.4,15.8-36.7,28.4c-11.9,13.3-20.2,26.9-24.8,40.8c-4.6,13.9-5.5,27.5-2.6,40.6
		C1012.4,1204.4,1018.3,1216,1027.1,1226z M1077,1145.3c3.4-3.8,7.2-4.9,11.3-3.4c4.1,1.5,11.7,7.2,22.7,17.1l108.3,97.2
		c13.9,12.5,22.1,20.9,24.8,25.4c2.6,4.5,2.1,8.8-1.7,13c-3.7,4.1-7.6,5.2-11.8,3.5c-4.2-1.8-13.1-8.8-26.8-21.1l-110-98.7
		c-12.1-10.9-18.7-18.3-19.6-22.2C1073.2,1152.1,1074.2,1148.5,1077,1145.3z"/>
	<path d="M1435.6,1175.7l-125.4-167l149.6,148.8l40.8-30.7l-105.5-188l128.5,170.8l57.5-43.2l-190.2-253l-85.6,64.4l73.7,129.5
		l-57.7-57.3c-18.2-18.6-34.3-34.6-48.3-47.9l-85.1,64l190.2,253L1435.6,1175.7z"/>
	<path d="M1690.9,1004.8l-22-52.7l26.1-13.7l30.3,48.3l74.5-39.1l-188.7-258.5l-105.4,55.2l109.8,299.9L1690.9,1004.8z M1667,889.8
		l-25.1,13.2c-11.1-25.8-27-67.5-47.7-125.1C1622.4,822.6,1646.7,860,1667,889.8z"/>
	<path d="M1997,888.8c18.8-5.2,32.6-10.1,41.4-14.8c8.8-4.7,15.7-10.5,20.6-17.5c4.9-7,7.4-15.4,7.5-25.4c0-9.9-3.7-28.6-11.1-56
		l-29.1-106.9c-7.9-28.9-14-48.1-18.4-57.4c-4.4-9.4-11.2-17.1-20.4-23.3c-9.2-6.1-20.9-9.1-35.3-8.9c-14.4,0.2-40.6,5.5-78.6,16
		l-58.9,16.3l83.1,305.3L1997,888.8z M1925.9,639.3c3.6,1,6.4,3.3,8.3,6.9c1.9,3.7,4.8,12.4,8.5,26.2l32.3,118.6
		c5.5,20.4,7.6,33.2,6.3,38.5c-1.4,5.3-7.7,9.5-19.1,12.7l-54.6-200.8C1916.2,639.1,1922.3,638.4,1925.9,639.3z"/>
	<path d="M2496.5,627.9l7.1,210.9l50.7,5.6l52-209.3l-23.4,212.4l71.5,7.9l34.8-314.6L2582.7,529l-35.1,144.8l-2.8-81.3
		c-0.5-26-1.3-48.7-2.3-68l-105.9-11.7l-34.8,314.6l71.5,7.9L2496.5,627.9z"/>
	<path d="M2756.3,881.6c11,9.5,24.6,17,40.7,22.3c16.9,5.6,32.7,7.8,47.3,6.5c14.6-1.3,27.4-5.9,38.3-13.8
		c10.9-7.9,19.2-17.9,24.8-30c5.6-12.1,13.4-33.2,23.5-63.4l17.1-51.4c10.3-30.9,16.8-52.8,19.4-65.7c2.6-12.9,1.8-25.8-2.5-39
		c-4.3-13.1-12-24.4-23-33.9c-11-9.5-24.6-17-40.7-22.3c-16.9-5.6-32.7-7.8-47.3-6.5c-14.6,1.3-27.4,5.9-38.3,13.8
		c-10.9,7.9-19.2,17.9-24.8,30c-5.6,12.1-13.4,33.2-23.5,63.4l-17.1,51.4c-10.3,30.9-16.8,52.8-19.4,65.7c-2.6,12.9-1.8,25.8,2.5,39
		C2737.6,860.8,2745.3,872.1,2756.3,881.6z M2814.5,810.6l46.7-140.2c5.1-15.5,9.3-24.4,12.5-26.8c3.2-2.4,6.9-3,10.9-1.6
		c4.8,1.6,7.4,4.6,7.6,9c0.2,4.4-2,13.6-6.6,27.6l-46,138c-5.9,17.7-10.4,28.6-13.4,32.8c-3.1,4.2-7.2,5.4-12.6,3.7
		c-5.2-1.7-7.8-4.9-7.9-9.4C2805.8,839.1,2808.7,828.1,2814.5,810.6z"/>
	<path d="M3309.9,782.2l-75.2-43.3l-34.3,48.2c-27.7,38.6-58.7,83.3-92.8,134.1c26.4-54.5,56.9-122,91.7-202.6l-75.2-43.3
		l-116.7,298.1l108.4,62.4L3309.9,782.2z"/>
	<polygon points="3364.2,1193.7 3403,1143.6 3355.3,1106.6 3398,1051.6 3438.6,1083.1 3475.6,1035.6 3435,1004 3471.8,956.6 
		3515.2,990.3 3554,940.3 3445.6,856.1 3251.4,1106.1 	"/>
	<path d="M3518.3,1343.1l104.9-96.8c7.7,8.3,11,14.9,9.8,19.6c-1.2,4.7-8,12.8-20.4,24.3l-77.3,71.4l51.9,56.2l61.3-56.6
		c18.8-17.3,29.8-28.4,33-33.3c3.2-4.9,5.4-11.6,6.6-20.4c1.2-8.7-2.3-20.4-10.4-35.1c13.4,12.1,25.4,17.5,35.7,16.2
		c10.4-1.2,24.6-10.2,42.7-26.9c19.8-18.3,31.3-34.8,34.5-49.6c3.2-14.7,1.2-28.2-5.9-40.3c-7.1-12.1-23.9-32.5-50.2-61l-39.5-42.8
		l-232.6,214.8L3518.3,1343.1z M3711,1165.1c6.5,7,9.8,12.9,9.9,17.6c0.1,4.8-3.5,10.5-10.9,17.3l-12.8,11.8
		c-10.2,9.5-17.6,13.7-22,12.7c-4.4-1-9.7-4.9-16-11.7L3711,1165.1z"/>
	<path d="M3778.2,1472.2c-2.3,24.4-4.7,40.2-7.3,47.5c-2.7,7.2-12.3,15.1-28.7,23.9c-7.5,4-13.8,5.8-18.8,5.4
		c-5.1-0.3-8.9-2.9-11.4-7.8c-2.6-4.8-2.9-9-0.9-12.5c2-3.5,8.2-8,18.7-13.6l34-18l-35.8-67.5l-18.3,9.7c-21,11.1-36,21.8-45.2,32.1
		c-9.1,10.3-13.8,24.3-13.8,42c-0.1,17.7,5,36.2,15.4,55.7c9.4,17.7,20.8,31.6,34.3,41.6c13.5,10,26.2,14.8,38.1,14.4
		c11.9-0.3,27.8-5.8,47.8-16.4c27.4-14.5,45-29.3,52.9-44.2c7.9-14.9,12.8-43.7,14.9-86.3c0.7-14.8,2.8-24.7,6.2-29.6
		c3.4-5,9.7-10,19.1-15c7.3-3.9,13.3-5.6,18-5.2c4.8,0.4,8.3,2.7,10.6,7.1c2.1,4,2.3,7.6,0.6,10.7c-1.7,3.1-7.4,7.3-17.1,12.4
		l-20.7,11l35.8,67.5l11.1-5.9c22.2-11.8,36.8-22.3,43.8-31.5c7-9.2,10-22.1,9-38.7c-1-16.5-6.4-34.3-16.4-53.1
		c-9.2-17.3-19.8-30.5-31.8-39.8c-12.1-9.2-24.5-14-37.3-14.2c-12.8-0.2-29.9,5.4-51.3,16.7c-14.9,7.9-26,16.3-33.6,25.2
		c-7.5,8.9-12.4,17.8-14.7,26.5C3783,1431.1,3780.6,1447.7,3778.2,1472.2z"/>
</g>
</svg>
