<svg id="svg" version="1.1" width="400" height="309.09090909090907" viewBox="0 0 400 309.09090909090907" xmlns="http://www.w3.org/2000/svg" xmlns:xlink="http://www.w3.org/1999/xlink" ><g id="svgg"><path id="path0" d="M371.756 154.545 C 371.756 189.879,371.784 204.297,371.818 186.587 C 371.852 168.876,371.852 139.967,371.818 122.344 C 371.784 104.722,371.756 119.212,371.756 154.545 M27.879 148.121 L 27.879 194.425 196.545 194.364 L 365.212 194.303 365.212 148.121 L 365.212 101.939 196.545 101.879 L 27.879 101.818 27.879 148.121 M94.061 111.273 L 94.061 119.758 61.455 119.758 L 28.848 119.758 28.848 111.273 L 28.848 102.788 61.455 102.788 L 94.061 102.788 94.061 111.273 M129.697 111.273 L 129.697 119.758 112.364 119.758 L 95.030 119.758 95.030 111.273 L 95.030 102.788 112.364 102.788 L 129.697 102.788 129.697 111.273 M196.121 111.273 L 196.121 119.758 163.394 119.758 L 130.667 119.758 130.667 111.273 L 130.667 102.788 163.394 102.788 L 196.121 102.788 196.121 111.273 M262.303 111.273 L 262.303 119.758 229.697 119.758 L 197.091 119.758 197.091 111.273 L 197.091 102.788 229.697 102.788 L 262.303 102.788 262.303 111.273 M297.939 111.273 L 297.939 119.758 280.606 119.758 L 263.273 119.758 263.273 111.273 L 263.273 102.788 280.606 102.788 L 297.939 102.788 297.939 111.273 M364.364 111.273 L 364.364 119.758 331.636 119.758 L 298.909 119.758 298.909 111.273 L 298.909 102.788 331.636 102.788 L 364.364 102.788 364.364 111.273 M30.466 104.403 C 30.376 104.493,30.303 107.602,30.303 111.314 L 30.303 118.062 61.394 118.001 L 92.485 117.939 92.485 111.152 L 92.485 104.364 61.556 104.302 C 44.546 104.268,30.555 104.314,30.466 104.403 M96.727 111.152 L 96.727 118.064 112.424 118.002 L 128.121 117.939 128.121 111.152 L 128.121 104.364 112.424 104.301 L 96.727 104.239 96.727 111.152 M132.364 111.151 L 132.364 118.061 163.398 118.061 L 194.432 118.061 194.367 111.212 L 194.303 104.364 163.333 104.302 L 132.364 104.241 132.364 111.151 M198.708 104.403 C 198.619 104.493,198.545 107.602,198.545 111.314 L 198.545 118.062 229.636 118.001 L 260.727 117.939 260.727 111.152 L 260.727 104.364 229.799 104.302 C 212.788 104.268,198.797 104.314,198.708 104.403 M264.970 111.152 L 264.970 118.064 280.667 118.002 L 296.364 117.939 296.364 111.152 L 296.364 104.364 280.667 104.301 L 264.970 104.239 264.970 111.152 M300.606 111.152 L 300.606 118.062 331.576 118.001 L 362.545 117.939 362.614 111.636 C 362.651 108.170,362.622 105.088,362.548 104.788 L 362.415 104.242 331.511 104.242 L 300.606 104.242 300.606 111.152 M91.636 111.152 L 91.636 117.091 61.455 117.091 L 31.273 117.091 31.273 111.152 L 31.273 105.212 61.455 105.212 L 91.636 105.212 91.636 111.152 M127.273 111.152 L 127.273 117.091 112.485 117.091 L 97.697 117.091 97.697 111.152 L 97.697 105.212 112.485 105.212 L 127.273 105.212 127.273 111.152 M193.455 111.152 L 193.455 117.091 163.394 117.091 L 133.333 117.091 133.333 111.152 L 133.333 105.212 163.394 105.212 L 193.455 105.212 193.455 111.152 M259.879 111.152 L 259.879 117.091 229.697 117.091 L 199.515 117.091 199.515 111.152 L 199.515 105.212 229.697 105.212 L 259.879 105.212 259.879 111.152 M295.515 111.152 L 295.515 117.091 280.727 117.091 L 265.939 117.091 265.939 111.152 L 265.939 105.212 280.727 105.212 L 295.515 105.212 295.515 111.152 M361.697 111.152 L 361.697 117.091 331.636 117.091 L 301.576 117.091 301.576 111.152 L 301.576 105.212 331.636 105.212 L 361.697 105.212 361.697 111.152 M94.061 157.091 L 94.061 193.455 61.455 193.455 L 28.848 193.455 28.848 157.091 L 28.848 120.727 61.455 120.727 L 94.061 120.727 94.061 157.091 M129.697 157.091 L 129.697 193.455 128.971 193.455 L 128.244 193.455 128.183 157.879 L 128.121 122.303 112.424 122.241 L 96.727 122.178 96.727 157.816 L 96.727 193.455 95.879 193.455 L 95.030 193.455 95.030 157.091 L 95.030 120.727 112.364 120.727 L 129.697 120.727 129.697 157.091 M196.118 137.152 C 196.115 150.759,196.060 153.472,195.800 152.970 C 195.589 152.564,195.310 152.383,194.957 152.421 L 194.428 152.478 194.365 137.391 L 194.303 122.303 163.333 122.242 L 132.364 122.180 132.364 157.090 L 132.364 192.000 160.625 192.000 L 188.886 192.000 189.613 192.727 L 190.340 193.455 160.503 193.455 L 130.667 193.455 130.667 157.091 L 130.667 120.727 163.394 120.727 L 196.121 120.727 196.118 137.152 M262.303 157.091 L 262.303 193.455 229.894 193.455 L 197.485 193.455 198.181 192.728 L 198.877 192.002 229.802 191.940 L 260.727 191.879 260.727 157.091 L 260.727 122.303 229.697 122.303 L 198.667 122.303 198.593 141.333 L 198.520 160.364 197.806 158.438 L 197.091 156.512 197.091 138.620 L 197.091 120.727 229.697 120.727 L 262.303 120.727 262.303 157.091 M297.939 157.091 L 297.939 193.455 297.213 193.455 L 296.486 193.455 296.425 157.879 L 296.364 122.303 280.667 122.241 L 264.970 122.178 264.970 157.816 L 264.970 193.455 264.121 193.455 L 263.273 193.455 263.273 157.091 L 263.273 120.727 280.606 120.727 L 297.939 120.727 297.939 157.091 M364.364 157.091 L 364.364 193.455 331.636 193.455 L 298.909 193.455 298.909 157.091 L 298.909 120.727 331.636 120.727 L 364.364 120.727 364.364 157.091 M30.415 122.484 C 30.352 122.651,30.328 138.333,30.362 157.333 L 30.424 191.879 61.455 191.879 L 92.485 191.879 92.485 157.091 L 92.485 122.303 61.508 122.242 C 36.854 122.193,30.507 122.242,30.415 122.484 M300.606 157.091 L 300.606 192.000 331.489 192.000 C 359.427 192.000,362.386 191.963,362.520 191.617 C 362.712 191.115,362.712 123.067,362.520 122.565 C 362.386 122.218,359.427 122.182,331.489 122.182 L 300.606 122.182 300.606 157.091 M91.636 157.091 L 91.636 191.030 61.455 191.030 L 31.273 191.030 31.273 157.091 L 31.273 123.152 61.455 123.152 L 91.636 123.152 91.636 157.091 M127.273 158.303 L 127.273 193.455 112.485 193.455 L 97.697 193.455 97.697 158.303 L 97.697 123.152 112.485 123.152 L 127.273 123.152 127.273 158.303 M193.455 138.009 L 193.455 152.867 189.879 154.166 C 187.912 154.881,185.683 155.712,184.926 156.012 C 183.828 156.448,183.523 156.492,183.423 156.231 C 183.354 156.051,182.873 155.790,182.355 155.650 C 181.731 155.482,181.319 155.192,181.137 154.793 C 180.890 154.251,180.756 154.203,179.825 154.321 C 179.255 154.393,177.861 154.473,176.727 154.499 L 174.667 154.545 174.591 155.335 C 174.473 156.559,174.952 156.827,178.241 157.374 C 179.875 157.646,181.341 157.993,181.499 158.146 C 181.656 158.299,183.801 163.932,186.265 170.663 L 190.745 182.902 189.805 183.770 C 188.128 185.318,187.347 188.387,188.115 190.408 L 188.352 191.030 160.842 191.030 L 133.333 191.030 133.333 157.091 L 133.333 123.152 163.394 123.152 L 193.455 123.152 193.455 138.009 M259.879 157.091 L 259.879 191.030 229.671 191.030 C 200.994 191.030,199.472 191.009,199.644 190.606 C 199.744 190.373,199.876 189.581,199.937 188.846 L 200.050 187.510 207.818 184.732 C 212.091 183.204,215.734 181.807,215.915 181.627 C 216.724 180.817,215.957 179.253,214.853 179.464 C 214.418 179.547,214.220 179.444,214.080 179.061 C 209.567 166.704,209.664 166.871,207.532 167.735 L 206.458 168.171 205.812 166.328 C 203.171 158.788,203.420 159.130,201.212 160.000 C 200.536 160.267,199.877 160.485,199.749 160.485 C 199.601 160.485,199.515 153.623,199.515 141.818 L 199.515 123.152 229.697 123.152 L 259.879 123.152 259.879 157.091 M295.515 158.303 L 295.515 193.455 280.727 193.455 L 265.939 193.455 265.939 158.303 L 265.939 123.152 280.727 123.152 L 295.515 123.152 295.515 158.303 M361.697 157.091 L 361.697 191.030 331.636 191.030 L 301.576 191.030 301.576 157.091 L 301.576 123.152 331.636 123.152 L 361.697 123.152 361.697 157.091 M195.025 153.879 C 196.192 156.833,197.332 160.335,197.172 160.476 C 196.717 160.877,187.573 163.912,187.395 163.721 C 187.084 163.389,184.968 157.254,185.114 157.108 C 185.234 156.988,194.325 153.551,194.701 153.483 C 194.787 153.467,194.933 153.645,195.025 153.879 M180.536 155.857 C 180.695 156.112,181.147 156.391,181.539 156.477 C 181.932 156.563,182.415 156.818,182.612 157.044 C 182.927 157.404,191.758 181.235,191.758 181.726 C 191.758 182.485,190.772 179.984,186.922 169.455 C 184.509 162.855,182.381 157.340,182.195 157.199 C 182.008 157.058,180.565 156.744,178.988 156.500 C 175.787 156.006,175.301 155.841,176.364 155.610 C 178.054 155.242,180.233 155.371,180.536 155.857 M122.909 159.758 C 122.909 163.586,122.943 163.908,123.333 163.833 C 123.717 163.759,123.758 163.368,123.758 159.758 C 123.758 156.147,123.717 155.756,123.333 155.683 C 122.943 155.607,122.909 155.929,122.909 159.758 M269.333 159.758 C 269.333 163.586,269.367 163.908,269.758 163.833 C 270.141 163.759,270.182 163.368,270.182 159.758 C 270.182 156.147,270.141 155.756,269.758 155.683 C 269.367 155.607,269.333 155.929,269.333 159.758 M203.932 164.195 C 204.599 166.036,205.106 167.577,205.058 167.620 C 205.009 167.663,201.872 168.812,198.087 170.173 C 194.301 171.534,191.078 172.696,190.924 172.755 C 190.686 172.846,188.242 166.666,188.242 165.973 C 188.242 165.728,201.906 160.733,202.389 160.802 C 202.577 160.828,203.241 162.291,203.932 164.195 M211.041 173.931 L 213.037 179.255 206.337 181.712 L 199.636 184.170 198.591 183.218 C 197.398 182.131,196.477 181.693,194.881 181.455 L 193.761 181.288 192.599 178.112 C 191.633 175.473,191.495 174.898,191.783 174.717 C 192.422 174.314,208.359 168.516,208.704 168.561 C 208.913 168.589,209.821 170.675,211.041 173.931 M215.118 180.858 C 214.779 181.197,200.692 186.227,200.531 186.066 C 200.336 185.871,200.177 185.936,207.636 183.206 C 214.520 180.687,215.640 180.336,215.118 180.858 M196.002 183.725 C 199.695 185.402,200.027 190.371,196.598 192.640 C 193.326 194.806,188.872 192.306,188.854 188.293 C 188.838 184.737,192.740 182.243,196.002 183.725 M192.563 185.833 C 190.071 187.103,190.992 191.152,193.773 191.152 C 195.079 191.152,196.052 190.528,196.529 189.387 C 197.528 186.995,194.901 184.640,192.563 185.833 M195.253 187.153 C 195.513 187.409,195.717 187.941,195.717 188.364 C 195.717 190.044,193.675 190.768,192.568 189.481 C 191.019 187.681,193.552 185.484,195.253 187.153 " stroke="none" fill="#040404" fill-rule="evenodd"></path><path id="path1" d="" stroke="none" fill="#080404" fill-rule="evenodd"></path></g></svg>