<svg id="svg" version="1.1" width="400" height="309.09090909090907" viewBox="0 0 400 309.09090909090907" xmlns="http://www.w3.org/2000/svg" xmlns:xlink="http://www.w3.org/1999/xlink" ><g id="svgg"><path id="path0" d="M125.091 108.606 C 125.091 109.321,274.725 109.260,274.863 108.545 C 274.941 108.142,271.246 108.121,200.018 108.121 C 125.233 108.121,125.091 108.122,125.091 108.606 M167.331 161.273 C 166.802 162.773,166.190 164.545,165.969 165.212 C 165.306 167.218,165.408 167.179,163.103 166.330 C 161.977 165.915,160.942 165.576,160.803 165.576 C 160.664 165.576,159.868 167.543,159.034 169.947 C 157.358 174.781,157.636 174.474,155.667 173.668 C 155.218 173.484,154.717 173.333,154.554 173.333 C 154.388 173.333,153.271 176.061,151.998 179.578 L 149.737 185.823 148.814 185.735 C 148.017 185.659,147.852 185.732,147.607 186.270 C 147.027 187.543,147.455 187.781,155.775 190.812 L 163.496 193.625 163.788 195.209 C 164.149 197.167,164.575 198.013,165.693 198.994 L 166.562 199.758 145.827 199.758 C 125.247 199.758,125.091 199.761,125.091 200.243 C 125.091 200.727,125.212 200.728,199.939 200.667 C 266.283 200.613,274.788 200.565,274.788 200.242 C 274.788 199.922,271.474 199.872,246.667 199.817 L 218.545 199.756 218.613 192.969 L 218.681 186.182 217.886 186.182 L 217.091 186.182 217.091 181.515 L 217.091 176.848 215.879 176.727 L 214.667 176.606 214.667 172.000 L 214.667 167.394 208.424 167.329 L 202.182 167.265 202.182 171.996 L 202.182 176.727 200.960 176.727 L 199.738 176.727 199.808 181.455 L 199.879 186.182 198.962 186.182 L 198.046 186.182 198.114 192.970 L 198.182 199.758 185.708 199.758 L 173.235 199.758 174.106 198.848 C 176.539 196.309,176.593 192.574,174.231 190.225 L 173.212 189.212 177.723 176.756 C 180.205 169.905,182.386 164.220,182.572 164.123 C 182.757 164.025,184.164 163.752,185.697 163.515 C 188.810 163.035,189.395 162.720,189.284 161.588 L 189.212 160.848 186.424 160.659 C 183.209 160.441,182.545 160.537,182.545 161.217 C 182.545 161.589,182.382 161.697,181.818 161.697 C 181.418 161.697,180.894 161.894,180.653 162.135 C 180.231 162.557,180.021 162.501,174.774 160.574 C 167.805 158.013,168.504 157.948,167.331 161.273 M177.865 166.532 C 177.209 168.340,176.594 169.903,176.499 170.007 C 176.333 170.187,167.073 166.942,166.756 166.593 C 166.672 166.500,167.144 164.888,167.806 163.009 L 169.008 159.594 174.034 161.420 L 179.059 163.246 177.865 166.532 M187.261 161.695 C 187.973 161.696,188.367 161.785,188.230 161.913 C 187.984 162.144,183.746 162.909,182.715 162.909 C 181.679 162.909,181.369 163.605,176.863 176.066 C 174.471 182.681,172.429 188.040,172.325 187.976 C 172.221 187.912,172.335 187.345,172.578 186.718 C 172.820 186.090,174.850 180.485,177.087 174.263 L 181.154 162.951 182.239 162.678 C 183.001 162.486,183.362 162.255,183.455 161.900 C 183.574 161.446,183.711 161.410,184.824 161.544 C 185.504 161.626,186.601 161.694,187.261 161.695 M168.606 169.449 C 172.339 170.817,175.468 172.005,175.557 172.089 C 175.697 172.220,173.496 178.585,173.214 178.866 C 173.160 178.920,169.901 177.795,165.971 176.365 L 158.825 173.765 159.762 171.064 C 160.277 169.579,160.827 168.002,160.984 167.561 C 161.141 167.119,161.393 166.804,161.544 166.860 C 161.695 166.915,164.873 168.081,168.606 169.449 M213.818 172.000 L 213.818 175.758 212.113 175.758 L 210.407 175.758 211.264 175.005 C 212.191 174.192,212.407 173.333,211.685 173.333 C 211.445 173.333,211.118 173.464,210.958 173.624 C 210.731 173.851,210.667 173.523,210.667 172.152 C 210.667 169.596,209.881 169.671,209.697 172.245 C 209.626 173.236,209.494 173.814,209.380 173.636 C 209.128 173.248,208.242 173.240,208.242 173.626 C 208.242 173.787,208.646 174.333,209.140 174.838 L 210.038 175.758 206.595 175.758 L 203.152 175.758 203.152 172.000 L 203.152 168.242 208.485 168.242 L 213.818 168.242 213.818 172.000 M164.000 177.816 C 168.667 179.518,172.496 180.924,172.510 180.940 C 172.524 180.957,171.992 182.470,171.329 184.303 L 170.122 187.636 169.122 187.642 C 167.855 187.648,166.184 188.397,165.091 189.448 L 164.242 190.264 157.697 187.945 C 154.097 186.669,151.108 185.590,151.056 185.546 C 150.976 185.478,152.539 181.027,154.478 175.801 C 154.750 175.069,155.077 174.557,155.236 174.616 C 155.389 174.674,159.333 176.114,164.000 177.816 M216.242 181.455 L 216.242 185.212 214.496 185.212 L 212.750 185.212 213.648 184.293 C 214.886 183.024,214.784 181.815,213.534 182.947 C 213.109 183.332,213.091 183.278,213.091 181.596 C 213.091 179.063,212.306 179.130,212.121 181.679 C 212.015 183.141,211.958 183.301,211.667 182.949 C 211.484 182.727,211.184 182.545,211.001 182.545 C 210.391 182.545,210.654 183.361,211.564 184.293 L 212.462 185.212 206.595 185.212 L 200.727 185.212 200.727 181.455 L 200.727 177.697 208.485 177.697 L 216.242 177.697 216.242 181.455 M156.242 189.479 C 163.848 192.239,163.331 192.034,163.014 192.155 C 162.872 192.209,159.872 191.202,156.347 189.918 C 152.823 188.633,149.639 187.475,149.273 187.343 C 148.906 187.212,148.606 187.008,148.606 186.891 C 148.606 186.774,148.906 186.794,149.273 186.935 C 149.639 187.077,152.776 188.221,156.242 189.479 M217.697 192.970 L 217.697 198.788 216.093 198.788 L 214.489 198.788 215.366 197.817 C 216.468 196.597,216.302 195.409,215.161 196.356 C 214.865 196.602,214.801 196.414,214.739 195.113 C 214.624 192.671,213.818 192.722,213.818 195.171 C 213.818 196.854,213.800 196.908,213.375 196.522 C 212.125 195.391,212.023 196.600,213.261 197.869 L 214.159 198.788 206.595 198.788 L 199.030 198.788 199.030 192.970 L 199.030 187.152 208.364 187.152 L 217.697 187.152 217.697 192.970 M171.128 189.569 C 173.825 190.343,175.508 193.186,174.789 195.755 C 173.747 199.475,169.188 200.802,166.340 198.214 C 162.546 194.767,166.207 188.158,171.128 189.569 M167.855 192.582 C 166.077 194.360,167.095 197.029,169.645 197.274 C 171.861 197.486,173.372 195.162,172.335 193.136 C 171.496 191.495,169.222 191.214,167.855 192.582 M171.075 193.254 C 171.819 193.953,171.805 195.005,171.041 195.769 C 169.417 197.393,167.077 195.179,168.502 193.366 C 169.138 192.558,170.281 192.509,171.075 193.254 " stroke="none" fill="#040404" fill-rule="evenodd"></path><path id="path1" d="" stroke="none" fill="#080404" fill-rule="evenodd"></path></g></svg>