<svg id="svg" version="1.1" width="400" height="400" viewBox="0 0 400 400" xmlns="http://www.w3.org/2000/svg" xmlns:xlink="http://www.w3.org/1999/xlink" ><g id="svgg"><path id="path0" d="M191.893 93.763 C 184.407 95.371,183.200 98.414,183.200 115.687 C 183.200 130.028,183.419 131.339,186.357 134.536 C 190.126 138.638,206.053 139.560,211.280 135.979 C 216.051 132.710,216.200 132.093,216.200 115.600 C 216.200 99.007,215.845 97.665,210.705 94.841 C 207.788 93.238,197.170 92.629,191.893 93.763 M96.200 127.590 C 93.656 128.054,92.520 128.659,90.616 130.563 C 87.068 134.111,87.400 126.322,87.400 206.000 L 87.400 276.600 88.335 278.480 C 89.405 280.633,90.715 282.057,93.000 283.553 L 94.600 284.600 199.631 284.600 L 304.663 284.600 306.624 283.387 C 309.474 281.625,311.443 278.832,311.971 275.799 C 312.544 272.506,312.555 138.989,311.982 136.400 C 311.124 132.522,309.503 130.357,305.993 128.400 L 304.200 127.400 266.300 127.287 L 228.400 127.173 228.400 128.443 C 228.400 135.797,220.627 146.071,213.201 148.532 C 208.549 150.074,194.397 150.612,189.600 149.429 C 179.539 146.948,173.004 139.787,171.324 129.400 L 171.000 127.400 134.400 127.349 C 114.270 127.321,97.080 127.429,96.200 127.590 M159.036 166.620 C 176.821 170.294,183.860 194.511,170.403 205.725 C 156.069 217.669,136.810 211.791,132.218 194.070 C 128.243 178.730,143.258 163.361,159.036 166.620 M290.312 188.969 C 290.396 193.156,290.296 194.619,289.912 194.863 C 289.326 195.235,223.596 195.327,222.633 194.957 C 221.974 194.704,221.638 184.095,222.269 183.464 C 222.417 183.317,237.762 183.242,256.369 183.298 L 290.200 183.400 290.312 188.969 M163.033 217.617 C 168.625 218.603,169.979 218.902,173.200 219.860 C 175.070 220.417,176.960 221.016,177.400 221.192 C 184.245 223.932,186.076 224.713,187.600 225.545 C 188.590 226.086,189.760 226.724,190.200 226.964 C 190.640 227.204,191.090 227.491,191.200 227.602 C 191.310 227.714,192.120 228.326,193.000 228.962 C 199.658 233.781,199.774 234.129,199.916 249.766 C 200.008 259.857,199.924 262.601,199.516 262.860 C 198.386 263.578,110.122 263.265,109.398 262.541 C 107.377 260.520,109.037 235.706,111.347 233.396 C 111.696 233.047,112.121 232.538,112.291 232.266 C 115.065 227.825,136.923 218.209,144.800 217.964 C 145.570 217.940,146.650 217.776,147.200 217.600 C 148.687 217.124,160.306 217.136,163.033 217.617 M290.200 223.200 L 290.200 229.000 256.200 229.000 L 222.200 229.000 222.089 223.098 L 221.979 217.196 256.089 217.298 L 290.200 217.400 290.200 223.200 M290.311 256.769 C 290.395 261.117,290.297 262.619,289.911 262.863 C 289.326 263.235,223.596 263.327,222.633 262.957 C 221.798 262.637,221.673 251.399,222.500 251.064 C 222.775 250.952,238.120 250.892,256.600 250.930 L 290.200 251.000 290.311 256.769 " stroke="none" fill="#f3f3f3" fill-rule="evenodd"></path><path id="path1" d="M177.500 0.299 C 173.336 0.401,172.400 0.532,172.400 1.012 C 172.400 1.464,171.845 1.600,170.000 1.600 C 168.667 1.600,167.600 1.778,167.600 2.000 C 167.600 2.228,166.408 2.400,164.824 2.400 C 163.297 2.400,161.936 2.580,161.800 2.800 C 161.664 3.020,160.674 3.200,159.600 3.200 C 158.526 3.200,157.536 3.380,157.400 3.600 C 157.264 3.820,156.528 4.000,155.764 4.000 C 154.898 4.000,154.288 4.226,154.145 4.600 C 153.973 5.047,153.261 5.200,151.357 5.200 C 149.919 5.200,148.800 5.375,148.800 5.600 C 148.800 5.820,148.350 6.000,147.800 6.000 C 147.250 6.000,146.800 6.180,146.800 6.400 C 146.800 6.620,145.990 6.800,145.000 6.800 C 144.010 6.800,143.200 6.980,143.200 7.200 C 143.200 7.420,142.654 7.600,141.987 7.600 C 141.279 7.600,140.679 7.849,140.545 8.200 C 140.388 8.607,139.750 8.800,138.557 8.800 C 137.591 8.800,136.800 8.980,136.800 9.200 C 136.800 9.420,136.260 9.600,135.600 9.600 C 134.940 9.600,134.400 9.780,134.400 10.000 C 134.400 10.220,133.963 10.400,133.429 10.400 C 132.894 10.400,132.187 10.670,131.857 11.000 C 131.527 11.330,130.884 11.600,130.429 11.600 C 129.973 11.600,129.600 11.780,129.600 12.000 C 129.600 12.220,128.970 12.400,128.200 12.400 C 127.430 12.400,126.800 12.580,126.800 12.800 C 126.800 13.020,126.468 13.200,126.061 13.200 C 125.214 13.200,122.929 14.268,122.584 14.825 C 122.457 15.031,121.913 15.200,121.376 15.200 C 120.839 15.200,120.400 15.380,120.400 15.600 C 120.400 15.820,119.860 16.000,119.200 16.000 C 118.540 16.000,118.000 16.180,118.000 16.400 C 118.000 16.620,117.685 16.813,117.300 16.829 C 116.915 16.845,116.060 17.197,115.400 17.611 C 114.189 18.371,112.767 19.084,110.200 20.219 C 109.430 20.559,108.800 21.009,108.800 21.219 C 108.800 21.428,108.350 21.600,107.800 21.600 C 107.250 21.600,106.800 21.780,106.800 22.000 C 106.800 22.220,106.440 22.400,106.000 22.400 C 105.560 22.400,105.200 22.580,105.200 22.800 C 105.200 23.020,104.885 23.206,104.500 23.213 C 103.635 23.228,102.400 24.129,102.400 24.744 C 102.400 24.995,101.950 25.200,101.400 25.200 C 100.850 25.200,100.400 25.380,100.400 25.600 C 100.400 25.820,100.040 26.000,99.600 26.000 C 99.160 26.000,98.800 26.180,98.800 26.400 C 98.800 26.620,98.485 26.806,98.100 26.813 C 97.235 26.828,96.000 27.729,96.000 28.344 C 96.000 28.595,95.674 28.800,95.275 28.800 C 94.877 28.800,94.164 29.160,93.692 29.600 C 93.220 30.040,92.556 30.400,92.217 30.400 C 91.878 30.400,91.600 30.670,91.600 31.000 C 91.600 31.346,91.239 31.600,90.747 31.600 C 90.278 31.600,89.603 31.929,89.247 32.330 C 88.891 32.732,88.015 33.316,87.300 33.628 C 86.585 33.940,86.000 34.344,86.000 34.526 C 86.000 35.088,84.892 36.000,84.210 36.000 C 83.492 36.000,81.600 37.727,81.600 38.382 C 81.600 38.612,81.190 38.800,80.688 38.800 C 80.187 38.800,79.517 39.160,79.200 39.600 C 78.883 40.040,78.346 40.400,78.008 40.400 C 77.669 40.400,76.854 41.026,76.196 41.791 C 75.538 42.557,74.775 43.187,74.500 43.191 C 74.225 43.196,74.000 43.380,74.000 43.600 C 74.000 43.820,73.755 44.000,73.456 44.000 C 73.157 44.000,72.574 44.450,72.161 45.000 C 71.748 45.550,71.266 46.000,71.091 46.000 C 70.729 46.000,69.803 46.807,66.386 50.100 C 65.074 51.365,63.902 52.400,63.782 52.400 C 63.389 52.400,61.600 54.353,61.600 54.782 C 61.600 55.012,61.414 55.200,61.186 55.200 C 60.646 55.200,55.200 60.646,55.200 61.186 C 55.200 61.414,55.012 61.600,54.782 61.600 C 54.292 61.600,52.400 63.415,52.400 63.884 C 52.400 64.061,51.320 65.163,50.000 66.334 C 48.680 67.506,47.600 68.680,47.600 68.944 C 47.600 69.207,47.240 69.683,46.800 70.000 C 46.360 70.317,46.000 70.725,46.000 70.906 C 46.000 71.088,45.595 71.670,45.100 72.199 C 43.682 73.716,43.201 74.342,43.191 74.683 C 43.187 74.857,42.557 75.538,41.791 76.196 C 41.026 76.854,40.400 77.669,40.400 78.008 C 40.400 78.346,40.040 78.883,39.600 79.200 C 39.160 79.517,38.800 80.187,38.800 80.688 C 38.800 81.347,38.568 81.600,37.963 81.600 C 37.462 81.600,37.041 81.921,36.916 82.400 C 36.801 82.840,36.548 83.200,36.353 83.200 C 36.159 83.200,36.000 83.573,36.000 84.029 C 36.000 84.873,35.144 86.000,34.503 86.000 C 34.309 86.000,33.902 86.630,33.600 87.400 C 33.298 88.170,32.904 88.800,32.725 88.800 C 32.546 88.800,32.400 89.039,32.400 89.330 C 32.400 89.622,31.950 90.283,31.400 90.800 C 30.850 91.317,30.400 92.068,30.400 92.470 C 30.400 92.871,30.241 93.200,30.046 93.200 C 29.851 93.200,29.392 93.830,29.027 94.600 C 28.661 95.370,28.225 96.000,28.056 96.000 C 27.887 96.000,27.502 96.630,27.200 97.400 C 26.898 98.170,26.504 98.800,26.325 98.800 C 26.146 98.800,26.000 99.160,26.000 99.600 C 26.000 100.040,25.820 100.400,25.600 100.400 C 25.380 100.400,25.200 100.850,25.200 101.400 C 25.200 101.950,24.995 102.400,24.744 102.400 C 24.129 102.400,23.228 103.635,23.213 104.500 C 23.206 104.885,23.020 105.200,22.800 105.200 C 22.580 105.200,22.400 105.560,22.400 106.000 C 22.400 106.440,22.220 106.800,22.000 106.800 C 21.780 106.800,21.600 107.250,21.600 107.800 C 21.600 108.350,21.461 108.800,21.291 108.800 C 20.996 108.800,20.633 109.441,18.943 112.939 C 17.655 115.606,17.418 116.000,17.105 116.000 C 16.937 116.000,16.800 116.349,16.800 116.776 C 16.800 117.203,16.620 117.664,16.400 117.800 C 16.180 117.936,16.000 118.577,16.000 119.224 C 16.000 119.871,15.865 120.401,15.700 120.403 C 15.059 120.410,14.371 122.535,14.901 122.871 C 15.256 123.096,15.198 123.190,14.700 123.194 C 14.315 123.197,14.000 123.470,14.000 123.800 C 14.000 124.130,13.820 124.400,13.600 124.400 C 13.380 124.400,13.200 124.940,13.200 125.600 C 13.200 126.260,13.020 126.800,12.800 126.800 C 12.580 126.800,12.400 127.250,12.400 127.800 C 12.400 128.350,12.220 128.800,12.000 128.800 C 11.780 128.800,11.600 129.411,11.600 130.157 C 11.600 130.995,11.370 131.603,11.000 131.745 C 10.670 131.871,10.400 132.330,10.400 132.764 C 10.400 133.198,10.220 133.664,10.000 133.800 C 9.780 133.936,9.600 134.667,9.600 135.424 C 9.600 136.181,9.420 136.800,9.200 136.800 C 8.980 136.800,8.800 137.591,8.800 138.557 C 8.800 139.750,8.607 140.388,8.200 140.545 C 7.870 140.671,7.600 141.130,7.600 141.564 C 7.600 141.998,7.420 142.464,7.200 142.600 C 6.980 142.736,6.800 143.737,6.800 144.824 C 6.800 145.911,6.620 146.800,6.400 146.800 C 6.180 146.800,6.000 147.250,6.000 147.800 C 6.000 148.350,5.820 148.800,5.600 148.800 C 5.371 148.800,5.200 150.000,5.200 151.600 C 5.200 153.380,5.039 154.400,4.757 154.400 C 4.514 154.400,4.422 154.121,4.553 153.779 C 4.684 153.438,4.637 153.254,4.448 153.370 C 4.125 153.570,3.886 154.845,3.333 159.308 C 3.203 160.358,2.940 161.314,2.748 161.432 C 2.557 161.550,2.400 162.987,2.400 164.624 C 2.400 166.341,2.231 167.600,2.000 167.600 C 1.778 167.600,1.600 168.667,1.600 170.000 C 1.600 171.826,1.462 172.400,1.022 172.400 C 0.555 172.400,0.418 173.410,0.307 177.700 C -0.149 195.211,0.120 229.828,0.699 228.100 C 1.102 226.897,1.486 227.791,1.555 230.095 C 1.596 231.467,1.803 232.763,2.015 232.975 C 2.227 233.187,2.400 234.584,2.400 236.080 C 2.400 237.576,2.557 238.800,2.749 238.800 C 2.941 238.800,3.207 239.655,3.339 240.700 C 3.472 241.745,3.698 243.545,3.841 244.700 C 4.013 246.087,4.288 246.800,4.651 246.800 C 5.050 246.800,5.200 247.402,5.200 249.000 C 5.200 250.210,5.380 251.200,5.600 251.200 C 5.820 251.200,6.000 251.830,6.000 252.600 C 6.000 253.370,6.180 254.000,6.400 254.000 C 6.620 254.000,6.800 254.810,6.800 255.800 C 6.800 256.790,6.980 257.600,7.200 257.600 C 7.420 257.600,7.600 258.050,7.600 258.600 C 7.600 259.222,7.827 259.600,8.200 259.600 C 8.644 259.600,8.800 260.067,8.800 261.400 C 8.800 262.390,8.980 263.200,9.200 263.200 C 9.420 263.200,9.600 263.819,9.600 264.576 C 9.600 265.333,9.780 266.064,10.000 266.200 C 10.220 266.336,10.400 266.867,10.400 267.381 C 10.400 267.894,10.670 268.418,11.000 268.545 C 11.351 268.679,11.600 269.279,11.600 269.987 C 11.600 270.654,11.780 271.200,12.000 271.200 C 12.220 271.200,12.400 271.650,12.400 272.200 C 12.400 272.750,12.580 273.200,12.800 273.200 C 13.020 273.200,13.200 273.729,13.200 274.376 C 13.200 275.023,13.380 275.664,13.600 275.800 C 13.820 275.936,14.000 276.397,14.000 276.824 C 14.000 277.251,14.270 277.600,14.600 277.600 C 14.973 277.600,15.200 277.978,15.200 278.600 C 15.200 279.150,15.380 279.600,15.600 279.600 C 15.820 279.600,16.000 280.129,16.000 280.776 C 16.000 281.423,16.180 282.064,16.400 282.200 C 16.620 282.336,16.800 282.797,16.800 283.224 C 16.800 283.651,16.980 284.000,17.200 284.000 C 17.420 284.000,17.600 284.257,17.600 284.571 C 17.600 284.886,17.825 285.388,18.100 285.687 C 18.893 286.550,19.600 287.933,19.600 288.623 C 19.600 289.346,20.532 290.400,21.171 290.400 C 21.407 290.400,21.600 291.030,21.600 291.800 C 21.600 292.570,21.780 293.200,22.000 293.200 C 22.220 293.200,22.400 293.560,22.400 294.000 C 22.400 294.440,22.580 294.800,22.800 294.800 C 23.020 294.800,23.200 295.042,23.200 295.339 C 23.200 296.116,24.232 298.069,25.182 299.089 C 25.632 299.571,26.000 300.244,26.000 300.583 C 26.000 300.922,26.180 301.200,26.400 301.200 C 26.620 301.200,26.800 301.607,26.800 302.105 C 26.800 302.604,27.249 303.347,27.800 303.761 C 28.350 304.174,28.800 304.847,28.800 305.256 C 28.800 305.665,28.980 306.000,29.200 306.000 C 29.420 306.000,29.600 306.278,29.600 306.617 C 29.600 307.284,30.092 307.979,31.500 309.300 C 31.995 309.764,32.400 310.489,32.400 310.910 C 32.400 311.920,33.900 314.000,34.627 314.000 C 34.942 314.000,35.200 314.378,35.200 314.840 C 35.200 315.301,35.740 316.183,36.400 316.800 C 37.060 317.417,37.600 318.111,37.600 318.342 C 37.600 318.574,38.005 319.180,38.500 319.689 C 40.092 321.326,40.706 322.208,40.000 321.845 C 39.670 321.675,39.895 321.991,40.500 322.549 C 41.105 323.106,41.600 323.840,41.600 324.181 C 41.600 324.533,41.945 324.800,42.400 324.800 C 42.844 324.800,43.200 325.067,43.200 325.400 C 43.200 325.730,43.380 326.000,43.600 326.000 C 43.820 326.000,44.000 326.360,44.000 326.800 C 44.000 327.244,44.267 327.600,44.600 327.600 C 44.930 327.600,45.200 327.830,45.200 328.112 C 45.200 328.393,45.560 328.883,46.000 329.200 C 46.440 329.517,46.806 329.962,46.813 330.188 C 46.820 330.415,47.632 331.410,48.618 332.399 C 49.603 333.389,50.509 334.514,50.632 334.899 C 50.754 335.285,51.016 335.600,51.214 335.600 C 51.412 335.600,53.644 337.670,56.174 340.200 C 58.704 342.730,60.960 344.800,61.187 344.800 C 61.414 344.800,61.600 344.992,61.600 345.226 C 61.600 345.460,62.635 346.637,63.900 347.841 C 65.165 349.044,66.932 350.742,67.826 351.614 C 68.720 352.487,69.665 353.200,69.926 353.200 C 70.187 353.200,70.400 353.380,70.400 353.600 C 70.400 353.820,70.593 354.000,70.829 354.000 C 71.382 354.000,72.400 355.018,72.400 355.571 C 72.400 355.807,72.760 356.000,73.200 356.000 C 73.640 356.000,74.000 356.180,74.000 356.400 C 74.000 356.620,74.193 356.800,74.429 356.800 C 74.950 356.800,76.000 357.805,76.000 358.304 C 76.000 358.502,76.450 358.906,77.000 359.200 C 77.550 359.494,78.000 359.885,78.000 360.068 C 78.000 360.250,78.317 360.400,78.705 360.400 C 79.093 360.400,79.748 360.850,80.161 361.400 C 80.574 361.950,81.158 362.400,81.460 362.400 C 81.761 362.400,82.572 362.940,83.263 363.600 C 83.954 364.260,84.852 364.800,85.259 364.800 C 85.667 364.800,86.000 364.993,86.000 365.229 C 86.000 365.804,86.748 366.474,88.200 367.200 C 88.860 367.530,89.638 368.025,89.929 368.300 C 90.219 368.575,90.675 368.800,90.940 368.800 C 91.206 368.800,91.683 369.160,92.000 369.600 C 92.317 370.040,92.897 370.400,93.288 370.400 C 93.680 370.400,94.000 370.580,94.000 370.800 C 94.000 371.020,94.450 371.200,95.000 371.200 C 95.550 371.200,96.000 371.393,96.000 371.629 C 96.000 372.334,97.086 373.200,97.971 373.200 C 98.427 373.200,98.800 373.380,98.800 373.600 C 98.800 373.820,99.160 374.000,99.600 374.000 C 100.040 374.000,100.400 374.180,100.400 374.400 C 100.400 374.620,100.670 374.800,101.000 374.800 C 101.330 374.800,101.600 375.070,101.600 375.400 C 101.600 375.730,101.926 376.000,102.325 376.000 C 102.723 376.000,103.436 376.360,103.908 376.800 C 104.380 377.240,105.224 377.600,105.783 377.600 C 106.384 377.600,106.800 377.827,106.800 378.156 C 106.800 378.469,107.585 378.944,108.600 379.243 C 109.590 379.535,110.400 379.915,110.400 380.087 C 110.400 380.259,110.850 380.400,111.400 380.400 C 111.950 380.400,112.400 380.580,112.400 380.800 C 112.400 381.020,112.651 381.200,112.957 381.200 C 113.264 381.200,113.618 381.470,113.745 381.800 C 113.871 382.130,114.431 382.400,114.987 382.400 C 115.544 382.400,116.000 382.580,116.000 382.800 C 116.000 383.020,116.349 383.200,116.776 383.200 C 117.203 383.200,117.664 383.380,117.800 383.600 C 117.936 383.820,118.397 384.000,118.824 384.000 C 119.251 384.000,119.600 384.180,119.600 384.400 C 119.600 384.620,120.230 384.800,121.000 384.800 C 121.978 384.800,122.400 384.981,122.400 385.400 C 122.400 385.773,122.778 386.000,123.400 386.000 C 123.950 386.000,124.400 386.180,124.400 386.400 C 124.400 386.620,124.940 386.800,125.600 386.800 C 126.260 386.800,126.800 386.980,126.800 387.200 C 126.800 387.420,127.231 387.600,127.757 387.600 C 128.284 387.600,128.818 387.870,128.945 388.200 C 129.071 388.530,129.586 388.803,130.087 388.806 C 131.073 388.813,133.813 389.679,134.259 390.126 C 134.410 390.277,135.043 390.400,135.667 390.400 C 136.290 390.400,136.800 390.580,136.800 390.800 C 136.800 391.020,137.430 391.200,138.200 391.200 C 139.178 391.200,139.600 391.381,139.600 391.800 C 139.600 392.219,140.022 392.400,141.000 392.400 C 141.770 392.400,142.400 392.580,142.400 392.800 C 142.400 393.020,143.210 393.200,144.200 393.200 C 145.190 393.200,146.000 393.380,146.000 393.600 C 146.000 393.820,146.439 394.000,146.976 394.000 C 147.513 394.000,148.064 394.180,148.200 394.400 C 148.336 394.620,149.517 394.800,150.824 394.800 C 152.590 394.800,153.200 394.943,153.200 395.358 C 153.200 395.908,154.177 396.146,158.500 396.654 C 159.545 396.777,160.400 397.040,160.400 397.239 C 160.400 397.437,161.908 397.600,163.751 397.600 C 166.242 397.600,167.230 397.754,167.600 398.200 C 167.901 398.563,168.777 398.800,169.816 398.800 C 170.834 398.800,171.601 399.003,171.700 399.300 C 171.831 399.694,177.832 399.800,199.913 399.800 C 221.817 399.800,228.069 399.690,228.460 399.300 C 228.735 399.025,229.914 398.800,231.080 398.800 C 232.698 398.800,233.200 398.658,233.200 398.200 C 233.200 397.717,233.822 397.600,236.400 397.600 C 238.267 397.600,239.600 397.433,239.600 397.200 C 239.600 396.980,240.489 396.800,241.576 396.800 C 242.663 396.800,243.664 396.620,243.800 396.400 C 243.936 396.180,244.667 396.000,245.424 396.000 C 246.380 396.000,246.800 395.817,246.800 395.400 C 246.800 394.934,247.331 394.800,249.176 394.800 C 250.483 394.800,251.664 394.620,251.800 394.400 C 251.936 394.180,252.487 394.000,253.024 394.000 C 253.561 394.000,254.000 393.820,254.000 393.600 C 254.000 393.380,254.810 393.200,255.800 393.200 C 256.790 393.200,257.600 393.020,257.600 392.800 C 257.600 392.580,258.230 392.400,259.000 392.400 C 259.978 392.400,260.400 392.219,260.400 391.800 C 260.400 391.381,260.822 391.200,261.800 391.200 C 262.570 391.200,263.200 391.020,263.200 390.800 C 263.200 390.580,263.832 390.400,264.605 390.400 C 265.378 390.400,266.368 390.220,266.805 390.000 C 267.242 389.780,267.958 389.420,268.395 389.200 C 268.832 388.980,269.557 388.800,270.007 388.800 C 270.457 388.800,270.929 388.530,271.055 388.200 C 271.182 387.870,271.716 387.600,272.243 387.600 C 272.769 387.600,273.200 387.420,273.200 387.200 C 273.200 386.980,273.830 386.800,274.600 386.800 C 275.370 386.800,276.000 386.620,276.000 386.400 C 276.000 386.180,276.347 386.000,276.771 386.000 C 277.196 386.000,277.813 385.730,278.143 385.400 C 278.473 385.070,279.116 384.800,279.571 384.800 C 280.027 384.800,280.400 384.620,280.400 384.400 C 280.400 384.180,280.749 384.000,281.176 384.000 C 281.603 384.000,282.064 383.820,282.200 383.600 C 282.336 383.380,282.797 383.200,283.224 383.200 C 283.651 383.200,284.000 383.020,284.000 382.800 C 284.000 382.580,284.407 382.400,284.904 382.400 C 285.401 382.400,286.293 381.950,286.887 381.400 C 287.480 380.850,288.333 380.400,288.783 380.400 C 289.232 380.400,289.600 380.259,289.600 380.087 C 289.600 379.915,290.410 379.535,291.400 379.243 C 292.415 378.944,293.200 378.469,293.200 378.156 C 293.200 377.827,293.616 377.600,294.217 377.600 C 294.776 377.600,295.620 377.240,296.092 376.800 C 296.564 376.360,297.252 376.000,297.619 376.000 C 297.987 376.000,298.626 375.550,299.039 375.000 C 299.452 374.450,300.107 374.000,300.495 374.000 C 300.883 374.000,301.200 373.820,301.200 373.600 C 301.200 373.380,301.573 373.200,302.029 373.200 C 302.914 373.200,304.000 372.334,304.000 371.629 C 304.000 371.393,304.450 371.200,305.000 371.200 C 305.550 371.200,306.000 371.020,306.000 370.800 C 306.000 370.580,306.360 370.400,306.800 370.400 C 307.240 370.400,307.600 370.220,307.600 370.000 C 307.600 369.780,307.870 369.600,308.200 369.600 C 308.530 369.600,308.800 369.420,308.800 369.200 C 308.800 368.980,309.076 368.800,309.413 368.800 C 309.749 368.800,310.129 368.530,310.255 368.200 C 310.382 367.870,310.826 367.600,311.243 367.600 C 311.659 367.600,312.000 367.420,312.000 367.200 C 312.000 366.980,312.193 366.800,312.429 366.800 C 312.982 366.800,314.000 365.782,314.000 365.229 C 314.000 364.993,314.378 364.800,314.840 364.800 C 315.301 364.800,316.183 364.260,316.800 363.600 C 317.417 362.940,318.299 362.400,318.760 362.400 C 319.222 362.400,319.600 362.207,319.600 361.971 C 319.600 361.379,320.631 360.403,321.271 360.387 C 321.937 360.371,324.000 358.581,324.000 358.019 C 324.000 357.789,324.270 357.600,324.600 357.600 C 324.930 357.600,325.200 357.420,325.200 357.200 C 325.200 356.980,325.483 356.800,325.829 356.800 C 326.547 356.800,327.600 355.866,327.600 355.229 C 327.600 354.993,327.870 354.800,328.200 354.800 C 328.530 354.800,328.800 354.620,328.800 354.400 C 328.800 354.180,329.060 354.000,329.377 354.000 C 329.695 354.000,330.891 353.010,332.035 351.800 C 333.180 350.590,334.360 349.600,334.658 349.600 C 334.956 349.600,335.200 349.440,335.200 349.245 C 335.200 348.736,341.476 342.400,341.980 342.400 C 342.211 342.400,342.400 342.212,342.400 341.982 C 342.400 341.439,344.239 339.600,344.782 339.600 C 345.012 339.600,345.200 339.443,345.200 339.250 C 345.200 339.058,346.235 337.829,347.500 336.520 C 348.765 335.210,350.569 333.298,351.508 332.270 C 352.448 331.241,353.393 330.400,353.608 330.400 C 353.824 330.400,354.000 330.121,354.000 329.781 C 354.000 329.440,354.450 328.745,355.000 328.235 C 355.550 327.725,356.000 327.014,356.000 326.654 C 356.000 326.294,356.180 326.000,356.400 326.000 C 356.620 326.000,356.800 325.730,356.800 325.400 C 356.800 325.070,357.148 324.800,357.573 324.800 C 357.998 324.800,358.453 324.464,358.583 324.053 C 358.714 323.642,359.176 322.984,359.610 322.591 C 360.045 322.198,360.400 321.621,360.400 321.309 C 360.400 320.642,361.358 319.600,361.971 319.600 C 362.207 319.600,362.404 319.195,362.409 318.700 C 362.414 318.176,362.998 317.301,363.809 316.604 C 364.574 315.946,365.200 315.200,365.200 314.946 C 365.200 314.692,365.740 313.907,366.400 313.200 C 367.060 312.493,367.600 311.594,367.600 311.200 C 367.600 310.807,367.870 310.382,368.200 310.255 C 368.530 310.129,368.800 309.749,368.800 309.413 C 368.800 309.076,368.980 308.800,369.200 308.800 C 369.420 308.800,369.600 308.530,369.600 308.200 C 369.600 307.870,369.780 307.600,370.000 307.600 C 370.220 307.600,370.400 307.240,370.400 306.800 C 370.400 306.360,370.580 306.000,370.800 306.000 C 371.020 306.000,371.200 305.550,371.200 305.000 C 371.200 304.286,371.416 304.000,371.957 304.000 C 372.750 304.000,373.200 303.264,373.200 301.967 C 373.200 301.545,373.380 301.200,373.600 301.200 C 373.820 301.200,374.000 300.924,374.000 300.587 C 374.000 300.251,374.270 299.871,374.600 299.745 C 374.930 299.618,375.200 299.264,375.200 298.957 C 375.200 298.651,375.380 298.400,375.600 298.400 C 375.820 298.400,376.000 298.074,376.000 297.675 C 376.000 297.277,376.360 296.564,376.800 296.092 C 377.649 295.180,377.866 294.588,377.200 295.000 C 376.980 295.136,376.800 294.997,376.800 294.691 C 376.800 294.385,377.250 293.894,377.800 293.600 C 378.382 293.289,378.800 292.712,378.800 292.221 C 378.800 291.756,379.160 291.117,379.600 290.800 C 380.098 290.441,380.400 289.765,380.400 289.007 C 380.400 288.176,380.717 287.552,381.400 287.039 C 382.059 286.544,382.400 285.897,382.400 285.144 C 382.400 284.515,382.580 284.000,382.800 284.000 C 383.020 284.000,383.200 283.651,383.200 283.224 C 383.200 282.797,383.380 282.336,383.600 282.200 C 383.820 282.064,384.000 281.623,384.000 281.219 C 384.000 280.816,384.270 280.382,384.600 280.255 C 384.951 280.121,385.200 279.521,385.200 278.813 C 385.200 278.146,385.335 277.599,385.500 277.597 C 385.984 277.592,386.800 275.536,386.800 274.320 C 386.800 273.704,386.980 273.200,387.200 273.200 C 387.420 273.200,387.600 272.769,387.600 272.243 C 387.600 271.716,387.870 271.182,388.200 271.055 C 388.551 270.921,388.800 270.321,388.800 269.613 C 388.800 268.946,388.980 268.400,389.200 268.400 C 389.420 268.400,389.600 268.051,389.600 267.624 C 389.600 267.197,389.780 266.736,390.000 266.600 C 390.220 266.464,390.400 265.823,390.400 265.176 C 390.400 264.529,390.580 264.000,390.800 264.000 C 391.020 264.000,391.200 263.190,391.200 262.200 C 391.200 260.867,391.356 260.400,391.800 260.400 C 392.219 260.400,392.400 259.978,392.400 259.000 C 392.400 258.230,392.580 257.600,392.800 257.600 C 393.020 257.600,393.200 256.790,393.200 255.800 C 393.200 254.810,393.380 254.000,393.600 254.000 C 393.820 254.000,394.000 253.676,394.000 253.280 C 394.000 252.884,394.225 252.318,394.500 252.021 C 394.906 251.584,394.887 251.537,394.400 251.771 C 394.033 251.947,394.072 251.837,394.500 251.486 C 395.001 251.075,395.200 250.329,395.200 248.856 C 395.200 247.725,395.380 246.800,395.600 246.800 C 395.820 246.800,396.000 246.200,396.000 245.467 C 396.000 244.733,396.120 244.014,396.266 243.867 C 396.689 243.445,396.787 241.561,396.373 241.816 C 396.168 241.943,396.000 241.857,396.000 241.624 C 396.000 241.391,396.180 241.200,396.400 241.200 C 396.620 241.200,396.800 240.761,396.800 240.224 C 396.800 239.687,396.980 239.136,397.200 239.000 C 397.420 238.864,397.600 237.581,397.600 236.148 C 397.600 234.366,397.790 233.353,398.200 232.943 C 398.530 232.613,398.800 231.672,398.800 230.851 C 398.800 230.031,399.025 229.135,399.300 228.860 C 399.691 228.469,399.800 222.137,399.800 199.913 C 399.800 177.512,399.694 171.431,399.300 171.300 C 399.019 171.206,398.800 170.480,398.800 169.643 C 398.800 168.824,398.536 167.804,398.213 167.376 C 397.851 166.898,397.621 165.671,397.613 164.180 C 397.606 162.849,397.424 161.584,397.210 161.370 C 396.995 161.155,396.776 159.936,396.723 158.660 C 396.669 157.384,396.485 156.252,396.313 156.146 C 396.141 156.040,396.000 155.348,396.000 154.610 C 396.000 153.871,395.823 153.207,395.606 153.133 C 395.390 153.060,395.180 152.128,395.140 151.062 C 395.095 149.872,394.862 149.045,394.534 148.919 C 394.234 148.804,394.000 148.120,394.000 147.357 C 394.000 146.611,393.820 146.000,393.600 146.000 C 393.380 146.000,393.200 145.190,393.200 144.200 C 393.200 143.210,393.020 142.400,392.800 142.400 C 392.580 142.400,392.400 141.950,392.400 141.400 C 392.400 140.778,392.173 140.400,391.800 140.400 C 391.356 140.400,391.200 139.933,391.200 138.600 C 391.200 137.610,391.020 136.800,390.800 136.800 C 390.580 136.800,390.400 136.181,390.400 135.424 C 390.400 134.667,390.220 133.936,390.000 133.800 C 389.780 133.664,389.600 133.113,389.600 132.576 C 389.600 132.039,389.420 131.600,389.200 131.600 C 388.980 131.600,388.800 131.054,388.800 130.387 C 388.800 129.679,388.551 129.079,388.200 128.945 C 387.870 128.818,387.600 128.284,387.600 127.757 C 387.600 127.231,387.420 126.800,387.200 126.800 C 386.980 126.800,386.800 126.260,386.800 125.600 C 386.800 124.940,386.620 124.400,386.400 124.400 C 386.180 124.400,386.000 123.950,386.000 123.400 C 386.000 122.850,385.820 122.400,385.600 122.400 C 385.380 122.400,385.200 122.034,385.200 121.587 C 385.200 121.141,384.930 120.671,384.600 120.545 C 384.262 120.415,384.000 119.819,384.000 119.181 C 384.000 118.557,383.820 117.936,383.600 117.800 C 383.380 117.664,383.200 117.203,383.200 116.776 C 383.200 116.349,383.020 116.000,382.800 116.000 C 382.580 116.000,382.400 115.485,382.400 114.856 C 382.400 114.103,382.059 113.456,381.400 112.961 C 380.787 112.501,380.400 111.812,380.400 111.180 C 380.400 110.614,380.062 109.788,379.649 109.345 C 379.236 108.901,378.774 108.147,378.622 107.669 C 378.470 107.191,378.178 106.800,377.973 106.800 C 377.768 106.800,377.600 106.440,377.600 106.000 C 377.600 105.560,377.420 105.200,377.200 105.200 C 376.980 105.200,376.800 104.851,376.800 104.424 C 376.800 103.997,376.620 103.536,376.400 103.400 C 376.180 103.264,376.000 102.869,376.000 102.522 C 376.000 102.175,375.550 101.475,375.000 100.965 C 374.450 100.455,374.000 99.760,374.000 99.419 C 374.000 99.079,373.820 98.800,373.600 98.800 C 373.380 98.800,373.200 98.393,373.200 97.895 C 373.200 97.396,372.751 96.653,372.200 96.239 C 371.650 95.826,371.200 95.153,371.200 94.744 C 371.200 94.335,371.020 94.000,370.800 94.000 C 370.580 94.000,370.400 93.722,370.400 93.383 C 370.400 92.730,369.962 92.092,368.500 90.616 C 368.005 90.117,367.600 89.504,367.600 89.254 C 367.600 89.004,367.420 88.800,367.200 88.800 C 366.980 88.800,366.800 88.440,366.800 88.000 C 366.800 87.560,366.620 87.200,366.400 87.200 C 366.180 87.200,366.000 86.930,366.000 86.600 C 366.000 86.270,365.820 86.000,365.600 86.000 C 365.380 86.000,365.200 85.773,365.200 85.496 C 365.200 85.219,364.750 84.507,364.200 83.913 C 363.650 83.320,363.200 82.644,363.200 82.410 C 363.200 82.177,362.570 81.374,361.800 80.626 C 361.030 79.879,360.400 79.050,360.400 78.785 C 360.400 78.521,359.590 77.528,358.600 76.579 C 357.610 75.631,356.800 74.662,356.800 74.427 C 356.800 74.192,356.620 74.000,356.400 74.000 C 356.180 74.000,356.000 73.717,356.000 73.371 C 356.000 72.653,355.066 71.600,354.429 71.600 C 354.193 71.600,354.000 71.370,354.000 71.088 C 354.000 70.807,353.640 70.317,353.200 70.000 C 352.760 69.683,352.400 69.233,352.400 69.001 C 352.400 68.768,352.085 68.298,351.700 67.956 C 350.329 66.738,348.863 64.870,349.096 64.637 C 349.227 64.507,349.139 64.400,348.901 64.400 C 348.663 64.400,344.746 60.710,340.195 56.200 C 335.645 51.690,331.765 48.000,331.574 48.000 C 331.383 48.000,330.597 47.370,329.827 46.600 C 329.057 45.830,328.260 45.200,328.056 45.200 C 327.852 45.200,327.582 44.930,327.455 44.600 C 327.329 44.270,326.989 44.000,326.701 44.000 C 326.413 44.000,325.917 43.640,325.600 43.200 C 325.283 42.760,324.858 42.400,324.657 42.400 C 324.455 42.400,323.752 41.770,323.094 41.000 C 322.436 40.230,321.643 39.600,321.331 39.600 C 321.019 39.600,320.314 39.150,319.764 38.600 C 319.214 38.050,318.574 37.600,318.342 37.600 C 318.111 37.600,317.417 37.060,316.800 36.400 C 316.183 35.740,315.301 35.200,314.840 35.200 C 314.378 35.200,314.000 34.974,314.000 34.698 C 314.000 34.421,313.415 33.940,312.700 33.628 C 311.985 33.316,311.109 32.732,310.753 32.330 C 310.397 31.929,309.894 31.600,309.634 31.600 C 309.374 31.600,308.745 31.150,308.235 30.600 C 307.725 30.050,307.014 29.600,306.654 29.600 C 306.294 29.600,306.000 29.420,306.000 29.200 C 306.000 28.980,305.550 28.800,305.000 28.800 C 304.450 28.800,304.000 28.595,304.000 28.344 C 304.000 27.729,302.765 26.828,301.900 26.813 C 301.515 26.806,301.200 26.620,301.200 26.400 C 301.200 26.180,300.840 26.000,300.400 26.000 C 299.960 26.000,299.600 25.820,299.600 25.600 C 299.600 25.380,299.150 25.200,298.600 25.200 C 298.041 25.200,297.600 24.968,297.600 24.674 C 297.600 24.115,294.706 22.400,293.762 22.400 C 293.453 22.400,293.200 22.220,293.200 22.000 C 293.200 21.780,292.769 21.600,292.243 21.600 C 291.716 21.600,291.182 21.330,291.055 21.000 C 290.929 20.670,290.549 20.400,290.213 20.400 C 289.876 20.400,289.600 20.220,289.600 20.000 C 289.600 19.780,289.238 19.600,288.795 19.600 C 287.857 19.600,286.340 18.820,285.880 18.100 C 285.704 17.825,285.209 17.600,284.780 17.600 C 284.351 17.600,284.000 17.420,284.000 17.200 C 284.000 16.980,283.651 16.800,283.224 16.800 C 282.797 16.800,282.336 16.620,282.200 16.400 C 282.064 16.180,281.423 16.000,280.776 16.000 C 280.129 16.000,279.600 15.820,279.600 15.600 C 279.600 15.380,279.150 15.200,278.600 15.200 C 278.050 15.200,277.600 15.055,277.600 14.877 C 277.600 14.473,274.764 13.200,273.866 13.200 C 273.500 13.200,273.200 13.020,273.200 12.800 C 273.200 12.580,272.570 12.400,271.800 12.400 C 271.030 12.400,270.400 12.220,270.400 12.000 C 270.400 11.780,270.027 11.600,269.571 11.600 C 269.116 11.600,268.473 11.330,268.143 11.000 C 267.813 10.670,267.206 10.400,266.795 10.400 C 266.384 10.400,265.936 10.220,265.800 10.000 C 265.664 9.780,265.023 9.600,264.376 9.600 C 263.729 9.600,263.200 9.420,263.200 9.200 C 263.200 8.980,262.390 8.800,261.400 8.800 C 260.067 8.800,259.600 8.644,259.600 8.200 C 259.600 7.781,259.178 7.600,258.200 7.600 C 257.430 7.600,256.800 7.420,256.800 7.200 C 256.800 6.980,255.990 6.800,255.000 6.800 C 254.010 6.800,253.200 6.620,253.200 6.400 C 253.200 6.180,252.750 6.000,252.200 6.000 C 251.650 6.000,251.200 5.820,251.200 5.600 C 251.200 5.375,250.081 5.200,248.643 5.200 C 246.739 5.200,246.027 5.047,245.855 4.600 C 245.712 4.226,245.102 4.000,244.236 4.000 C 243.472 4.000,242.736 3.820,242.600 3.600 C 242.464 3.380,241.474 3.200,240.400 3.200 C 239.326 3.200,238.336 3.020,238.200 2.800 C 238.064 2.580,236.703 2.400,235.176 2.400 C 233.592 2.400,232.400 2.228,232.400 2.000 C 232.400 1.778,231.333 1.600,230.000 1.600 C 228.260 1.600,227.600 1.453,227.600 1.063 C 227.600 0.150,200.476 -0.264,177.500 0.299 M210.127 93.784 C 216.344 96.628,217.000 98.709,217.000 115.600 L 217.000 129.400 215.915 131.608 C 213.058 137.426,210.716 138.400,199.575 138.400 C 190.132 138.400,189.002 138.122,185.915 135.035 C 182.679 131.799,182.615 131.451,182.480 116.446 C 182.325 99.228,182.962 96.980,188.834 94.046 L 191.328 92.800 199.652 92.800 C 207.645 92.800,208.062 92.839,210.127 93.784 M171.520 126.880 C 171.784 127.144,172.000 127.935,172.000 128.638 C 172.000 136.647,179.841 146.001,188.600 148.443 C 191.358 149.211,208.696 149.233,211.000 148.471 C 219.601 145.624,227.142 137.212,227.196 130.400 C 227.201 129.850,227.393 128.721,227.623 127.892 L 228.042 126.384 265.921 126.492 C 303.656 126.600,303.807 126.603,305.649 127.455 C 308.308 128.684,310.669 130.985,311.916 133.561 L 313.000 135.800 313.000 206.000 C 313.000 282.715,313.174 277.129,310.672 280.685 C 309.342 282.575,307.025 284.325,304.851 285.082 C 302.764 285.809,96.957 285.839,94.828 285.113 C 91.068 283.829,88.109 280.757,87.018 277.004 C 86.249 274.358,86.066 138.679,86.828 135.800 C 88.041 131.216,90.692 128.454,95.400 126.867 C 97.255 126.242,170.895 126.255,171.520 126.880 M150.285 167.415 C 147.531 167.963,143.162 169.928,141.434 171.395 C 140.913 171.838,140.053 172.560,139.524 173.000 C 133.887 177.683,130.880 188.597,133.346 195.420 C 136.294 203.575,142.778 209.495,150.248 210.852 C 151.542 211.087,153.055 211.366,153.611 211.472 C 157.803 212.271,165.992 208.884,170.173 204.623 C 185.377 189.124,171.517 163.193,150.285 167.415 M222.800 189.200 L 222.800 194.400 256.200 194.400 L 289.600 194.400 289.600 189.200 L 289.600 184.000 256.200 184.000 L 222.800 184.000 222.800 189.200 M148.800 218.207 C 146.490 218.475,143.970 218.823,143.200 218.979 C 135.685 220.502,129.034 222.767,123.400 225.719 C 122.520 226.180,121.260 226.837,120.600 227.179 C 119.940 227.521,119.340 227.935,119.267 228.100 C 119.193 228.265,118.956 228.400,118.738 228.400 C 118.012 228.400,113.184 232.074,112.239 233.345 C 110.095 236.231,109.969 237.215,110.089 250.200 L 110.200 262.200 154.600 262.200 L 199.000 262.200 199.000 249.571 C 199.000 234.669,198.459 232.815,193.309 230.058 C 192.843 229.809,192.201 229.344,191.881 229.024 C 190.557 227.699,184.120 224.491,179.400 222.802 C 178.080 222.330,176.640 221.791,176.200 221.605 C 175.760 221.419,175.040 221.174,174.600 221.060 C 174.160 220.947,172.810 220.565,171.600 220.211 C 168.364 219.266,165.996 218.849,160.200 218.204 C 154.300 217.548,154.471 217.548,148.800 218.207 M222.975 218.121 C 222.864 218.410,222.824 220.796,222.887 223.423 L 223.000 228.200 255.600 228.257 C 273.530 228.288,288.520 228.229,288.912 228.126 C 289.554 227.957,289.613 227.447,289.512 222.869 L 289.400 217.800 256.288 217.698 C 229.236 217.614,223.140 217.692,222.975 218.121 M222.936 252.223 C 222.846 252.456,222.824 254.796,222.887 257.423 L 223.000 262.200 256.200 262.200 L 289.400 262.200 289.512 257.100 C 289.574 254.295,289.484 251.998,289.312 251.996 C 267.019 251.746,223.061 251.896,222.936 252.223 " stroke="none" fill="#142c53" fill-rule="evenodd"></path><path id="path2" d="M190.600 93.200 C 190.096 93.417,190.022 93.544,190.400 93.544 C 190.730 93.544,191.360 93.389,191.800 93.200 C 192.304 92.983,192.378 92.856,192.000 92.856 C 191.670 92.856,191.040 93.011,190.600 93.200 M206.833 92.944 C 206.925 93.023,207.540 93.208,208.200 93.356 C 209.076 93.552,209.238 93.515,208.800 93.218 C 208.260 92.853,206.432 92.598,206.833 92.944 M187.567 94.735 C 186.583 95.359,185.445 96.394,185.039 97.035 C 184.400 98.044,184.493 98.001,185.730 96.721 C 186.516 95.907,187.708 94.958,188.379 94.611 C 189.051 94.263,189.600 93.894,189.600 93.790 C 189.600 93.475,189.428 93.555,187.567 94.735 M211.239 94.500 C 211.335 94.555,212.220 95.320,213.206 96.200 L 215.000 97.800 213.419 96.100 C 212.549 95.165,211.664 94.400,211.452 94.400 C 211.240 94.400,211.144 94.445,211.239 94.500 M215.478 99.395 C 215.844 100.162,216.214 100.719,216.301 100.632 C 216.484 100.449,215.270 98.000,214.996 98.000 C 214.895 98.000,215.112 98.628,215.478 99.395 M216.710 112.835 C 216.770 119.306,216.874 125.320,216.940 126.200 C 217.006 127.080,217.081 122.490,217.107 116.000 C 217.133 109.510,217.029 103.496,216.877 102.635 C 216.725 101.774,216.649 106.364,216.710 112.835 M182.579 115.600 C 182.579 122.970,182.633 125.985,182.699 122.300 C 182.765 118.615,182.765 112.585,182.699 108.900 C 182.633 105.215,182.579 108.230,182.579 115.600 M95.914 126.728 C 95.537 126.878,112.366 127.000,133.310 127.000 L 171.392 127.000 171.649 128.200 C 171.887 129.314,171.909 129.327,171.953 128.380 C 171.979 127.819,171.784 127.144,171.520 126.880 C 170.993 126.353,97.235 126.205,95.914 126.728 M227.621 127.900 C 227.392 128.725,227.224 129.850,227.247 130.400 C 227.271 130.950,227.498 130.410,227.754 129.200 L 228.217 127.000 266.333 127.000 C 287.297 127.000,304.033 126.883,303.525 126.740 C 303.016 126.597,285.823 126.462,265.319 126.440 L 228.038 126.400 227.621 127.900 M90.057 130.057 C 88.926 131.189,88.000 132.298,88.000 132.522 C 88.000 132.746,88.486 132.306,89.079 131.544 C 89.673 130.782,90.782 129.673,91.544 129.079 C 92.306 128.486,92.746 128.000,92.522 128.000 C 92.298 128.000,91.189 128.926,90.057 130.057 M309.422 130.425 C 310.290 131.429,311.081 132.188,311.180 132.112 C 311.280 132.035,310.570 131.214,309.603 130.286 L 307.844 128.600 309.422 130.425 M172.006 131.033 C 172.009 131.455,172.195 132.070,172.418 132.400 C 172.715 132.838,172.752 132.676,172.556 131.800 C 172.227 130.329,171.998 130.010,172.006 131.033 M213.375 134.836 C 212.729 135.516,211.570 136.426,210.800 136.859 C 210.030 137.293,209.760 137.537,210.200 137.402 C 211.385 137.038,213.301 135.648,214.119 134.558 C 215.111 133.235,214.778 133.359,213.375 134.836 M86.650 136.450 C 86.310 138.152,86.386 275.224,86.728 276.085 C 86.878 276.462,87.000 244.917,87.000 205.985 C 87.000 167.053,86.978 135.200,86.950 135.200 C 86.923 135.200,86.788 135.763,86.650 136.450 M190.000 137.758 C 190.550 138.096,191.450 138.360,192.000 138.345 C 192.915 138.320,192.898 138.292,191.800 138.009 C 191.140 137.838,190.240 137.574,189.800 137.422 C 189.269 137.238,189.336 137.351,190.000 137.758 M207.600 138.000 C 206.776 138.264,206.741 138.326,207.400 138.354 C 207.840 138.373,208.470 138.213,208.800 138.000 C 209.501 137.547,209.014 137.547,207.600 138.000 M312.901 141.400 C 312.905 142.280,312.987 142.593,313.083 142.095 C 313.179 141.598,313.175 140.878,313.075 140.495 C 312.975 140.113,312.896 140.520,312.901 141.400 M179.000 143.393 C 180.100 144.416,181.360 145.444,181.800 145.676 C 182.789 146.198,182.438 145.871,179.400 143.447 L 177.000 141.531 179.000 143.393 M312.995 208.600 C 312.995 244.680,313.042 259.381,313.100 241.268 C 313.158 223.156,313.158 193.636,313.100 175.668 C 313.042 157.701,312.995 172.520,312.995 208.600 M216.262 146.047 C 215.416 146.493,214.809 146.942,214.912 147.045 C 215.102 147.236,218.000 145.655,218.000 145.360 C 218.000 145.134,217.971 145.145,216.262 146.047 M187.400 148.400 C 187.840 148.589,188.470 148.744,188.800 148.744 C 189.178 148.744,189.104 148.617,188.600 148.400 C 188.160 148.211,187.530 148.056,187.200 148.056 C 186.822 148.056,186.896 148.183,187.400 148.400 M211.000 148.400 C 210.496 148.617,210.422 148.744,210.800 148.744 C 211.130 148.744,211.760 148.589,212.200 148.400 C 212.704 148.183,212.778 148.056,212.400 148.056 C 212.070 148.056,211.440 148.211,211.000 148.400 M190.305 149.083 C 190.802 149.179,191.522 149.175,191.905 149.075 C 192.287 148.975,191.880 148.896,191.000 148.901 C 190.120 148.905,189.807 148.987,190.305 149.083 M207.905 149.083 C 208.402 149.179,209.122 149.175,209.505 149.075 C 209.887 148.975,209.480 148.896,208.600 148.901 C 207.720 148.905,207.407 148.987,207.905 149.083 M153.905 166.683 C 154.402 166.779,155.122 166.775,155.505 166.675 C 155.887 166.575,155.480 166.496,154.600 166.501 C 153.720 166.505,153.407 166.587,153.905 166.683 M144.700 169.029 C 143.205 169.840,143.296 170.178,144.800 169.400 C 145.460 169.059,146.000 168.694,146.000 168.590 C 146.000 168.332,145.957 168.347,144.700 169.029 M164.800 169.336 C 164.800 169.440,165.589 169.986,166.552 170.551 C 167.516 171.116,169.529 172.888,171.025 174.489 C 172.521 176.090,173.443 176.950,173.073 176.400 C 171.374 173.873,164.800 168.260,164.800 169.336 M137.351 174.900 C 136.170 176.248,135.480 177.200,135.684 177.200 C 135.784 177.200,136.445 176.480,137.152 175.600 C 138.525 173.892,138.664 173.401,137.351 174.900 M222.575 184.120 C 222.465 184.408,222.431 186.884,222.501 189.622 L 222.627 194.600 222.714 189.300 L 222.800 184.000 256.200 184.000 L 289.600 184.000 289.600 189.198 L 289.600 194.395 256.300 194.501 L 223.000 194.607 256.400 194.603 L 289.800 194.600 289.800 189.200 L 289.800 183.800 256.288 183.698 C 228.942 183.614,222.740 183.692,222.575 184.120 M132.257 186.300 C 131.951 188.148,131.992 191.088,132.340 192.324 C 132.483 192.832,132.600 191.347,132.600 189.024 C 132.600 184.261,132.597 184.239,132.257 186.300 M176.588 188.977 C 176.594 191.384,176.714 192.824,176.853 192.177 C 177.182 190.642,177.176 187.319,176.840 185.800 C 176.695 185.140,176.581 186.570,176.588 188.977 M132.816 194.654 C 132.807 194.904,133.063 195.714,133.384 196.454 C 133.706 197.194,133.976 197.596,133.984 197.346 C 133.993 197.096,133.737 196.286,133.416 195.546 C 133.094 194.806,132.824 194.404,132.816 194.654 M135.352 200.700 C 135.667 201.305,136.949 202.880,138.201 204.200 C 140.449 206.570,140.453 206.573,138.575 204.400 C 137.529 203.190,136.324 201.615,135.897 200.900 C 134.953 199.318,134.557 199.173,135.352 200.700 M173.303 200.900 C 172.876 201.615,171.671 203.190,170.625 204.400 C 168.747 206.573,168.751 206.570,170.999 204.200 C 172.251 202.880,173.533 201.305,173.848 200.700 C 174.643 199.173,174.247 199.318,173.303 200.900 M150.400 211.200 C 150.950 211.376,151.760 211.526,152.200 211.532 L 153.000 211.544 152.200 211.200 C 151.760 211.011,150.950 210.862,150.400 210.868 L 149.400 210.880 150.400 211.200 M157.000 211.200 C 155.922 211.474,155.902 211.506,156.800 211.513 C 157.350 211.517,158.250 211.376,158.800 211.200 C 160.144 210.769,158.692 210.769,157.000 211.200 M147.600 218.000 C 145.984 218.251,145.943 218.282,147.200 218.300 C 147.970 218.312,149.590 218.184,150.800 218.017 C 152.971 217.717,152.976 217.713,151.200 217.716 C 150.210 217.718,148.590 217.846,147.600 218.000 M156.433 217.752 C 156.525 217.835,158.220 218.001,160.200 218.120 C 162.852 218.280,163.273 218.249,161.800 218.004 C 159.715 217.656,156.144 217.488,156.433 217.752 M222.667 217.867 C 222.137 218.396,222.368 227.875,222.921 228.334 C 223.618 228.913,288.176 228.948,289.254 228.371 C 290.026 227.958,290.454 217.601,289.700 217.599 C 289.535 217.599,289.455 219.924,289.522 222.765 C 289.633 227.467,289.579 227.949,288.922 228.123 C 288.525 228.228,273.530 228.288,255.600 228.257 L 223.000 228.200 223.000 222.900 C 223.000 219.984,222.985 217.599,222.967 217.600 C 222.948 217.600,222.813 217.720,222.667 217.867 M142.600 218.800 C 141.511 219.077,141.493 219.107,142.400 219.125 C 142.950 219.135,143.760 218.989,144.200 218.800 C 145.186 218.376,144.266 218.376,142.600 218.800 M165.400 218.781 C 166.168 219.129,168.310 219.356,167.967 219.053 C 167.875 218.972,167.080 218.796,166.200 218.662 C 165.085 218.493,164.842 218.529,165.400 218.781 M139.000 219.600 C 138.496 219.817,138.422 219.944,138.800 219.944 C 139.130 219.944,139.760 219.789,140.200 219.600 C 140.704 219.383,140.778 219.256,140.400 219.256 C 140.070 219.256,139.440 219.411,139.000 219.600 M169.400 219.600 C 169.840 219.789,170.470 219.944,170.800 219.944 C 171.178 219.944,171.104 219.817,170.600 219.600 C 170.160 219.411,169.530 219.256,169.200 219.256 C 168.822 219.256,168.896 219.383,169.400 219.600 M178.000 222.162 C 178.000 222.252,178.810 222.601,179.800 222.938 C 181.957 223.673,182.187 223.456,180.151 222.605 C 178.704 222.001,178.000 221.856,178.000 222.162 M185.200 224.979 C 185.200 225.089,185.740 225.459,186.400 225.800 C 187.060 226.141,187.600 226.331,187.600 226.221 C 187.600 226.111,187.060 225.741,186.400 225.400 C 185.740 225.059,185.200 224.869,185.200 224.979 M191.600 228.702 C 191.600 228.881,192.140 229.346,192.800 229.736 C 193.460 230.126,194.000 230.379,194.000 230.298 C 194.000 230.217,193.460 229.751,192.800 229.263 C 192.140 228.775,191.600 228.523,191.600 228.702 M114.800 230.544 C 113.810 231.272,112.730 232.207,112.400 232.622 C 112.070 233.037,112.520 232.799,113.400 232.093 C 114.280 231.387,115.450 230.453,116.000 230.018 C 117.637 228.722,116.744 229.114,114.800 230.544 M194.435 230.900 C 194.528 230.955,195.233 231.540,196.002 232.200 L 197.400 233.400 196.225 232.100 C 195.579 231.385,194.874 230.800,194.658 230.800 C 194.443 230.800,194.343 230.845,194.435 230.900 M110.465 235.817 C 110.209 236.378,110.007 237.054,110.016 237.319 C 110.024 237.583,110.297 237.188,110.622 236.439 C 111.305 234.865,111.161 234.290,110.465 235.817 M109.691 250.257 C 109.610 260.937,109.672 262.342,110.233 262.557 C 111.060 262.875,198.140 262.875,198.967 262.557 C 199.528 262.342,199.590 260.937,199.509 250.257 L 199.418 238.200 199.209 250.200 L 199.000 262.200 154.600 262.200 L 110.200 262.200 109.991 250.200 L 109.782 238.200 109.691 250.257 M222.880 251.680 C 222.560 252.000,222.400 253.769,222.400 257.000 C 222.400 260.231,222.560 262.000,222.880 262.320 C 223.247 262.687,231.078 262.777,256.180 262.703 L 289.000 262.607 256.000 262.403 L 223.000 262.200 223.000 257.093 L 223.000 251.986 255.900 251.989 C 273.995 251.991,288.990 251.994,289.222 251.996 C 289.503 251.999,289.604 253.742,289.522 257.201 C 289.455 260.061,289.535 262.401,289.700 262.401 C 290.477 262.399,290.022 252.040,289.226 251.614 C 288.042 250.980,223.516 251.044,222.880 251.680 M312.446 276.067 C 312.421 276.434,312.296 277.064,312.170 277.467 C 311.952 278.162,311.963 278.163,312.397 277.487 C 312.648 277.096,312.773 276.466,312.673 276.087 C 312.511 275.468,312.488 275.466,312.446 276.067 M87.205 277.822 C 87.197 278.494,89.387 281.724,90.439 282.594 C 91.278 283.287,91.264 283.236,90.328 282.194 C 89.739 281.537,88.796 280.190,88.233 279.200 C 87.670 278.210,87.207 277.590,87.205 277.822 M306.811 283.820 C 306.047 284.359,305.597 284.799,305.811 284.798 C 306.025 284.797,306.740 284.353,307.400 283.812 C 308.941 282.549,308.605 282.553,306.811 283.820 M95.338 285.294 C 95.592 285.456,142.600 285.588,199.800 285.588 C 257.000 285.588,304.008 285.456,304.262 285.294 C 304.516 285.132,257.508 285.000,199.800 285.000 C 142.092 285.000,95.084 285.132,95.338 285.294 " stroke="none" fill="#6a7b8f" fill-rule="evenodd"></path><path id="path3" d="M191.800 93.360 C 188.410 94.193,185.738 96.127,184.560 98.600 C 184.241 99.269,184.212 99.467,184.494 99.046 C 186.639 95.850,188.976 94.284,192.573 93.631 C 197.377 92.759,208.478 93.303,209.896 94.480 C 210.184 94.719,210.520 94.813,210.644 94.689 C 212.151 93.182,196.899 92.106,191.800 93.360 M212.556 96.132 C 213.412 96.940,214.208 97.600,214.326 97.600 C 214.704 97.600,212.628 95.541,211.800 95.096 C 211.360 94.859,211.700 95.325,212.556 96.132 M215.089 99.500 C 215.445 100.325,215.863 101.720,216.018 102.600 C 216.279 104.084,216.303 104.108,216.350 102.933 C 216.396 101.770,215.085 98.000,214.635 98.000 C 214.528 98.000,214.732 98.675,215.089 99.500 M183.264 101.544 C 182.652 103.587,182.621 127.712,183.228 129.640 C 184.360 133.236,188.768 138.166,189.867 137.066 C 189.973 136.960,189.675 136.751,189.204 136.601 C 187.041 135.915,184.744 133.068,183.716 129.800 C 183.049 127.682,182.990 103.523,183.646 101.639 C 183.892 100.935,184.011 100.277,183.910 100.177 C 183.810 100.077,183.519 100.692,183.264 101.544 M96.400 127.153 C 95.630 127.289,112.092 127.400,132.982 127.400 L 170.964 127.400 171.242 128.400 L 171.520 129.400 171.560 128.343 C 171.584 127.720,171.340 127.186,170.967 127.043 C 170.138 126.725,98.223 126.831,96.400 127.153 M228.238 127.300 C 228.163 127.575,227.884 128.961,227.618 130.381 C 227.353 131.801,226.807 133.825,226.406 134.881 C 226.005 135.936,225.837 136.701,226.032 136.581 C 226.561 136.253,228.400 129.954,228.400 128.466 L 228.400 127.173 266.461 127.287 C 287.395 127.349,303.820 127.275,302.961 127.123 C 299.901 126.580,228.389 126.750,228.238 127.300 M216.064 128.267 C 215.915 131.224,214.102 134.077,211.112 136.061 C 210.171 136.685,209.580 137.196,209.800 137.196 C 212.112 137.195,216.626 130.992,216.288 128.281 L 216.128 127.000 216.064 128.267 M304.800 127.771 C 304.800 128.047,307.314 129.220,307.502 129.031 C 307.597 128.936,307.127 128.576,306.457 128.229 C 305.209 127.584,304.800 127.471,304.800 127.771 M91.315 129.422 C 90.608 129.979,89.646 131.012,89.177 131.717 L 88.324 133.000 89.462 131.692 C 90.088 130.972,91.140 129.944,91.800 129.406 C 92.460 128.869,92.910 128.424,92.800 128.419 C 92.690 128.413,92.022 128.865,91.315 129.422 M308.013 129.500 C 308.019 129.665,308.514 130.146,309.113 130.568 L 310.200 131.336 309.230 130.268 C 308.211 129.146,307.992 129.007,308.013 129.500 M171.654 130.806 C 171.572 132.333,173.979 138.493,174.876 139.047 C 175.084 139.176,174.792 138.368,174.227 137.252 C 173.136 135.100,172.174 132.451,171.885 130.800 L 171.709 129.800 171.654 130.806 M310.761 132.864 C 311.192 133.669,311.746 135.379,311.992 136.664 C 312.506 139.351,312.397 275.488,311.880 277.200 L 311.577 278.200 312.089 277.200 C 312.498 276.400,312.600 262.273,312.600 206.400 C 312.600 132.527,312.649 134.507,310.783 132.338 L 309.976 131.400 310.761 132.864 M87.554 134.487 C 87.089 135.589,87.000 147.129,87.000 206.200 L 87.000 276.600 87.845 278.406 C 88.310 279.399,89.023 280.479,89.430 280.806 C 90.082 281.330,90.073 281.259,89.354 280.200 C 87.288 277.156,87.400 281.423,87.400 205.800 C 87.400 147.929,87.495 135.234,87.932 134.466 C 88.225 133.952,88.384 133.451,88.286 133.353 C 88.188 133.255,87.858 133.765,87.554 134.487 M190.800 137.600 C 191.130 137.813,191.850 137.973,192.400 137.954 L 193.400 137.920 192.400 137.600 C 190.858 137.106,190.036 137.106,190.800 137.600 M207.200 137.600 L 206.200 137.920 207.200 137.954 C 207.750 137.973,208.470 137.813,208.800 137.600 C 209.564 137.106,208.742 137.106,207.200 137.600 M223.109 140.758 C 222.314 141.823,220.794 143.384,219.732 144.227 C 217.184 146.248,216.841 146.580,217.800 146.088 C 219.741 145.093,225.217 139.483,224.726 138.992 C 224.632 138.898,223.904 139.693,223.109 140.758 M176.208 141.000 C 177.456 142.716,177.693 142.969,179.212 144.200 C 179.756 144.640,179.224 143.920,178.030 142.600 C 175.084 139.341,174.856 139.141,176.208 141.000 M180.744 145.294 C 181.332 146.044,185.470 148.406,186.171 148.391 C 186.407 148.386,185.467 147.771,184.081 147.025 C 182.696 146.278,181.256 145.427,180.881 145.134 C 180.269 144.654,180.255 144.670,180.744 145.294 M214.800 147.400 C 213.810 147.930,213.215 148.372,213.477 148.382 C 213.968 148.401,216.800 146.848,216.800 146.560 C 216.800 146.331,216.783 146.338,214.800 147.400 M187.200 148.782 C 187.530 149.005,188.145 149.191,188.567 149.194 C 189.590 149.202,189.271 148.973,187.800 148.644 C 186.924 148.448,186.762 148.485,187.200 148.782 M211.000 148.800 L 210.200 149.144 211.000 149.166 C 211.440 149.178,212.070 149.013,212.400 148.800 C 213.195 148.286,212.196 148.286,211.000 148.800 M190.476 149.660 C 191.660 149.993,207.419 149.987,208.977 149.653 C 209.625 149.514,205.519 149.400,199.854 149.400 C 194.188 149.400,189.968 149.517,190.476 149.660 M153.507 166.290 C 154.226 166.379,155.306 166.377,155.907 166.286 C 156.508 166.195,155.920 166.122,154.600 166.124 C 153.280 166.126,152.788 166.201,153.507 166.290 M148.800 166.853 C 146.762 167.408,146.266 167.601,146.443 167.769 C 146.529 167.851,147.860 167.592,149.400 167.194 C 150.940 166.796,151.750 166.471,151.200 166.471 C 150.650 166.472,149.570 166.644,148.800 166.853 M158.000 166.800 C 158.550 166.976,159.450 167.120,160.000 167.120 L 161.000 167.120 160.000 166.800 C 159.450 166.624,158.550 166.480,158.000 166.480 L 157.000 166.480 158.000 166.800 M143.574 169.130 C 140.261 171.072,134.655 176.389,135.272 177.005 C 135.363 177.097,136.150 176.268,137.019 175.164 C 138.697 173.034,141.563 170.652,144.200 169.197 C 146.006 168.200,146.293 167.987,145.767 168.030 C 145.565 168.047,144.578 168.542,143.574 169.130 M165.595 169.500 C 168.826 171.380,172.854 175.437,174.272 178.238 C 174.868 179.415,175.422 180.311,175.503 180.230 C 176.878 178.855,166.101 168.000,163.360 168.000 C 163.172 168.000,164.178 168.675,165.595 169.500 M133.068 181.090 C 131.766 183.197,131.263 190.603,132.205 193.800 C 132.529 194.900,132.704 195.260,132.595 194.600 C 131.766 189.584,132.055 184.303,133.292 181.866 C 133.665 181.131,133.467 180.444,133.068 181.090 M175.612 181.200 C 175.612 181.530,175.787 182.070,176.000 182.400 C 176.345 182.933,176.388 182.933,176.388 182.400 C 176.388 182.070,176.213 181.530,176.000 181.200 C 175.655 180.667,175.612 180.667,175.612 181.200 M176.707 184.600 C 177.089 186.683,177.080 191.765,176.691 193.800 C 176.419 195.222,176.439 195.289,176.868 194.400 C 177.495 193.101,177.505 185.330,176.882 184.000 C 176.469 183.120,176.448 183.191,176.707 184.600 M222.269 183.464 C 221.638 184.095,221.974 194.704,222.633 194.957 C 223.596 195.327,289.326 195.235,289.912 194.863 C 290.296 194.619,290.396 193.156,290.312 188.969 L 290.200 183.400 256.369 183.298 C 237.762 183.242,222.417 183.317,222.269 183.464 M289.911 189.100 L 289.800 194.600 256.200 194.600 L 222.600 194.600 222.487 189.622 C 222.425 186.884,222.464 184.409,222.575 184.122 C 222.737 183.698,229.107 183.600,256.399 183.600 L 290.023 183.600 289.911 189.100 M175.800 196.400 C 175.650 196.873,175.617 197.350,175.727 197.460 C 175.837 197.570,176.050 197.273,176.200 196.800 C 176.350 196.327,176.383 195.850,176.273 195.740 C 176.163 195.630,175.950 195.927,175.800 196.400 M133.600 198.188 C 133.600 198.622,135.390 201.548,136.834 203.476 C 138.301 205.434,143.404 209.530,143.836 209.097 C 143.946 208.987,143.263 208.442,142.318 207.885 C 139.825 206.417,136.641 203.043,135.203 200.345 C 134.093 198.263,133.600 197.599,133.600 198.188 M173.489 201.282 C 172.581 202.830,170.342 205.241,167.600 207.623 C 166.584 208.506,169.189 206.717,170.536 205.607 C 171.553 204.769,174.942 200.009,174.697 199.764 C 174.587 199.654,174.044 200.337,173.489 201.282 M164.600 209.289 C 163.720 209.759,162.370 210.373,161.600 210.654 C 160.830 210.935,160.520 211.173,160.911 211.182 C 161.632 211.200,166.400 208.952,166.400 208.594 C 166.400 208.328,166.404 208.327,164.600 209.289 M144.400 209.382 C 144.400 209.751,147.556 211.201,148.284 211.166 C 148.766 211.142,148.672 211.032,147.997 210.826 C 147.446 210.659,146.411 210.219,145.697 209.850 C 144.984 209.481,144.400 209.270,144.400 209.382 M149.915 211.672 C 150.292 211.821,152.400 211.944,154.600 211.944 C 156.800 211.944,158.908 211.821,159.285 211.672 C 159.662 211.522,157.554 211.400,154.600 211.400 C 151.646 211.400,149.538 211.522,149.915 211.672 M147.200 217.594 C 146.650 217.766,147.820 217.813,149.800 217.698 C 151.780 217.583,153.475 217.424,153.567 217.345 C 153.893 217.062,148.183 217.285,147.200 217.594 M156.033 217.344 C 156.125 217.424,157.910 217.583,160.000 217.698 C 162.090 217.814,163.260 217.770,162.600 217.601 C 161.399 217.294,155.719 217.072,156.033 217.344 M222.089 223.100 L 222.200 229.000 256.200 229.000 L 290.200 229.000 290.312 223.432 C 290.373 220.369,290.283 217.723,290.112 217.551 C 289.940 217.379,289.800 219.795,289.800 222.919 L 289.800 228.600 256.200 228.600 L 222.600 228.600 222.600 222.900 C 222.600 219.764,222.460 217.199,222.289 217.200 C 222.118 217.200,222.028 219.855,222.089 223.100 M140.000 218.838 C 134.431 220.267,135.624 220.260,142.000 218.826 C 143.870 218.405,144.860 218.063,144.200 218.065 C 143.540 218.067,141.650 218.415,140.000 218.838 M165.200 218.280 C 166.366 218.480,173.427 220.225,174.600 220.603 C 175.267 220.817,175.293 220.791,174.756 220.442 C 173.851 219.853,166.408 217.997,165.200 218.058 L 164.200 218.109 165.200 218.280 M134.400 220.400 C 133.867 220.745,133.867 220.788,134.400 220.788 C 134.730 220.788,135.270 220.613,135.600 220.400 C 136.133 220.055,136.133 220.012,135.600 220.012 C 135.270 220.012,134.730 220.187,134.400 220.400 M130.800 221.586 C 129.810 221.977,128.480 222.505,127.845 222.759 C 127.209 223.014,126.787 223.320,126.906 223.439 C 127.025 223.558,127.853 223.283,128.745 222.828 C 129.638 222.373,130.600 221.992,130.884 221.982 C 131.636 221.956,133.911 220.864,133.200 220.871 C 132.870 220.874,131.790 221.196,130.800 221.586 M176.200 221.200 C 177.301 221.673,177.692 221.673,177.400 221.200 C 177.264 220.980,176.758 220.813,176.276 220.828 C 175.431 220.855,175.429 220.869,176.200 221.200 M180.167 222.617 C 181.469 223.157,182.598 223.535,182.676 223.457 C 182.863 223.271,178.828 221.595,178.247 221.617 C 178.001 221.626,178.865 222.076,180.167 222.617 M183.233 223.754 C 183.708 224.191,190.044 227.195,189.858 226.894 C 189.623 226.514,183.891 223.600,183.378 223.600 C 183.207 223.600,183.142 223.669,183.233 223.754 M121.860 225.646 C 120.573 226.310,119.596 226.929,119.688 227.022 C 119.781 227.114,121.014 226.566,122.428 225.804 C 125.582 224.104,125.105 223.972,121.860 225.646 M114.937 229.906 C 113.583 230.948,112.249 232.160,111.974 232.600 C 111.699 233.040,112.213 232.733,113.118 231.918 C 114.022 231.103,115.490 229.955,116.381 229.365 C 117.271 228.776,118.000 228.228,118.000 228.147 C 118.000 227.715,117.154 228.201,114.937 229.906 M191.600 228.146 C 191.600 228.256,192.140 228.730,192.800 229.200 C 193.460 229.670,194.000 229.964,194.000 229.854 C 194.000 229.744,193.460 229.270,192.800 228.800 C 192.140 228.330,191.600 228.036,191.600 228.146 M196.231 232.049 C 197.314 233.286,198.281 234.224,198.381 234.135 C 198.480 234.045,197.594 233.033,196.412 231.886 L 194.261 229.800 196.231 232.049 M110.449 234.652 C 109.783 236.114,110.074 236.195,110.889 234.774 C 111.260 234.128,111.420 233.600,111.246 233.600 C 111.071 233.600,110.713 234.073,110.449 234.652 M109.388 237.284 C 108.679 239.355,108.688 261.831,109.398 262.541 C 110.068 263.210,197.651 263.616,199.367 262.957 C 199.715 262.824,199.995 262.419,199.988 262.057 C 199.977 261.474,199.930 261.479,199.568 262.100 C 198.898 263.251,110.231 263.178,109.614 262.026 C 109.073 261.016,109.063 241.631,109.602 238.790 C 110.027 236.548,109.914 235.749,109.388 237.284 M199.473 238.000 C 199.604 238.990,199.776 239.875,199.856 239.967 C 200.157 240.314,199.928 237.764,199.590 237.000 C 199.353 236.466,199.314 236.798,199.473 238.000 M222.500 251.064 C 221.673 251.399,221.798 262.637,222.633 262.957 C 223.596 263.327,289.326 263.235,289.911 262.863 C 290.297 262.619,290.395 261.117,290.311 256.769 L 290.200 251.000 256.600 250.930 C 238.120 250.892,222.775 250.952,222.500 251.064 M289.800 257.000 L 289.800 262.600 256.200 262.600 L 222.600 262.600 222.487 257.421 C 222.426 254.573,222.465 252.007,222.576 251.719 C 222.739 251.292,228.975 251.214,256.288 251.298 L 289.800 251.400 289.800 257.000 M309.999 280.285 C 309.230 281.322,307.714 282.717,306.631 283.385 L 304.663 284.600 199.555 284.600 C 141.746 284.600,94.816 284.736,95.267 284.903 C 97.357 285.676,304.525 285.040,306.000 284.256 C 307.765 283.318,310.289 280.938,311.043 279.500 C 311.868 277.928,311.597 278.132,309.999 280.285 M90.328 282.114 C 90.563 282.396,91.530 283.033,92.477 283.528 C 93.425 284.024,93.861 284.198,93.446 283.915 C 93.032 283.632,92.196 282.995,91.589 282.500 C 90.386 281.519,89.647 281.293,90.328 282.114 " stroke="none" fill="#8f9cac" fill-rule="evenodd"></path><path id="path4" d="M216.578 115.800 C 216.578 122.620,216.632 125.466,216.699 122.125 C 216.766 118.784,216.766 113.204,216.699 109.725 C 216.633 106.246,216.578 108.980,216.578 115.800 M196.080 138.298 C 197.994 138.371,201.234 138.371,203.280 138.298 C 205.326 138.226,203.760 138.166,199.800 138.165 C 195.840 138.165,194.166 138.224,196.080 138.298 M195.921 149.499 C 198.188 149.570,201.788 149.570,203.921 149.498 C 206.055 149.426,204.200 149.368,199.800 149.368 C 195.400 149.368,193.655 149.427,195.921 149.499 M154.100 217.476 C 154.485 217.576,155.115 217.576,155.500 217.476 C 155.885 217.375,155.570 217.293,154.800 217.293 C 154.030 217.293,153.715 217.375,154.100 217.476 M222.662 217.500 C 222.494 217.772,246.453 217.769,277.800 217.493 C 284.400 217.435,274.736 217.346,256.324 217.294 C 237.912 217.242,222.764 217.335,222.662 217.500 M109.375 250.800 C 109.375 256.850,109.431 259.325,109.499 256.300 C 109.567 253.275,109.567 248.325,109.499 245.300 C 109.431 242.275,109.375 244.750,109.375 250.800 M199.775 250.800 C 199.775 256.850,199.831 259.325,199.899 256.300 C 199.967 253.275,199.967 248.325,199.899 245.300 C 199.831 242.275,199.775 244.750,199.775 250.800 " stroke="none" fill="#76849c" fill-rule="evenodd"></path></g></svg>