<svg id="svg" version="1.1" width="400" height="300" viewBox="0 0 400 300" xmlns="http://www.w3.org/2000/svg" xmlns:xlink="http://www.w3.org/1999/xlink" ><g id="svgg"><path id="path0" d="M58.097 90.196 C 57.997 90.457,57.997 90.997,58.097 91.397 L 58.280 92.124 200.408 92.048 L 342.536 91.973 342.629 90.848 L 342.722 89.722 200.500 89.722 C 71.178 89.722,58.262 89.765,58.097 90.196 M77.419 168.040 L 77.419 207.352 67.978 207.352 C 57.655 207.352,57.502 207.380,58.068 209.164 C 58.253 209.748,59.431 209.752,200.470 209.752 L 342.686 209.752 342.686 209.027 C 342.686 207.271,343.164 207.352,332.751 207.352 L 323.181 207.352 323.181 168.042 L 323.181 128.732 302.776 128.732 L 282.371 128.732 282.371 168.042 L 282.371 207.352 244.861 207.352 C 220.249 207.352,207.352 207.249,207.352 207.054 C 207.352 206.890,207.757 206.395,208.252 205.954 C 208.747 205.513,209.152 204.972,209.152 204.752 C 209.152 204.531,209.287 204.351,209.452 204.351 C 209.617 204.351,209.752 204.092,209.752 203.776 C 209.752 203.460,209.903 203.151,210.087 203.089 C 210.283 203.024,210.485 201.852,210.577 200.239 C 210.699 198.089,210.821 197.533,211.143 197.656 C 211.368 197.743,211.553 197.679,211.553 197.516 C 211.553 197.352,212.161 197.126,212.903 197.015 C 213.646 196.904,214.254 196.686,214.254 196.531 C 214.254 196.376,214.591 196.249,215.004 196.249 C 215.416 196.249,215.754 196.114,215.754 195.949 C 215.754 195.784,216.058 195.648,216.429 195.647 C 216.800 195.646,217.491 195.443,217.964 195.197 C 218.437 194.950,219.010 194.749,219.239 194.749 C 219.468 194.749,219.655 194.626,219.655 194.477 C 219.655 194.327,220.330 194.112,221.155 193.998 C 221.980 193.885,222.656 193.670,222.656 193.520 C 222.656 193.371,222.926 193.248,223.256 193.248 C 223.586 193.248,223.856 193.129,223.856 192.982 C 223.856 192.836,224.460 192.626,225.199 192.515 C 225.938 192.404,226.621 192.186,226.717 192.031 C 226.813 191.875,227.154 191.748,227.475 191.748 C 227.795 191.748,228.057 191.621,228.057 191.466 C 228.057 191.311,228.665 191.093,229.407 190.982 C 230.150 190.871,230.758 190.660,230.758 190.514 C 230.758 190.367,231.095 190.248,231.508 190.248 C 231.920 190.248,232.258 190.124,232.258 189.974 C 232.258 189.823,232.798 189.609,233.458 189.497 C 234.119 189.386,234.659 189.171,234.659 189.021 C 234.659 188.870,234.996 188.747,235.409 188.747 C 235.821 188.747,236.159 188.612,236.159 188.447 C 236.159 188.282,236.391 188.147,236.675 188.147 C 237.372 188.147,238.858 186.360,238.859 185.521 C 238.859 185.150,238.725 184.846,238.560 184.846 C 238.395 184.846,238.260 184.702,238.260 184.525 C 238.260 183.831,237.353 183.346,236.054 183.346 C 234.780 183.346,234.695 183.293,234.494 182.380 C 234.378 181.849,234.164 181.174,234.020 180.880 C 233.876 180.586,233.633 180.092,233.479 179.782 C 233.325 179.472,233.107 178.728,232.995 178.128 C 232.882 177.528,232.670 176.964,232.524 176.873 C 232.378 176.783,232.258 176.379,232.258 175.976 C 232.258 175.573,232.123 175.244,231.958 175.244 C 231.793 175.244,231.658 174.960,231.658 174.614 C 231.658 174.041,231.128 172.594,230.438 171.281 C 230.290 170.999,230.082 170.223,229.975 169.555 C 229.868 168.888,229.663 168.342,229.519 168.342 C 229.375 168.342,229.257 168.005,229.257 167.592 C 229.257 167.179,229.140 166.842,228.996 166.842 C 228.852 166.842,228.647 166.296,228.540 165.628 C 228.165 163.287,226.526 161.477,225.817 162.623 C 225.721 162.779,225.038 162.997,224.299 163.108 C 223.560 163.218,222.956 163.429,222.956 163.575 C 222.956 163.721,222.686 163.841,222.356 163.841 C 222.022 163.841,221.755 163.641,221.755 163.391 C 221.755 163.143,221.629 162.941,221.474 162.941 C 221.319 162.941,221.101 162.333,220.990 161.590 C 220.878 160.848,220.667 160.240,220.521 160.240 C 220.375 160.240,220.255 159.902,220.255 159.490 C 220.255 159.077,220.120 158.740,219.955 158.740 C 219.790 158.740,219.654 158.436,219.653 158.065 C 219.652 157.693,219.449 157.003,219.203 156.530 C 218.956 156.057,218.755 155.483,218.755 155.255 C 218.755 155.026,218.635 154.839,218.489 154.839 C 218.342 154.839,218.132 154.234,218.021 153.495 C 217.910 152.757,217.693 152.073,217.537 151.977 C 217.382 151.881,217.254 151.473,217.254 151.070 C 217.254 150.667,217.119 150.338,216.954 150.338 C 216.789 150.338,216.654 150.135,216.654 149.887 C 216.654 149.285,214.700 149.287,213.544 149.889 C 213.071 150.136,212.509 150.338,212.294 150.338 C 212.079 150.338,211.858 150.474,211.802 150.641 C 211.568 151.343,208.409 151.137,208.306 150.413 C 208.253 150.041,208.085 149.737,207.931 149.737 C 207.778 149.737,207.651 149.434,207.650 149.062 C 207.649 148.691,207.446 148.000,207.200 147.528 C 206.953 147.055,206.752 146.481,206.752 146.252 C 206.752 146.024,206.634 145.836,206.490 145.836 C 206.346 145.836,206.142 145.296,206.036 144.636 C 205.931 143.976,205.711 143.436,205.548 143.436 C 205.385 143.436,205.251 143.098,205.251 142.686 C 205.251 142.273,205.133 141.935,204.989 141.935 C 204.844 141.935,204.642 141.497,204.539 140.960 C 204.069 138.508,201.350 135.217,201.350 137.100 C 201.350 137.247,200.743 137.457,200.000 137.569 C 199.257 137.680,198.650 137.898,198.650 138.053 C 198.650 138.208,198.388 138.335,198.067 138.335 C 197.747 138.335,197.409 138.458,197.315 138.609 C 197.222 138.759,196.607 138.974,195.949 139.085 C 195.291 139.196,194.676 139.410,194.583 139.561 C 194.489 139.712,194.151 139.835,193.831 139.835 C 193.510 139.835,193.248 139.953,193.248 140.097 C 193.248 140.241,192.710 140.444,192.052 140.550 C 191.394 140.655,190.379 141.008,189.797 141.335 C 189.215 141.662,188.201 142.016,187.543 142.121 C 186.885 142.226,186.347 142.430,186.347 142.574 C 186.347 142.718,186.009 142.836,185.596 142.836 C 185.184 142.836,184.846 142.959,184.846 143.109 C 184.846 143.662,182.368 143.846,181.984 143.321 C 181.789 143.054,181.222 142.836,180.724 142.836 C 179.818 142.836,179.292 142.421,178.705 141.244 C 178.245 140.321,167.424 140.226,166.600 141.137 C 165.585 142.258,166.181 145.236,167.420 145.236 C 167.597 145.236,167.742 145.360,167.742 145.511 C 167.742 145.662,168.788 145.871,170.068 145.975 C 171.347 146.079,172.628 146.293,172.914 146.450 C 173.201 146.608,174.112 146.737,174.940 146.737 C 175.767 146.737,176.444 146.872,176.444 147.037 C 176.444 147.202,176.983 147.337,177.641 147.337 C 178.805 147.337,178.843 147.370,179.030 148.537 C 179.135 149.197,179.339 149.737,179.483 149.737 C 179.627 149.737,179.745 150.075,179.745 150.488 C 179.745 150.900,179.863 151.238,180.007 151.238 C 180.151 151.238,180.355 151.778,180.460 152.438 C 180.566 153.098,180.786 153.638,180.949 153.638 C 181.112 153.638,181.245 153.976,181.245 154.389 C 181.245 154.801,181.365 155.139,181.511 155.139 C 181.658 155.139,181.868 155.743,181.979 156.482 C 182.090 157.221,182.307 157.904,182.463 158.000 C 182.618 158.096,182.746 158.437,182.746 158.757 C 182.746 159.078,182.863 159.340,183.006 159.340 C 183.150 159.340,183.341 159.796,183.432 160.353 C 183.522 160.910,183.875 161.944,184.216 162.650 C 184.557 163.356,184.921 164.387,185.025 164.941 C 185.129 165.495,185.334 166.022,185.480 166.113 C 185.627 166.203,185.746 166.607,185.746 167.009 C 185.746 167.412,185.880 167.742,186.043 167.742 C 186.206 167.742,186.426 168.282,186.531 168.942 C 186.637 169.602,186.841 170.143,186.985 170.143 C 187.129 170.143,187.247 170.480,187.247 170.893 C 187.247 171.305,187.382 171.643,187.547 171.643 C 187.712 171.643,187.848 171.947,187.849 172.318 C 187.850 172.689,188.052 173.380,188.299 173.853 C 188.545 174.325,188.747 174.967,188.747 175.278 C 188.747 175.589,188.882 175.844,189.047 175.844 C 189.212 175.844,189.348 176.148,189.349 176.519 C 189.350 176.890,189.553 177.581,189.799 178.054 C 190.046 178.527,190.248 179.100,190.248 179.329 C 190.248 179.558,190.383 179.745,190.548 179.745 C 190.713 179.745,190.848 180.006,190.848 180.326 C 190.848 180.872,192.390 185.281,192.978 186.418 C 193.127 186.704,193.248 187.210,193.248 187.543 C 193.248 187.875,193.368 188.147,193.514 188.147 C 193.661 188.147,193.840 188.552,193.912 189.047 C 193.993 189.597,193.912 189.947,193.703 189.947 C 193.515 189.947,192.791 190.589,192.093 191.373 C 190.340 193.342,190.248 193.469,190.248 193.926 C 190.248 194.147,190.079 194.498,189.872 194.704 C 189.299 195.278,189.385 202.167,189.978 203.151 C 191.447 205.588,191.827 206.152,192.005 206.152 C 192.115 206.152,192.372 206.422,192.579 206.752 C 192.953 207.351,192.878 207.352,155.593 207.352 L 118.232 207.352 118.156 168.117 L 118.080 128.882 97.749 128.805 L 77.419 128.728 77.419 168.040 M115.829 169.242 L 115.829 207.352 97.824 207.352 L 79.820 207.352 79.820 169.242 L 79.820 131.133 97.824 131.133 L 115.829 131.133 115.829 169.242 M320.780 169.242 L 320.780 207.352 302.776 207.352 L 284.771 207.352 284.771 169.242 L 284.771 131.133 302.776 131.133 L 320.780 131.133 320.780 169.242 M201.650 140.607 C 201.650 140.847,201.770 141.278,201.915 141.564 C 202.333 142.385,202.757 143.459,203.335 145.161 C 203.629 146.028,203.961 146.737,204.072 146.737 C 204.183 146.737,204.361 147.277,204.466 147.937 C 204.572 148.597,204.792 149.137,204.955 149.137 C 205.118 149.137,205.251 149.475,205.251 149.887 C 205.251 150.300,205.420 150.640,205.626 150.642 C 206.311 150.651,205.138 151.228,204.426 151.233 C 204.055 151.236,203.751 151.373,203.751 151.538 C 203.751 151.703,203.413 151.838,203.001 151.838 C 202.588 151.838,202.251 151.961,202.251 152.112 C 202.251 152.262,201.710 152.477,201.050 152.588 C 200.390 152.700,199.850 152.914,199.850 153.065 C 199.850 153.215,199.512 153.338,199.100 153.338 C 198.687 153.338,198.350 153.456,198.350 153.600 C 198.350 153.744,197.804 153.949,197.136 154.056 C 195.971 154.242,195.683 154.344,194.260 155.071 C 193.909 155.251,193.132 155.490,192.532 155.602 C 191.932 155.715,191.367 155.927,191.277 156.073 C 191.186 156.219,190.850 156.339,190.530 156.339 C 190.210 156.339,189.947 156.474,189.947 156.639 C 189.947 156.804,189.812 156.939,189.647 156.939 C 189.482 156.939,189.347 156.677,189.347 156.357 C 189.347 156.036,189.212 155.691,189.047 155.589 C 188.882 155.487,188.747 155.141,188.747 154.821 C 188.747 154.501,188.627 154.239,188.481 154.239 C 188.335 154.239,188.125 153.634,188.014 152.895 C 187.903 152.156,187.685 151.473,187.530 151.377 C 187.374 151.281,187.247 150.940,187.247 150.620 C 187.247 150.300,187.120 150.038,186.965 150.038 C 186.810 150.038,186.592 149.430,186.481 148.687 C 186.370 147.944,186.159 147.337,186.012 147.337 C 185.707 147.337,185.660 146.412,185.929 145.711 C 186.029 145.450,186.366 145.236,186.679 145.236 C 186.991 145.236,187.247 145.114,187.247 144.964 C 187.247 144.815,187.922 144.600,188.747 144.486 C 189.572 144.373,190.248 144.157,190.248 144.008 C 190.248 143.858,190.518 143.736,190.848 143.736 C 191.178 143.736,191.448 143.609,191.448 143.454 C 191.448 143.299,192.056 143.081,192.798 142.970 C 193.541 142.859,194.149 142.648,194.149 142.502 C 194.149 142.355,194.486 142.236,194.899 142.236 C 195.311 142.236,195.649 142.109,195.649 141.954 C 195.649 141.799,196.257 141.581,196.999 141.470 C 197.742 141.358,198.350 141.147,198.350 141.001 C 198.350 140.855,198.593 140.735,198.890 140.735 C 199.187 140.735,199.558 140.613,199.715 140.464 C 200.426 139.788,201.650 139.879,201.650 140.607 M176.744 143.736 C 176.744 144.256,176.544 144.336,175.244 144.336 C 174.419 144.336,173.743 144.201,173.743 144.036 C 173.743 143.871,173.102 143.720,172.318 143.700 C 168.850 143.614,169.314 143.205,172.918 143.171 C 176.556 143.138,176.744 143.165,176.744 143.736 M215.050 153.045 C 215.150 153.543,215.349 154.024,215.493 154.112 C 215.636 154.201,215.754 154.604,215.754 155.006 C 215.754 155.409,215.872 155.739,216.016 155.739 C 216.160 155.739,216.364 156.279,216.469 156.939 C 216.575 157.599,216.795 158.140,216.958 158.140 C 217.121 158.140,217.254 158.477,217.254 158.890 C 217.254 159.302,217.372 159.640,217.516 159.640 C 217.660 159.640,217.868 160.207,217.979 160.900 C 218.090 161.594,218.330 162.340,218.512 162.560 C 218.897 163.023,218.067 163.815,217.179 163.831 C 216.890 163.837,216.654 163.961,216.654 164.107 C 216.654 164.253,216.047 164.464,215.304 164.575 C 214.561 164.687,213.953 164.905,213.953 165.060 C 213.953 165.215,213.616 165.341,213.203 165.341 C 212.791 165.341,212.453 165.468,212.453 165.623 C 212.453 165.778,211.845 165.996,211.103 166.107 C 210.360 166.219,209.752 166.429,209.752 166.576 C 209.752 166.722,209.415 166.842,209.002 166.842 C 208.590 166.842,208.252 166.965,208.252 167.115 C 208.252 167.266,207.712 167.480,207.052 167.592 C 206.392 167.703,205.851 167.918,205.851 168.068 C 205.851 168.219,205.514 168.342,205.101 168.342 C 204.689 168.342,204.351 168.462,204.351 168.608 C 204.351 168.754,203.743 168.965,203.001 169.077 C 202.258 169.188,201.650 169.406,201.650 169.561 C 201.650 169.716,201.388 169.842,201.068 169.842 C 200.748 169.842,200.409 169.966,200.316 170.116 C 200.223 170.267,199.608 170.481,198.950 170.593 C 198.291 170.704,197.676 170.918,197.583 171.069 C 197.490 171.220,197.152 171.343,196.832 171.343 C 196.511 171.343,196.249 171.486,196.249 171.662 C 196.249 172.861,194.284 171.719,194.023 170.368 C 193.872 169.584,193.635 168.942,193.498 168.942 C 193.361 168.942,193.248 168.605,193.248 168.192 C 193.248 167.779,193.131 167.442,192.987 167.442 C 192.843 167.442,192.638 166.896,192.531 166.228 C 192.424 165.561,192.220 164.785,192.077 164.503 C 190.643 161.673,190.590 160.240,191.918 160.240 C 192.320 160.240,192.648 160.118,192.648 159.968 C 192.648 159.819,193.323 159.603,194.149 159.490 C 194.974 159.376,195.649 159.161,195.649 159.012 C 195.649 158.862,195.986 158.740,196.399 158.740 C 196.812 158.740,197.149 158.613,197.149 158.458 C 197.149 158.303,197.757 158.085,198.500 157.974 C 199.242 157.862,199.850 157.652,199.850 157.505 C 199.850 157.359,200.188 157.239,200.600 157.239 C 201.013 157.239,201.350 157.120,201.350 156.973 C 201.350 156.827,201.955 156.617,202.694 156.506 C 203.433 156.395,204.116 156.177,204.212 156.022 C 204.308 155.866,204.649 155.739,204.969 155.739 C 205.289 155.739,205.551 155.612,205.551 155.457 C 205.551 155.302,206.159 155.084,206.902 154.973 C 207.644 154.862,208.252 154.651,208.252 154.505 C 208.252 154.358,208.590 154.239,209.002 154.239 C 209.415 154.239,209.752 154.116,209.752 153.967 C 209.752 153.817,210.428 153.602,211.253 153.488 C 212.078 153.375,212.753 153.160,212.753 153.010 C 212.753 152.861,213.091 152.738,213.503 152.738 C 213.916 152.738,214.254 152.603,214.254 152.438 C 214.254 151.735,214.884 152.215,215.050 153.045 M83.603 162.815 C 83.098 164.132,83.415 169.704,84.024 170.226 C 85.440 171.438,85.821 170.566,85.821 166.113 L 85.821 162.341 84.803 162.341 C 84.152 162.341,83.720 162.511,83.603 162.815 M314.554 162.789 C 313.767 163.683,314.060 169.331,314.932 170.089 C 316.470 171.426,316.879 170.602,316.879 166.169 L 316.879 162.341 315.904 162.352 C 315.368 162.358,314.760 162.555,314.554 162.789 M225.978 166.242 C 226.131 166.242,226.257 166.579,226.257 166.992 C 226.257 167.404,226.376 167.742,226.523 167.742 C 226.669 167.742,226.879 168.346,226.990 169.085 C 227.101 169.824,227.319 170.507,227.474 170.603 C 227.630 170.699,227.757 171.108,227.757 171.511 C 227.757 171.913,227.892 172.243,228.057 172.243 C 228.222 172.243,228.358 172.547,228.359 172.918 C 228.360 173.290,228.563 173.980,228.809 174.453 C 229.056 174.926,229.257 175.500,229.257 175.728 C 229.257 175.957,229.377 176.144,229.523 176.144 C 229.670 176.144,229.880 176.749,229.991 177.487 C 230.102 178.226,230.319 178.909,230.475 179.005 C 230.630 179.102,230.758 179.499,230.758 179.888 C 230.758 180.277,230.877 180.640,231.022 180.695 C 231.561 180.899,231.757 183.346,231.234 183.346 C 230.972 183.346,230.758 183.464,230.758 183.608 C 230.758 183.752,230.218 183.956,229.557 184.061 C 228.897 184.167,228.357 184.387,228.357 184.550 C 228.357 184.713,228.020 184.846,227.607 184.846 C 227.194 184.846,226.857 184.981,226.857 185.146 C 226.857 185.311,226.573 185.446,226.227 185.446 C 225.660 185.446,224.234 185.966,222.918 186.651 C 222.649 186.791,221.940 186.997,221.342 187.110 C 220.744 187.222,220.255 187.434,220.255 187.580 C 220.255 187.727,219.917 187.847,219.505 187.847 C 219.092 187.847,218.755 187.965,218.755 188.109 C 218.755 188.253,218.215 188.457,217.554 188.562 C 216.894 188.668,216.354 188.888,216.354 189.051 C 216.354 189.214,216.017 189.347,215.604 189.347 C 215.191 189.347,214.854 189.482,214.854 189.647 C 214.854 189.812,214.570 189.947,214.224 189.947 C 213.658 189.947,212.687 190.302,210.749 191.218 C 210.177 191.488,209.908 191.333,208.618 189.987 C 207.806 189.140,206.919 188.447,206.647 188.447 C 206.374 188.447,206.152 188.312,206.152 188.147 C 206.152 187.982,205.949 187.847,205.701 187.847 C 205.454 187.847,205.251 187.720,205.251 187.565 C 205.251 187.410,204.610 187.201,203.826 187.100 C 203.042 186.999,202.166 186.788,201.880 186.631 C 201.593 186.475,201.019 186.347,200.604 186.347 C 200.134 186.347,199.850 186.177,199.850 185.896 C 199.850 185.649,199.715 185.446,199.550 185.446 C 199.385 185.446,199.250 185.109,199.250 184.696 C 199.250 184.284,199.127 183.946,198.978 183.946 C 198.828 183.946,198.613 183.271,198.500 182.446 C 198.386 181.620,198.171 180.945,198.021 180.945 C 197.872 180.945,197.749 180.608,197.749 180.195 C 197.749 179.782,197.626 179.445,197.476 179.445 C 197.325 179.445,197.106 178.871,196.989 178.170 C 196.872 177.468,196.640 176.808,196.474 176.703 C 196.029 176.420,196.494 175.844,197.167 175.844 C 197.487 175.844,197.749 175.709,197.749 175.544 C 197.749 175.379,198.087 175.244,198.500 175.244 C 198.912 175.244,199.250 175.126,199.250 174.983 C 199.250 174.840,199.733 174.644,200.322 174.548 C 201.540 174.350,203.151 173.696,203.151 173.398 C 203.151 173.289,203.826 173.107,204.651 172.993 C 205.476 172.880,206.152 172.665,206.152 172.515 C 206.152 172.365,206.489 172.243,206.902 172.243 C 207.314 172.243,207.652 172.116,207.652 171.961 C 207.652 171.806,208.260 171.589,209.002 171.477 C 209.745 171.366,210.353 171.155,210.353 171.009 C 210.353 170.862,210.615 170.743,210.935 170.743 C 211.255 170.743,211.594 170.619,211.687 170.469 C 211.780 170.318,212.396 170.104,213.055 169.992 C 213.714 169.881,214.254 169.667,214.254 169.516 C 214.254 169.365,214.591 169.242,215.004 169.242 C 215.416 169.242,215.754 169.125,215.754 168.981 C 215.754 168.838,216.237 168.642,216.827 168.547 C 218.045 168.349,219.655 167.694,219.655 167.397 C 219.655 167.288,220.330 167.105,221.155 166.992 C 221.980 166.878,222.656 166.663,222.656 166.513 C 222.656 166.364,222.899 166.242,223.196 166.242 C 223.493 166.242,223.864 166.120,224.021 165.971 C 224.495 165.520,225.500 165.449,225.603 165.858 C 225.657 166.069,225.826 166.242,225.978 166.242 M200.979 190.531 C 201.266 190.687,202.007 190.896,202.626 190.995 C 203.245 191.094,203.751 191.304,203.751 191.461 C 203.751 191.619,203.892 191.748,204.064 191.748 C 204.760 191.748,206.938 194.020,207.370 195.196 C 207.553 195.693,207.826 196.334,207.977 196.620 C 208.324 197.277,208.337 200.286,207.996 200.979 C 207.855 201.266,207.509 201.984,207.226 202.576 C 206.569 203.948,204.746 205.851,204.089 205.851 C 203.930 205.851,203.753 205.994,203.695 206.168 C 203.357 207.183,197.040 206.932,195.887 205.858 C 195.533 205.528,195.004 205.182,194.711 205.089 C 194.419 204.997,194.096 204.657,193.994 204.336 C 193.892 204.014,193.682 203.751,193.528 203.751 C 193.374 203.751,193.248 203.548,193.248 203.301 C 193.248 203.053,193.119 202.851,192.962 202.851 C 192.804 202.851,192.586 202.377,192.478 201.797 C 192.369 201.218,192.160 200.670,192.014 200.579 C 191.666 200.364,191.667 196.849,192.015 196.849 C 192.161 196.849,192.370 196.377,192.478 195.799 C 192.587 195.221,192.804 194.749,192.962 194.749 C 193.119 194.749,193.248 194.608,193.248 194.436 C 193.248 194.131,193.622 193.604,194.363 192.863 C 195.104 192.122,195.632 191.748,195.936 191.748 C 196.108 191.748,196.249 191.619,196.249 191.461 C 196.249 191.304,196.755 191.094,197.374 190.995 C 197.993 190.896,198.702 190.696,198.950 190.549 C 199.553 190.193,200.344 190.186,200.979 190.531 M197.749 194.149 C 197.749 194.314,197.553 194.449,197.313 194.449 C 196.615 194.449,195.349 195.908,195.349 196.713 C 195.349 197.118,195.214 197.449,195.049 197.449 C 194.884 197.449,194.749 198.057,194.749 198.800 C 194.749 199.542,194.884 200.150,195.049 200.150 C 195.214 200.150,195.349 200.481,195.349 200.887 C 195.349 201.691,196.615 203.151,197.313 203.151 C 197.553 203.151,197.749 203.286,197.749 203.451 C 197.749 203.624,198.700 203.751,200.000 203.751 C 201.300 203.751,202.251 203.624,202.251 203.451 C 202.251 203.286,202.432 203.151,202.655 203.151 C 203.254 203.151,204.179 202.236,204.748 201.079 C 205.293 199.973,205.443 196.849,204.951 196.849 C 204.786 196.849,204.651 196.653,204.651 196.413 C 204.651 196.020,204.003 195.282,202.728 194.224 C 202.181 193.770,197.749 193.703,197.749 194.149 M201.967 197.216 C 203.141 198.501,203.059 199.244,201.575 200.800 C 200.503 201.924,197.749 201.132,197.749 199.700 C 197.749 199.452,197.614 199.250,197.449 199.250 C 197.284 199.250,197.149 199.047,197.149 198.800 C 197.149 198.552,197.284 198.350,197.449 198.350 C 197.614 198.350,197.749 198.147,197.749 197.899 C 197.749 196.140,200.568 195.684,201.967 197.216 " stroke="none" fill="#040404" fill-rule="evenodd"></path><path id="path1" d="" stroke="none" fill="#080404" fill-rule="evenodd"></path></g></svg>