<svg id="svg" version="1.1" width="400" height="300" viewBox="0 0 400 300" xmlns="http://www.w3.org/2000/svg" xmlns:xlink="http://www.w3.org/1999/xlink" ><g id="svgg"><path id="path0" d="M168.117 90.171 C 167.820 90.508,167.742 100.210,167.742 136.521 L 167.742 182.446 166.242 182.446 L 164.741 182.446 164.741 183.796 C 164.741 184.539,164.876 185.146,165.041 185.146 C 165.206 185.146,165.341 185.454,165.341 185.830 C 165.341 187.039,168.731 191.148,169.729 191.148 C 169.956 191.148,170.143 191.283,170.143 191.448 C 170.143 191.613,170.413 191.748,170.743 191.748 C 171.073 191.748,171.343 191.883,171.343 192.048 C 171.343 192.237,173.343 192.348,176.744 192.348 L 182.146 192.348 182.146 193.381 C 182.146 193.949,182.281 194.497,182.446 194.599 C 182.611 194.701,182.746 195.249,182.746 195.817 C 182.746 196.385,182.881 196.849,183.046 196.849 C 183.211 196.849,183.346 197.132,183.346 197.478 C 183.346 198.125,184.220 199.922,184.621 200.100 C 184.745 200.155,184.846 200.385,184.846 200.612 C 184.846 200.838,185.184 201.361,185.596 201.773 C 186.009 202.186,186.347 202.632,186.347 202.765 C 186.347 203.085,187.548 204.318,188.771 205.251 C 189.311 205.664,189.922 206.170,190.129 206.377 C 190.336 206.583,190.649 206.752,190.826 206.752 C 191.003 206.752,191.148 206.887,191.148 207.052 C 191.148 207.250,177.694 207.352,151.388 207.352 C 129.520 207.352,111.628 207.249,111.628 207.123 C 111.628 206.997,111.965 206.641,112.378 206.331 C 112.791 206.021,113.128 205.626,113.128 205.454 C 113.128 205.281,113.409 204.841,113.753 204.475 C 114.097 204.109,114.452 203.257,114.543 202.580 C 114.633 201.904,114.825 201.350,114.968 201.350 C 115.309 201.350,115.309 196.634,114.968 196.423 C 114.825 196.335,114.621 195.719,114.514 195.055 C 114.408 194.392,114.188 193.848,114.025 193.848 C 113.862 193.848,113.728 193.646,113.728 193.398 C 113.728 193.151,113.602 192.948,113.449 192.948 C 113.295 192.948,113.073 192.644,112.956 192.273 C 112.750 191.621,111.960 190.782,111.028 190.227 C 110.716 190.041,110.680 189.888,110.909 189.728 C 111.092 189.601,111.336 188.981,111.452 188.349 C 111.569 187.718,111.924 186.737,112.243 186.170 C 112.562 185.603,112.908 184.600,113.014 183.942 C 113.119 183.284,113.323 182.746,113.467 182.746 C 113.611 182.746,113.728 182.408,113.728 181.995 C 113.728 181.583,113.852 181.245,114.002 181.245 C 114.153 181.245,114.367 180.705,114.479 180.045 C 114.590 179.385,114.805 178.845,114.955 178.845 C 115.106 178.845,115.229 178.507,115.229 178.095 C 115.229 177.682,115.349 177.344,115.495 177.344 C 115.641 177.344,115.851 176.740,115.962 176.001 C 116.073 175.262,116.291 174.579,116.446 174.483 C 116.602 174.387,116.729 174.046,116.729 173.726 C 116.729 173.405,116.852 173.143,117.001 173.143 C 117.151 173.143,117.366 172.468,117.479 171.643 C 117.593 170.818,117.808 170.143,117.958 170.143 C 118.107 170.143,118.230 169.805,118.230 169.392 C 118.230 168.980,118.363 168.642,118.526 168.642 C 118.689 168.642,118.909 168.102,119.015 167.442 C 119.120 166.782,119.324 166.242,119.468 166.242 C 119.612 166.242,119.730 165.904,119.730 165.491 C 119.730 165.079,119.848 164.741,119.992 164.741 C 120.136 164.741,120.339 164.203,120.445 163.545 C 120.550 162.887,120.903 161.872,121.230 161.290 C 121.557 160.708,121.911 159.694,122.016 159.036 C 122.121 158.378,122.325 157.839,122.469 157.839 C 122.613 157.839,122.731 157.502,122.731 157.089 C 122.731 156.677,122.857 156.339,123.012 156.339 C 123.167 156.339,123.385 155.731,123.497 154.989 C 123.608 154.246,123.819 153.638,123.965 153.638 C 124.111 153.638,124.231 153.301,124.231 152.888 C 124.231 152.476,124.366 152.138,124.531 152.138 C 124.696 152.138,124.832 151.834,124.833 151.463 C 124.834 151.092,125.037 150.401,125.283 149.928 C 125.530 149.455,125.731 148.900,125.731 148.694 C 125.731 147.745,127.290 146.737,128.755 146.737 C 129.548 146.737,130.271 146.618,130.360 146.473 C 130.450 146.328,131.964 146.111,133.724 145.991 C 137.623 145.725,138.335 145.260,138.335 142.978 C 138.335 140.736,138.193 140.682,132.096 140.571 C 126.016 140.460,125.731 140.502,125.731 141.506 C 125.731 142.157,125.603 142.236,124.531 142.236 C 123.871 142.236,123.331 142.371,123.331 142.536 C 123.331 142.701,123.186 142.836,123.009 142.836 C 122.832 142.836,122.490 143.034,122.248 143.276 C 121.791 143.732,119.981 143.595,119.780 143.088 C 119.725 142.949,119.354 142.836,118.955 142.836 C 118.556 142.836,118.230 142.713,118.230 142.562 C 118.230 142.411,117.689 142.197,117.029 142.086 C 116.369 141.974,115.829 141.760,115.829 141.609 C 115.829 141.458,115.491 141.335,115.079 141.335 C 114.666 141.335,114.329 141.216,114.329 141.069 C 114.329 140.923,113.724 140.713,112.985 140.602 C 112.246 140.491,111.563 140.273,111.467 140.118 C 111.371 139.962,111.030 139.835,110.710 139.835 C 110.390 139.835,110.128 139.713,110.128 139.563 C 110.128 139.413,109.452 139.198,108.627 139.085 C 107.802 138.971,107.127 138.756,107.127 138.607 C 107.127 138.457,106.800 138.335,106.402 138.335 C 106.003 138.335,105.621 138.168,105.553 137.965 C 105.262 137.091,101.586 137.493,101.480 138.410 C 101.428 138.863,101.259 139.235,101.105 139.235 C 100.951 139.235,100.825 139.497,100.825 139.817 C 100.825 140.138,100.698 140.478,100.542 140.574 C 100.387 140.671,100.169 141.354,100.058 142.093 C 99.947 142.831,99.737 143.436,99.591 143.436 C 99.445 143.436,99.325 143.773,99.325 144.186 C 99.325 144.599,99.191 144.936,99.028 144.936 C 98.865 144.936,98.645 145.476,98.540 146.137 C 98.434 146.797,98.230 147.337,98.086 147.337 C 97.942 147.337,97.824 147.674,97.824 148.087 C 97.824 148.500,97.702 148.837,97.553 148.837 C 97.403 148.837,97.185 149.530,97.069 150.376 C 96.953 151.223,96.771 151.782,96.666 151.620 C 96.560 151.457,95.968 151.231,95.349 151.117 C 94.730 151.004,94.224 150.782,94.224 150.624 C 94.224 150.466,93.897 150.338,93.498 150.338 C 93.100 150.338,92.726 150.197,92.669 150.026 C 92.612 149.855,91.606 149.634,90.434 149.536 L 88.302 149.357 88.083 150.823 C 87.962 151.629,87.766 152.356,87.647 152.438 C 87.314 152.669,86.422 155.077,86.422 155.745 C 86.422 156.072,86.287 156.339,86.122 156.339 C 85.956 156.339,85.821 156.677,85.821 157.089 C 85.821 157.502,85.701 157.839,85.555 157.839 C 85.408 157.839,85.196 158.329,85.084 158.927 C 84.972 159.525,84.770 160.234,84.636 160.502 C 84.216 161.341,83.766 162.463,83.570 163.166 C 83.385 163.824,82.821 164.121,82.821 163.559 C 82.821 163.404,82.213 163.186,81.470 163.075 C 80.728 162.964,80.120 162.753,80.120 162.607 C 80.120 162.460,79.594 162.341,78.952 162.341 C 77.753 162.341,77.419 162.673,77.419 163.866 C 77.419 164.182,77.311 164.441,77.179 164.441 C 76.894 164.441,75.915 167.060,75.917 167.817 C 75.918 168.106,75.784 168.342,75.619 168.342 C 75.454 168.342,75.319 168.529,75.319 168.758 C 75.319 168.987,75.117 169.560,74.871 170.033 C 74.624 170.506,74.421 171.197,74.420 171.568 C 74.419 171.939,74.284 172.243,74.119 172.243 C 73.953 172.243,73.818 172.581,73.818 172.993 C 73.818 173.406,73.692 173.743,73.537 173.743 C 73.382 173.743,73.164 174.351,73.053 175.094 C 72.941 175.836,72.730 176.444,72.584 176.444 C 72.438 176.444,72.318 176.782,72.318 177.194 C 72.318 177.607,72.195 177.944,72.044 177.944 C 71.894 177.944,71.679 178.485,71.568 179.145 C 71.456 179.805,71.242 180.345,71.091 180.345 C 70.941 180.345,70.818 180.683,70.818 181.095 C 70.818 181.508,70.683 181.845,70.518 181.845 C 70.353 181.845,70.218 182.183,70.218 182.596 C 70.218 183.285,70.108 183.346,68.867 183.346 C 67.108 183.346,66.317 184.090,66.317 185.743 C 66.317 187.136,67.039 188.147,68.034 188.147 C 68.410 188.147,68.717 188.282,68.717 188.447 C 68.717 188.612,68.979 188.747,69.300 188.747 C 69.620 188.747,69.961 188.874,70.057 189.030 C 70.153 189.185,70.836 189.403,71.575 189.514 C 72.314 189.625,72.918 189.835,72.918 189.982 C 72.918 190.128,73.256 190.248,73.668 190.248 C 74.081 190.248,74.419 190.381,74.419 190.544 C 74.419 190.707,74.959 190.927,75.619 191.033 C 76.279 191.138,76.819 191.342,76.819 191.486 C 76.819 191.630,77.157 191.748,77.569 191.748 C 77.982 191.748,78.320 191.871,78.320 192.022 C 78.320 192.172,78.860 192.387,79.520 192.498 C 80.180 192.610,80.720 192.824,80.720 192.975 C 80.720 193.125,81.058 193.248,81.470 193.248 C 81.883 193.248,82.221 193.368,82.221 193.514 C 82.221 193.661,82.828 193.871,83.571 193.983 C 84.314 194.094,84.921 194.312,84.921 194.467 C 84.921 194.622,85.259 194.749,85.671 194.749 C 86.084 194.749,86.422 194.866,86.422 195.010 C 86.422 195.154,86.968 195.359,87.635 195.466 C 88.767 195.647,89.975 196.151,90.323 196.587 C 90.405 196.691,91.072 196.876,91.805 196.999 C 93.665 197.310,93.923 197.673,93.923 199.977 C 93.923 201.848,94.651 204.351,95.195 204.351 C 95.321 204.351,95.424 204.553,95.424 204.799 C 95.424 205.045,95.829 205.608,96.324 206.049 C 96.819 206.490,97.224 206.964,97.224 207.101 C 97.224 207.239,88.462 207.352,77.752 207.352 C 56.472 207.352,57.652 207.251,58.097 209.026 L 58.280 209.752 200.301 209.752 C 329.528 209.752,342.338 209.710,342.504 209.278 C 342.604 209.017,342.686 208.477,342.686 208.077 L 342.686 207.352 321.230 207.352 C 309.430 207.352,299.775 207.275,299.775 207.180 C 299.775 206.908,300.605 206.152,300.904 206.152 C 301.054 206.152,301.537 205.746,301.978 205.251 C 302.419 204.756,302.905 204.351,303.058 204.351 C 303.211 204.351,303.419 204.088,303.521 203.766 C 303.623 203.445,303.963 203.100,304.276 203.001 C 304.589 202.901,304.936 202.533,305.048 202.183 C 305.159 201.833,305.508 201.269,305.825 200.929 C 306.141 200.590,306.483 199.972,306.584 199.556 C 306.686 199.140,306.859 198.732,306.969 198.650 C 307.391 198.332,308.177 195.888,308.177 194.893 C 308.177 194.318,308.312 193.848,308.477 193.848 C 308.642 193.848,308.777 193.511,308.777 193.098 L 308.777 192.348 314.179 192.348 C 317.579 192.348,319.580 192.237,319.580 192.048 C 319.580 191.883,319.850 191.748,320.180 191.748 C 320.510 191.748,320.780 191.622,320.780 191.468 C 320.780 191.314,321.077 191.094,321.440 190.979 C 322.209 190.735,324.681 188.175,324.681 187.623 C 324.681 187.416,324.790 187.247,324.922 187.247 C 325.288 187.247,326.185 184.526,326.183 183.421 L 326.182 182.446 321.680 182.446 L 317.179 182.446 317.149 169.317 C 317.133 162.097,317.032 155.895,316.924 155.535 C 316.607 154.473,315.209 152.932,313.976 152.288 C 312.634 151.587,311.802 150.702,311.788 149.962 C 311.782 149.674,311.662 149.437,311.521 149.437 C 311.380 149.437,311.180 148.535,311.077 147.433 C 310.974 146.331,310.752 145.291,310.584 145.123 C 310.415 144.954,310.278 144.303,310.278 143.676 C 310.278 143.049,310.165 142.536,310.026 142.536 C 309.888 142.536,309.615 141.489,309.419 140.210 C 308.850 136.501,308.726 135.934,308.480 135.934 C 308.352 135.934,308.153 134.921,308.037 133.683 C 307.921 132.446,307.702 131.433,307.551 131.433 C 307.400 131.433,307.277 130.958,307.277 130.379 C 307.277 129.799,307.145 129.090,306.985 128.803 C 306.824 128.517,306.548 127.404,306.371 126.332 C 305.875 123.315,305.719 122.605,305.480 122.281 C 305.358 122.116,305.170 121.609,305.062 121.155 C 304.953 120.701,304.732 120.330,304.570 120.330 C 304.409 120.330,304.276 119.992,304.276 119.580 C 304.276 119.167,304.162 118.830,304.023 118.830 C 303.884 118.830,303.515 118.356,303.204 117.778 C 302.892 117.199,302.365 116.640,302.031 116.534 C 301.698 116.429,301.191 116.075,300.906 115.746 C 300.510 115.292,299.882 115.113,298.280 114.999 C 297.122 114.916,296.174 114.731,296.174 114.588 C 296.174 114.445,295.634 114.329,294.974 114.329 C 294.314 114.329,293.773 114.210,293.773 114.064 C 293.773 113.918,292.626 113.704,291.223 113.587 C 289.820 113.470,288.672 113.252,288.672 113.101 C 288.672 112.951,288.140 112.828,287.490 112.828 C 286.839 112.828,286.232 112.707,286.141 112.560 C 286.050 112.412,284.894 112.195,283.573 112.078 C 282.251 111.961,281.170 111.758,281.170 111.627 C 281.170 111.496,280.596 111.313,279.895 111.221 C 276.646 110.796,273.694 110.257,273.491 110.053 C 273.369 109.929,272.683 109.827,271.968 109.827 C 271.253 109.827,270.668 109.706,270.668 109.559 C 270.668 109.411,269.587 109.194,268.267 109.077 C 266.947 108.960,265.866 108.744,265.866 108.596 C 265.866 108.448,265.259 108.327,264.516 108.327 C 263.773 108.327,263.137 108.293,263.102 108.252 C 263.067 108.211,262.965 104.059,262.877 99.025 L 262.716 89.872 215.604 89.808 C 175.196 89.753,168.439 89.805,168.117 90.171 M260.165 137.284 L 260.165 182.446 239.160 182.446 C 220.475 182.446,218.155 182.395,218.155 181.985 C 218.155 181.240,216.165 178.429,214.553 176.894 C 213.133 175.543,212.008 174.729,211.178 174.450 C 210.889 174.353,210.653 174.165,210.653 174.032 C 210.653 173.900,210.248 173.702,209.752 173.593 C 209.257 173.485,208.852 173.271,208.852 173.119 C 208.852 172.968,208.526 172.843,208.127 172.843 C 207.728 172.843,207.346 172.674,207.277 172.468 C 207.183 172.186,205.746 172.093,201.455 172.093 C 195.282 172.093,196.047 171.944,191.823 173.970 C 191.287 174.228,190.848 174.552,190.848 174.691 C 190.848 174.830,190.641 174.944,190.388 174.944 C 189.737 174.944,185.193 179.602,184.968 180.500 C 184.865 180.910,184.670 181.245,184.534 181.245 C 184.398 181.245,184.201 181.515,184.096 181.845 C 183.913 182.423,183.642 182.446,177.024 182.446 L 170.143 182.446 170.143 137.284 L 170.143 92.123 215.154 92.123 L 260.165 92.123 260.165 137.284 M264.797 110.996 C 264.888 111.144,266.045 111.361,267.367 111.478 C 268.689 111.595,269.846 111.812,269.937 111.959 C 270.028 112.107,270.627 112.228,271.268 112.228 C 271.909 112.228,272.509 112.351,272.602 112.501 C 272.694 112.652,273.918 112.870,275.320 112.987 C 276.722 113.104,277.869 113.318,277.869 113.464 C 277.869 113.609,278.410 113.728,279.070 113.728 C 279.730 113.728,280.270 113.851,280.270 114.002 C 280.270 114.152,281.418 114.370,282.821 114.487 C 284.224 114.604,285.371 114.819,285.371 114.964 C 285.371 115.110,285.911 115.229,286.572 115.229 C 287.232 115.229,287.772 115.348,287.772 115.493 C 287.772 115.639,288.920 115.854,290.323 115.970 C 291.725 116.087,292.873 116.306,292.873 116.456 C 292.873 116.606,293.405 116.729,294.056 116.729 C 294.706 116.729,295.311 116.847,295.401 116.992 C 295.490 117.136,296.335 117.318,297.279 117.396 C 298.222 117.475,299.046 117.694,299.110 117.884 C 299.173 118.074,299.416 118.230,299.650 118.230 C 300.211 118.230,301.275 119.310,301.275 119.880 C 301.275 120.128,301.400 120.330,301.552 120.330 C 301.703 120.330,301.917 120.735,302.026 121.230 C 302.134 121.725,302.315 122.131,302.426 122.131 C 302.783 122.131,303.340 123.731,303.550 125.356 L 303.753 126.932 302.664 126.932 C 302.065 126.932,301.575 126.797,301.575 126.632 C 301.575 126.466,300.795 126.332,299.835 126.332 C 298.878 126.332,297.938 126.175,297.746 125.983 C 297.218 125.455,276.245 125.212,275.624 125.727 C 275.021 126.228,274.930 148.178,275.529 148.777 C 275.800 149.049,279.943 149.137,292.333 149.137 C 308.577 149.137,308.777 149.145,308.777 149.737 C 308.777 150.068,308.895 150.338,309.038 150.338 C 309.181 150.338,309.376 150.812,309.470 151.391 C 309.660 152.563,309.977 152.957,311.403 153.795 C 311.939 154.110,312.378 154.459,312.378 154.571 C 312.378 154.682,312.714 154.858,313.124 154.961 C 313.622 155.086,313.927 155.420,314.042 155.969 C 314.137 156.420,314.342 157.024,314.497 157.310 C 314.660 157.611,314.779 163.031,314.779 170.138 L 314.779 182.446 310.728 182.446 C 306.965 182.446,306.677 182.406,306.677 181.882 C 306.677 181.572,306.474 181.151,306.227 180.945 C 305.979 180.740,305.776 180.455,305.776 180.312 C 305.776 179.407,300.447 174.344,299.495 174.344 C 299.319 174.344,299.175 174.219,299.175 174.067 C 299.175 173.915,298.771 173.702,298.278 173.594 C 297.785 173.486,297.304 173.273,297.210 173.120 C 297.116 172.968,296.788 172.843,296.481 172.843 C 296.175 172.843,295.868 172.674,295.799 172.468 C 295.633 171.968,284.605 171.933,283.542 172.429 C 280.414 173.888,279.370 174.451,279.370 174.679 C 279.370 174.825,279.163 174.944,278.910 174.944 C 278.260 174.944,273.716 179.602,273.490 180.500 C 273.387 180.910,273.192 181.245,273.056 181.245 C 272.920 181.245,272.723 181.515,272.618 181.845 C 272.438 182.413,272.164 182.446,267.647 182.446 L 262.866 182.446 262.866 146.587 L 262.866 110.728 263.748 110.728 C 264.234 110.728,264.705 110.849,264.797 110.996 M297.209 128.467 C 297.366 128.613,298.202 128.732,299.067 128.732 C 299.932 128.732,300.723 128.867,300.825 129.032 C 300.927 129.197,301.458 129.332,302.006 129.332 C 304.606 129.332,304.775 129.474,304.994 131.837 C 305.103 133.018,305.324 134.029,305.485 134.084 C 305.645 134.139,305.776 134.704,305.776 135.341 C 305.776 135.978,305.904 136.577,306.059 136.673 C 306.214 136.769,306.435 137.793,306.549 138.948 C 306.662 140.103,306.873 141.121,307.016 141.210 C 307.160 141.298,307.277 141.757,307.277 142.228 C 307.277 142.700,307.392 143.131,307.532 143.186 C 307.672 143.241,307.865 144.062,307.960 145.011 L 308.134 146.737 293.002 146.737 L 277.869 146.737 277.869 137.441 L 277.869 128.146 283.346 128.047 C 290.257 127.922,296.838 128.121,297.209 128.467 M104.726 140.435 C 104.726 140.600,105.064 140.735,105.476 140.735 C 105.889 140.735,106.227 140.855,106.227 141.001 C 106.227 141.147,106.831 141.358,107.570 141.469 C 108.309 141.579,108.992 141.797,109.088 141.953 C 109.184 142.108,109.525 142.236,109.845 142.236 C 110.166 142.236,110.428 142.358,110.428 142.507 C 110.428 142.657,111.103 142.872,111.928 142.986 C 112.753 143.099,113.428 143.314,113.428 143.464 C 113.428 143.614,113.766 143.736,114.179 143.736 C 114.591 143.736,114.929 143.869,114.929 144.032 C 114.929 144.196,115.469 144.415,116.129 144.521 C 116.789 144.626,117.329 144.831,117.329 144.975 C 117.329 145.119,117.667 145.236,118.080 145.236 C 118.492 145.236,118.830 145.371,118.830 145.536 C 118.830 145.701,119.029 145.836,119.272 145.836 C 119.752 145.836,119.581 147.690,119.082 147.887 C 118.943 147.942,118.830 148.313,118.830 148.712 C 118.830 149.111,118.712 149.437,118.568 149.437 C 118.424 149.437,118.220 149.976,118.115 150.634 C 118.010 151.292,117.663 152.294,117.344 152.862 C 117.026 153.429,116.669 154.406,116.551 155.034 C 116.208 156.864,115.720 157.153,114.275 156.381 C 113.610 156.027,112.540 155.652,111.897 155.549 C 111.254 155.446,110.728 155.244,110.728 155.100 C 110.728 154.956,110.390 154.839,109.977 154.839 C 109.565 154.839,109.227 154.719,109.227 154.572 C 109.227 154.425,108.738 154.214,108.140 154.101 C 107.093 153.905,106.797 153.797,105.467 153.123 C 105.131 152.953,104.393 152.713,103.826 152.588 C 102.852 152.374,102.581 152.268,101.129 151.538 C 100.802 151.373,100.329 151.238,100.079 151.238 C 99.795 151.238,99.625 150.957,99.625 150.488 C 99.625 150.075,99.760 149.737,99.925 149.737 C 100.090 149.737,100.225 149.550,100.225 149.322 C 100.225 149.093,100.427 148.519,100.673 148.046 C 100.920 147.574,101.122 146.883,101.123 146.512 C 101.124 146.140,101.260 145.836,101.425 145.836 C 101.590 145.836,101.725 145.499,101.725 145.086 C 101.725 144.674,101.845 144.336,101.991 144.336 C 102.138 144.336,102.349 143.728,102.460 142.986 C 102.571 142.243,102.789 141.635,102.944 141.635 C 103.099 141.635,103.226 141.298,103.226 140.885 C 103.226 140.285,103.376 140.135,103.976 140.135 C 104.389 140.135,104.726 140.270,104.726 140.435 M132.896 143.180 L 135.784 143.225 132.880 143.555 C 131.283 143.737,129.877 143.987,129.754 144.111 C 129.133 144.741,127.914 144.341,128.064 143.557 C 128.195 142.871,128.321 142.799,129.110 142.956 C 129.604 143.055,131.307 143.156,132.896 143.180 M91.823 152.438 C 91.823 152.603,92.093 152.738,92.423 152.738 C 92.753 152.738,93.023 152.865,93.023 153.020 C 93.023 153.175,93.631 153.393,94.374 153.504 C 95.116 153.615,95.724 153.826,95.724 153.973 C 95.724 154.119,95.986 154.239,96.306 154.239 C 96.627 154.239,96.967 154.366,97.064 154.521 C 97.160 154.677,97.843 154.895,98.582 155.005 C 99.320 155.116,99.925 155.327,99.925 155.473 C 99.925 155.619,100.263 155.739,100.675 155.739 C 101.088 155.739,101.425 155.872,101.425 156.035 C 101.425 156.199,101.965 156.418,102.626 156.524 C 103.286 156.629,103.826 156.834,103.826 156.978 C 103.826 157.122,104.164 157.239,104.576 157.239 C 104.989 157.239,105.326 157.373,105.326 157.536 C 105.326 157.699,105.866 157.919,106.527 158.024 C 107.187 158.130,107.727 158.334,107.727 158.478 C 107.727 158.622,108.065 158.740,108.477 158.740 C 108.890 158.740,109.227 158.866,109.227 159.021 C 109.227 159.176,109.835 159.394,110.578 159.506 C 111.320 159.617,111.928 159.828,111.928 159.974 C 111.928 160.120,112.266 160.240,112.678 160.240 C 113.091 160.240,113.428 160.375,113.428 160.540 C 113.428 160.705,113.631 160.840,113.878 160.840 C 114.126 160.840,114.329 160.975,114.329 161.140 C 114.329 161.305,114.205 161.440,114.055 161.440 C 113.904 161.440,113.690 161.980,113.578 162.641 C 113.467 163.301,113.252 163.841,113.102 163.841 C 112.951 163.841,112.828 164.179,112.828 164.591 C 112.828 165.004,112.706 165.341,112.556 165.341 C 112.407 165.341,112.192 166.017,112.078 166.842 C 111.965 167.667,111.782 168.342,111.673 168.342 C 111.402 168.342,110.784 169.784,110.547 170.970 C 110.365 171.881,109.227 172.461,109.227 171.643 C 109.227 171.478,109.040 171.343,108.811 171.343 C 108.583 171.343,108.009 171.141,107.536 170.895 C 107.063 170.648,106.373 170.445,106.002 170.444 C 105.630 170.443,105.326 170.308,105.326 170.143 C 105.326 169.977,105.064 169.842,104.744 169.842 C 104.424 169.842,104.083 169.715,103.987 169.560 C 103.891 169.404,103.207 169.186,102.469 169.076 C 101.730 168.965,101.125 168.754,101.125 168.608 C 101.125 168.462,100.938 168.342,100.709 168.342 C 100.481 168.342,99.907 168.140,99.434 167.894 C 98.961 167.647,98.271 167.445,97.899 167.444 C 97.528 167.443,97.224 167.307,97.224 167.142 C 97.224 166.977,96.887 166.842,96.474 166.842 C 96.062 166.842,95.724 166.708,95.724 166.545 C 95.724 166.382,95.184 166.162,94.524 166.057 C 93.863 165.951,93.323 165.747,93.323 165.603 C 93.323 165.459,92.986 165.341,92.573 165.341 C 92.161 165.341,91.823 165.215,91.823 165.060 C 91.823 164.905,91.215 164.687,90.473 164.575 C 89.730 164.464,89.122 164.253,89.122 164.107 C 89.122 163.961,88.785 163.841,88.372 163.841 C 87.959 163.841,87.622 163.721,87.622 163.573 C 87.622 163.426,87.258 163.214,86.812 163.103 C 86.367 162.991,86.140 162.808,86.308 162.695 C 86.709 162.426,87.622 160.091,87.622 159.334 C 87.622 159.007,87.757 158.740,87.922 158.740 C 88.087 158.740,88.222 158.402,88.222 157.989 C 88.222 157.577,88.357 157.239,88.522 157.239 C 88.687 157.239,88.822 156.956,88.822 156.609 C 88.822 156.263,89.011 155.554,89.242 155.034 C 89.473 154.514,89.844 153.650,90.066 153.113 C 90.451 152.181,91.823 151.654,91.823 152.438 M81.870 165.977 C 81.925 166.122,82.297 166.242,82.696 166.242 C 83.095 166.242,83.421 166.359,83.421 166.503 C 83.421 166.647,83.961 166.851,84.621 166.957 C 85.281 167.063,85.821 167.282,85.821 167.445 C 85.821 167.608,86.159 167.742,86.572 167.742 C 86.984 167.742,87.322 167.864,87.322 168.014 C 87.322 168.163,87.997 168.379,88.822 168.492 C 89.647 168.606,90.323 168.788,90.323 168.897 C 90.323 169.195,91.933 169.849,93.151 170.047 C 93.741 170.143,94.224 170.338,94.224 170.482 C 94.224 170.625,94.486 170.743,94.806 170.743 C 95.126 170.743,95.467 170.870,95.563 171.025 C 95.659 171.181,96.342 171.399,97.081 171.510 C 97.820 171.620,98.425 171.831,98.425 171.977 C 98.425 172.123,98.762 172.243,99.175 172.243 C 99.587 172.243,99.925 172.366,99.925 172.517 C 99.925 172.667,100.465 172.882,101.125 172.993 C 101.785 173.105,102.326 173.319,102.326 173.470 C 102.326 173.620,102.663 173.743,103.076 173.743 C 103.488 173.743,103.826 173.863,103.826 174.009 C 103.826 174.156,104.434 174.367,105.176 174.478 C 105.919 174.589,106.527 174.807,106.527 174.962 C 106.527 175.117,106.702 175.244,106.917 175.244 C 107.606 175.244,108.922 175.982,108.925 176.369 C 108.926 176.575,108.792 176.744,108.627 176.744 C 108.462 176.744,108.327 177.006,108.327 177.327 C 108.327 177.647,108.200 177.988,108.044 178.084 C 107.889 178.180,107.671 178.863,107.560 179.602 C 107.449 180.341,107.272 180.945,107.166 180.945 C 106.953 180.945,106.391 182.185,106.078 183.346 C 105.967 183.758,105.584 184.720,105.228 185.484 L 104.580 186.871 102.037 187.030 C 100.596 187.120,99.447 187.331,99.385 187.518 C 99.324 187.699,99.084 187.847,98.850 187.847 C 98.616 187.847,98.425 187.982,98.425 188.147 C 98.425 188.312,98.228 188.447,97.987 188.447 C 97.746 188.447,96.998 188.987,96.324 189.647 C 95.199 190.750,93.623 191.297,93.623 190.586 C 93.623 190.442,93.085 190.238,92.427 190.133 C 91.769 190.028,90.755 189.674,90.173 189.347 C 89.591 189.020,88.576 188.667,87.918 188.562 C 87.260 188.456,86.722 188.253,86.722 188.109 C 86.722 187.965,86.452 187.847,86.122 187.847 C 85.791 187.847,85.521 187.720,85.521 187.565 C 85.521 187.410,84.914 187.192,84.171 187.081 C 83.428 186.970,82.821 186.759,82.821 186.613 C 82.821 186.466,82.559 186.347,82.238 186.347 C 81.918 186.347,81.577 186.219,81.481 186.064 C 81.385 185.908,80.702 185.690,79.963 185.580 C 79.224 185.469,78.620 185.259,78.620 185.112 C 78.620 184.966,78.282 184.846,77.869 184.846 C 77.457 184.846,77.119 184.713,77.119 184.550 C 77.119 184.387,76.579 184.167,75.919 184.061 C 75.259 183.956,74.719 183.752,74.719 183.608 C 74.719 183.464,74.381 183.346,73.968 183.346 C 73.074 183.346,72.952 182.424,73.667 181.055 C 73.913 180.582,74.116 179.891,74.117 179.520 C 74.118 179.149,74.254 178.845,74.419 178.845 C 74.584 178.845,74.719 178.507,74.719 178.095 C 74.719 177.682,74.845 177.344,75.000 177.344 C 75.155 177.344,75.373 176.737,75.485 175.994 C 75.596 175.251,75.807 174.644,75.953 174.644 C 76.099 174.644,76.219 174.306,76.219 173.893 C 76.219 173.481,76.342 173.143,76.493 173.143 C 76.643 173.143,76.858 172.603,76.969 171.943 C 77.081 171.283,77.295 170.743,77.446 170.743 C 77.596 170.743,77.719 170.405,77.719 169.992 C 77.719 169.580,77.837 169.242,77.981 169.242 C 78.125 169.242,78.329 168.702,78.435 168.042 C 78.540 167.382,78.760 166.842,78.923 166.842 C 79.086 166.842,79.220 166.492,79.220 166.065 C 79.220 165.279,81.577 165.200,81.870 165.977 M206.205 174.877 C 206.407 175.079,206.815 175.244,207.112 175.244 C 207.409 175.244,207.652 175.379,207.652 175.544 C 207.652 175.709,207.912 175.844,208.231 175.844 C 208.549 175.844,209.012 176.047,209.259 176.294 C 209.507 176.542,209.854 176.744,210.031 176.744 C 210.208 176.744,210.353 176.877,210.353 177.039 C 210.353 177.200,210.685 177.416,211.092 177.518 C 211.499 177.621,211.911 177.954,212.008 178.259 C 212.104 178.564,212.440 178.895,212.753 178.995 C 213.066 179.094,213.406 179.439,213.508 179.760 C 213.610 180.082,213.820 180.345,213.974 180.345 C 214.128 180.345,214.254 180.548,214.254 180.795 C 214.254 181.043,214.358 181.245,214.485 181.245 C 214.613 181.245,214.983 181.752,215.308 182.371 C 215.633 182.989,215.967 183.563,216.051 183.646 C 216.333 183.922,217.254 186.870,217.254 187.494 C 217.254 187.834,217.389 188.195,217.554 188.297 C 217.719 188.399,217.854 189.487,217.854 190.715 C 217.854 192.004,217.728 192.948,217.554 192.948 C 217.389 192.948,217.254 193.413,217.254 193.981 C 217.254 194.549,217.131 195.090,216.980 195.183 C 216.830 195.276,216.615 195.891,216.504 196.551 C 216.392 197.210,216.178 197.749,216.028 197.749 C 215.877 197.749,215.754 198.005,215.754 198.317 C 215.754 198.630,215.551 198.963,215.304 199.058 C 215.056 199.153,214.854 199.424,214.854 199.661 C 214.854 200.260,210.699 204.351,210.090 204.351 C 209.932 204.351,209.757 204.452,209.702 204.576 C 209.557 204.902,207.678 205.851,207.177 205.851 C 206.943 205.851,206.752 205.980,206.752 206.137 C 206.752 206.293,205.938 206.514,204.945 206.626 C 203.951 206.739,203.065 206.948,202.976 207.091 C 202.767 207.429,199.250 207.433,199.250 207.095 C 199.250 206.953,198.406 206.749,197.374 206.641 C 196.343 206.534,195.454 206.312,195.399 206.149 C 195.344 205.985,195.040 205.851,194.724 205.851 C 194.407 205.851,194.149 205.731,194.149 205.584 C 194.149 205.437,193.845 205.238,193.473 205.142 C 193.102 205.045,192.406 204.626,191.926 204.209 C 191.447 203.792,190.930 203.451,190.778 203.451 C 190.388 203.451,188.185 201.041,187.978 200.389 C 187.884 200.093,187.681 199.850,187.527 199.850 C 187.373 199.850,187.247 199.647,187.247 199.400 C 187.247 199.152,187.112 198.950,186.947 198.950 C 186.782 198.950,186.647 198.801,186.647 198.620 C 186.647 198.125,185.673 196.130,185.312 195.885 C 184.829 195.558,184.886 185.984,185.371 185.822 C 185.578 185.753,185.746 185.505,185.746 185.271 C 185.746 185.038,185.864 184.846,186.008 184.846 C 186.152 184.846,186.356 184.306,186.462 183.645 C 186.682 182.269,186.962 181.879,189.672 179.169 C 192.250 176.591,192.701 176.246,193.816 176.001 C 194.329 175.888,194.749 175.672,194.749 175.520 C 194.749 175.368,195.019 175.244,195.349 175.244 C 195.679 175.244,195.949 175.117,195.949 174.963 C 195.949 174.293,205.541 174.213,206.205 174.877 M294.602 174.879 C 294.669 175.080,295.050 175.244,295.449 175.244 C 295.848 175.244,296.174 175.379,296.174 175.544 C 296.174 175.709,296.434 175.844,296.753 175.844 C 297.071 175.844,297.534 176.047,297.782 176.294 C 298.029 176.542,298.376 176.744,298.553 176.744 C 298.730 176.744,298.875 176.877,298.875 177.039 C 298.875 177.200,299.207 177.416,299.614 177.518 C 300.021 177.621,300.433 177.954,300.530 178.259 C 300.627 178.564,300.962 178.895,301.275 178.995 C 301.589 179.094,301.928 179.439,302.030 179.760 C 302.132 180.082,302.342 180.345,302.496 180.345 C 302.650 180.345,302.776 180.548,302.776 180.795 C 302.776 181.043,302.908 181.245,303.070 181.245 C 303.232 181.245,303.449 181.583,303.553 181.995 C 303.656 182.408,303.861 182.746,304.009 182.746 C 304.156 182.746,304.276 183.155,304.276 183.655 C 304.276 184.187,304.463 184.637,304.726 184.738 C 304.974 184.833,305.176 185.158,305.176 185.461 C 305.176 185.763,305.296 186.085,305.443 186.176 C 306.039 186.544,306.660 192.948,306.100 192.948 C 305.922 192.948,305.776 193.413,305.776 193.981 C 305.776 194.549,305.653 195.090,305.502 195.183 C 305.352 195.276,305.137 195.891,305.026 196.551 C 304.915 197.210,304.700 197.749,304.550 197.749 C 304.399 197.749,304.276 197.935,304.276 198.163 C 304.276 198.390,304.074 198.744,303.826 198.950 C 303.578 199.155,303.376 199.568,303.376 199.866 C 303.376 200.165,303.106 200.495,302.776 200.600 C 302.446 200.705,302.176 200.901,302.176 201.035 C 302.176 201.170,301.637 201.802,300.978 202.440 C 299.324 204.044,298.944 204.351,298.612 204.351 C 298.454 204.351,298.280 204.452,298.225 204.576 C 298.080 204.902,296.200 205.851,295.700 205.851 C 295.465 205.851,295.274 205.980,295.274 206.137 C 295.274 206.293,294.461 206.514,293.467 206.626 C 292.473 206.739,291.587 206.948,291.498 207.091 C 291.289 207.429,287.772 207.433,287.772 207.095 C 287.772 206.953,286.928 206.749,285.896 206.641 C 284.865 206.534,283.976 206.312,283.921 206.149 C 283.866 205.985,283.562 205.851,283.246 205.851 C 282.929 205.851,282.671 205.731,282.671 205.584 C 282.671 205.437,282.367 205.238,281.995 205.142 C 281.624 205.045,280.928 204.626,280.448 204.209 C 279.969 203.792,279.452 203.451,279.300 203.451 C 278.910 203.451,276.707 201.041,276.500 200.389 C 276.406 200.093,276.203 199.850,276.049 199.850 C 275.895 199.850,275.769 199.647,275.769 199.400 C 275.769 199.152,275.668 198.949,275.544 198.949 C 275.420 198.948,275.059 198.307,274.741 197.523 C 274.423 196.740,274.043 196.018,273.897 195.920 C 273.025 195.332,273.318 186.236,274.241 185.245 C 274.537 184.927,274.874 184.160,274.991 183.541 C 275.236 182.230,275.542 181.810,278.178 179.162 C 280.705 176.625,281.312 176.161,282.387 175.946 C 282.873 175.849,283.271 175.667,283.271 175.541 C 283.271 175.305,283.985 175.012,285.521 174.620 C 287.004 174.241,294.460 174.454,294.602 174.879 M197.831 182.688 C 197.463 182.802,196.917 183.107,196.618 183.365 C 196.318 183.623,195.855 183.918,195.589 184.020 C 194.993 184.249,193.248 186.737,193.248 187.358 C 193.248 187.608,193.113 187.895,192.948 187.997 C 192.206 188.455,192.822 194.749,193.609 194.749 C 193.741 194.749,193.848 194.952,193.848 195.199 C 193.848 195.738,195.909 197.749,196.462 197.749 C 196.675 197.749,196.849 197.883,196.849 198.046 C 196.849 198.209,197.389 198.429,198.050 198.534 C 198.710 198.640,199.250 198.844,199.250 198.988 C 199.250 199.132,200.128 199.250,201.200 199.250 C 202.273 199.250,203.151 199.132,203.151 198.988 C 203.151 198.844,203.716 198.636,204.407 198.526 C 205.140 198.408,205.834 198.080,206.074 197.737 C 206.300 197.414,206.677 197.149,206.911 197.149 C 207.145 197.149,207.546 196.744,207.802 196.249 C 208.058 195.754,208.391 195.349,208.541 195.349 C 208.692 195.349,208.907 194.741,209.018 193.998 C 209.129 193.256,209.340 192.648,209.486 192.648 C 209.633 192.648,209.752 191.703,209.752 190.548 C 209.752 189.347,209.624 188.447,209.452 188.447 C 209.287 188.447,209.152 188.168,209.152 187.827 C 209.152 187.108,208.678 186.115,207.986 185.386 C 207.720 185.105,207.340 184.700,207.141 184.486 C 206.510 183.804,205.886 183.346,205.589 183.346 C 205.431 183.346,205.245 183.177,205.177 182.971 C 205.038 182.552,199.014 182.320,197.831 182.688 M286.281 182.651 C 285.874 182.735,285.332 183.028,285.077 183.300 C 284.822 183.573,284.345 183.944,284.017 184.125 C 283.255 184.546,281.793 186.635,281.780 187.322 C 281.775 187.611,281.635 187.847,281.470 187.847 C 281.044 187.847,281.092 192.539,281.531 193.752 C 281.729 194.300,281.999 194.749,282.131 194.749 C 282.263 194.749,282.371 194.940,282.371 195.173 C 282.371 195.748,284.348 197.749,284.916 197.749 C 285.166 197.749,285.371 197.883,285.371 198.046 C 285.371 198.209,285.911 198.429,286.572 198.534 C 287.232 198.640,287.772 198.844,287.772 198.988 C 287.772 199.132,288.650 199.250,289.722 199.250 C 290.795 199.250,291.673 199.132,291.673 198.989 C 291.673 198.846,292.151 198.651,292.735 198.556 C 293.319 198.461,294.191 198.051,294.674 197.645 C 295.157 197.239,295.658 196.860,295.788 196.803 C 296.321 196.569,297.429 194.645,297.585 193.681 C 297.677 193.113,297.870 192.648,298.014 192.648 C 298.157 192.648,298.275 191.703,298.275 190.548 C 298.275 189.347,298.146 188.447,297.974 188.447 C 297.809 188.447,297.674 188.168,297.674 187.827 C 297.674 187.108,297.200 186.115,296.508 185.386 C 296.242 185.105,295.862 184.700,295.663 184.486 C 295.032 183.804,294.408 183.346,294.111 183.346 C 293.953 183.346,293.768 183.180,293.701 182.977 C 293.573 182.594,287.780 182.339,286.281 182.651 M182.606 185.821 C 182.492 186.358,182.329 187.506,182.244 188.372 L 182.090 189.947 177.167 189.947 C 174.084 189.947,172.243 189.835,172.243 189.647 C 172.243 189.482,172.102 189.347,171.930 189.347 C 171.288 189.347,168.342 186.514,168.342 185.896 C 168.342 185.649,168.207 185.446,168.042 185.446 C 167.877 185.446,167.742 185.311,167.742 185.146 C 167.742 184.954,170.454 184.846,175.278 184.846 L 182.814 184.846 182.606 185.821 M204.820 185.960 C 205.979 187.121,206.752 188.292,206.752 188.887 C 206.752 189.140,206.887 189.347,207.052 189.347 C 207.430 189.347,207.446 191.280,207.074 191.977 C 206.921 192.264,206.719 192.701,206.625 192.948 C 206.265 193.903,205.166 195.349,204.801 195.349 C 204.695 195.349,204.406 195.551,204.158 195.799 C 203.911 196.047,203.380 196.249,202.979 196.249 C 202.579 196.249,202.251 196.384,202.251 196.549 C 202.251 196.714,201.778 196.849,201.200 196.849 C 200.623 196.849,200.150 196.732,200.150 196.588 C 200.150 196.445,199.682 196.252,199.110 196.159 C 198.137 196.001,196.249 194.486,196.249 193.863 C 196.249 193.718,196.080 193.542,195.874 193.473 C 195.612 193.386,195.499 192.552,195.499 190.698 C 195.499 188.845,195.612 188.010,195.874 187.922 C 196.080 187.853,196.249 187.648,196.249 187.466 C 196.249 186.991,197.481 185.746,197.952 185.746 C 198.171 185.746,198.350 185.621,198.350 185.468 C 198.350 184.380,203.644 184.782,204.820 185.960 M271.268 185.579 C 271.268 185.982,271.133 186.395,270.968 186.497 C 270.803 186.599,270.668 187.417,270.668 188.315 L 270.668 189.947 245.461 189.947 L 220.255 189.947 220.255 188.807 C 220.255 188.180,220.138 187.539,219.994 187.382 C 219.851 187.225,219.656 186.590,219.563 185.971 L 219.393 184.846 245.330 184.846 L 271.268 184.846 271.268 185.579 M293.342 185.960 C 294.501 187.121,295.274 188.292,295.274 188.887 C 295.274 189.140,295.409 189.347,295.574 189.347 C 295.739 189.347,295.874 189.887,295.874 190.548 C 295.874 191.208,295.739 191.748,295.574 191.748 C 295.409 191.748,295.274 192.086,295.274 192.498 C 295.274 192.911,295.148 193.248,294.994 193.248 C 294.840 193.248,294.620 193.546,294.504 193.909 C 294.289 194.589,293.665 195.349,293.323 195.349 C 293.217 195.349,292.928 195.551,292.680 195.799 C 292.433 196.047,291.902 196.249,291.501 196.249 C 291.101 196.249,290.773 196.384,290.773 196.549 C 290.773 196.714,290.300 196.849,289.722 196.849 C 289.145 196.849,288.672 196.732,288.672 196.588 C 288.672 196.445,288.196 196.250,287.615 196.156 C 286.090 195.909,284.256 193.868,283.995 192.129 C 283.747 190.479,284.004 188.053,284.442 187.907 C 284.623 187.846,284.776 187.639,284.781 187.447 C 284.851 185.007,291.276 183.891,293.342 185.960 M322.673 185.804 C 321.944 187.092,320.382 188.608,319.280 189.095 C 318.785 189.314,318.380 189.596,318.380 189.721 C 318.380 189.845,316.219 189.947,313.578 189.947 L 308.777 189.947 308.777 188.772 C 308.777 188.126,308.662 187.552,308.522 187.497 C 308.382 187.442,308.192 186.823,308.101 186.122 L 307.934 184.846 315.574 184.846 L 323.215 184.846 322.673 185.804 M107.682 191.361 C 108.284 191.644,108.956 192.049,109.174 192.262 C 109.392 192.474,109.754 192.648,109.979 192.648 C 110.203 192.648,110.483 192.952,110.600 193.323 C 110.718 193.695,111.071 194.223,111.385 194.496 C 111.700 194.770,112.036 195.479,112.132 196.072 C 112.228 196.664,112.424 197.149,112.567 197.149 C 112.711 197.149,112.828 197.892,112.828 198.800 C 112.828 199.707,112.710 200.450,112.566 200.450 C 112.423 200.450,112.218 200.990,112.113 201.650 C 112.007 202.311,111.787 202.851,111.624 202.851 C 111.461 202.851,111.328 202.991,111.328 203.163 C 111.328 203.481,110.892 204.085,110.192 204.741 C 109.195 205.673,108.948 205.851,108.649 205.851 C 108.472 205.851,108.327 205.985,108.327 206.148 C 108.327 206.311,107.787 206.531,107.127 206.636 C 106.467 206.742,105.926 206.946,105.926 207.090 C 105.926 207.431,103.311 207.432,103.100 207.091 C 103.012 206.948,102.419 206.747,101.784 206.646 C 100.549 206.448,97.224 203.594,97.224 202.732 C 97.224 202.495,97.056 202.244,96.849 202.175 C 96.098 201.923,96.351 195.916,97.149 195.060 C 97.521 194.662,97.824 194.226,97.824 194.091 C 97.824 193.706,100.008 191.748,100.438 191.748 C 100.651 191.748,100.825 191.622,100.825 191.469 C 100.825 190.732,106.162 190.649,107.682 191.361 M270.668 193.548 C 270.668 194.209,270.803 194.749,270.968 194.749 C 271.133 194.749,271.268 195.221,271.268 195.799 C 271.268 196.377,271.386 196.849,271.530 196.849 C 271.673 196.849,271.878 197.389,271.983 198.050 C 272.089 198.710,272.309 199.250,272.472 199.250 C 272.635 199.250,272.768 199.452,272.768 199.700 C 272.768 199.947,272.903 200.150,273.068 200.150 C 273.233 200.150,273.368 200.346,273.368 200.587 C 273.368 200.827,273.706 201.361,274.119 201.773 C 274.531 202.186,274.869 202.644,274.869 202.791 C 274.869 203.185,275.741 204.081,277.269 205.258 C 278.012 205.829,278.665 206.399,278.720 206.524 C 278.775 206.649,279.011 206.752,279.245 206.752 C 279.479 206.752,279.670 206.887,279.670 207.052 C 279.670 207.250,268.067 207.352,245.461 207.352 C 226.647 207.352,211.253 207.275,211.253 207.180 C 211.253 206.860,212.028 206.232,212.677 206.026 C 213.032 205.913,213.404 205.565,213.503 205.251 C 213.603 204.938,213.940 204.601,214.254 204.501 C 214.567 204.402,214.904 204.064,215.004 203.751 C 215.103 203.438,215.417 203.108,215.700 203.018 C 215.984 202.928,216.471 202.381,216.782 201.802 C 217.094 201.224,217.452 200.750,217.578 200.750 C 217.704 200.750,217.902 200.311,218.018 199.775 C 218.135 199.239,218.314 198.732,218.417 198.650 C 218.944 198.228,219.423 196.904,219.572 195.462 C 219.664 194.575,219.855 193.848,219.997 193.848 C 220.139 193.848,220.255 193.511,220.255 193.098 L 220.255 192.348 245.461 192.348 L 270.668 192.348 270.668 193.548 M102.326 194.149 C 102.326 194.314,102.129 194.449,101.889 194.449 C 101.324 194.449,99.925 195.847,99.925 196.413 C 99.925 196.653,99.790 196.849,99.625 196.849 C 99.456 196.849,99.325 197.699,99.325 198.800 C 99.325 199.900,99.456 200.750,99.625 200.750 C 99.790 200.750,99.925 200.957,99.925 201.210 C 99.925 201.874,101.899 203.751,102.598 203.751 C 102.924 203.751,103.274 203.886,103.376 204.051 C 103.478 204.216,103.883 204.351,104.276 204.351 C 104.669 204.351,105.074 204.216,105.176 204.051 C 105.278 203.886,105.613 203.751,105.920 203.751 C 106.726 203.751,108.300 202.789,108.498 202.176 C 108.591 201.887,108.794 201.650,108.947 201.650 C 109.101 201.650,109.227 201.313,109.227 200.900 C 109.227 200.488,109.362 200.150,109.527 200.150 C 109.692 200.150,109.827 199.618,109.827 198.967 C 109.827 198.317,109.692 197.701,109.527 197.599 C 109.362 197.497,109.227 197.152,109.227 196.832 C 109.227 196.511,109.124 196.249,108.998 196.249 C 108.872 196.249,108.636 195.953,108.473 195.592 C 107.862 194.235,102.326 192.935,102.326 194.149 M105.326 196.517 C 105.326 196.664,105.664 196.869,106.077 196.972 C 106.616 197.108,106.827 197.363,106.827 197.880 C 106.827 198.276,106.995 198.678,107.202 198.775 C 107.502 198.915,107.502 198.985,107.202 199.125 C 106.995 199.221,106.827 199.491,106.827 199.725 C 106.827 201.422,103.840 201.928,102.525 200.453 C 101.507 199.310,101.514 198.426,102.551 197.217 C 103.345 196.291,105.326 195.791,105.326 196.517 " stroke="none" fill="#040404" fill-rule="evenodd"></path><path id="path1" d="" stroke="none" fill="#080404" fill-rule="evenodd"></path></g></svg>